<?xml version="1.0" encoding="UTF-8" standalone="no"?>
<!DOCTYPE svg PUBLIC "-//W3C//DTD SVG 1.1//EN" "http://www.w3.org/Graphics/SVG/1.1/DTD/svg11.dtd">
<svg xmlns="http://www.w3.org/2000/svg">
<metadata>
This is a custom SVG webfont generated by Font Squirrel.
Copyright   :  1996 2001 Adobe Systems Incorporated All Rights Reserved
Designer    : Robert Slimbach
Foundry URL : httpwwwadobecomtype
</metadata>
<defs>
<font id="CronosProRegular" horiz-adv-x="948">
<font-face units-per-em="2048" ascent="1597" descent="-451"/>
<missing-glyph horiz-adv-x="434"/>
<glyph unicode=" " horiz-adv-x="434"/>
<glyph unicode="	" horiz-adv-x="434"/>
<glyph unicode=" " horiz-adv-x="434"/>
<glyph unicode="!" horiz-adv-x="376" d="M76 88q0 49 31.5 82t87.5 33h2q45 0 72.5 -33t27.5 -78q0 -51 -32 -83t-83 -32q-41 0 -73.5 30t-32.5 81zM100 1192q4 16 64.5 33.5t97.5 17.5h2q18 0 25.5 -10t7.5 -41q0 -66 -19.5 -359.5t-25.5 -359.5q-4 -39 -33 -55q-57 -20 -76 -21q-8 84 -24.5 386.5t-18.5 408.5z "/>
<glyph unicode="&quot;" horiz-adv-x="602" d="M70 1335q63 45 123 45h2q53 0 49 -110q-4 -178 -51 -312q-10 -16 -40 -31.5t-61 -17.5q5 279 -22 426zM362 1335q63 45 121 45h2q53 0 50 -110q-4 -188 -52 -312q-10 -16 -39.5 -31.5t-58.5 -17.5q4 279 -23 426z"/>
<glyph unicode="#" d="M45 485q8 45 33 86h160l59 273h-145q-23 0 -29 6t-2 22q12 55 33 89h168l55 243q43 25 94 25q20 0 12 -31l-51 -237h189l53 243q6 6 37.5 15.5t56.5 9.5q18 0 12 -31l-51 -237h123q35 0 29 -35q-14 -57 -33 -82h-143l-58 -273h141q35 0 29 -28q-12 -63 -33 -88h-166 l-57 -303q-25 -25 -92 -25q-23 0 -14 31l61 297h-197l-61 -301q-6 -27 -29 -27q-27 0 -79 37l63 291l-137 2q-20 0 -27.5 6t-3.5 22zM346 571h193l57 273h-190z"/>
<glyph unicode="$" d="M124 148.5q3 37.5 19 56.5q10 16 27 6q131 -94 276 -94q100 0 159 48t59 134q0 68 -54.5 117t-185.5 123q-135 78 -196.5 150.5t-61.5 180.5q0 139 97 217t194 87l16 110q6 41 35 49q41 12 98 13l-20 -168q59 -2 123.5 -28t97.5 -56q-2 -35 -24.5 -61.5t-53.5 -24.5 q-111 59 -203 59q-86 0 -141 -46t-55 -120q0 -72 50 -119t171 -116q12 -6 18 -11q145 -86 189 -133q74 -78 73 -190q0 -152 -98 -230.5t-219 -93.5l-16 -151q-2 -31 -41 -39q-55 -10 -95 -8l21 190q-150 10 -248 92q-14 19 -11 56.5z"/>
<glyph unicode="%" horiz-adv-x="1392" d="M68 887q0 135 72.5 240.5t209.5 105.5h2q133 0 201 -95.5t68 -242.5q0 -139 -73 -239.5t-204 -100.5q-121 0 -198.5 85t-77.5 247zM207 891q0 -104 34.5 -175t102.5 -71t102.5 68.5t34.5 183.5q0 94 -31.5 169t-105.5 75h-2q-66 0 -100.5 -68.5t-34.5 -181.5zM264 0 q670 1085 778 1268q12 23 41 -2q35 -23 43 -56q-27 -43 -304 -496.5t-470 -760.5q-23 -35 -45 -12q-31 20 -43 59zM772 305q0 139 75 243.5t212 104.5h2q133 0 198.5 -97t65.5 -245q0 -137 -72.5 -236.5t-201.5 -99.5q-119 0 -199 80t-80 250zM911 307q0 -102 35 -170.5 t105 -68.5q135 0 135 245q0 248 -137 248h-2q-63 0 -99.5 -72.5t-36.5 -181.5z"/>
<glyph unicode="&amp;" horiz-adv-x="1331" d="M86 317q0 78 42 148t83 103.5t113 84.5q14 10 20 15q-135 131 -135 284q0 133 89 219t224 86q125 0 207 -68.5t82 -201.5q0 -25 -5 -47t-10 -40.5t-20 -40.5l-22 -34q-8 -12 -31 -32.5t-30 -27.5t-34.5 -27.5t-34 -24.5t-36 -23.5t-31.5 -21.5q205 -193 299 -277 q184 338 211 379q47 70 82 70q63 0 108 -49v-9q-102 -106 -313 -475q246 -225 307 -293v-8q-74 -35 -157 -35q-35 0 -78 41q-61 61 -174 166q-160 -203 -381 -203q-170 0 -272.5 92t-102.5 250zM258 342q0 -100 70.5 -166.5t173.5 -66.5h2q154 0 258 147q-260 246 -348 340 q-156 -113 -156 -254zM362 969q0 -119 127 -232q172 119 173 250q0 76 -43.5 120t-104.5 44q-70 0 -111 -49t-41 -131v-2z"/>
<glyph unicode="'" horiz-adv-x="311" d="M68 1335q68 45 127 45h2q51 0 47 -110q-2 -74 -18.5 -169t-35.5 -145q-27 -43 -100 -47q9 270 -22 426z"/>
<glyph unicode="(" horiz-adv-x="667" d="M117 502v2q0 303 106.5 539.5t290.5 390.5q25 -6 45.5 -38t15.5 -59q-313 -319 -313 -813q0 -522 313 -811q-8 -35 -33.5 -62.5t-45.5 -27.5q-174 111 -276.5 357t-102.5 522z"/>
<glyph unicode=")" horiz-adv-x="667" d="M104 -281q311 317 312 813q0 522 -312 811q8 37 32 64t46 27q154 -96 266.5 -339t112.5 -538v-2q0 -600 -395 -932q-27 10 -46.5 38.5t-15.5 57.5z"/>
<glyph unicode="*" horiz-adv-x="718" d="M72 936q-10 31 16 47l209 68l-182 98q-41 20 -23 55q23 39 68 70l180 -172v256q39 10 82 2q51 -4 41 -41l-55 -213l198 133q37 -29 47 -78q10 -43 -32 -55l-187 -62l195 -102q39 -23 18 -61q-16 -37 -63 -68l-193 174l4 -248q-33 -10 -96 2q-37 6 -23 68l50 186 l-205 -143q-39 25 -49 84z"/>
<glyph unicode="+" horiz-adv-x="1171" d="M125 455q4 121 65 120h328v211q0 113 -6 168l88 11q31 4 41 -10.5t10 -61.5v-318h393q-2 -61 -16 -90.5t-51 -29.5h-326v-375q0 -49 -78 -57l-55 -5v437h-393z"/>
<glyph unicode="," horiz-adv-x="356" d="M-33 -213q131 166 131 346q0 27 -10 84q76 45 129 45h2q59 0 60 -119q0 -86 -57.5 -184t-123.5 -143q-43 -33 -131 -29z"/>
<glyph unicode="-" horiz-adv-x="614" d="M68 383q10 55 31.5 95t39.5 42q254 37 404 76l4 -6q-25 -133 -115 -154q-59 -20 -179 -40.5t-181 -20.5z"/>
<glyph unicode="." horiz-adv-x="356" d="M66 90q0 51 31.5 86t86.5 35h2q45 0 75 -34t30 -81q0 -53 -32 -86t-85 -33q-41 0 -74.5 30t-33.5 83z"/>
<glyph unicode="/" horiz-adv-x="724" d="M82 -193l422 1446q8 31 21.5 43.5t49.5 14.5l78 2l-411 -1432q-12 -43 -26.5 -56t-43.5 -15z"/>
<glyph unicode="0" d="M61 604q0 111 20.5 213.5t67 199.5t132.5 156.5t202 59.5h2q100 0 176 -44t117 -107.5t66.5 -153.5t33 -165t7.5 -157q0 -315 -108.5 -473t-305.5 -158q-176 0 -293 146.5t-117 482.5zM244 610q0 -274 69.5 -397t167.5 -123q221 0 221 531q0 96 -10 178t-34.5 157.5 t-70.5 118.5t-112 43h-2q-96 0 -162.5 -125t-66.5 -383z"/>
<glyph unicode="1" d="M162 956l45 109q332 119 436 168l19 -12q0 -66 2 -576t2 -596q0 -29 -9.5 -39t-35.5 -14q-90 -8 -138 -8q0 2 1 375.5t1 689.5q-121 -49 -319 -103z"/>
<glyph unicode="2" d="M78 1055q66 84 165 131t203 47q164 0 254.5 -99.5t90.5 -256.5q0 -141 -109 -306q-100 -158 -377 -440q236 -16 567 0q-6 -35 -32.5 -69.5t-48.5 -43.5q-41 -27 -209 -26q-387 0 -494 20l-6 15l37 77q270 281 378.5 448t108.5 304q0 115 -56 176.5t-153 61.5 q-121 0 -235 -103q-47 -37 -70 6q-14 21 -14 58z"/>
<glyph unicode="3" d="M94 106l4 5q117 -49 248 -50q170 0 244 77t74 198q0 109 -77 167t-220 58q-18 0 -117 -12l-6 6q16 68 53 104q295 59 295 261q0 80 -50 129t-139 49q-109 0 -206 -78q-45 -39 -66 -4q-18 27 -14 67q43 57 138 103.5t187 46.5q94 0 164 -29.5t103.5 -75t49 -88.5t15.5 -82 q0 -190 -223 -292q305 -61 305 -318q0 -188 -138 -298.5t-356 -110.5q-156 0 -225 53q-47 48 -43 114z"/>
<glyph unicode="4" d="M43 436q86 152 275.5 416t265.5 340q90 72 213 88l4 -10q-352 -406 -582 -801q178 -20 365 -18l6 340q76 37 158 43l10 -7v-376q47 0 145 8l2 -4q-23 -78 -71 -113q-14 -4 -46 -10l-30 -4v-279q0 -41 -47 -51q-53 -10 -138 -10q8 328 9 340q-342 0 -486 28 q-12 6 -31.5 34t-21.5 46z"/>
<glyph unicode="5" d="M111 649q18 113 62 312.5t63 246.5q68 0 279.5 11.5t256.5 19.5l4 -8q-16 -80 -53 -111q-29 -25 -101.5 -33t-291.5 -18q-45 -162 -66 -313q184 -29 264 -51q166 -45 246 -128t80 -221q0 -186 -143.5 -301.5t-352.5 -115.5q-147 0 -194 38q-41 35 -45 109l6 4 q98 -33 207 -33q143 0 239.5 69t96.5 208q0 96 -56.5 150.5t-167.5 84.5q-123 35 -319 58z"/>
<glyph unicode="6" d="M55 479q0 299 199 527q121 139 269.5 204.5t238.5 65.5q80 0 106 -74l-2 -4q-293 -55 -450 -229q-174 -193 -174 -492q0 -190 72.5 -288.5t183.5 -98.5q90 0 152.5 68.5t62.5 197.5q0 135 -64.5 193.5t-152.5 58.5t-187 -63q-2 25 9.5 59.5t29.5 50.5q98 82 227 82 q113 0 188 -58t101.5 -132t26.5 -154q0 -176 -112.5 -297t-303.5 -121q-176 0 -298 122t-122 382z"/>
<glyph unicode="7" d="M74 1108q2 23 28.5 60.5t55.5 56.5q27 -16 170 -17h542l9 -8q-18 -211 -220 -639t-292 -526q-37 -41 -103 -58q-55 -8 -98 -8l-4 11q141 174 310 510.5t233 578.5q-41 0 -204 -1t-288 -1q-55 0 -88 5t-43 14.5t-8 21.5z"/>
<glyph unicode="8" d="M72 283q0 104 63.5 173.5t194.5 147.5q-209 111 -209 303q0 133 100.5 229.5t263.5 96.5h2q150 0 243 -80t93 -211q0 -100 -54 -165.5t-161 -139.5q143 -76 206 -141.5t63 -184.5q0 -141 -115 -238.5t-297 -97.5q-111 0 -191.5 31t-122.5 80t-60.5 98.5t-18.5 98.5z M244 299q0 -96 68.5 -154.5t164.5 -58.5h2q94 0 157.5 53.5t63.5 149.5q0 74 -59 129t-213 129q-184 -113 -184 -248zM283 936q0 -80 52 -134t177 -114q156 104 156 240q0 88 -52.5 142t-142.5 54h-2q-78 0 -133 -50t-55 -138z"/>
<glyph unicode="9" d="M61 825q0 162 112 285t300 123q106 0 186 -44t127.5 -119t70 -163t22.5 -188q0 -350 -234 -578q-106 -104 -228 -153t-188 -49q-43 0 -63 14q-35 23 -45 67l2 7q246 39 397 196q172 180 172 504q0 174 -62.5 282.5t-174.5 108.5q-98 0 -155.5 -77.5t-57.5 -188.5 q0 -127 64.5 -190.5t162.5 -63.5q66 0 137 33q4 -66 -37 -105q-53 -53 -176 -53q-154 0 -243 100t-89 252z"/>
<glyph unicode=":" horiz-adv-x="356" d="M66 739q0 51 29.5 85t84.5 34h2q47 0 76 -32.5t29 -82.5q0 -53 -31 -85.5t-80 -32.5q-43 0 -76.5 29.5t-33.5 84.5zM68 90q0 53 32.5 87t85.5 34h2q45 0 75 -34t30 -81q0 -53 -32 -86t-85 -33q-41 0 -74.5 30t-33.5 83z"/>
<glyph unicode=";" horiz-adv-x="356" d="M-33 -213q131 168 131 346q0 27 -10 84q76 45 127 45h2q61 0 62 -119q0 -86 -57.5 -183t-123.5 -144q-43 -33 -131 -29zM66 737.5q0 53.5 30.5 87t87.5 33.5h2q45 0 73 -33.5t28 -81.5q0 -53 -31 -85.5t-82 -32.5q-41 0 -74.5 29.5t-33.5 83z"/>
<glyph unicode="&lt;" horiz-adv-x="1171" d="M195 444q0 51 22 80l686 412q35 18 55 -14q16 -41 21 -86l-625 -361v-6l625 -358q0 -45 -25 -95q-16 -29 -51 -8l-680 398q-28 18 -28 38z"/>
<glyph unicode="=" horiz-adv-x="1171" d="M125 246q4 121 65 121h854q-2 -63 -15 -92t-50 -29h-854zM125 647q4 121 65 121h854q-2 -63 -15 -92t-50 -29h-854z"/>
<glyph unicode="&gt;" horiz-adv-x="1171" d="M195 113l622 358v6l-622 357q0 45 22 94q18 29 53 8l678 -397q29 -12 29 -37q0 -51 -23 -80l-686 -412q-35 -20 -53 17q-14 29 -20 86z"/>
<glyph unicode="?" horiz-adv-x="667" d="M86 1135q106 109 264 108h2q119 0 191.5 -69.5t72.5 -184.5q0 -117 -133 -274q-113 -135 -112 -221q0 -53 20 -95q-20 -25 -63 -24q-37 0 -69 37t-32 106q0 102 101 238q90 117 106 172q6 25 6 47q0 57 -34.5 92t-94.5 35q-98 0 -180 -66h-8q-23 12 -33 41t-4 58zM223 88 q0 49 32 82t87 33h2q43 0 72.5 -33t29.5 -78q0 -51 -31.5 -83t-82.5 -32q-41 0 -75 30t-34 81z"/>
<glyph unicode="@" horiz-adv-x="1523" d="M84 465q0 346 214 566t556 220q262 0 426 -156.5t164 -408.5q0 -217 -121 -360.5t-297 -143.5q-182 0 -143 232q-133 -231 -324 -232q-63 0 -105 60.5t-42 165.5q0 215 129 367.5t338 152.5q70 0 231 -37q-66 -250 -94 -434q-29 -166 67 -166q86 0 161 101.5t75 302 t-136 327.5t-333 127q-287 0 -458 -191.5t-171 -478.5q0 -240 140.5 -387t379.5 -147q188 0 351 114l6 -2q14 -16 9 -55t-32 -57q-139 -115 -387 -115q-262 0 -433 169t-171 466zM561 432q0 -129 68 -129h2q59 0 135 78t125 205q29 74 65 227q-35 14 -96 14 q-141 0 -220 -119.5t-79 -275.5z"/>
<glyph unicode="A" horiz-adv-x="1280" d="M31 12v11q272 590 526 1187l-25 58q90 20 140 20q33 0 47 -35q45 -104 178 -424.5t176 -416.5q168 -385 172 -394v-8q-68 -23 -155 -22q-20 0 -34 12t-28 49q-8 23 -57 139.5t-90 210.5h-512q-145 -336 -170 -387q-12 -25 -45 -24q-70 -1 -123 24zM414 524h426l-95 236 q-45 113 -76.5 189.5t-39.5 97.5q-39 -90 -109.5 -265.5t-105.5 -257.5z"/>
<glyph unicode="B" horiz-adv-x="1038" d="M147 1264q129 29 320 28q129 0 218 -33.5t128 -88t53.5 -100.5t14.5 -95q0 -88 -49.5 -161t-124.5 -118q127 -35 193.5 -118.5t66.5 -192.5q0 -195 -142.5 -300t-367.5 -105q-152 0 -303 34v979q-1 169 -7 271zM332 109q47 -14 133 -15q135 0 220 71t85 206 q0 119 -85 180t-236 61q-76 0 -117 -8v-495zM332 715q70 12 168 12q37 0 78 -2q49 18 85.5 79.5t36.5 145.5q0 102 -64.5 164t-195.5 62q-59 0 -108 -9v-452z"/>
<glyph unicode="C" horiz-adv-x="1198" d="M76 633q0 305 202.5 492.5t509.5 187.5q129 0 234.5 -34t134.5 -69q-2 -43 -29 -70q-23 -24 -49 -24h-8q-131 66 -289 66q-217 0 -363.5 -141.5t-146.5 -397.5q0 -242 144.5 -390.5t406.5 -148.5q164 0 307 62l7 -6q-6 -80 -64 -125q-96 -66 -297 -66q-338 0 -519 180.5 t-181 483.5z"/>
<glyph unicode="D" horiz-adv-x="1329" d="M150 1257q29 8 151.5 21.5t216.5 13.5q182 0 320.5 -42t217.5 -106.5t127 -153.5t63.5 -167t15.5 -164q0 -322 -206 -500.5t-532 -178.5q-186 0 -370 45v993q0 180 -4 239zM334 119q74 -20 201 -21q102 0 191 28t168 89t125 173t46 265q0 242 -142.5 380t-422.5 138 q-98 0 -166 -12v-1040z"/>
<glyph unicode="E" horiz-adv-x="919" d="M147 1251q76 23 160 29h520q-8 -78 -49 -111q-27 -14 -162 -14h-282v-434h477q-12 -78 -41 -101.5t-86 -23.5h-350v-467q57 -16 248 -16q205 0 305 10l2 -4q-23 -94 -94 -123q-53 -8 -248 -8q-279 0 -365 20l-28 39v946q-1 180 -7 258z"/>
<glyph unicode="F" horiz-adv-x="894" d="M147 1251q63 18 172 29h541q-12 -68 -49 -109q-27 -16 -143 -16h-334v-477h489q-6 -76 -37.5 -100.5t-91.5 -24.5h-360q0 -319 6 -549q-49 -16 -150 -16q-37 0 -36 35v1009q-1 145 -7 219z"/>
<glyph unicode="G" horiz-adv-x="1327" d="M76 633q0 305 206.5 492.5t512.5 187.5q158 0 266 -39t149 -78q0 -43 -28 -73q-22 -23 -50 -23q-8 0 -16 2q-139 78 -332 78q-225 0 -368.5 -144.5t-143.5 -390.5q0 -143 47.5 -253.5t126 -174t173 -95.5t200.5 -32q139 0 211 39v231q0 166 -8 234q123 31 155.5 31 t32.5 -56v-469q-59 -51 -143 -84q-141 -47 -281 -47q-141 0 -264 35t-225 109.5t-161.5 208t-59.5 311.5z"/>
<glyph unicode="H" horiz-adv-x="1333" d="M147 -12q6 123 7 374v648q0 203 -7 262q74 16 150 16q23 0 30 -19.5t7 -86.5v-455h665v500q0 31 8.5 40t32.5 13q49 8 146 8q-6 -117 -6 -370v-662q0 -129 6 -252q-70 -16 -156 -16q-31 0 -31 32v588q-61 -6 -288 -6h-377v-553q0 -31 -9.5 -40t-41.5 -13q-52 -8 -136 -8z "/>
<glyph unicode="I" horiz-adv-x="487" d="M147 1272q72 16 154 16q20 0 26.5 -18.5t6.5 -87.5v-926q0 -129 6 -252q-49 -16 -154 -16q-18 0 -25 8t-7 31v985q-1 205 -7 260z"/>
<glyph unicode="J" horiz-adv-x="487" d="M-68 -182l2 6q82 20 125 59t69 139.5t26 282.5v709q0 203 -7 258q98 16 156 16q20 0 25.5 -17.5t5.5 -86.5v-871q0 -207 -31 -317.5t-108 -181.5q-39 -35 -90.5 -57.5t-88.5 -22.5q-29 0 -53.5 25.5t-30.5 58.5z"/>
<glyph unicode="K" horiz-adv-x="1165" d="M147 1272q88 16 156 16q20 0 25.5 -16.5t5.5 -83.5v-539q207 207 618 651q39 0 99 -12q27 -6 35 -15t0.5 -25.5t-29.5 -41.5q-215 -219 -531 -542q111 -133 308.5 -343t310.5 -307v-6q-41 -25 -150 -24q-63 0 -123 65q-88 88 -291.5 307t-246.5 273v-373q0 -129 6 -252 q-57 -16 -152 -16q-20 0 -27 7t-7 28v989q-1 201 -7 260z"/>
<glyph unicode="L" horiz-adv-x="882" d="M147 1272q92 16 156 16q18 0 24.5 -20.5t6.5 -91.5v-1047q51 -16 225 -16q203 0 303 10l2 -4q-14 -94 -90 -123q-53 -8 -237 -8q-248 0 -355 20l-28 39v963q-1 201 -7 262z"/>
<glyph unicode="M" horiz-adv-x="1708" d="M80 6q16 86 97 522.5t130 688.5l-12 49q86 23 158 22q27 -33 104 -223l295 -778q332 823 381 942l-2 37q41 23 143 22q25 0 33 -53l129 -764q61 -356 86 -465q-55 -18 -143 -18q-37 0 -43 41q-29 158 -60 397l-94 616q-37 -98 -168 -440t-203 -534q-16 -43 -53 -56 q-49 -12 -88 -12q-63 199 -367 1038q-25 -172 -91 -570t-74 -450q-8 -31 -35 -30q-92 0 -123 18z"/>
<glyph unicode="N" horiz-adv-x="1355" d="M115 1264v8q72 16 166 16q23 0 51 -35q31 -39 102.5 -138t183 -254.5t193.5 -266.5q197 -272 250 -373q-10 172 -10 430v570q0 53 39 59q82 8 112 8q-6 -133 -6 -377v-907q-12 -8 -55 -19.5t-70 -11.5q-18 0 -35 17q-152 205 -508 698q-162 248 -227 356q10 -244 10 -458 v-529q0 -35 -8 -46t-33 -15q-43 -8 -110 -8q6 123 6 372v834z"/>
<glyph unicode="O" horiz-adv-x="1458" d="M76 625q0 301 177 494.5t478 193.5h2q291 0 470 -188.5t179 -471.5q0 -184 -69.5 -335.5t-221 -250t-360.5 -98.5q-170 0 -301 61.5t-205.5 160t-111.5 209t-37 225.5zM272 643q0 -258 140.5 -407.5t330.5 -149.5q201 0 323 144.5t122 412.5q0 240 -131 396.5t-340 156.5 h-2q-195 0 -319 -147.5t-124 -405.5z"/>
<glyph unicode="P" horiz-adv-x="1007" d="M145 1270q158 23 299 22q229 0 362.5 -97t133.5 -302q0 -129 -65.5 -224.5t-151.5 -135t-172 -39.5q-80 0 -113 22q-16 10 -31.5 41t-13.5 61q41 -12 101 -12q98 0 176 65.5t78 215.5q0 86 -29 145.5t-77 88t-95 39.5t-102.5 11t-110.5 -6v-915q0 -123 6 -246 q-49 -16 -152 -16q-35 0 -34 37v966q-1 185 -9 279z"/>
<glyph unicode="Q" horiz-adv-x="1458" d="M76 627q0 299 178 492.5t479 193.5h2q295 0 471 -189.5t176 -470.5q0 -231 -108.5 -402t-317.5 -241q76 -37 183 -112q223 -154 368 -179v-6q-20 -39 -62 -59.5t-87 -20.5q-84 0 -183.5 53.5t-267.5 172.5q-129 96 -260 112q-268 39 -419.5 215.5t-151.5 440.5zM272 643 q0 -256 141.5 -404.5t331.5 -148.5q203 0 323 142.5t120 410.5q0 242 -129 397.5t-342 155.5h-2q-195 0 -319 -146.5t-124 -406.5z"/>
<glyph unicode="R" horiz-adv-x="1079" d="M147 -12q6 123 7 372v689q0 150 -4 213q143 31 307 30q451 0 450 -364q0 -72 -26.5 -132.5t-70.5 -101.5t-82 -64.5t-77 -39.5q68 -49 197 -258q145 -242 229 -322v-8q-25 -18 -119 -18q-88 0 -163 104q-41 59 -177 287q-61 100 -105 133t-126 33h-55v-496q0 -45 -37 -51 q-58 -6 -148 -6zM332 651q56 -3 99 -3q87 0 124 14q68 23 116 87t48 166q0 135 -76 199t-190 64q-80 0 -121 -9v-518z"/>
<glyph unicode="S" horiz-adv-x="880" d="M66 104q2 57 32 97q55 -43 138 -70t153 -27q111 0 177.5 53.5t66.5 145.5q0 90 -57.5 147.5t-215.5 145.5q-164 90 -218 179t-54 198q0 53 19.5 107.5t62.5 108.5t127 89t197 35h2q70 0 147.5 -25.5t114.5 -62.5q2 -33 -19.5 -65t-54.5 -32q-106 53 -203 54 q-90 0 -153.5 -47.5t-63.5 -137.5q0 -86 54.5 -140t199.5 -138q168 -94 232.5 -174t64.5 -209q0 -168 -123 -267.5t-305 -99.5q-186 0 -285 80q-36 24 -36 55z"/>
<glyph unicode="T" horiz-adv-x="1099" d="M41 1200q20 53 57 90q33 -10 303 -10h689q-2 -43 -25 -79t-47 -46h-375v-901q0 -127 6 -250q-72 -16 -153 -16q-18 0 -25.5 7t-7.5 30v1130h-391q-37 0 -37 23q0 9 6 22z"/>
<glyph unicode="U" horiz-adv-x="1347" d="M139 1272q76 16 152 16q23 0 29 -18.5t6 -91.5v-582q0 -494 358 -494q78 0 135.5 18.5t112.5 70t83.5 160t28.5 270.5v610q0 43 39 49q82 8 123 8q-6 -121 -6 -370v-289q0 -170 -35 -295t-87 -192.5t-129 -108.5t-142.5 -52.5t-144.5 -11.5q-248 0 -382.5 143.5 t-134.5 481.5v416q0 201 -6 262z"/>
<glyph unicode="V" horiz-adv-x="1222" d="M47 1245q90 43 160 43q20 0 34.5 -27.5t57.5 -138.5q29 -80 146.5 -390t195.5 -523q59 162 198.5 527.5t207.5 553.5q74 -4 114 -20q26 -9 26 -38q0 -17 -9 -42q-98 -256 -459 -1133q-23 -49 -43 -59q-33 -23 -123 -23q-16 45 -113.5 298t-137.5 355.5t-116 288 t-139 328.5z"/>
<glyph unicode="W" horiz-adv-x="1806" d="M51 1249q74 39 152 39q23 0 36 -24.5t40 -112.5q201 -655 272 -918q119 420 289 969q-4 39 -11 58q68 29 127 28h2q18 0 39 -49q106 -346 287 -1012q66 207 149 457t129 394.5t66 209.5q47 0 103 -14q25 -6 30 -23q2 -5 2 -13q0 -16 -8 -44q-139 -424 -395 -1122 q-23 -59 -45 -74q-37 -23 -119 -23q-168 608 -289 1024q-33 -111 -142.5 -472t-133.5 -449q-18 -66 -51 -82q-49 -20 -111 -21q-23 70 -95.5 304.5t-109.5 351.5t-98.5 299t-114.5 319z"/>
<glyph unicode="X" horiz-adv-x="1157" d="M25 6v8q209 281 458 629q-174 268 -424 610v4q115 31 166 31q23 0 70 -67q133 -199 301 -435q131 178 326 459q31 43 57 43q57 0 123 -33v-4q-29 -43 -93.5 -129t-165 -221t-167.5 -229q227 -334 457 -660v-6q-70 -25 -164 -24q-37 0 -64 41q-45 66 -157.5 233.5 t-182.5 269.5q-70 -100 -202 -286.5t-156 -223.5q-14 -29 -49 -28q-82 0 -133 18z"/>
<glyph unicode="Y" horiz-adv-x="1136" d="M35 1253v7q94 29 155 28q35 0 93 -90q41 -63 311 -477q260 375 375 567q61 0 114 -16q18 -7 19 -25q0 -20 -23 -53q-276 -406 -397 -565q-20 -31 -20 -82v-297q0 -117 6 -246q-53 -16 -156 -16q-18 0 -24.5 7t-6.5 30v503q0 61 -16 88q-158 258 -430 637z"/>
<glyph unicode="Z" horiz-adv-x="1122" d="M59 51q190 248 419 588t329 516h-592q-57 0 -85 7t-33 16.5t-1 27.5q10 43 62 88q43 -14 151 -14h721q-8 -55 -47 -145q-76 -133 -276.5 -441.5t-384.5 -570.5q127 -8 402 -10q69 -1 126 -1q172 0 242 5l2 -4q-43 -94 -103 -115q-31 -10 -301 -10q-506 0 -598 16 q-31 27 -33 47z"/>
<glyph unicode="[" horiz-adv-x="661" d="M186 -162.5q0 113.5 2 305t2 291.5v2q0 565 19 912q12 6 145 20t193 14q20 -35 20 -84q0 -12 -35 -16q-111 -16 -157 -22q-31 -8 -33 -50q-10 -74 -16 -790q-4 -553 6 -623q6 -39 45 -45q47 -8 149 -20q25 -4 23 -25q-2 -45 -21 -74q-82 0 -161.5 7.5t-124.5 15.5t-49 14 q-7 54 -7 167.5z"/>
<glyph unicode="\" horiz-adv-x="645" d="M80 1253q-6 27 4 40.5t53 15.5l66 4l362 -1432q10 -41 2 -54t-41 -15l-88 -5z"/>
<glyph unicode="]" horiz-adv-x="661" d="M94 -283q0 12 35 17q78 8 158 22q31 6 32 49q10 74 17 791q4 551 -6 621q-6 41 -45 47q-8 2 -34 5t-53.5 6t-60.5 7q-27 4 -24 25q4 51 22 75q82 0 160 -7t122 -15t52 -14q6 -53 6 -167t-2 -305.5t-2 -291.5v-2q0 -551 -18 -912q-8 -8 -141.5 -21.5t-196.5 -13.5 q-21 35 -21 84z"/>
<glyph unicode="^" horiz-adv-x="1171" d="M158 463l344 731q12 29 49 33q66 8 102 6l361 -770q-12 -10 -50 -22.5t-63 -12.5q-18 0 -45 47l-274 612l-279 -626q-14 -33 -37 -33q-16 0 -55 11.5t-53 23.5z"/>
<glyph unicode="_" horiz-adv-x="1024" d="M0 -154h1024v-102h-1024v102z"/>
<glyph unicode="`" horiz-adv-x="819" d="M195 1311q-18 16 8 43q55 47 106 47h2q23 -2 81.5 -109.5t82.5 -183.5q12 -31 -8 -49q-33 -27 -53 -29q-106 164 -219 281z"/>
<glyph unicode="a" horiz-adv-x="878" d="M59 207q0 45 18.5 85t39 66.5t66.5 52t68.5 38t80 30t67 19.5t58.5 14q70 16 102 20v62q0 78 -46 133t-132 55q-96 0 -209 -75q-16 -7 -28 -7q-19 0 -32 15q-22 25 -26 67q59 53 150.5 95.5t185.5 42.5q150 0 227.5 -94.5t77.5 -247.5q0 -25 -3 -182q-2 -94 -2 -157 q0 -42 1 -71q4 -66 66 -66h4q27 0 38 4l3 -4q2 -61 -33 -94t-99 -33q-61 0 -97 37t-46 92q-117 -129 -262 -129q-104 0 -171 68t-67 164zM231 231q0 -55 39 -88.5t97 -33.5q106 0 176 96q14 25 14 67v160q-326 -51 -326 -199v-2z"/>
<glyph unicode="b" horiz-adv-x="1034" d="M133 1362q86 29 152 29q12 0 18 -7.5t9 -37t3 -91.5l-2 -428q156 92 275 93q156 0 269.5 -112t113.5 -321q0 -233 -157 -372.5t-388 -139.5q-156 0 -250 50q-35 20 -35 61v1049q0 145 -8 227zM313 111q53 -20 129 -21q145 0 244.5 97.5t99.5 275.5q0 147 -77.5 232 t-206.5 85q-96 0 -189 -55v-614z"/>
<glyph unicode="c" horiz-adv-x="856" d="M68 434q0 211 141 348.5t352 137.5q92 0 163 -25t95 -51q0 -37 -20 -68q-19 -29 -51 -29q-2 0 -5 1q-90 43 -188 43q-135 0 -220 -93.5t-85 -244.5q0 -96 31.5 -166t83 -107t106.5 -53t113 -16q121 0 217 41l4 -5q-4 -84 -53 -120q-78 -51 -220 -52q-86 0 -162.5 22.5 t-147 72t-112.5 143.5t-42 221z"/>
<glyph unicode="d" horiz-adv-x="1054" d="M68 420q0 219 145 359.5t365 140.5q51 0 157 -27v270q0 117 -8 199q74 29 150 29q12 0 18 -7.5t9 -37t3 -91.5v-1046q0 -70 19.5 -95.5t68.5 -33.5v-6q-6 -35 -34.5 -67t-59.5 -32q-125 0 -147 117q-63 -49 -144.5 -83t-144.5 -34q-170 0 -283.5 118t-113.5 327zM252 442 q0 -150 82 -238.5t207 -88.5q113 0 194 67v590q-51 33 -160 33q-129 0 -226 -92.5t-97 -270.5z"/>
<glyph unicode="e" horiz-adv-x="882" d="M66 432q0 203 115.5 345.5t310.5 142.5q164 0 248.5 -100.5t88.5 -239.5q0 -39 -6 -64q-8 -43 -174 -72q-80 -8 -205 -8q-90 0 -202 4q2 -154 87 -240.5t222 -86.5t229 51l4 -4q0 -45 -24.5 -85t-52.5 -55q-80 -45 -201 -45q-213 0 -326.5 120t-113.5 337zM248 549 q123 -3 215 -3t153 3q43 4 44 51q0 93 -48 152q-49 61 -143 61h-2q-82 0 -144.5 -70.5t-74.5 -193.5z"/>
<glyph unicode="f" horiz-adv-x="540" d="M43 827q31 37 111 70q0 291 145 422q94 84 223 84h2q94 0 127 -45l2 -14q0 -25 -18 -52q-19 -30 -44 -29q-4 0 -9 1q-41 12 -70 12q-185 0 -185 -356q0 -11 1 -23q252 0 276 4q-8 -63 -55 -98q-33 -25 -223 -25q-1 -41 -1 -103q0 -124 3 -333q4 -313 4 -338 q-61 -16 -152 -16q-29 0 -28 35q2 74 2 755q-111 2 -111 49z"/>
<glyph unicode="g" horiz-adv-x="905" d="M41 -176.5q0 110.5 195 217.5q-55 20 -88 64.5t-37 95.5q0 14 16 24q76 47 125 99q-168 78 -168 266q0 143 99.5 236.5t250.5 93.5h2q74 0 156 -21q111 -29 160 -29q90 0 141 19q6 -16 6 -37q0 -86 -104 -96q-16 -2 -66 -2q37 -74 37 -150q0 -150 -97.5 -232.5 t-238.5 -82.5q-55 0 -86 10q-55 -51 -55 -66q0 -59 117 -67q39 -2 124.5 -6t126.5 -8q119 -12 177.5 -76t58.5 -158q0 -160 -139.5 -261t-327.5 -101q-180 0 -282.5 78.5t-102.5 189zM201 -152v-2q0 -78 80.5 -123t187.5 -45q121 0 196.5 52.5t75.5 136.5q0 115 -151 135 q-88 11 -158 11q-20 0 -39 -1q-57 0 -84 -18q-108 -56 -108 -146zM252 600q0 -94 50 -152.5t132 -58.5q84 0 129 61.5t45 151.5q0 92 -44 153.5t-134 61.5h-2q-76 0 -126 -59.5t-50 -157.5z"/>
<glyph unicode="h" horiz-adv-x="1052" d="M133 1362q92 29 152 29q12 0 17 -7.5t8 -37t3 -91.5v-473q158 137 303 138q82 0 142.5 -31t92.5 -86t46 -118.5t14 -141.5v-281q0 -211 4 -258q-78 -16 -149 -16q-29 0 -29 32q0 31 1 220.5t1 289.5q0 131 -53 191.5t-141 60.5q-127 0 -232 -110v-625q0 -27 -8 -38 t-31 -13q-47 -8 -139 -8q6 111 6 377v770q0 145 -8 227z"/>
<glyph unicode="i" horiz-adv-x="452" d="M127 1231q0 49 33 76.5t69 27.5h2q41 0 67 -28.5t26 -71.5t-28 -74t-71 -31t-70.5 27t-27.5 74zM133 889q57 20 152 20q12 0 17 -7t8 -34.5t3 -85.5v-733q0 -27 -9 -37t-34 -14q-29 -6 -135 -10q6 252 6 321v348q0 146 -8 232z"/>
<glyph unicode="j" horiz-adv-x="452" d="M-61 -373l2 6q74 33 114.5 83.5t63 154.5t22.5 285v503q0 143 -8 230q57 20 152 20q12 0 17 -7t8 -34.5t3 -85.5v-639q0 -289 -86 -434q-45 -72 -105.5 -112.5t-98.5 -40.5q-59 -1 -84 71zM127 1227q0 51 33 78.5t69 27.5h2q41 0 67 -29.5t26 -72.5q0 -45 -28 -75 t-71 -30t-70.5 27t-27.5 74z"/>
<glyph unicode="k" horiz-adv-x="925" d="M133 1362q57 29 152 29q12 0 17 -7.5t8 -37t3 -89.5v-784q137 125 432 447q9 1 20 0q39 0 85 -13q20 -6 24.5 -14t-5 -24.5t-38.5 -47.5q-41 -47 -331 -332q63 -86 209.5 -251.5t214.5 -225.5l-2 -6q-45 -23 -127 -22q-70 0 -125 63q-268 283 -357 410v-408 q0 -31 -10 -41t-39 -14q-59 -6 -129 -6q6 123 6 374v773q0 141 -8 227z"/>
<glyph unicode="l" horiz-adv-x="452" d="M133 1362q63 29 152 29q12 0 17 -8.5t8 -36t3 -89.5v-987q0 -154 9 -268q-59 -16 -154 -16q-27 0 -27 26v1125q0 143 -8 225z"/>
<glyph unicode="m" horiz-adv-x="1615" d="M115 842v8q12 23 48 46.5t62 23.5q74 0 88 -154q162 154 308 154q178 0 247 -162q158 162 320 162q150 0 219.5 -100.5t69.5 -258.5v-303q0 -152 8 -254q-115 -16 -154 -16q-27 0 -26 32v523q0 238 -187 237q-106 0 -219 -112v-619q0 -31 -6 -41t-33 -12q-53 -8 -139 -8 q6 111 6 379v176q0 238 -180 237q-113 0 -225 -121v-616q0 -25 -8.5 -34t-30.5 -13q-49 -8 -140 -8q6 111 7 377v350q0 104 -35 127z"/>
<glyph unicode="n" horiz-adv-x="1056" d="M115 840v8q12 25 48 48.5t62 23.5q72 0 88 -152q152 152 303 152q299 0 299 -373v-287q0 -154 9 -256q-115 -16 -152 -16q-31 0 -31 28l2 529q0 117 -50 177t-140 60q-127 0 -231 -123v-612q0 -31 -8.5 -39t-34.5 -12q-14 -2 -136 -8q6 111 7 377v348q0 100 -35 127z"/>
<glyph unicode="o" horiz-adv-x="1028" d="M66 438q0 205 128 343.5t328 138.5h2q207 0 322 -130.5t115 -332.5q0 -209 -124 -345.5t-327 -136.5q-213 0 -328.5 134t-115.5 329zM250 461q0 -178 79 -275.5t197 -97.5q102 0 176 89t74 265q0 154 -68.5 259.5t-199.5 105.5h-2q-109 0 -182.5 -92t-73.5 -254z"/>
<glyph unicode="p" horiz-adv-x="1058" d="M115 840v10q16 27 50 48.5t64 21.5q35 0 56.5 -37t25.5 -99q180 135 318 136q147 0 254.5 -113t107.5 -322q0 -223 -140 -366.5t-343 -143.5q-111 0 -186 52v-404q0 -25 -7.5 -34t-31.5 -17q-66 -8 -140 -8q6 86 7 358v803q0 95 -35 115zM322 139q76 -45 174 -45 q51 0 102 18.5t99 58.5t79 117t31 177q0 139 -70.5 225t-179.5 86q-66 0 -131.5 -31.5t-103.5 -66.5v-539z"/>
<glyph unicode="q" horiz-adv-x="1036" d="M66 420q0 223 148 361.5t370 138.5q117 0 217 -35l94 8h8q0 -4 -4 -159.5t-4 -327.5v-791q0 -29 -13.5 -40t-58.5 -17q-61 -6 -106 -7q6 121 6 365v141q-121 -82 -238 -82q-182 0 -300.5 119t-118.5 326zM250 446q0 -150 83 -241.5t224 -91.5q90 0 166 45v622 q-53 27 -154 27q-125 0 -222 -92.5t-97 -268.5z"/>
<glyph unicode="r" horiz-adv-x="669" d="M102 836v8q10 25 47 50.5t64 25.5q45 0 70.5 -53.5t25.5 -151.5q96 205 248 205q59 0 92 -33q7 -15 7 -31q0 -24 -15 -49q-4 -23 -23.5 -43.5t-35.5 -22.5q-41 16 -82 17q-39 0 -82 -36t-74 -106q-23 -57 -22 -110v-461q0 -45 -37 -49q-66 -8 -142 -8q6 111 7 377v342 q-1 100 -48 129z"/>
<glyph unicode="s" horiz-adv-x="698" d="M66 102q8 55 43 70q104 -72 219 -72q74 0 114.5 34t40.5 89q0 74 -100 125q-23 12 -75 38t-79 40q-145 80 -145 225q0 121 91 195t218 74h2q135 0 207 -70q1 -5 1 -11q0 -26 -16 -52q-19 -32 -52 -29q-74 39 -150 39q-61 0 -100 -32t-39 -85q0 -72 88 -121l74 -37 q74 -37 108 -57q133 -74 133 -207q0 -137 -99 -210t-235 -73q-147 0 -227 68q-24 22 -24 48q1 5 2 11z"/>
<glyph unicode="t" horiz-adv-x="690" d="M59 819q27 55 179 187q49 43 104 51q-8 -131 -8 -160h325q-10 -47 -28.5 -73.5t-33.5 -32t-40 -7.5q-70 -6 -225 -6q-8 -170 -8 -299.5t8 -218.5q12 -154 147 -154q92 0 154 44l4 -5q5 -20 5 -36q0 -48 -38 -78q-66 -55 -192 -56q-131 0 -192.5 73t-61.5 198v530 q-99 0 -99 43z"/>
<glyph unicode="u" horiz-adv-x="1050" d="M133 889q70 20 150 20q18 0 23 -21.5t5 -105.5q2 -135 2 -420q0 -145 56.5 -195t144.5 -50q66 0 124 32.5t87 71.5v606q0 37 6 49.5t27 20.5q111 12 145 12q0 -6 -3 -134t-3 -234v-330q0 -72 18.5 -97.5t63.5 -33.5v-8q-2 -31 -31.5 -64t-60.5 -33q-127 0 -144 146 q-63 -68 -170 -119q-66 -27 -131 -27q-150 0 -225.5 91.5t-75.5 246.5v344q0 142 -8 232z"/>
<glyph unicode="v" horiz-adv-x="886" d="M31 874q25 16 72 31t73 15h2q25 0 43 -43q147 -391 242 -676q27 74 130 346t138 373q55 0 109 -27q21 -13 20 -33q0 -20 -26 -90q-41 -100 -133.5 -325.5t-157.5 -385.5q-25 -53 -54 -63q-47 -16 -108 -21q-10 33 -227 603q-74 190 -123 296z"/>
<glyph unicode="w" horiz-adv-x="1363" d="M33 872q25 16 74 32t75 16h2q27 0 39 -37q104 -322 205 -678q31 92 98.5 292.5t104.5 317.5q-2 23 -13 51q66 33 125 33q16 0 25.5 -17.5t24.5 -66.5q18 -63 78.5 -261t103.5 -341q178 522 233 707q59 0 115 -25q14 -11 14 -36q0 -29 -18 -79q-250 -684 -264 -721 q-18 -55 -58 -67q-49 -12 -104 -17q-45 156 -111.5 373t-87.5 283q-23 -72 -104.5 -308.5t-93.5 -271.5q-18 -47 -47 -57q-63 -16 -107 -19q-12 35 -48 145.5t-73 224.5t-69 212q-74 211 -119 315z"/>
<glyph unicode="x" horiz-adv-x="874" d="M20 2v6q23 33 138.5 191.5t183.5 255.5q-229 336 -295 424v6q20 8 71.5 21.5t80.5 13.5q25 0 61 -54q20 -29 87 -128t104 -152q63 86 204 291q29 43 52 43q57 0 122 -27v-4q-84 -109 -301 -410q41 -63 328 -469v-6q-61 -16 -158 -16q-33 0 -51 28.5t-100 145.5t-125 182 q-205 -293 -229 -330q-18 -27 -48 -26q-68 0 -125 14z"/>
<glyph unicode="y" horiz-adv-x="862" d="M37 872q82 47 143 48q29 0 45 -37q47 -117 240 -662q61 137 133 354.5t100 344.5q59 0 107 -19q28 -12 28 -46q0 -12 -4 -28q-109 -381 -245 -680q-96 -211 -215 -396t-148 -185q-35 0 -70.5 15.5t-50.5 35.5v6q154 186 275 422q-20 29 -45 92q-240 622 -293 735z"/>
<glyph unicode="z" horiz-adv-x="782" d="M33 47q78 106 240.5 353t234.5 378h-332q-66 0 -95.5 10.5t-25.5 32.5q8 53 54 92q31 -16 178 -16h434q-6 -63 -31 -121q-59 -125 -409 -655q87 -7 236 -7h38q176 1 223 9q-14 -74 -55 -103q-35 -27 -264 -26q-319 0 -402 18z"/>
<glyph unicode="{" horiz-adv-x="661" d="M98 596q109 20 147 64.5t38 119.5q0 49 -17.5 173t-17.5 177q0 162 112 242q82 59 195 64q12 -23 12 -70q0 -20 -28 -33q-80 -29 -114 -76t-34 -127q0 -47 19.5 -160.5t19.5 -170.5q0 -170 -143 -230q90 -37 116.5 -96t26.5 -158q0 -78 -21.5 -204.5t-21.5 -180.5 q0 -150 154 -188q27 -8 26 -27v-2q0 -45 -18 -73q-145 4 -226 75.5t-81 210.5q0 55 20.5 200.5t20.5 203.5q0 92 -34 134t-122 50q-14 0 -23.5 26.5t-5.5 55.5z"/>
<glyph unicode="|" horiz-adv-x="577" d="M215 -512v2048h147v-2048h-147z"/>
<glyph unicode="}" horiz-adv-x="661" d="M94 -295q0 20 27 33q80 29 114.5 76t34.5 127q0 45 -20.5 166.5t-18.5 187.5q0 176 144 240q-86 37 -115 99t-29 152q0 61 21.5 182.5t21.5 180.5q0 139 -151 182q-29 8 -29 25v2q0 51 21 76q145 -4 226 -76t81 -211q0 -59 -21.5 -196.5t-21.5 -180.5q0 -88 35 -129 t121 -49q14 -2 22 -28.5t6 -53.5q-109 -20 -146.5 -64.5t-37.5 -119.5q0 -47 18.5 -184.5t16.5 -198.5q0 -162 -111 -242q-86 -59 -197 -63q-12 18 -12 67z"/>
<glyph unicode="~" horiz-adv-x="1171" d="M117 354q29 371 270 371h2q68 0 119 -30.5t117 -98.5q47 -49 69.5 -71.5t56 -43t62.5 -20.5q53 0 81 48t38 177q4 31 29 31q59 0 92 -37q-10 -354 -242 -354q-72 0 -129 40t-137 123q-98 104 -160 105q-53 0 -86 -50t-51 -173q-8 -41 -47 -41q-43 -1 -84 24z"/>
<glyph unicode="¡" horiz-adv-x="376" d="M82 -293q0 66 19.5 356.5t25.5 362.5q2 39 33 51q63 23 76 23q37 -557 43 -797q-6 -16 -62.5 -32.5t-93.5 -16.5h-2q-39 0 -39 53zM82 805q0 51 31.5 83t83.5 32q43 0 74.5 -31t31.5 -80t-31.5 -82t-87.5 -33h-2q-43 0 -71.5 33t-28.5 78z"/>
<glyph unicode="¢" d="M127 604q0 109 39 192t102.5 129t117.5 69.5t112 35.5l10 100q4 27 19.5 38.5t60.5 13.5l53 4l-16 -152q135 -12 188 -69q2 -33 -19.5 -60.5t-54.5 -25.5q-74 37 -149 36q-100 0 -167 -51t-89.5 -112.5t-22.5 -124.5q0 -150 87 -223.5t202 -73.5q109 0 205 39 q-8 -96 -64 -129q-66 -35 -170 -35l-16 -127q-4 -29 -15.5 -41t-41.5 -14l-82 -7l24 199q-35 8 -68.5 20.5t-80.5 42t-81 69.5t-58.5 106.5t-24.5 150.5z"/>
<glyph unicode="£" d="M57 25l2 24q166 158 162 512q-92 0 -119 27q12 35 40 54.5t85 37.5q8 299 103.5 437t285.5 138q115 0 183 -63q4 -29 -17.5 -61.5t-50.5 -26.5q-57 27 -115 26q-63 0 -105 -31.5t-63.5 -97t-30.5 -138t-11 -183.5q336 0 366 4q-20 -113 -94 -121q-14 -2 -281 -2 q-6 -295 -149 -442q61 -27 178 -48.5t201 -21.5q162 0 245 31l7 -6q-12 -74 -68 -121q-61 -37 -201 -37q-219 0 -553 109z"/>
<glyph unicode="¤" d="M51 190q74 84 115 146q-98 98 -98 264q0 133 96 248q-10 12 -34 37.5t-42 46.5q-33 37 -10 72q29 55 63 49q12 -12 55.5 -59.5t63.5 -69.5q94 57 205 57h2q131 0 203 -59q72 74 118 137q59 -39 60 -86q0 -6 -2 -13.5t-8.5 -17.5t-12.5 -17t-16 -20.5t-17.5 -20.5 t-22.5 -23.5t-21 -24.5q66 -90 65 -218q0 -158 -88 -249q23 -27 56.5 -64t50 -56.5t22.5 -31.5q-6 -27 -31.5 -54.5t-42.5 -27.5q-6 0 -14 7.5t-22.5 22.5t-30 31.5t-40 45t-44.5 51.5q-82 -59 -203 -60q-94 0 -160 37q-4 -6 -19.5 -25.5t-31.5 -41t-33 -39.5 q-39 -47 -78 -29q-47 20 -53 55zM209 608q0 -123 62.5 -196.5t170.5 -73.5q106 0 168 77t62 197q0 119 -62.5 192t-171.5 73h-2q-102 0 -164.5 -78t-62.5 -191z"/>
<glyph unicode="¥" d="M27 1186v8q90 20 159 20q18 0 35 -20q76 -141 252 -455q39 66 100.5 174.5t106.5 187.5t65 111q57 4 113 -8q37 -8 19 -30q-18 -29 -132 -212.5t-184 -291.5h254q-2 -33 -21.5 -66t-45.5 -33h-213v-159h251q0 -35 -18 -67t-47 -32h-186v-313q-61 -14 -136 -14 q-18 0 -27.5 7t-9.5 30v290h-260q0 23 7.5 58t15.5 41h237v159h-270q0 23 8.5 58t16.5 41h225q-245 410 -315 516z"/>
<glyph unicode="¦" horiz-adv-x="577" d="M215 -358v716h147v-716h-147zM215 666v716h147v-716h-147z"/>
<glyph unicode="§" horiz-adv-x="903" d="M76 764v2q0 221 207 385q98 135 264 135q96 0 145 -43q16 -23 7 -49.5t-29 -44.5q-59 35 -131 35q-152 0 -152 -125q0 -41 38 -98.5t72.5 -92t102.5 -100.5q80 -80 119 -128t71.5 -129t32.5 -173q-2 -238 -211 -426q-39 -68 -111.5 -104.5t-160.5 -36.5q-98 0 -135 32 q-20 14 -29.5 46t0.5 67q70 -37 168 -37q76 0 122 37t46 98q0 25 -12.5 54.5t-26.5 54t-44 60.5t-47 55.5t-53 58.5t-46 49q-100 115 -153.5 208t-53.5 210zM199 815q-2 -94 50 -183t144 -190q80 -84 120 -131t79 -117.5t41 -134.5q72 104 72 220v2q0 102 -49.5 185 t-139.5 177q-10 10 -45 47t-49 52.5t-44 49t-43 57t-30.5 55.5t-26 62.5t-8.5 61.5q-67 -88 -71 -213z"/>
<glyph unicode="¨" horiz-adv-x="819" d="M139 1192q0 45 27 73.5t74 28.5h2q37 0 62.5 -28.5t25.5 -67.5q0 -49 -27 -75.5t-72 -26.5q-37 0 -64.5 24.5t-27.5 71.5zM489 1192q0 45 27 73.5t74 28.5h2q37 0 62.5 -28.5t25.5 -67.5q0 -47 -26.5 -74.5t-71.5 -27.5q-37 0 -65 25.5t-28 70.5z"/>
<glyph unicode="©" horiz-adv-x="1392" d="M76 647.5q0 282.5 179 463.5t445 181h2q270 0 442.5 -186t172.5 -459q0 -283 -177 -463t-440 -180q-266 0 -445 180.5t-179 463zM186 647q0 -236 145.5 -397.5t373.5 -161.5q221 0 361 161t140 400q0 231 -138 395t-366 164h-2q-225 0 -369.5 -161.5t-144.5 -399.5z M389 645q0 150 102.5 245t262.5 95q63 0 121.5 -19.5t74.5 -37.5q0 -29 -16 -51q-18 -25 -47 -11q-74 29 -146 29q-90 0 -159.5 -62.5t-69.5 -177t67.5 -181t192.5 -66.5q90 0 164 30l4 -4q-4 -55 -41 -86q-68 -37 -162 -37q-158 0 -253 91t-95 243z"/>
<glyph unicode="ª" horiz-adv-x="653" d="M57 715q0 150 277 203q18 4 41.5 9t27.5 5v29q0 109 -106 108q-68 0 -143 -55q-51 -29 -70 30l-10 27q31 35 105.5 67.5t146.5 32.5q109 0 163 -57t54 -153q0 -27 -2 -124.5t-2 -127.5q6 -47 45 -47q23 0 43 6v-35q-14 -68 -103 -68q-92 0 -114 72q-76 -72 -177 -74 q-78 -2 -127 41t-49 111zM201 735q0 -33 24.5 -53t59.5 -20q78 0 106 61q12 23 12 49v82q-82 -10 -142 -39t-60 -78v-2z"/>
<glyph unicode="«" horiz-adv-x="1169" d="M98 477q172 160 314 381q18 -6 38.5 -30.5t20.5 -47.5v-2q0 -31 -71.5 -139.5t-125.5 -179.5q182 -274 183 -328q2 -25 -19.5 -49.5t-44.5 -28.5q-135 227 -282 375q-13 22 -13 49zM471 477q174 168 332 410q59 -41 61 -90q0 -61 -217 -338q49 -63 127 -188.5t78 -157.5 v-2q0 -25 -22.5 -48.5t-49.5 -33.5q-119 213 -291 395q-18 24 -18 53z"/>
<glyph unicode="¬" horiz-adv-x="1171" d="M127 627q2 63 15.5 92t47.5 29h836l18 -21v-506q0 -16 -8 -28.5t-17 -18.5t-26.5 -10t-28 -4t-30 -1t-23.5 -1v469h-784z"/>
<glyph unicode="­" horiz-adv-x="614" d="M68 383q10 55 31.5 95t39.5 42q254 37 404 76l4 -6q-25 -133 -115 -154q-59 -20 -179 -40.5t-181 -20.5z"/>
<glyph unicode="®" horiz-adv-x="645" d="M61 1046.5q0 112.5 72 189.5t189 77h2q115 0 188.5 -76t73.5 -190q0 -113 -73 -188t-191 -75q-117 0 -189 75t-72 187.5zM127 1049q0 -94 54.5 -153.5t142.5 -59.5q84 0 140 59t56 154q0 90 -56 150.5t-145 60.5h-2q-82 0 -136 -61.5t-54 -149.5zM223 915v261q49 8 90 8 q113 0 113 -80q0 -49 -55 -66q74 -111 78 -114v-6q-25 -4 -41 -5q-23 0 -37 19q-18 25 -43 67q-12 20 -45 19v-76q0 -23 -17 -24q-10 -3 -43 -3zM283 1057q33 0 49 4q31 8 30 41q0 41 -49 41q-25 0 -30 -2v-84z"/>
<glyph unicode="¯" horiz-adv-x="819" d="M186 1141q0 23 11.5 57.5t19.5 40.5h393q25 0 25 -20.5t-13.5 -55.5t-25.5 -49h-383q-27 0 -27 27z"/>
<glyph unicode="°" horiz-adv-x="593" d="M66 997q0 98 65.5 167t165.5 69h2q102 0 164.5 -66.5t62.5 -165.5q0 -104 -66.5 -167.5t-176.5 -63.5q-84 0 -150.5 60.5t-66.5 166.5zM184 999q0 -61 34 -97t79 -36q57 0 85 37t28 94q0 55 -30 96.5t-85 41.5h-2q-49 0 -79 -39.5t-30 -96.5z"/>
<glyph unicode="±" horiz-adv-x="1171" d="M125 631q4 121 68 121h325v215q0 82 -6 135l92 12q31 4 39 -12.5t8 -59.5v-290h393q-2 -61 -16 -91t-51 -30h-326v-344q0 -51 -78 -60l-55 -4v408h-393zM127 0q4 121 66 121h854q-4 -121 -68 -121h-852z"/>
<glyph unicode="²" horiz-adv-x="606" d="M51 897q14 29 35 74q90 74 131 110.5t89 104t48 123.5q0 53 -31.5 82.5t-82.5 29.5q-100 0 -172 -67l-7 4q2 43 21 92q82 86 207 86q102 0 161.5 -56.5t59.5 -150.5q0 -27 -8 -54.5t-18.5 -49t-33 -49t-35 -43t-44 -44t-41.5 -36.5l-46 -37q-36 -29 -38 -31q139 -6 311 6 q-10 -72 -61 -102q-51 -14 -174 -15q-203 0 -267 13z"/>
<glyph unicode="³" horiz-adv-x="606" d="M66 934l4 6q59 -23 133 -22q92 0 138 34.5t46 91.5q0 106 -139 107q-45 0 -88 -8l-8 8q29 63 34 74q86 12 129 38.5t43 79.5q0 41 -29.5 65t-74.5 24q-74 0 -148 -62q-25 25 -24 49q0 18 22 41q27 27 79.5 50.5t111.5 23.5q88 0 143.5 -44t55.5 -118q0 -55 -28 -88 t-79 -61q150 -35 150 -170q0 -104 -91.5 -167t-216.5 -63q-94 0 -133 31q-30 31 -30 80z"/>
<glyph unicode="´" horiz-adv-x="819" d="M346 1059q-16 16 2 55q121 283 166 283h2q57 0 109 -47q16 -16 -7 -41q-63 -72 -219 -283q-22 6 -53 33z"/>
<glyph unicode="µ" horiz-adv-x="1050" d="M127 -346l18 645v352q0 139 -8 234q68 23 152 22q12 0 17 -7t8 -35.5t3 -88.5v-436q0 -221 187 -221q72 0 131 35.5t88 85.5v581q0 41 6 53.5t27 18.5q96 14 145 14q0 -8 -3 -137t-3 -233v-324q0 -121 100 -131v-8q-4 -35 -31.5 -67t-66.5 -32q-61 0 -102 38t-52 102 q-131 -137 -272 -138q-133 0 -186 93l12 -512h-84q-61 8 -74.5 24.5t-11.5 71.5z"/>
<glyph unicode="¶" horiz-adv-x="1015" d="M90 743q0 193 123 305.5t313 112.5h203h215l2 -8q-29 -53 -57 -88q-18 -2 -65.5 -6t-63.5 -6v-627q0 -246 -27.5 -361.5t-103.5 -187.5q-96 -92 -248 -92q-94 0 -161.5 37t-69.5 72q-2 18 11 45.5t23 37.5q90 -78 203 -77q129 0 182.5 101t53.5 318v99l-119 -37 q-43 -12 -74 -12q-139 0 -239.5 107t-100.5 267z"/>
<glyph unicode="·" horiz-adv-x="356" d="M66 483q0 53 31.5 88t86.5 35h2q45 0 75 -33.5t30 -80.5q0 -55 -32 -89t-83 -34q-43 0 -76.5 29.5t-33.5 84.5z"/>
<glyph unicode="¸" horiz-adv-x="821" d="M268 -403q0 18 19 22q147 37 147 107q0 39 -47 59t-111 16v27l130 180h114l-80 -114q61 -16 96 -57.5t35 -96.5q0 -82 -78.5 -137.5t-175.5 -65.5q-20 4 -34.5 24t-14.5 36z"/>
<glyph unicode="¹" horiz-adv-x="606" d="M117 1360l30 82q168 41 279 94l12 -6q-10 -227 -6 -621q0 -33 -47 -35l-98 -8q6 86 6 523q-59 -20 -172 -35z"/>
<glyph unicode="º" horiz-adv-x="733" d="M51 858q0 141 91 227t229 86h2q141 0 224 -82.5t83 -216.5q0 -141 -89 -225t-229 -84q-147 0 -229 87t-82 208zM205 870q0 -102 49 -155t115 -53q68 0 112.5 53t44.5 155q0 86 -42 144.5t-122 58.5h-2q-66 0 -110.5 -55.5t-44.5 -147.5z"/>
<glyph unicode="»" horiz-adv-x="1169" d="M305 117q0 63 217 340q-49 66 -127 189.5t-78 158.5v2q0 23 22.5 47.5t47.5 32.5q129 -225 295 -395q18 -25 18 -54q-182 -176 -331 -409q-20 12 -41 36.5t-23 51.5zM694 135v2q0 55 199 320q-182 272 -182 327q-2 27 19.5 49.5t43.5 26.5q131 -221 281 -371 q14 -23 14 -51q-184 -176 -313 -383q-18 8 -40 34t-22 46z"/>
<glyph unicode="¼" horiz-adv-x="1366" d="M96 1061l33 78q166 41 283 94l8 -6q-8 -193 -4 -621q0 -33 -47 -35l-99 -8q4 57 4 522q-63 -20 -172 -32zM227 0q432 698 766 1264q18 31 45 4q35 -25 45 -58q-489 -815 -764 -1255q-20 -35 -43 -16q-43 32 -49 61zM698 227q53 90 153.5 217t158.5 183q16 16 72.5 36.5 t97.5 26.5l4 -8q-219 -223 -355 -432q68 -6 195 -6l4 147q49 33 125 41h8v-186q23 0 92 8l2 -4q-10 -47 -43 -84q-10 -4 -51 -12v-148q-31 -4 -61.5 -9t-47 -8t-24.5 -3l-10 8q6 63 6 156q-217 0 -287 14q-8 6 -23.5 30.5t-15.5 32.5z"/>
<glyph unicode="½" horiz-adv-x="1366" d="M90 1055l33 84q166 41 283 94l8 -6q-8 -193 -4 -621q0 -33 -48 -35l-98 -8q4 57 4 522q-68 -23 -174 -34zM199 0q432 698 766 1264q16 29 45 4q35 -25 43 -58q-330 -559 -760 -1255q-20 -35 -45 -16q-39 30 -49 61zM772 14l37 74q68 57 98.5 84t79.5 77t69.5 93t20.5 86 q0 55 -31.5 84t-82.5 29q-92 0 -175 -74l-6 6q-8 53 19 94q88 88 211 88h2q100 0 159.5 -55t59.5 -151q0 -35 -14.5 -72t-31 -63.5t-51 -62.5t-53 -52.5t-60.5 -51t-52 -43.5q154 -8 309 5q-4 -27 -20.5 -58t-38.5 -43q-45 -14 -177 -14q-205 0 -268 12z"/>
<glyph unicode="¾" horiz-adv-x="1366" d="M92 633l4 6q59 -25 133 -25q90 0 137.5 36t47.5 93q0 104 -142 105q-45 0 -88 -8l-4 8q29 66 35 74q166 25 166 120q0 41 -27.5 64.5t-70.5 23.5q-72 0 -148 -63q-23 23 -22 49q0 20 22 43q78 72 189 72h2q86 0 139 -44t53 -116q0 -88 -104 -151q152 -33 151 -168 q0 -102 -91 -167t-216 -65q-90 0 -135 31q-31 31 -31 82zM279 0q236 377 768 1264q18 29 43 4q35 -27 45 -58q-342 -575 -762 -1255q-20 -35 -45 -16q-39 30 -49 61zM723 227q55 92 154.5 220t154.5 180q16 16 73.5 36.5t98.5 26.5l4 -8q-211 -211 -352 -432q68 -6 191 -6 l4 147q53 35 127 39h6v-184q23 0 92 8l2 -6q-18 -53 -43 -82q-10 -4 -51 -12v-148q-29 -4 -60.5 -9t-47 -7t-23.5 -2l-13 8q6 55 7 154q-215 0 -285 14q-8 6 -23.5 30.5t-15.5 32.5z"/>
<glyph unicode="¿" horiz-adv-x="671" d="M74 -92q0 115 133 276q113 133 112 219q0 55 -20 97q20 25 66 24q37 0 67.5 -36.5t30.5 -106.5q0 -104 -103 -238q-37 -49 -53 -71.5t-37.5 -67.5t-21.5 -82q0 -57 35.5 -92t95.5 -35q92 0 180 64h10q49 -27 33 -97q-109 -109 -264 -108h-2q-119 0 -190.5 71.5 t-71.5 182.5zM244 807q0 51 32.5 83t83.5 32q39 0 73 -30t34 -81t-33 -83t-88 -32h-2q-43 0 -71.5 34t-28.5 77z"/>
<glyph unicode="À" horiz-adv-x="1280" d="M31 12v11q272 590 526 1187l-25 58q90 20 140 20q33 0 47 -35q45 -104 178 -424.5t176 -416.5q168 -385 172 -394v-8q-68 -23 -155 -22q-20 0 -34 12t-28 49q-8 23 -57 139.5t-90 210.5h-512q-145 -336 -170 -387q-12 -25 -45 -24q-70 -1 -123 24zM369 1556 q12 31 39.5 61t52.5 30h2q27 0 127 -63.5t158 -115.5q29 -23 6 -51l-33 -41q-217 109 -342 152q-22 5 -10 28zM414 524h426l-95 236q-45 113 -76.5 189.5t-39.5 97.5q-39 -90 -109.5 -265.5t-105.5 -257.5z"/>
<glyph unicode="Á" horiz-adv-x="1280" d="M31 12v11q272 590 526 1187l-25 58q90 20 140 20q33 0 47 -35q45 -104 178 -424.5t176 -416.5q168 -385 172 -394v-8q-68 -23 -155 -22q-20 0 -34 12t-28 49q-8 23 -57 139.5t-90 210.5h-512q-145 -336 -170 -387q-12 -25 -45 -24q-70 -1 -123 24zM414 524h426l-95 236 q-45 113 -76.5 189.5t-39.5 97.5q-39 -90 -109.5 -265.5t-105.5 -257.5zM528 1405q-14 33 15 51q70 49 176 107.5t143 60.5q25 -6 49.5 -39t30.5 -61q8 -27 -27 -37q-70 -20 -356 -123q-19 14 -31 41z"/>
<glyph unicode="Â" horiz-adv-x="1280" d="M31 12v11q272 590 526 1187l-25 58q90 20 140 20q33 0 47 -35q45 -104 178 -424.5t176 -416.5q168 -385 172 -394v-8q-68 -23 -155 -22q-20 0 -34 12t-28 49q-8 23 -57 139.5t-90 210.5h-512q-145 -336 -170 -387q-12 -25 -45 -24q-70 -1 -123 24zM385 1409 q113 84 209 201q12 12 33 22q20 6 55 6q100 -119 236 -225q-10 -18 -36 -34.5t-44 -16.5q-29 0 -47 12q-45 33 -142 121q-76 -76 -137 -119q-29 -14 -41 -14h-2q-20 0 -46 15.5t-38 31.5zM414 524h426l-95 236q-45 113 -76.5 189.5t-39.5 97.5q-39 -90 -109.5 -265.5 t-105.5 -257.5z"/>
<glyph unicode="Ã" horiz-adv-x="1280" d="M31 12v11q272 590 526 1187l-25 58q90 20 140 20q33 0 47 -35q45 -104 178 -424.5t176 -416.5q168 -385 172 -394v-8q-68 -23 -155 -22q-20 0 -34 12t-28 49q-8 23 -57 139.5t-90 210.5h-512q-145 -336 -170 -387q-12 -25 -45 -24q-70 -1 -123 24zM397 1397 q27 223 162 223h2q61 0 117 -74q43 -51 57 -51q33 0 51 102q6 20 23 21q39 0 74 -29q-23 -219 -148 -219q-51 0 -121 84q-39 45 -61 45q-33 0 -57 -98q-4 -23 -19 -23q-31 1 -80 19zM414 524h426l-95 236q-45 113 -76.5 189.5t-39.5 97.5q-39 -90 -109.5 -265.5 t-105.5 -257.5z"/>
<glyph unicode="Ä" horiz-adv-x="1280" d="M31 12v11q272 590 526 1187l-25 58q90 20 140 20q33 0 47 -35q45 -104 178 -424.5t176 -416.5q168 -385 172 -394v-8q-68 -23 -155 -22q-20 0 -34 12t-28 49q-8 23 -57 139.5t-90 210.5h-512q-145 -336 -170 -387q-12 -25 -45 -24q-70 -1 -123 24zM354 1464q0 45 27 74 t74 29h2q39 0 63.5 -28t24.5 -69q0 -49 -26.5 -75.5t-69.5 -26.5q-39 0 -67 24.5t-28 71.5zM414 524h426l-95 236q-45 113 -76.5 189.5t-39.5 97.5q-39 -90 -109.5 -265.5t-105.5 -257.5zM743 1464q0 45 27 74t74 29h2q39 0 63.5 -28t24.5 -69q0 -49 -26.5 -75.5 t-71.5 -26.5q-37 0 -65 25.5t-28 70.5z"/>
<glyph unicode="Å" horiz-adv-x="1280" d="M31 12v11q272 590 526 1187l-25 58q90 20 140 20q33 0 47 -35q45 -104 178 -424.5t176 -416.5q168 -385 172 -394v-8q-68 -23 -155 -22q-20 0 -34 12t-28 49q-8 23 -57 139.5t-90 210.5h-512q-145 -336 -170 -387q-12 -25 -45 -24q-70 -1 -123 24zM414 524h426l-95 236 q-45 113 -76.5 189.5t-39.5 97.5q-39 -90 -109.5 -265.5t-105.5 -257.5zM463 1532q0 78 51 131t137 53h2q72 0 122 -50t50 -124q0 -82 -52 -132t-136 -50q-72 0 -123 47t-51 125zM565 1538q0 -41 23.5 -67.5t56.5 -26.5q39 0 59.5 26.5t20.5 65.5q0 96 -82 96h-2 q-35 0 -55.5 -28.5t-20.5 -65.5z"/>
<glyph unicode="Æ" horiz-adv-x="1609" d="M25 25q31 57 293 547.5t339 625.5q18 35 27 62q100 16 156 20h669q-8 -63 -43 -102q-20 -20 -116 -21h-365l29 -522h469q-18 -72 -42 -96.5t-71 -24.5h-350l24 -389q72 -14 259 -14q209 0 282 10l2 -4q-20 -90 -98 -121q-53 -8 -221 -8q-274 0 -373 20l-31 41l-20 469 h-398q-252 -483 -268 -510q-16 -33 -41 -33q-59 0 -110 35zM502 635h338l-25 526q-33 0 -61 -47q-102 -186 -252 -479z"/>
<glyph unicode="Ç" horiz-adv-x="1198" d="M76 631q0 307 203.5 494.5t511.5 187.5q129 0 231 -34t135 -73q-4 -51 -38 -77.5t-75 -6.5q-104 57 -264 58q-217 0 -362.5 -142.5t-145.5 -394.5q0 -236 142.5 -387.5t400.5 -151.5q90 0 179 20.5t134 43.5l7 -4q-12 -90 -62 -131q-82 -57 -266 -64l-53 -75 q131 -39 131 -154q0 -82 -80 -138.5t-176 -66.5q-18 4 -32.5 25.5t-14.5 38t18 22.5q147 41 148 103q0 39 -46.5 59t-111.5 18v25l104 147q-297 23 -457.5 197t-160.5 461z"/>
<glyph unicode="È" horiz-adv-x="919" d="M147 1251q76 23 160 29h520q-8 -78 -49 -111q-27 -14 -162 -14h-282v-434h477q-12 -78 -41 -101.5t-86 -23.5h-350v-467q57 -16 248 -16q205 0 305 10l2 -4q-23 -94 -94 -123q-53 -8 -248 -8q-279 0 -365 20l-28 39v946q-1 180 -7 258zM221 1544q12 31 40 60.5t52 29.5h2 q27 0 127.5 -63.5t157.5 -114.5q29 -23 6 -51l-33 -41q-217 109 -342 152q-22 5 -10 28z"/>
<glyph unicode="É" horiz-adv-x="919" d="M147 1251q76 23 160 29h520q-8 -78 -49 -111q-27 -14 -162 -14h-282v-434h477q-12 -78 -41 -101.5t-86 -23.5h-350v-467q57 -16 248 -16q205 0 305 10l2 -4q-23 -94 -94 -123q-53 -8 -248 -8q-279 0 -365 20l-28 39v946q-1 180 -7 258zM371 1405q-14 33 14 51 q70 49 176.5 107.5t143.5 60.5q25 -6 49 -39t30 -61q8 -27 -26 -37q-70 -20 -357 -123q-18 14 -30 41z"/>
<glyph unicode="Ê" horiz-adv-x="919" d="M147 1251q76 23 160 29h520q-8 -78 -49 -111q-27 -14 -162 -14h-282v-434h477q-12 -78 -41 -101.5t-86 -23.5h-350v-467q57 -16 248 -16q205 0 305 10l2 -4q-23 -94 -94 -123q-53 -8 -248 -8q-279 0 -365 20l-28 39v946q-1 180 -7 258zM236 1419q113 84 208 201 q12 12 33 22q20 6 55 7q100 -119 236 -226q-10 -18 -35.5 -34.5t-44.5 -16.5q-29 0 -47 12q-45 33 -141 121q-76 -76 -138 -119q-29 -14 -40 -14h-3q-20 0 -45.5 15.5t-37.5 31.5z"/>
<glyph unicode="Ë" horiz-adv-x="919" d="M147 1251q76 23 160 29h520q-8 -78 -49 -111q-27 -14 -162 -14h-282v-434h477q-12 -78 -41 -101.5t-86 -23.5h-350v-467q57 -16 248 -16q205 0 305 10l2 -4q-23 -94 -94 -123q-53 -8 -248 -8q-279 0 -365 20l-28 39v946q-1 180 -7 258zM201 1479q0 45 26.5 73.5 t73.5 28.5h2q39 0 63.5 -27.5t24.5 -68.5q0 -49 -26.5 -76t-69.5 -27q-39 0 -66.5 25t-27.5 72zM590 1479q0 45 26.5 73.5t73.5 28.5h2q39 0 63.5 -27.5t24.5 -68.5q0 -49 -26.5 -76t-71.5 -27q-37 0 -64.5 26t-27.5 71z"/>
<glyph unicode="Ì" horiz-adv-x="487" d="M-12 1544q12 31 39.5 60.5t52.5 29.5h2q27 0 127 -63.5t158 -114.5q29 -23 6 -51l-33 -41q-217 109 -342 152q-22 5 -10 28zM147 1272q72 16 154 16q20 0 26.5 -18.5t6.5 -87.5v-926q0 -129 6 -252q-49 -16 -154 -16q-18 0 -25 8t-7 31v985q-1 205 -7 260z"/>
<glyph unicode="Í" horiz-adv-x="487" d="M106 1405q-14 33 15 51q70 49 176 107.5t143 60.5q25 -6 49.5 -39t30.5 -61q8 -27 -26 -37q-70 -20 -357 -123q-19 14 -31 41zM147 1272q72 16 154 16q20 0 26.5 -18.5t6.5 -87.5v-926q0 -129 6 -252q-49 -16 -154 -16q-18 0 -25 8t-7 31v985q-1 205 -7 260z"/>
<glyph unicode="Î" horiz-adv-x="487" d="M-20 1407q113 84 208 201q12 12 33 22q20 6 55 6q100 -119 236 -225q-10 -18 -35.5 -34.5t-44.5 -16.5q-29 0 -47 12q-45 33 -141 121q-76 -76 -138 -119q-29 -14 -40 -14h-3q-20 0 -45.5 15.5t-37.5 31.5zM147 1272q72 16 154 16q20 0 26.5 -18.5t6.5 -87.5v-926 q0 -129 6 -252q-49 -16 -154 -16q-18 0 -25 8t-7 31v985q-1 205 -7 260z"/>
<glyph unicode="Ï" horiz-adv-x="487" d="M-45 1466q0 45 26.5 74t73.5 29h2q39 0 63.5 -28t24.5 -68q0 -49 -26.5 -76t-69.5 -27q-39 0 -66.5 24.5t-27.5 71.5zM147 1272q72 16 154 16q20 0 26.5 -18.5t6.5 -87.5v-926q0 -129 6 -252q-49 -16 -154 -16q-18 0 -25 8t-7 31v985q-1 205 -7 260zM344 1466 q0 45 26.5 74t73.5 29h2q39 0 64 -28t25 -68q0 -49 -27 -76t-72 -27q-37 0 -64.5 25.5t-27.5 70.5z"/>
<glyph unicode="Ð" horiz-adv-x="1357" d="M0 602q6 72 31.5 94.5t66.5 22.5h80v297q0 182 -4 246l156 18q115 14 219 14q182 0 321.5 -43t217 -106.5t125 -153.5t62.5 -168t15 -164q0 -324 -225 -516q-195 -164 -506 -163q-172 0 -381 47v575h-178zM358 123q88 -27 207 -27q102 0 191.5 30t167 92.5t124 173 t46.5 259.5q0 242 -140.5 383.5t-416.5 141.5q-92 0 -179 -15v-442h369q-12 -74 -44 -95.5t-93 -21.5h-232v-479z"/>
<glyph unicode="Ñ" horiz-adv-x="1355" d="M115 1264v8q72 16 166 16q23 0 51 -35q31 -39 102.5 -138t183 -254.5t193.5 -266.5q197 -272 250 -373q-10 172 -10 430v570q0 53 39 59q82 8 112 8q-6 -133 -6 -377v-907q-12 -8 -55 -19.5t-70 -11.5q-18 0 -35 17q-152 205 -508 698q-162 248 -227 356q10 -244 10 -458 v-529q0 -35 -8 -46t-33 -15q-43 -8 -110 -8q6 123 6 372v834zM446 1374q27 223 162 223h2q61 0 117 -73q43 -51 57 -51q33 0 52 102q6 20 22 20q39 0 74 -28q-23 -219 -148 -219q-51 0 -120 84q-39 45 -62 45q-33 0 -57 -99q-4 -23 -19 -22q-31 0 -80 18z"/>
<glyph unicode="Ò" horiz-adv-x="1458" d="M76 625q0 301 177 494.5t478 193.5h2q291 0 470 -188.5t179 -471.5q0 -184 -69.5 -335.5t-221 -250t-360.5 -98.5q-170 0 -301 61.5t-205.5 160t-111.5 209t-37 225.5zM272 643q0 -258 140.5 -407.5t330.5 -149.5q201 0 323 144.5t122 412.5q0 240 -131 396.5t-340 156.5 h-2q-195 0 -319 -147.5t-124 -405.5zM494 1569q12 31 39.5 60.5t52.5 29.5h2q27 0 127 -63.5t157 -114.5q29 -23 7 -51l-33 -41q-217 109 -342 151q-22 6 -10 29z"/>
<glyph unicode="Ó" horiz-adv-x="1458" d="M76 625q0 301 177 494.5t478 193.5h2q291 0 470 -188.5t179 -471.5q0 -184 -69.5 -335.5t-221 -250t-360.5 -98.5q-170 0 -301 61.5t-205.5 160t-111.5 209t-37 225.5zM272 643q0 -258 140.5 -407.5t330.5 -149.5q201 0 323 144.5t122 412.5q0 240 -131 396.5t-340 156.5 h-2q-195 0 -319 -147.5t-124 -405.5zM590 1423q-14 33 14 52q70 49 176.5 107t143.5 60q25 -6 49 -38.5t31 -61.5q8 -27 -27 -37q-70 -20 -356 -123q-19 14 -31 41z"/>
<glyph unicode="Ô" horiz-adv-x="1458" d="M76 625q0 301 177 494.5t478 193.5h2q291 0 470 -188.5t179 -471.5q0 -184 -69.5 -335.5t-221 -250t-360.5 -98.5q-170 0 -301 61.5t-205.5 160t-111.5 209t-37 225.5zM272 643q0 -258 140.5 -407.5t330.5 -149.5q201 0 323 144.5t122 412.5q0 240 -131 396.5t-340 156.5 h-2q-195 0 -319 -147.5t-124 -405.5zM465 1442q113 84 209 200q12 12 33 23q20 6 55 6q100 -119 235 -225q-10 -18 -35.5 -34.5t-43.5 -16.5q-29 0 -48 12q-45 33 -141 121q-76 -76 -137 -119q-29 -14 -41 -14h-2q-20 0 -46 15.5t-38 31.5z"/>
<glyph unicode="Õ" horiz-adv-x="1458" d="M76 625q0 301 177 494.5t478 193.5h2q291 0 470 -188.5t179 -471.5q0 -184 -69.5 -335.5t-221 -250t-360.5 -98.5q-170 0 -301 61.5t-205.5 160t-111.5 209t-37 225.5zM272 643q0 -258 140.5 -407.5t330.5 -149.5q201 0 323 144.5t122 412.5q0 240 -131 396.5t-340 156.5 h-2q-195 0 -319 -147.5t-124 -405.5zM477 1423q27 223 162 224h2q61 0 117 -74q43 -51 57 -51q33 0 51 102q6 20 23 21q37 0 74 -29q-23 -219 -148 -219q-51 0 -121 84q-39 45 -61 45q-33 0 -58 -99q-4 -23 -18 -22q-31 0 -80 18z"/>
<glyph unicode="Ö" horiz-adv-x="1458" d="M76 625q0 301 177 494.5t478 193.5h2q291 0 470 -188.5t179 -471.5q0 -184 -69.5 -335.5t-221 -250t-360.5 -98.5q-170 0 -301 61.5t-205.5 160t-111.5 209t-37 225.5zM272 643q0 -258 140.5 -407.5t330.5 -149.5q201 0 323 144.5t122 412.5q0 240 -131 396.5t-340 156.5 h-2q-195 0 -319 -147.5t-124 -405.5zM440 1499q0 45 27 74t74 29h2q39 0 63.5 -28t24.5 -69q0 -49 -26.5 -75.5t-69.5 -26.5q-39 0 -67 24.5t-28 71.5zM829 1499q0 45 27 74t74 29h2q39 0 63.5 -28t24.5 -69q0 -49 -26.5 -75.5t-71.5 -26.5q-37 0 -65 25.5t-28 70.5z"/>
<glyph unicode="×" horiz-adv-x="1171" d="M166 885q25 45 70 59l344 -354l311 325q33 35 67 13q43 -27 58 -70l-348 -358l317 -326q35 -35 8 -70q-29 -39 -73 -55l-347 361l-337 -361q-39 12 -68 62q-18 35 8 67l311 322l-317 325q-24 21 -4 60z"/>
<glyph unicode="Ø" horiz-adv-x="1470" d="M78 623q0 301 181 495.5t478 194.5q211 0 361 -105l94 123q31 39 57 21q35 -33 43 -70l-106 -139q102 -92 154.5 -223.5t52.5 -270.5q0 -133 -40 -253t-118 -216t-207 -153.5t-293 -57.5q-223 0 -375 109l-118 -156q-29 -37 -54 -4q-35 43 -41 64l127 165 q-100 96 -148 224.5t-48 251.5zM264 631q0 -217 113 -352l633 821q-115 96 -285 96q-195 0 -328 -151.5t-133 -413.5zM455 197q121 -111 288 -111q207 0 335 143.5t128 419.5q0 229 -119 369z"/>
<glyph unicode="Ù" horiz-adv-x="1347" d="M139 1272q76 16 152 16q23 0 29 -18.5t6 -91.5v-582q0 -494 358 -494q78 0 135.5 18.5t112.5 70t83.5 160t28.5 270.5v610q0 43 39 49q82 8 123 8q-6 -121 -6 -370v-289q0 -170 -35 -295t-87 -192.5t-129 -108.5t-142.5 -52.5t-144.5 -11.5q-248 0 -382.5 143.5 t-134.5 481.5v416q0 201 -6 262zM424 1528q12 31 40 60.5t52 29.5h2q27 0 127 -63.5t158 -114.5q29 -23 6 -51l-33 -41q-217 109 -342 151q-22 6 -10 29z"/>
<glyph unicode="Ú" horiz-adv-x="1347" d="M139 1272q76 16 152 16q23 0 29 -18.5t6 -91.5v-582q0 -494 358 -494q78 0 135.5 18.5t112.5 70t83.5 160t28.5 270.5v610q0 43 39 49q82 8 123 8q-6 -121 -6 -370v-289q0 -170 -35 -295t-87 -192.5t-129 -108.5t-142.5 -52.5t-144.5 -11.5q-248 0 -382.5 143.5 t-134.5 481.5v416q0 201 -6 262zM520 1401q-14 33 15 51q70 49 176 107.5t143 60.5q25 -6 49.5 -39t30.5 -61q8 -27 -27 -37q-70 -20 -356 -123q-19 14 -31 41z"/>
<glyph unicode="Û" horiz-adv-x="1347" d="M139 1272q76 16 152 16q23 0 29 -18.5t6 -91.5v-582q0 -494 358 -494q78 0 135.5 18.5t112.5 70t83.5 160t28.5 270.5v610q0 43 39 49q82 8 123 8q-6 -121 -6 -370v-289q0 -170 -35 -295t-87 -192.5t-129 -108.5t-142.5 -52.5t-144.5 -11.5q-248 0 -382.5 143.5 t-134.5 481.5v416q0 201 -6 262zM410 1415q113 84 208 201q12 12 33 22q20 6 56 7q100 -119 235 -226q-10 -18 -35.5 -34.5t-44.5 -16.5q-29 0 -47 12q-45 33 -141 121q-76 -76 -137 -119q-29 -14 -41 -14h-2q-20 0 -46 15.5t-38 31.5z"/>
<glyph unicode="Ü" horiz-adv-x="1347" d="M139 1272q76 16 152 16q23 0 29 -18.5t6 -91.5v-582q0 -494 358 -494q78 0 135.5 18.5t112.5 70t83.5 160t28.5 270.5v610q0 43 39 49q82 8 123 8q-6 -121 -6 -370v-289q0 -170 -35 -295t-87 -192.5t-129 -108.5t-142.5 -52.5t-144.5 -11.5q-248 0 -382.5 143.5 t-134.5 481.5v416q0 201 -6 262zM387 1470q0 45 26.5 74t73.5 29h2q39 0 64 -27.5t25 -68.5q0 -49 -27 -76t-70 -27q-39 0 -66.5 24.5t-27.5 71.5zM776 1470.5q0 45.5 26.5 74t74.5 28.5h2q39 0 63.5 -27.5t24.5 -68.5q0 -49 -27 -76t-72 -27q-37 0 -64.5 25.5t-27.5 71z "/>
<glyph unicode="Ý" horiz-adv-x="1136" d="M35 1253v7q94 29 155 28q35 0 93 -90q41 -63 311 -477q260 375 375 567q61 0 114 -16q39 -14 -4 -78q-276 -406 -397 -565q-20 -31 -20 -82v-297q0 -117 6 -246q-53 -16 -156 -16q-18 0 -24.5 7t-6.5 30v503q0 61 -16 88q-158 258 -430 637zM471 1374q-14 33 14 51 q70 49 176.5 107.5t143.5 60.5q25 -6 49.5 -38.5t30.5 -61.5q8 -27 -27 -37q-70 -20 -356 -123q-19 14 -31 41z"/>
<glyph unicode="Þ" horiz-adv-x="968" d="M147 1272q88 16 152 16q23 0 29 -21.5t6 -92.5v-152q76 10 129 10q227 0 338 -112q102 -102 102 -275q0 -88 -27.5 -159.5t-69.5 -114.5t-94.5 -72t-99.5 -40t-90 -11q-57 0 -84 14q-47 27 -51 96q18 0 32.5 -2t29.5 -2q39 0 77.5 11.5t83.5 38t74 87t29 144.5 q0 139 -75 209.5t-204 68.5q-72 0 -100 -8v-649q0 -129 6 -252q-49 -16 -150 -16q-20 0 -28 7t-8 30v985q-1 203 -7 262z"/>
<glyph unicode="ß" horiz-adv-x="1062" d="M43 815q35 35 111 70q2 113 40.5 223.5t112.5 179.5q115 115 287 115h2q152 0 239 -90t87 -234q0 -59 -13 -90q-227 -109 -227 -248q0 -63 70 -118q27 -20 131 -99q119 -84 118 -219q0 -150 -109.5 -239t-264.5 -89q-123 0 -193 50q-10 47 8 75q16 27 50 27 q82 -29 139 -29q86 0 142 45t56 119q0 82 -81 146q-20 14 -62.5 44.5t-56.5 41.5q-115 86 -115 206q0 168 236 306q10 25 10 59q0 102 -49 162.5t-136 60.5q-248 0 -249 -461q-2 -383 6 -825q-61 -16 -154 -16q-27 0 -26 26q2 74 2 740q-111 2 -111 61z"/>
<glyph unicode="à" horiz-adv-x="878" d="M59 207q0 45 18.5 85t39 66.5t66.5 52t68.5 38t80 30t67 19.5t58.5 14q70 16 102 20v62q0 78 -46 133t-132 55q-96 0 -209 -75q-39 -16 -60.5 8t-25.5 67q59 53 150.5 95.5t185.5 42.5q150 0 227.5 -94.5t77.5 -247.5q0 -25 -3 -181.5t-1 -228.5q4 -68 70 -66q27 0 38 4 l3 -4q2 -61 -33 -94t-99 -33q-61 0 -97 37t-46 92q-117 -129 -262 -129q-104 0 -171 68t-67 164zM201 1311q-16 16 8 43q55 47 106 47h2q23 -2 81.5 -109.5t82.5 -183.5q12 -31 -8 -49q-33 -27 -53 -29q-106 164 -219 281zM231 231q0 -55 39 -88.5t97 -33.5q106 0 176 96 q14 25 14 67v160q-326 -51 -326 -199v-2z"/>
<glyph unicode="á" horiz-adv-x="878" d="M59 207q0 45 18.5 85t39 66.5t66.5 52t68.5 38t80 30t67 19.5t58.5 14q70 16 102 20v62q0 78 -46 133t-132 55q-96 0 -209 -75q-39 -16 -60.5 8t-25.5 67q59 53 150.5 95.5t185.5 42.5q150 0 227.5 -94.5t77.5 -247.5q0 -25 -3 -181.5t-1 -228.5q4 -68 70 -66q27 0 38 4 l3 -4q2 -61 -33 -94t-99 -33q-61 0 -97 37t-46 92q-117 -129 -262 -129q-104 0 -171 68t-67 164zM231 231q0 -55 39 -88.5t97 -33.5q106 0 176 96q14 25 14 67v160q-326 -51 -326 -199v-2zM338 1059q-16 16 2 55q121 283 166 283h2q57 0 108 -47q16 -16 -6 -41 q-63 -72 -219 -283q-22 6 -53 33z"/>
<glyph unicode="â" horiz-adv-x="878" d="M59 207q0 45 18.5 85t39 66.5t66.5 52t68.5 38t80 30t67 19.5t58.5 14q70 16 102 20v62q0 78 -46 133t-132 55q-96 0 -209 -75q-39 -16 -60.5 8t-25.5 67q59 53 150.5 95.5t185.5 42.5q150 0 227.5 -94.5t77.5 -247.5q0 -25 -3 -181.5t-1 -228.5q4 -68 70 -66q27 0 38 4 l3 -4q2 -61 -33 -94t-99 -33q-61 0 -97 37t-46 92q-117 -129 -262 -129q-104 0 -171 68t-67 164zM188 1063q150 248 170 289q14 29 37 32q45 8 68 9q49 -90 186 -322q-47 -37 -90 -37q-23 0 -33 20.5t-47 82t-61 106.5q-45 -86 -113 -192q-16 -16 -26 -17h-3q-43 0 -88 29z M231 231q0 -55 39 -88.5t97 -33.5q106 0 176 96q14 25 14 67v160q-326 -51 -326 -199v-2z"/>
<glyph unicode="ã" horiz-adv-x="878" d="M59 207q0 45 18.5 85t39 66.5t66.5 52t68.5 38t80 30t67 19.5t58.5 14q70 16 102 20v62q0 78 -46 133t-132 55q-96 0 -209 -75q-39 -16 -60.5 8t-25.5 67q59 53 150.5 95.5t185.5 42.5q150 0 227.5 -94.5t77.5 -247.5q0 -25 -3 -181.5t-1 -228.5q4 -68 70 -66q27 0 38 4 l3 -4q2 -61 -33 -94t-99 -33q-61 0 -97 37t-46 92q-117 -129 -262 -129q-104 0 -171 68t-67 164zM174 1100q20 227 166 227h2q61 0 119 -72q41 -51 57 -51q35 0 53 101q6 23 21 22q41 0 76 -31q-23 -223 -152 -223q-23 0 -45 12.5t-36.5 26.5t-39.5 43q-43 47 -61 47 q-35 0 -60 -98q-4 -23 -18 -23q-33 1 -82 19zM231 231q0 -55 39 -88.5t97 -33.5q106 0 176 96q14 25 14 67v160q-326 -51 -326 -199v-2z"/>
<glyph unicode="ä" horiz-adv-x="878" d="M59 207q0 45 18.5 85t39 66.5t66.5 52t68.5 38t80 30t67 19.5t58.5 14q70 16 102 20v62q0 78 -46 133t-132 55q-96 0 -209 -75q-39 -16 -60.5 8t-25.5 67q59 53 150.5 95.5t185.5 42.5q150 0 227.5 -94.5t77.5 -247.5q0 -25 -3 -181.5t-1 -228.5q4 -68 70 -66q27 0 38 4 l3 -4q2 -61 -33 -94t-99 -33q-61 0 -97 37t-46 92q-117 -129 -262 -129q-104 0 -171 68t-67 164zM147 1192q0 45 27 73.5t74 28.5h2q37 0 62.5 -28.5t25.5 -67.5q0 -49 -26.5 -75.5t-71.5 -26.5q-37 0 -65 24.5t-28 71.5zM231 231q0 -55 39 -88.5t97 -33.5q106 0 176 96 q14 25 14 67v160q-326 -51 -326 -199v-2zM498 1192q0 45 26.5 73.5t73.5 28.5h2q37 0 62.5 -28.5t25.5 -67.5q0 -47 -26.5 -74.5t-71.5 -27.5q-37 0 -64.5 25.5t-27.5 70.5z"/>
<glyph unicode="å" horiz-adv-x="878" d="M59 207q0 45 18.5 85t39 66.5t66.5 52t68.5 38t80 30t67 19.5t58.5 14q70 16 102 20v62q0 78 -46 133t-132 55q-96 0 -209 -75q-39 -16 -60.5 8t-25.5 67q59 53 150.5 95.5t185.5 42.5q150 0 227.5 -94.5t77.5 -247.5q0 -25 -3 -181.5t-1 -228.5q4 -68 70 -66q27 0 38 4 l3 -4q2 -61 -33 -94t-99 -33q-61 0 -97 37t-46 92q-117 -129 -262 -129q-104 0 -171 68t-67 164zM231 231q0 -55 39 -88.5t97 -33.5q106 0 176 96q14 25 14 67v160q-326 -51 -326 -199v-2zM240 1196q0 78 52 132t136 54h2q78 0 129 -52t51 -130q0 -82 -52 -133t-136 -51 q-76 0 -129 49t-53 131zM344 1202q0 -43 23.5 -70.5t60.5 -27.5t57.5 26.5t20.5 65.5q0 98 -84 98h-2q-33 0 -54.5 -28.5t-21.5 -63.5z"/>
<glyph unicode="æ" horiz-adv-x="1366" d="M61 205q0 63 34 115.5t77 83t112.5 58t111.5 39t102 23.5q14 4 36.5 8.5t28.5 6.5v49q0 82 -47 138t-135 56q-104 0 -197 -69q-43 -23 -68.5 -3.5t-29.5 72.5q51 53 145.5 95.5t188.5 42.5q96 0 162.5 -47.5t91.5 -118.5q115 166 311 166q160 0 242 -100.5t86 -235.5 q0 -43 -6 -68q-6 -23 -61.5 -45t-110.5 -31q-125 -14 -412 -6q2 -147 88 -234t231 -87q117 0 222 49l4 -6q-2 -47 -33 -89t-59 -57q-76 -35 -187 -35q-115 0 -209 44t-141 128q-63 -72 -153.5 -122t-184.5 -50q-106 0 -173 67t-67 163zM233 229q0 -49 37 -83.5t95 -34.5h2 q127 0 229 122q-35 82 -35 199q-328 -51 -328 -203zM727 543q264 -10 377 2q39 4 39 47q2 96 -48.5 158.5t-140.5 62.5h-2q-88 0 -150.5 -75.5t-74.5 -194.5z"/>
<glyph unicode="ç" horiz-adv-x="856" d="M68 434q0 211 141 348.5t350 137.5q100 0 171 -27t89 -51q0 -51 -31 -78q-29 -25 -59 -12q-76 39 -172 39q-135 0 -221 -93.5t-86 -240.5q0 -98 30.5 -169t83 -108t107.5 -53t115 -16q111 0 213 41l6 -7q-8 -86 -62 -125q-63 -39 -153 -43l-60 -86q61 -16 96.5 -57 t35.5 -94q0 -82 -79 -138.5t-175 -66.5q-20 4 -35 25.5t-15 38t19 22.5q147 39 147 103q0 39 -47 59t-110 16v27l110 151q-178 18 -293.5 126t-115.5 331z"/>
<glyph unicode="è" horiz-adv-x="882" d="M66 432q0 203 115.5 345.5t310.5 142.5q164 0 248.5 -100.5t88.5 -239.5q0 -39 -6 -64q-8 -43 -174 -72q-137 -14 -407 -4q2 -154 87 -240.5t222 -86.5t229 51l4 -4q0 -45 -24.5 -85t-52.5 -55q-80 -45 -201 -45q-213 0 -326.5 120t-113.5 337zM248 549q246 -6 368 0 q43 4 43 43q2 98 -47 159.5t-143 61.5h-2q-82 0 -144.5 -70.5t-74.5 -193.5zM252 1311q-18 16 8 43q55 47 107 47h2q23 -2 81 -109.5t82 -183.5q12 -31 -8 -49q-33 -27 -53 -29q-106 164 -219 281z"/>
<glyph unicode="é" horiz-adv-x="882" d="M66 432q0 203 115.5 345.5t310.5 142.5q164 0 248.5 -100.5t88.5 -239.5q0 -39 -6 -64q-8 -43 -174 -72q-137 -14 -407 -4q2 -154 87 -240.5t222 -86.5t229 51l4 -4q0 -45 -24.5 -85t-52.5 -55q-80 -45 -201 -45q-213 0 -326.5 120t-113.5 337zM248 549q246 -6 368 0 q43 4 43 43q2 98 -47 159.5t-143 61.5h-2q-82 0 -144.5 -70.5t-74.5 -193.5zM383 1059q-16 16 2 55q121 283 166 283h2q57 0 109 -47q16 -16 -7 -41q-63 -72 -219 -283q-22 6 -53 33z"/>
<glyph unicode="ê" horiz-adv-x="882" d="M66 432q0 203 115.5 345.5t310.5 142.5q164 0 248.5 -100.5t88.5 -239.5q0 -39 -6 -64q-8 -43 -174 -72q-137 -14 -407 -4q2 -154 87 -240.5t222 -86.5t229 51l4 -4q0 -45 -24.5 -85t-52.5 -55q-80 -45 -201 -45q-213 0 -326.5 120t-113.5 337zM242 1063q150 248 170 289 q14 29 37 32q45 8 67 9q49 -90 186 -322q-47 -37 -90 -37q-23 0 -33 20.5t-46.5 82t-61.5 106.5q-45 -86 -113 -192q-16 -16 -26 -17h-2q-43 0 -88 29zM248 549q246 -6 368 0q43 4 43 43q2 98 -47 159.5t-143 61.5h-2q-82 0 -144.5 -70.5t-74.5 -193.5z"/>
<glyph unicode="ë" horiz-adv-x="882" d="M66 432q0 203 115.5 345.5t310.5 142.5q164 0 248.5 -100.5t88.5 -239.5q0 -39 -6 -64q-8 -43 -174 -72q-137 -14 -407 -4q2 -154 87 -240.5t222 -86.5t229 51l4 -4q0 -45 -24.5 -85t-52.5 -55q-80 -45 -201 -45q-213 0 -326.5 120t-113.5 337zM199 1192q0 45 26.5 73.5 t73.5 28.5h2q37 0 62.5 -28.5t25.5 -67.5q0 -49 -26.5 -75.5t-71.5 -26.5q-37 0 -64.5 24.5t-27.5 71.5zM248 549q246 -6 368 0q43 4 43 43q2 98 -47 159.5t-143 61.5h-2q-82 0 -144.5 -70.5t-74.5 -193.5zM549 1192q0 45 26.5 73.5t73.5 28.5h2q37 0 62.5 -28.5t25.5 -67.5 q0 -47 -27.5 -74.5t-70.5 -27.5q-37 0 -64.5 25.5t-27.5 70.5z"/>
<glyph unicode="ì" horiz-adv-x="452" d="M12 1311q-16 16 8 43q55 47 107 47h2q23 -2 81 -109.5t83 -183.5q12 -31 -8 -49q-33 -27 -54 -29q-106 164 -219 281zM133 889q57 20 152 20q12 0 17 -7t8 -34.5t3 -85.5v-733q0 -27 -9 -37t-34 -14q-29 -6 -135 -10q6 252 6 321v348q0 146 -8 232z"/>
<glyph unicode="í" horiz-adv-x="452" d="M133 889q57 20 152 20q12 0 17 -7t8 -34.5t3 -85.5v-733q0 -27 -9 -37t-34 -14q-29 -6 -135 -10q6 252 6 321v348q0 146 -8 232zM143 1059q-16 16 2 55q121 283 166 283h2q57 0 109 -47q16 -16 -6 -41q-63 -72 -219 -283q-23 6 -54 33z"/>
<glyph unicode="î" horiz-adv-x="452" d="M-2 1063q150 248 170 289q14 29 37 32q45 8 67 9q49 -90 187 -322q-47 -37 -90 -37q-23 0 -33 20.5t-47 82t-62 106.5q-45 -86 -112 -192q-16 -16 -27 -17h-2q-43 0 -88 29zM133 889q57 20 152 20q12 0 17 -7t8 -34.5t3 -85.5v-733q0 -27 -9 -37t-34 -14q-29 -6 -135 -10 q6 252 6 321v348q0 146 -8 232z"/>
<glyph unicode="ï" horiz-adv-x="452" d="M-37 1192q0 45 26.5 73.5t73.5 28.5h3q37 0 62.5 -28.5t25.5 -67.5q0 -49 -27 -75.5t-72 -26.5q-37 0 -64.5 24.5t-27.5 71.5zM133 889q57 20 152 20q12 0 17 -7t8 -34.5t3 -85.5v-733q0 -27 -9 -37t-34 -14q-29 -6 -135 -10q6 252 6 321v348q0 146 -8 232zM313 1192 q0 45 27 73.5t74 28.5h2q37 0 62.5 -28.5t25.5 -67.5q0 -47 -26.5 -74.5t-71.5 -27.5q-37 0 -65 25.5t-28 70.5z"/>
<glyph unicode="ð" horiz-adv-x="1019" d="M68 430q0 213 133 351.5t344 138.5q104 0 176 -50q-51 145 -146 234l-284 -139q-23 -10 -30 -6t-7 22q0 61 25 90l210 100q-137 102 -307 129l-2 5q12 20 31 43q23 43 68 43q59 0 164.5 -44t189.5 -108l229 117q37 20 37 -13q0 -76 -35 -98l-147 -76q113 -117 175 -286.5 t62 -360.5q0 -264 -126 -405.5t-324 -141.5q-201 0 -318.5 123t-117.5 332zM252 442q0 -176 81 -265t179 -89q125 0 194.5 110.5t69.5 319.5q0 129 -28 211q-76 76 -205 76h-2q-127 0 -208 -96.5t-81 -266.5z"/>
<glyph unicode="ñ" horiz-adv-x="1056" d="M115 840v8q12 25 48 48.5t62 23.5q72 0 88 -152q152 152 303 152q299 0 299 -373v-287q0 -154 9 -256q-115 -16 -152 -16q-31 0 -31 28l2 529q0 117 -50 177t-140 60q-127 0 -231 -123v-612q0 -31 -8.5 -39t-34.5 -12q-14 -2 -136 -8q6 111 7 377v348q0 100 -35 127z M270 1100q20 227 166 227h2q61 0 119 -72q41 -51 57 -51q35 0 54 101q6 23 20 22q41 0 76 -31q-23 -223 -152 -223q-23 0 -45 12.5t-36.5 26.5t-38.5 43q-43 47 -62 47q-35 0 -59 -98q-4 -23 -19 -23q-33 1 -82 19z"/>
<glyph unicode="ò" horiz-adv-x="1028" d="M66 438q0 205 128 343.5t328 138.5h2q207 0 322 -130.5t115 -332.5q0 -209 -124 -345.5t-327 -136.5q-213 0 -328.5 134t-115.5 329zM250 461q0 -178 79 -275.5t197 -97.5q102 0 176 89t74 265q0 154 -68.5 259.5t-199.5 105.5h-2q-109 0 -182.5 -92t-73.5 -254z M303 1311q-16 16 8 43q55 47 107 47h2q23 -2 81 -109.5t83 -183.5q12 -31 -9 -49q-33 -27 -53 -29q-106 164 -219 281z"/>
<glyph unicode="ó" horiz-adv-x="1028" d="M66 438q0 205 128 343.5t328 138.5h2q207 0 322 -130.5t115 -332.5q0 -209 -124 -345.5t-327 -136.5q-213 0 -328.5 134t-115.5 329zM250 461q0 -178 79 -275.5t197 -97.5q102 0 176 89t74 265q0 154 -68.5 259.5t-199.5 105.5h-2q-109 0 -182.5 -92t-73.5 -254z M418 1059q-16 16 2 55q121 283 166 283h2q57 0 108 -47q16 -16 -6 -41q-63 -72 -219 -283q-22 6 -53 33z"/>
<glyph unicode="ô" horiz-adv-x="1028" d="M66 438q0 205 128 343.5t328 138.5h2q207 0 322 -130.5t115 -332.5q0 -209 -124 -345.5t-327 -136.5q-213 0 -328.5 134t-115.5 329zM250 461q0 -178 79 -275.5t197 -97.5q102 0 176 89t74 265q0 154 -68.5 259.5t-199.5 105.5h-2q-109 0 -182.5 -92t-73.5 -254z M301 1063q150 248 170 289q14 29 37 32q45 8 67 9q49 -90 187 -322q-47 -37 -90 -37q-23 0 -33 20.5t-47 82t-62 106.5q-45 -86 -112 -192q-16 -16 -27 -17h-2q-43 0 -88 29z"/>
<glyph unicode="õ" horiz-adv-x="1028" d="M66 438q0 205 128 343.5t328 138.5h2q207 0 322 -130.5t115 -332.5q0 -209 -124 -345.5t-327 -136.5q-213 0 -328.5 134t-115.5 329zM250 461q0 -178 79 -275.5t197 -97.5q102 0 176 89t74 265q0 154 -68.5 259.5t-199.5 105.5h-2q-109 0 -182.5 -92t-73.5 -254z M254 1100q20 227 166 227h2q61 0 119 -72q41 -51 57 -51q35 0 53 101q6 23 21 22q41 0 76 -31q-23 -223 -152 -223q-23 0 -45.5 12.5t-36.5 26.5t-39 43q-43 47 -61 47q-35 0 -60 -98q-4 -23 -18 -23q-33 1 -82 19z"/>
<glyph unicode="ö" horiz-adv-x="1028" d="M66 438q0 205 128 343.5t328 138.5h2q207 0 322 -130.5t115 -332.5q0 -209 -124 -345.5t-327 -136.5q-213 0 -328.5 134t-115.5 329zM231 1192q0 45 27 73.5t74 28.5h2q37 0 62.5 -28.5t25.5 -67.5q0 -49 -26.5 -75.5t-71.5 -26.5q-37 0 -65 24.5t-28 71.5zM250 461 q0 -178 79 -275.5t197 -97.5q102 0 176 89t74 265q0 154 -68.5 259.5t-199.5 105.5h-2q-109 0 -182.5 -92t-73.5 -254zM582 1192q0 45 26.5 73.5t73.5 28.5h2q37 0 62.5 -28.5t25.5 -67.5q0 -47 -27.5 -74.5t-70.5 -27.5q-37 0 -64.5 25.5t-27.5 70.5z"/>
<glyph unicode="÷" horiz-adv-x="1171" d="M127 444q4 121 59 121h861q-4 -121 -68 -121h-852zM489 190q0 39 28 67t67 28h2q37 0 63.5 -28t26.5 -67q0 -41 -27.5 -69.5t-64.5 -28.5q-39 0 -67 28.5t-28 69.5zM492 821q0 39 27.5 68t64.5 29q41 0 68.5 -29t27.5 -68q0 -41 -27.5 -68.5t-70.5 -27.5h-2 q-35 0 -61.5 28.5t-26.5 67.5z"/>
<glyph unicode="ø" horiz-adv-x="1050" d="M68 442q0 203 131 340.5t331 137.5q133 0 234 -58q31 39 47 64q29 41 49 14q27 -29 35 -61l-53 -72q141 -127 141 -356q0 -203 -126 -339.5t-325 -136.5q-154 0 -247 60q-39 -55 -58 -78q-23 -35 -47 -8q-29 37 -35 59q4 6 22.5 28.5t39.5 53.5q-139 129 -139 352z M240 453q0 -137 65 -230l377 529q-70 59 -162 59q-117 0 -198.5 -97t-81.5 -261zM365 147q74 -63 172 -63q111 0 191.5 92t80.5 268q0 147 -64 232z"/>
<glyph unicode="ù" horiz-adv-x="1050" d="M133 889q70 20 150 20q18 0 23 -21.5t5 -105.5q2 -135 2 -420q0 -145 56.5 -195t144.5 -50q66 0 124 32.5t87 71.5v606q0 37 6 49.5t27 20.5q111 12 145 12q0 -6 -3 -134t-3 -234v-330q0 -72 18.5 -97.5t63.5 -33.5v-8q-2 -31 -31.5 -64t-60.5 -33q-127 0 -144 146 q-63 -68 -170 -119q-66 -27 -131 -27q-150 0 -225.5 91.5t-75.5 246.5v344q0 142 -8 232zM301 1311q-18 16 8 43q55 47 107 47h2q23 -2 81 -109.5t83 -183.5q12 -31 -9 -49q-33 -27 -53 -29q-106 164 -219 281z"/>
<glyph unicode="ú" horiz-adv-x="1050" d="M133 889q70 20 150 20q18 0 23 -21.5t5 -105.5q2 -135 2 -420q0 -145 56.5 -195t144.5 -50q66 0 124 32.5t87 71.5v606q0 37 6 49.5t27 20.5q111 12 145 12q0 -6 -3 -134t-3 -234v-330q0 -72 18.5 -97.5t63.5 -33.5v-8q-2 -31 -31.5 -64t-60.5 -33q-127 0 -144 146 q-63 -68 -170 -119q-66 -27 -131 -27q-150 0 -225.5 91.5t-75.5 246.5v344q0 142 -8 232zM444 1059q-16 16 2 55q121 283 166 283h2q57 0 109 -47q16 -16 -6 -41q-63 -72 -219 -283q-23 6 -54 33z"/>
<glyph unicode="û" horiz-adv-x="1050" d="M133 889q70 20 150 20q18 0 23 -21.5t5 -105.5q2 -135 2 -420q0 -145 56.5 -195t144.5 -50q66 0 124 32.5t87 71.5v606q0 37 6 49.5t27 20.5q111 12 145 12q0 -6 -3 -134t-3 -234v-330q0 -72 18.5 -97.5t63.5 -33.5v-8q-2 -31 -31.5 -64t-60.5 -33q-127 0 -144 146 q-63 -68 -170 -119q-66 -27 -131 -27q-150 0 -225.5 91.5t-75.5 246.5v344q0 142 -8 232zM291 1065q150 248 170 289q14 27 37 32q45 8 67 9q49 -90 187 -322q-47 -37 -90 -37q-23 0 -33.5 20.5t-47 82t-61.5 106.5q-45 -86 -112 -192q-16 -16 -27 -17h-2q-43 0 -88 29z"/>
<glyph unicode="ü" horiz-adv-x="1050" d="M133 889q70 20 150 20q18 0 23 -21.5t5 -105.5q2 -135 2 -420q0 -145 56.5 -195t144.5 -50q66 0 124 32.5t87 71.5v606q0 37 6 49.5t27 20.5q111 12 145 12q0 -6 -3 -134t-3 -234v-330q0 -72 18.5 -97.5t63.5 -33.5v-8q-2 -31 -31.5 -64t-60.5 -33q-127 0 -144 146 q-63 -68 -170 -119q-66 -27 -131 -27q-150 0 -225.5 91.5t-75.5 246.5v344q0 142 -8 232zM244 1192q0 45 26.5 73.5t73.5 28.5h2q37 0 62.5 -28.5t25.5 -67.5q0 -49 -26.5 -75.5t-71.5 -26.5q-37 0 -64.5 24.5t-27.5 71.5zM594 1192q0 45 26.5 73.5t73.5 28.5h2 q37 0 62.5 -28.5t25.5 -67.5q0 -47 -27.5 -74.5t-70.5 -27.5q-37 0 -64.5 25.5t-27.5 70.5z"/>
<glyph unicode="ý" horiz-adv-x="862" d="M37 872q82 47 143 48q29 0 45 -37q47 -117 240 -662q61 137 133 354.5t100 344.5q59 0 107 -19q39 -16 24 -74q-109 -381 -245 -680q-96 -211 -215 -396t-148 -185q-35 0 -70.5 15.5t-50.5 35.5v6q154 186 275 422q-20 29 -45 92q-240 622 -293 735zM375 1059 q-16 16 2 55q121 283 166 283h2q57 0 108 -47q16 -16 -6 -41q-63 -72 -219 -283q-22 6 -53 33z"/>
<glyph unicode="þ" horiz-adv-x="1050" d="M135 1362q63 29 152 29q12 0 17 -7.5t8 -37t3 -89.5v-462q164 125 301 125q158 0 263.5 -114t105.5 -325q0 -213 -138 -359.5t-349 -146.5q-98 0 -183 50v-406q0 -25 -7 -34t-34 -15q-63 -8 -137 -8q6 92 6 360v795v420q0 143 -8 225zM315 141q76 -47 172 -47 q49 0 99.5 18.5t100.5 58.5t82 120t32 188q0 117 -67.5 207t-184.5 90q-127 0 -234 -96v-539z"/>
<glyph unicode="ÿ" horiz-adv-x="862" d="M37 872q82 47 143 48q29 0 45 -37q47 -117 240 -662q61 137 133 354.5t100 344.5q59 0 107 -19q39 -16 24 -74q-109 -381 -245 -680q-96 -211 -215 -396t-148 -185q-35 0 -70.5 15.5t-50.5 35.5v6q154 186 275 422q-20 29 -45 92q-240 622 -293 735zM180 1192 q0 45 26.5 73.5t74.5 28.5h2q37 0 62.5 -28.5t25.5 -67.5q0 -49 -27 -75.5t-72 -26.5q-37 0 -64.5 24.5t-27.5 71.5zM530 1192q0 45 27 73.5t74 28.5h2q37 0 62.5 -28.5t25.5 -67.5q0 -47 -26.5 -74.5t-71.5 -27.5q-37 0 -65 25.5t-28 70.5z"/>
<glyph unicode="Œ" horiz-adv-x="1937" d="M78 616q0 295 182 496t473 201q317 0 461 -221v163q33 10 149 25h508q-10 -68 -51 -109q-25 -16 -155 -16h-277v-434h461q-16 -84 -43 -104.5t-90 -20.5h-328v-467q57 -16 229 -16q207 0 308 10l2 -4q-18 -92 -97 -123q-53 -8 -237 -8q-252 0 -350 20l-29 37v162 q-74 -117 -199 -177.5t-276 -60.5q-168 0 -297 59.5t-200.5 157t-107.5 206.5t-36 224zM270 635q0 -238 121 -392.5t344 -154.5q201 0 333 135t132 418q0 160 -42 273.5t-113.5 172t-147.5 83t-164 24.5q-190 0 -326.5 -150.5t-136.5 -406.5v-2z"/>
<glyph unicode="œ" horiz-adv-x="1587" d="M66 442.5q0 202.5 126.5 340t327.5 137.5q236 0 348 -203q49 94 135.5 148.5t196.5 54.5q162 0 247 -100.5t89 -235.5q0 -49 -4 -66q-4 -23 -58.5 -43t-113.5 -29q-123 -14 -416 -6q0 -152 86 -240.5t232 -88.5q117 0 227 49l4 -4q-2 -47 -34 -90t-60 -56 q-76 -35 -185 -35q-117 0 -215 51.5t-147 147.5q-104 -199 -344 -199q-211 0 -326.5 132.5t-115.5 335zM250 455q0 -178 79 -272.5t193 -94.5q106 0 182 90t76 275q0 156 -71.5 256t-196.5 100h-2q-117 0 -188.5 -97t-71.5 -257zM950 549q229 -6 377 2q41 4 41 39 q2 96 -49 159.5t-145 63.5h-3q-82 0 -143.5 -72.5t-77.5 -191.5z"/>
<glyph unicode="Ÿ" horiz-adv-x="1136" d="M35 1253v7q94 29 155 28q35 0 93 -90q41 -63 311 -477q260 375 375 567q61 0 114 -16q39 -14 -4 -78q-276 -406 -397 -565q-20 -31 -20 -82v-297q0 -117 6 -246q-53 -16 -156 -16q-18 0 -24.5 7t-6.5 30v503q0 61 -16 88q-158 258 -430 637zM293 1462q0 45 26.5 74 t73.5 29h2q39 0 63.5 -28t24.5 -69q0 -49 -26.5 -75.5t-69.5 -26.5q-39 0 -66.5 24.5t-27.5 71.5zM682 1462q0 45 26.5 74t73.5 29h2q39 0 63.5 -28t24.5 -69q0 -49 -26.5 -75.5t-71.5 -26.5q-37 0 -64.5 25.5t-27.5 70.5z"/>
<glyph unicode="ˆ" horiz-adv-x="819" d="M180 1063q150 248 170 289q14 29 37 32q45 8 68 9q49 -90 186 -322q-47 -37 -90 -37q-23 0 -33 20.5t-47 82t-61 106.5q-45 -86 -113 -192q-16 -16 -27 -17h-2q-43 0 -88 29z"/>
<glyph unicode="˜" horiz-adv-x="819" d="M164 1100q20 227 166 227h2q61 0 119 -72q41 -51 57 -51q35 0 53 101q6 23 21 22q41 0 75 -31q-23 -223 -151 -223q-23 0 -45.5 12.5t-36.5 26.5t-39 43q-43 47 -61 47q-35 0 -60 -98q-4 -23 -18 -23q-33 1 -82 19z"/>
<glyph unicode=" " horiz-adv-x="858"/>
<glyph unicode=" " horiz-adv-x="1716"/>
<glyph unicode=" " horiz-adv-x="858"/>
<glyph unicode=" " horiz-adv-x="1716"/>
<glyph unicode=" " horiz-adv-x="571"/>
<glyph unicode=" " horiz-adv-x="428"/>
<glyph unicode=" " horiz-adv-x="284"/>
<glyph unicode=" " horiz-adv-x="284"/>
<glyph unicode=" " horiz-adv-x="212"/>
<glyph unicode=" " horiz-adv-x="342"/>
<glyph unicode=" " horiz-adv-x="94"/>
<glyph unicode="‐" horiz-adv-x="614" d="M68 383q10 55 31.5 95t39.5 42q254 37 404 76l4 -6q-25 -133 -115 -154q-59 -20 -179 -40.5t-181 -20.5z"/>
<glyph unicode="‑" horiz-adv-x="614" d="M68 383q10 55 31.5 95t39.5 42q254 37 404 76l4 -6q-25 -133 -115 -154q-59 -20 -179 -40.5t-181 -20.5z"/>
<glyph unicode="‒" horiz-adv-x="614" d="M68 383q10 55 31.5 95t39.5 42q254 37 404 76l4 -6q-25 -133 -115 -154q-59 -20 -179 -40.5t-181 -20.5z"/>
<glyph unicode="–" horiz-adv-x="1120" d="M96 428l8 55q14 80 60 80h858l-8 -55q-12 -80 -49 -80h-869z"/>
<glyph unicode="—" horiz-adv-x="1898" d="M98 428l8 55q10 80 60 80h1636l-10 -67q-6 -41 -18.5 -54.5t-32.5 -13.5h-1643z"/>
<glyph unicode="‘" horiz-adv-x="387" d="M66 1032v2q0 82 40.5 178.5t88.5 139.5q45 41 129 39q-92 -168 -93 -332q0 -49 9 -82q-63 -43 -115 -43q-59 0 -59 98z"/>
<glyph unicode="’" horiz-adv-x="387" d="M66 924q92 168 92 333q0 47 -8 80q59 43 114 43q59 0 60 -100v-2q0 -80 -42 -176t-89 -141q-43 -39 -127 -37z"/>
<glyph unicode="‚" horiz-adv-x="356" d="M-2 -217q117 168 117 342q0 45 -13 90q80 45 121 45h2q31 0 47.5 -35t16.5 -80q0 -88 -54.5 -188t-115.5 -147q-39 -31 -121 -27z"/>
<glyph unicode="“" horiz-adv-x="692" d="M66 1032v2q0 82 40.5 178.5t88.5 139.5q45 41 131 39q-94 -164 -95 -334q0 -47 9 -80q-63 -43 -115 -43q-59 0 -59 98zM369 1034v2q0 80 42 176.5t89 139.5q45 41 129 39q-92 -168 -92 -332q0 -49 8 -82q-66 -43 -117 -43q-59 0 -59 100z"/>
<glyph unicode="”" horiz-adv-x="690" d="M66 924q92 168 92 333q0 47 -8 80q59 43 114 43q59 0 60 -100v-2q0 -80 -42 -176t-89 -141q-43 -39 -127 -37zM367 924q94 164 94 333q0 55 -8 80q59 43 114 43q59 0 60 -100v-2q0 -80 -42 -176t-89 -141q-43 -39 -129 -37z"/>
<glyph unicode="„" horiz-adv-x="655" d="M4 -211q111 166 111 338q0 57 -13 88q76 45 119 45q33 0 49.5 -35t16.5 -78v-2q0 -84 -52.5 -185t-111.5 -146q-39 -29 -119 -25zM303 -211q111 166 111 338q0 53 -11 88q76 45 119 45q33 0 48.5 -36t15.5 -77v-2q0 -84 -52.5 -185t-111.5 -146q-37 -29 -119 -25z"/>
<glyph unicode="•" horiz-adv-x="638" d="M106 479q0 94 58.5 158.5t159.5 64.5h2q90 0 147 -64.5t57 -154.5q0 -100 -60 -161.5t-159 -61.5q-78 0 -141.5 60.5t-63.5 158.5z"/>
<glyph unicode="…" horiz-adv-x="1615" d="M139 92q0 51 33 85t88 34h2q45 0 74 -34t29 -81q0 -53 -32 -86t-85 -33q-41 0 -75 31t-34 84zM678 92q0 51 31.5 85t89.5 34h2q45 0 73.5 -34t28.5 -81q0 -53 -31.5 -86t-85.5 -33q-41 0 -74.5 31t-33.5 84zM1217 92q0 51 31.5 85t88.5 34h2q45 0 74 -34t29 -81 q0 -53 -32 -86t-85 -33q-41 0 -74.5 31t-33.5 84z"/>
<glyph unicode=" " horiz-adv-x="342"/>
<glyph unicode="‹" horiz-adv-x="817" d="M98 477q186 168 351 412q20 -12 40.5 -37t22.5 -53q0 -16 -19.5 -51t-53 -81t-62.5 -83t-62.5 -79t-38.5 -46q59 -78 141.5 -196t82.5 -150v-2q0 -25 -22.5 -49.5t-47.5 -32.5q-145 223 -313 397q-19 28 -19 51z"/>
<glyph unicode="›" horiz-adv-x="817" d="M305 117q0 25 48 95.5t116 155.5t72 91q-59 76 -140.5 193.5t-81.5 152.5v2q0 23 23 47.5t47 32.5q139 -217 313 -395q16 -27 17 -54q-180 -174 -350 -409q-20 12 -41 36.5t-23 51.5z"/>
<glyph unicode=" " horiz-adv-x="428"/>
<glyph unicode="€" d="M14 446q14 66 33 83.5t62 17.5h34q0 78 2 112h-92q14 61 30.5 81t55.5 20h21q41 203 173 338t331 135q152 0 227 -68q10 -29 -6 -57q-10 -37 -51 -37q-68 41 -158 41q-129 0 -220 -90t-120 -262h457q-10 -66 -32 -83.5t-71 -17.5h-368q-4 -55 0 -112h413 q-14 -66 -33.5 -83.5t-72.5 -17.5h-295q27 -172 116 -261t228 -89q106 0 205 49l6 -4q-10 -76 -45 -114q-59 -51 -209 -52q-207 0 -330 121t-151 350h-140z"/>
<glyph unicode="™" horiz-adv-x="903" d="M55 1241q8 29 23 43q8 -2 86 -2h223q0 -16 -11 -34.5t-22 -22.5h-98v-211q0 -20 1 -43t1 -25l-63 -4q-14 0 -15 10v273h-112q-15 0 -13 16zM385 946q6 33 27.5 141.5t33.5 163.5l-8 23q27 10 80 10q8 0 33 -57l70 -158q8 23 94 201v6q29 8 73 8q6 0 11 -16l28 -199 q4 -33 12.5 -74t10.5 -49q-33 -8 -70 -8q-14 0 -14 14q-8 61 -12 95l-19 147q-14 -35 -102 -244q-27 -4 -49 -4q-43 111 -92 234q-4 -16 -10.5 -59.5t-14.5 -95.5t-12 -75q-2 -12 -13 -12q-28 0 -57 8z"/>
<glyph unicode="" horiz-adv-x="920" d="M0 920h920v-920h-920v920z"/>
<glyph unicode="ﬁ" horiz-adv-x="1021" d="M43 821q37 39 111 74q0 287 172 424q102 84 258 84q125 0 186 -62q6 -31 -10 -65q-20 -39 -51 -35q-74 35 -146 35q-109 0 -174 -92t-61 -289q295 0 374 4q41 2 93.5 9t58.5 7q29 0 29 -135v-731q0 -29 -9.5 -39t-33.5 -14q-33 -6 -135 -8q6 246 6 319v479 q-59 -6 -385 -10q-2 -127 1 -442.5t3 -331.5q-51 -14 -152 -14q-16 0 -21 5t-5 23q2 74 2 760q-111 0 -111 45z"/>
<glyph unicode="ﬂ" horiz-adv-x="1021" d="M43 821q35 39 111 76q8 272 155 410q104 96 260 96q100 0 162 -39q86 39 123 39q16 0 22.5 -19.5t6.5 -87.5v-1026q0 -154 8 -268q-53 -16 -154 -16q-27 0 -26 26v779q-104 -16 -387 -13q0 -121 3 -426t3 -348q-55 -16 -152 -16q-27 0 -26 30q2 100 2 758q-111 0 -111 45 zM326 897h385v301q0 35 -13 45q-51 45 -141 45q-102 0 -166.5 -98t-64.5 -293z"/>
<glyph unicode="ﬃ" horiz-adv-x="1591" d="M43 827q35 41 111 70q10 231 153 363q115 102 289 102q152 0 248 -82q115 123 295 123q68 0 125 -20.5t75 -47.5q4 -35 -21.5 -68.5t-55.5 -19.5q-66 31 -136 31q-236 0 -235 -381q336 0 381 2q35 2 88 9t63 7q16 0 22.5 -25.5t6.5 -103.5v-737q0 -31 -9 -40t-34 -13 q-63 -10 -135 -10q6 252 6 323v477q-43 -6 -391 -6q-2 -127 1 -444.5t3 -333.5q-51 -14 -154 -14q-16 0 -20 5t-4 23q2 100 2 764h-391q-2 -127 1 -444.5t3 -333.5q-55 -14 -154 -14q-16 0 -21 5t-5 23q4 147 4 764q-111 2 -111 47zM328 897h389q0 186 55 279 q-59 68 -186 67q-123 0 -190.5 -93t-67.5 -253z"/>
<glyph unicode="ﬄ" horiz-adv-x="1593" d="M43 825q35 43 111 70q10 233 153 362q113 104 299 105q150 0 240 -82q111 123 289 123q104 0 178 -39q86 39 112 39q12 0 17.5 -8.5t8.5 -36t3 -88.5v-1000q0 -152 8 -270q-51 -14 -153 -14q-27 0 -27 24v785q-98 -16 -391 -15q-2 -125 2 -439t4 -339q-55 -14 -154 -14 q-27 0 -26 28q2 100 2 764h-393q-2 -125 2 -439t4 -339q-55 -14 -154 -14q-16 0 -21 5t-5 23q2 111 2 762q-111 0 -111 47zM328 897h391q0 168 53 279q-59 72 -188 71q-119 0 -187.5 -95t-68.5 -255zM891 897h389v303q0 33 -10 41q-49 47 -142 47q-233 0 -237 -391z"/>
</font>
</defs>
</svg>
