<?xml version="1.0" encoding="UTF-8" standalone="no"?>
<!DOCTYPE svg PUBLIC "-//W3C//DTD SVG 1.1//EN" "http://www.w3.org/Graphics/SVG/1.1/DTD/svg11.dtd">
<svg xmlns="http://www.w3.org/2000/svg">
<metadata>
This is a custom SVG webfont generated by Font Squirrel.
Copyright   :  1996 2001 Adobe Systems Incorporated All Rights Reserved
Designer    : Robert Slimbach
Foundry URL : httpwwwadobecomtype
</metadata>
<defs>
<font id="CronosProSemibold" horiz-adv-x="997">
<font-face units-per-em="2048" ascent="1597" descent="-451"/>
<missing-glyph horiz-adv-x="428"/>
<glyph unicode=" " horiz-adv-x="428"/>
<glyph unicode="	" horiz-adv-x="428"/>
<glyph unicode=" " horiz-adv-x="428"/>
<glyph unicode="!" horiz-adv-x="450" d="M78 121q0 66 40 107.5t113 41.5h2q59 0 96.5 -42t37.5 -101q0 -68 -40 -109t-110 -41q-55 0 -97 37t-42 107zM98 1190q6 16 91 34.5t139 18.5h2q25 0 34 -9t9 -46q0 -82 -24.5 -347.5t-37.5 -346.5q-6 -37 -47 -52q-90 -23 -102 -22q-10 88 -36 386t-28 384z"/>
<glyph unicode="&quot;" horiz-adv-x="692" d="M63 1350q82 47 170 47h3q41 0 53 -30t8 -89q-2 -72 -23.5 -166t-44.5 -147q-14 -18 -53 -36t-78 -20q-4 304 -35 441zM395 1350q82 47 168 47h2q43 0 54.5 -29t7.5 -90q-2 -72 -23.5 -166t-44.5 -147q-14 -16 -53 -35t-76 -21q0 263 -35 441z"/>
<glyph unicode="#" d="M57 455q12 70 35 120h150l53 236h-129q-25 0 -32 8t-3 33q12 78 37 121h158l53 233q74 25 123 25q20 0 12 -33l-47 -225h170l53 233q49 25 121 25q16 0 12 -33l-47 -225h105q41 0 32 -43q-20 -86 -36 -119h-134l-51 -236h123q41 0 33 -38q-12 -82 -35 -123h-160l-55 -287 q-8 -8 -47 -17.5t-67.5 -9.5t-20.5 33l59 281h-176l-59 -283q-4 -18 -10.5 -24.5t-20.5 -6.5t-109 39l64 275l-121 2q-23 0 -30 8t-3 31zM381 575h172l51 236h-170z"/>
<glyph unicode="$" d="M119 169q4 46 24 71q20 33 50 12q51 -39 133 -67.5t153 -28.5q90 0 136.5 38.5t46.5 100.5q0 59 -51.5 101t-192.5 120q-139 76 -201.5 151.5t-62.5 188.5q0 147 101 228t206 90l16 110q6 41 39 49q53 12 137 13l-24 -168q57 -4 125.5 -29t105.5 -59q-2 -41 -28.5 -81 t-67.5 -38q-123 61 -213 61q-86 0 -126 -39t-40 -88q0 -57 49 -100t180 -117q68 -37 94.5 -53.5t73.5 -51t66.5 -63t36 -74t16.5 -98.5q0 -156 -100.5 -238.5t-233.5 -101.5l-16 -151q-2 -33 -51 -39q-78 -10 -127 -8l20 190q-152 12 -264 102q-14 21 -10 67z"/>
<glyph unicode="%" horiz-adv-x="1443" d="M70 891q0 129 75.5 235.5t221.5 106.5h2q135 0 207.5 -90t72.5 -248q0 -139 -74.5 -239.5t-209.5 -100.5q-133 0 -214 85t-81 251zM250 893q0 -100 28.5 -160.5t83.5 -60.5q106 0 107 219q0 225 -113 225h-2q-49 0 -76.5 -58.5t-27.5 -164.5zM285 16q393 635 762 1246 q12 23 45 4q53 -27 65 -70q-53 -84 -186 -305t-280.5 -458.5t-289.5 -465.5q-16 -25 -28.5 -29t-24.5 9q-45 26 -63 69zM795 309q0 131 75.5 237.5t223.5 106.5h2q135 0 207.5 -90t72.5 -250q0 -137 -75.5 -237.5t-209 -100.5t-215 83t-81.5 251zM975 313q0 -221 115 -221 q106 0 106 219q0 225 -115 226h-2q-47 0 -75.5 -61t-28.5 -163z"/>
<glyph unicode="&amp;" horiz-adv-x="1374" d="M84 330q0 59 20.5 110.5t61.5 91t71.5 62t79.5 53.5q10 6 17 10q-125 125 -125 281q0 135 95 227t247 92q141 0 231 -72.5t90 -211.5q0 -55 -19 -101.5t-58 -84t-71 -61.5t-81 -54q-10 -6 -16 -10q51 -47 147 -133.5t109 -98.5q143 287 176 344q43 70 88 70q96 0 158 -51 v-9q-98 -109 -306 -473q94 -84 163 -148.5t109 -103.5t42 -41l-2 -8q-98 -35 -230 -35q-47 0 -90 37q-61 61 -137 127q-158 -164 -369 -164q-184 0 -292.5 95.5t-108.5 259.5zM326 375q0 -90 63.5 -154.5t165.5 -64.5h2q117 0 191 88q-14 14 -95.5 91t-141.5 136t-89 92 q-96 -65 -96 -188zM420 967q0 -106 117 -215q131 90 131 215q0 70 -35 110.5t-88 40.5t-89 -40t-36 -109v-2z"/>
<glyph unicode="'" horiz-adv-x="360" d="M63 1350q78 47 168 47h2q41 0 53.5 -30t8.5 -89q-8 -178 -68 -315q-12 -18 -52 -35t-79 -19q0 277 -33 441z"/>
<glyph unicode="(" horiz-adv-x="708" d="M113 500v2q0 303 111.5 542.5t307.5 389.5q33 -10 59.5 -55.5t18.5 -80.5q-145 -145 -223 -345.5t-78 -426.5q0 -236 80 -439.5t221 -332.5q-4 -53 -39.5 -94t-60.5 -37q-186 106 -291.5 360.5t-105.5 516.5z"/>
<glyph unicode=")" horiz-adv-x="708" d="M109 -244q145 147 223 348t78 428q0 236 -80 440t-221 331q4 55 38.5 95t59.5 36q166 -92 282.5 -343t116.5 -532v-2q0 -293 -107.5 -534.5t-308.5 -399.5q-33 12 -60 54t-21 79z"/>
<glyph unicode="*" horiz-adv-x="763" d="M68 918q-12 39 16 51l221 59l-190 88q-51 25 -29 70q27 51 94 96l176 -192l-12 266q53 16 113 6q61 -10 49 -49l-72 -221l201 149q51 -43 63 -113q10 -53 -34 -63l-199 -45l201 -94q51 -23 28 -72q-29 -63 -90 -94l-188 192l20 -258q-43 -14 -133 0q-49 8 -29 74l66 193 l-207 -160q-53 33 -65 117z"/>
<glyph unicode="+" horiz-adv-x="1196" d="M127 440q2 90 16.5 127t51.5 37h315v197q0 115 -6 170l131 10q33 2 42 -11.5t9 -62.5v-303h381q2 -90 -13.5 -127t-56.5 -37h-311v-362q0 -55 -100 -60l-76 -4v426h-383z"/>
<glyph unicode="," horiz-adv-x="428" d="M-43 -215q147 180 147 385q0 51 -12 92q106 53 176 53h2q39 0 58.5 -41t19.5 -92q0 -94 -60.5 -196.5t-135.5 -155.5q-68 -49 -195 -45z"/>
<glyph unicode="-" horiz-adv-x="643" d="M68 365q8 70 33.5 122t43.5 56q311 59 424 92l4 -8q-8 -66 -37.5 -125.5t-70.5 -67.5q-70 -29 -201 -55.5t-190 -24.5z"/>
<glyph unicode="." horiz-adv-x="428" d="M70 123q0 68 40 112t111 44h2q61 0 98 -43t37 -105q0 -70 -41 -112t-108 -42q-55 0 -97 38t-42 108z"/>
<glyph unicode="/" horiz-adv-x="784" d="M84 -193l424 1446q8 31 22.5 42.5t51.5 13.5l123 4l-412 -1432q-12 -41 -29.5 -53t-62.5 -16z"/>
<glyph unicode="0" d="M59 598q0 117 23.5 224.5t75 202.5t143.5 151.5t215 56.5h2q104 0 184 -44t123 -108.5t70 -153.5t35 -162t8 -149q0 -315 -116.5 -478t-329.5 -163q-184 0 -308.5 146.5t-124.5 476.5zM315 614q0 -182 32 -296.5t72 -152.5t89 -38q176 0 176 494q0 461 -184 460h-2 q-86 0 -134.5 -127t-48.5 -340z"/>
<glyph unicode="1" d="M166 928l51 139q289 84 473 166l17 -10q0 -66 3 -577t3 -597q0 -29 -12.5 -39t-41.5 -14q-90 -8 -206 -8q4 217 4 1005q-135 -47 -285 -73z"/>
<glyph unicode="2" d="M72 1044q70 92 176 140.5t223 48.5q168 0 262 -101.5t94 -259.5q0 -141 -98 -299q-96 -156 -338 -393q125 -12 533 0q-10 -51 -44 -100t-59 -60q-41 -27 -203 -26q-418 0 -522 20l-10 19l39 88q242 254 344 412.5t102 302.5q0 92 -47 148t-139 56q-104 0 -209 -84 q-57 -43 -86 17q-14 24 -18 71z"/>
<glyph unicode="3" d="M90 150l6 4q129 -49 254 -50q150 0 218.5 63.5t68.5 170.5q0 94 -66.5 144t-193.5 50q-25 0 -68 -5t-51 -5l-8 6q4 33 24.5 79t36.5 63q131 29 194.5 81t63.5 140q0 72 -43 115t-118 43q-96 0 -197 -72q-57 -41 -84 6q-18 35 -14 86q49 66 150.5 115t205.5 49t179 -32 t110 -80t49 -91t14 -82q0 -176 -219 -276q152 -29 228.5 -112t76.5 -202q0 -197 -146.5 -308t-375.5 -111q-166 0 -240 57q-61 58 -55 154z"/>
<glyph unicode="4" d="M39 446q76 141 258 398.5t262 341.5q104 63 266 88l6 -14q-369 -438 -559 -779q133 -16 291 -14l8 272q29 18 105 40t125 26l8 -8v-332q14 0 71.5 4t75.5 4l2 -4q-23 -100 -61 -145q-20 -10 -88 -21v-254q0 -39 -59 -49q-74 -12 -201 -12q12 201 12 313q-297 0 -457 29 q-14 10 -39.5 50.5t-25.5 65.5z"/>
<glyph unicode="5" d="M109 606q25 143 71.5 345t65.5 243q68 -2 305 13.5t278 27.5l5 -8q-25 -125 -80 -168q-53 -43 -379 -58q-25 -88 -56 -243q178 -23 293 -58q156 -47 226.5 -124.5t70.5 -213.5q0 -193 -153.5 -308t-370.5 -115q-156 0 -211 45t-55 141l6 8q88 -33 211 -33q137 0 225 58.5 t88 175.5q0 131 -170 184q-131 39 -350 60z"/>
<glyph unicode="6" d="M57 487q0 305 203 533q117 129 267.5 190.5t258.5 61.5q98 0 136 -109l-2 -4q-305 -47 -453 -217q-150 -174 -150 -446q0 -180 61.5 -274.5t151.5 -94.5q76 0 121 61.5t45 157.5q0 123 -59 176t-133 53q-70 0 -131 -30q0 31 13 71.5t34 57.5q78 68 205 67 q158 0 236.5 -102t78.5 -238q0 -193 -122 -309.5t-314 -116.5q-197 0 -322 129t-125 383z"/>
<glyph unicode="7" d="M74 1075q4 31 35.5 78t64.5 74q31 -18 176 -19h572l8 -8q-4 -190 -196.5 -613t-291.5 -536q-45 -53 -131 -67q-80 -14 -145 -11l-2 11q141 176 293.5 475t228.5 555q-18 0 -176 -1t-289 -1q-96 0 -124.5 15t-22.5 48z"/>
<glyph unicode="8" d="M72 297q0 102 62.5 167.5t176.5 129.5q-193 109 -192 299q0 137 104.5 238.5t288.5 101.5h2q164 0 263.5 -87t99.5 -218q0 -94 -51.5 -156.5t-149.5 -120.5q133 -70 191.5 -140.5t58.5 -184.5q0 -154 -123 -252.5t-311 -98.5q-117 0 -204 31t-131 81t-64.5 102.5 t-20.5 107.5zM307 311q0 -82 56.5 -136t140.5 -54h2q76 0 124 46t48 122q0 63 -54.5 116.5t-185.5 114.5q-131 -84 -131 -209zM342 936q0 -68 48 -116t167 -103q106 82 107 196q0 76 -43 125t-121 49h-2q-68 0 -112 -41.5t-44 -109.5z"/>
<glyph unicode="9" d="M61 811q0 172 120 297t319 125q211 0 320.5 -149.5t109.5 -370.5q0 -352 -238 -580q-109 -102 -228.5 -148t-201.5 -46q-55 0 -82 18q-49 37 -59 98l4 6q246 39 381 172q164 164 164 492q0 160 -49.5 258t-141.5 98q-78 0 -124 -66.5t-46 -162.5q0 -117 60.5 -174 t140.5 -57q41 0 96 18q2 -31 -13 -76t-36 -63q-51 -45 -166 -45q-147 0 -238.5 97t-91.5 259z"/>
<glyph unicode=":" horiz-adv-x="428" d="M70 125q0 68 40 111t111 43h2q59 0 97 -43t38 -105q0 -70 -39.5 -112t-109.5 -42q-53 0 -96 38t-43 110zM70 713q0 68 38.5 110.5t110.5 42.5h2q59 0 96 -43t37 -104q0 -72 -39 -113t-104 -41q-57 0 -99 38t-42 110z"/>
<glyph unicode=";" horiz-adv-x="428" d="M-43 -215q147 176 147 385q0 47 -12 92q117 53 176 53h2q39 0 58.5 -41t19.5 -92q0 -94 -59.5 -196.5t-136.5 -155.5q-68 -49 -195 -45zM70 711q0 68 40 111.5t111 43.5h2q59 0 96 -43t37 -104q0 -70 -40 -112t-105 -42q-55 0 -98 37t-43 109z"/>
<glyph unicode="&lt;" horiz-adv-x="1196" d="M182 428q0 72 25 115l727 395q41 23 57 -20q23 -53 23 -123l-635 -322v-6l635 -324q0 -72 -29 -133q-12 -29 -51 -10l-721 379q-31 16 -31 49z"/>
<glyph unicode="=" horiz-adv-x="1196" d="M129 223q2 90 16.5 127t49.5 37h872q-2 -84 -15.5 -124t-52.5 -40h-870zM129 633q2 90 16.5 127t49.5 37h872q-2 -84 -15.5 -124t-52.5 -40h-870z"/>
<glyph unicode="&gt;" horiz-adv-x="1196" d="M182 143l635 322v6l-635 322q0 23 9.5 68.5t19.5 64.5q12 33 53 10l719 -379q31 -16 31 -47q0 -74 -25 -117l-727 -393q-41 -23 -57 18q-23 55 -23 125z"/>
<glyph unicode="?" horiz-adv-x="737" d="M88 1055q-12 45 0 75q115 113 297 113h2q129 0 208 -70.5t79 -191.5q0 -119 -131 -262q-123 -137 -123 -217q0 -45 20 -94q-16 -25 -75.5 -25t-99.5 45t-40 125q0 100 101 219q102 117 102 184q0 47 -30.5 72t-75.5 25q-88 0 -183 -62h-10q-29 19 -41 64zM217 121 q0 66 40 107.5t114 41.5h2q59 0 97 -42t38 -101q0 -68 -41 -109t-109 -41q-55 0 -98 38t-43 106z"/>
<glyph unicode="@" horiz-adv-x="1603" d="M84 381q0 362 228.5 591.5t590.5 229.5q274 0 450.5 -162.5t176.5 -425.5q0 -227 -136.5 -377.5t-334.5 -150.5q-96 0 -135 49t-19 164q-125 -213 -319 -213q-74 0 -120 64.5t-46 181.5q0 227 138 379.5t362 152.5q53 0 97 -6t99 -18.5t72 -14.5q-18 -59 -54 -234 t-47 -257q-14 -104 58 -105q76 0 148.5 102.5t72.5 286.5q0 199 -133 325t-334 126q-188 0 -335.5 -93t-222.5 -243.5t-75 -326.5q0 -246 142.5 -392.5t379.5 -146.5q184 0 347 110l6 -2q20 -23 15 -74t-38 -73q-131 -109 -387 -109q-287 0 -467 176.5t-180 485.5zM629 367 q0 -121 59 -121h2q47 0 110.5 63.5t110.5 173.5q14 33 68 238q-33 12 -86 12q-121 0 -192.5 -113.5t-71.5 -252.5z"/>
<glyph unicode="A" horiz-adv-x="1300" d="M29 14v9q172 406 503 1198l-16 43q115 25 215 24q31 0 47 -37q55 -133 183.5 -455.5t138.5 -351.5q150 -375 174 -424v-8q-78 -25 -230 -24q-27 0 -41 13t-28 52q-55 158 -113 299h-463q-16 -41 -46.5 -118.5t-52 -133t-34 -84t-57.5 -28.5q-96 -1 -180 26zM457 522h356 q-39 106 -81 215t-64.5 170.5t-32.5 87.5q-6 -16 -71.5 -192.5t-106.5 -280.5z"/>
<glyph unicode="B" horiz-adv-x="1112" d="M139 1255q43 10 164 23.5t211 13.5q111 0 194 -21.5t130 -54t74.5 -77.5t36.5 -85t9 -83q0 -90 -51 -160t-129 -113q127 -35 193.5 -116.5t66.5 -188.5q0 -201 -149.5 -307t-399.5 -106q-190 0 -344 34v981q0 168 -6 260zM397 141q41 -10 107 -10q117 0 187.5 63.5 t70.5 180.5q0 100 -70.5 155.5t-199.5 55.5q-63 0 -95 -6v-439zM397 727q63 11 178 11q19 0 39 -1q43 20 71 72.5t28 126.5q0 96 -57.5 149.5t-155.5 53.5q-61 0 -103 -9v-403z"/>
<glyph unicode="C" horiz-adv-x="1212" d="M70 627q0 311 207.5 497.5t519.5 186.5q131 0 238.5 -34t138.5 -69v-12q0 -48 -29 -84q-27 -34 -65 -34q-7 0 -15 1q-127 55 -270 56q-197 0 -324 -127t-127 -363q0 -217 133 -354t371 -137q133 0 299 51l6 -4q-10 -106 -68 -162q-109 -70 -297 -70q-344 0 -531 179.5 t-187 478.5z"/>
<glyph unicode="D" horiz-adv-x="1355" d="M143 1253q47 10 178.5 24.5t241.5 14.5q176 0 311.5 -42t212 -104.5t125 -151.5t63.5 -167.5t15 -167.5q0 -322 -205.5 -500.5t-531.5 -178.5q-213 0 -406 38v1002q0 127 -4 233zM403 156q66 -16 160 -17q61 0 118.5 12.5t120 47t108.5 90t76 149.5t30 217 q0 231 -126 354.5t-355 123.5q-80 0 -132 -11v-966z"/>
<glyph unicode="E" horiz-adv-x="964" d="M141 1251q102 25 232 29h497q-14 -106 -61 -158q-31 -12 -193 -12h-213v-367h447q-12 -100 -44 -135t-91 -35h-312v-401q66 -14 191 -14q233 0 332 8l4 -4q-25 -117 -109 -164q-47 -10 -278 -10q-266 0 -365 20l-31 39v946q0 172 -6 258z"/>
<glyph unicode="F" horiz-adv-x="931" d="M141 1249q84 23 248 31h520q-18 -104 -71 -158q-27 -12 -160 -12h-275v-408h463q-14 -109 -48 -139.5t-101 -30.5h-314q0 -299 7 -528q-55 -16 -217 -16q-25 0 -35.5 8t-10.5 31v1005q0 111 -6 217z"/>
<glyph unicode="G" horiz-adv-x="1325" d="M70 631q0 309 208.5 494.5t518.5 185.5q152 0 265.5 -38t158.5 -81q2 -59 -36 -99q-30 -32 -68 -32q-10 0 -19 2q-139 68 -307 67q-197 0 -322 -125.5t-125 -357.5q0 -252 140.5 -385t336.5 -133q90 0 144 23v268q0 84 -9 182q197 31 221.5 31t34 -12.5t9.5 -42.5v-463 q-68 -57 -162 -103q-150 -43 -281 -43q-109 0 -206 19.5t-191 67.5t-161.5 121t-108.5 190t-41 264z"/>
<glyph unicode="H" horiz-adv-x="1351" d="M141 -12q6 123 6 374v648q0 203 -6 262q86 16 219 16q27 0 35 -20.5t8 -89.5v-426h547v471q0 31 11.5 42t37.5 15q27 2 213 8q-6 -117 -6 -370v-662q0 -129 6 -252q-66 -16 -219 -16q-43 0 -43 39v561q-61 -6 -233 -6h-314v-531q0 -31 -13 -41t-50 -14q-83 -9 -153 -9 q-24 0 -46 1z"/>
<glyph unicode="I" horiz-adv-x="548" d="M141 1272q98 16 221 16q27 0 34 -20.5t7 -89.5v-922q0 -129 7 -252q-55 -16 -220 -16q-25 0 -34 8t-9 33v983q0 201 -6 260z"/>
<glyph unicode="J" horiz-adv-x="548" d="M-74 -150l2 7q88 16 131 52t65.5 129t22.5 271v705q0 203 -6 258q141 16 221 16q27 0 34 -20.5t7 -87.5v-867q0 -199 -28.5 -303t-98.5 -176q-45 -45 -111.5 -72.5t-123.5 -27.5q-43 0 -75 33.5t-40 82.5z"/>
<glyph unicode="K" horiz-adv-x="1202" d="M141 1272q104 16 221 16q27 0 34 -19.5t7 -88.5v-527q342 393 537 643q76 0 141 -12q59 -9 59 -38q0 -23 -30 -60q-53 -66 -223 -259.5t-221 -252.5q78 -117 253 -335t273 -321v-6q-43 -29 -205 -28q-49 0 -82 18t-80 74q-82 96 -238.5 299t-183.5 248v-367 q0 -129 7 -252q-53 -16 -217 -16q-25 0 -35.5 8t-10.5 31v985q0 201 -6 260z"/>
<glyph unicode="L" horiz-adv-x="913" d="M141 1272q121 16 221 16q27 0 34 -21.5t7 -99.5v-995q55 -14 185 -14q209 0 309 10l2 -4q-18 -117 -104 -166q-47 -10 -258 -10q-256 0 -359 20l-31 39v961q0 201 -6 264z"/>
<glyph unicode="M" horiz-adv-x="1695" d="M80 6q12 70 82.5 508t116.5 707l-7 39q143 29 224 28q23 -6 39 -33.5t45 -107.5l276 -764q287 754 326 846v31q20 10 96 19t121 9q31 0 39 -63l108 -754q57 -383 74 -465q-63 -18 -205 -18q-51 0 -57 51q-18 164 -47 432l-60 514q-25 -78 -71.5 -214t-116.5 -338 t-121 -351q-18 -55 -74 -68q-86 -14 -127 -14q-41 131 -321 981q-18 -160 -121 -961q-6 -33 -37 -32q-149 0 -182 18z"/>
<glyph unicode="N" horiz-adv-x="1361" d="M113 1262v10q104 16 252 16q25 0 57 -37q94 -135 381 -577q176 -279 217 -365q-10 131 -10 340v572q0 33 9 44t34 15q84 8 166 8q-6 -133 -7 -377v-903q-16 -8 -84.5 -20.5t-109.5 -12.5q-31 0 -51 29q-117 162 -373 557q-98 156 -252 445q10 -172 10 -418v-537 q0 -31 -9 -41t-36 -14q-51 -9 -117 -9q-22 0 -47 1q6 123 7 372v850z"/>
<glyph unicode="O" horiz-adv-x="1460" d="M70 629q0 297 179 489.5t486 192.5h2q301 0 477.5 -189.5t176.5 -470.5q0 -291 -175.5 -486.5t-486.5 -195.5q-170 0 -301 58.5t-207 156t-113.5 211t-37.5 234.5zM346 653q0 -246 116 -385t286 -139q174 0 272 133t98 371q0 225 -108.5 371.5t-294.5 146.5h-2 q-160 0 -263.5 -128t-103.5 -370z"/>
<glyph unicode="P" horiz-adv-x="1062" d="M139 1268q166 25 336 24q528 0 529 -415q0 -104 -41 -187.5t-103.5 -129.5t-126 -69.5t-119.5 -23.5q-74 0 -104 16q-25 14 -46.5 53t-21.5 87q25 -6 66 -7q94 0 161.5 59.5t67.5 201.5q0 133 -73.5 194.5t-178.5 61.5q-39 0 -82 -7v-878q0 -121 7 -244q-55 -16 -217 -16 q-45 0 -46 37v966q0 183 -8 277z"/>
<glyph unicode="Q" horiz-adv-x="1460" d="M70 629q0 299 179 490.5t486 191.5h2q303 0 478.5 -188.5t175.5 -471.5q0 -219 -100.5 -385t-282.5 -239q78 -37 192 -123q205 -150 342 -172v-8q-23 -53 -80 -82t-116 -29q-150 0 -433 221q-145 119 -284 137q-266 43 -412.5 216.5t-146.5 441.5zM346 651.5 q0 -241.5 116 -382t288 -140.5q174 0 271 133t97 369q0 227 -105.5 373.5t-295.5 146.5h-2q-162 0 -265.5 -129t-103.5 -370.5z"/>
<glyph unicode="R" horiz-adv-x="1122" d="M139 -12q6 123 6 374v687q0 152 -4 208q43 10 164 22.5t189 12.5q248 0 367.5 -89t119.5 -281q0 -215 -246 -326q55 -49 180 -264q131 -227 215 -320v-8q-27 -20 -165 -20q-115 0 -183 92q-51 68 -178 313q-45 82 -80 107.5t-90 25.5h-37v-473q0 -29 -10 -39t-37 -14 q-76 -8 -211 -8zM397 670q20 -2 47.5 -2t61.5 2q68 4 88 14q45 16 85 70.5t40 144.5q0 121 -65.5 181.5t-168.5 60.5q-51 0 -88 -6v-465z"/>
<glyph unicode="S" horiz-adv-x="921" d="M53 119q0 31 17.5 76t31.5 55q57 -41 140.5 -68.5t154.5 -27.5q94 0 151.5 41t57.5 116q0 68 -50 119t-204 135q-164 88 -221 181.5t-57 201.5q0 57 21.5 115.5t68.5 117t137 94.5t209 36h2q82 0 169 -29t126 -70q0 -47 -28 -90q-26 -41 -72 -41h-5q-98 51 -200 52 q-84 0 -135.5 -38t-51.5 -104q0 -70 53.5 -119t204.5 -135q156 -88 222.5 -164.5t66.5 -212.5q0 -182 -135 -286.5t-328 -104.5q-190 0 -299 80q-47 31 -47 70z"/>
<glyph unicode="T" horiz-adv-x="1138" d="M37 1171q27 74 67 119q41 -10 295 -10h729q-6 -74 -37.5 -118t-68.5 -52h-326v-856q0 -127 6 -250q-92 -16 -219 -16q-43 0 -43 37v1085h-368q-40 0 -40 34q0 11 5 27z"/>
<glyph unicode="U" horiz-adv-x="1359" d="M131 1272q98 16 219 16q27 0 35 -21.5t8 -97.5v-573q0 -135 26.5 -228.5t75 -137.5t95.5 -60t108 -16q70 0 119 17t94 64.5t69 142.5t24 236v615q0 45 45 51q80 8 180 8q-6 -123 -6 -373v-290q0 -166 -35 -288t-87 -191.5t-130 -110.5t-147.5 -53.5t-153.5 -12.5 q-266 0 -399.5 147.5t-133.5 471.5v420q0 201 -6 264z"/>
<glyph unicode="V" horiz-adv-x="1259" d="M33 1243q150 45 239 45q23 0 38.5 -25.5t45.5 -107.5q20 -55 85 -231t121 -336t102 -301q23 63 358 1003q119 0 180 -26q25 -9 25 -40q0 -20 -10 -48q-129 -340 -447 -1108q-25 -57 -51 -68q-43 -25 -189 -25q-341 914 -497 1268z"/>
<glyph unicode="W" horiz-adv-x="1800" d="M43 1243q31 14 103.5 29.5t115.5 15.5q31 0 46.5 -25.5t41.5 -113.5q199 -731 223 -825q14 61 51.5 192t93.5 329.5t93 332.5q-2 33 -12 69q104 41 186 41h2q31 0 49 -65q74 -242 240 -916q281 950 289 981q70 0 135 -12q43 -6 56 -25q7 -10 7 -25t-6 -36 q-129 -416 -385 -1124q-18 -55 -47 -68q-45 -23 -182 -23l-92 359q-92 358 -146 559q-121 -438 -233 -813q-18 -66 -58 -82q-63 -23 -168 -23q-37 119 -118.5 397.5t-150 492.5t-134.5 378z"/>
<glyph unicode="X" horiz-adv-x="1187" d="M20 10v8q254 356 439 619q-289 444 -408 606v4q160 41 242 41q31 0 72 -63q121 -186 251 -385q104 152 279 409q29 39 53 39q27 0 87.5 -13t97.5 -30v-6q-203 -289 -406 -559q111 -170 209 -318.5t154.5 -233.5t72.5 -110v-6q-66 -35 -243 -35q-39 0 -68 43 q-106 164 -283 451q-57 -94 -167.5 -260t-125.5 -188q-20 -35 -57 -35q-136 -1 -199 22z"/>
<glyph unicode="Y" horiz-adv-x="1161" d="M33 1245v6q125 37 223 37q29 0 47.5 -16.5t54.5 -79.5q43 -68 144.5 -241t118.5 -199q61 94 175.5 285.5t147.5 250.5q115 0 172 -20q22 -8 22 -31q0 -21 -20 -53q-23 -37 -110.5 -170t-173.5 -260t-93 -138q-23 -39 -22 -86v-280q0 -111 6 -246q-76 -16 -225 -16 q-23 0 -30 7t-7 30v483q0 66 -17 94q-151 260 -413 643z"/>
<glyph unicode="Z" horiz-adv-x="1112" d="M51 55q176 244 381 575t283 482h-518q-86 0 -108.5 18.5t-8.5 57.5q18 57 70 108q49 -16 153 -16h723q-6 -63 -41 -164q-37 -80 -219 -391t-338 -555q74 -12 323 -13h53q206 0 286 7l2 -4q-18 -59 -59.5 -106.5t-67.5 -57.5q-74 -8 -324 -8q-412 0 -559 16q-29 28 -31 51 z"/>
<glyph unicode="[" horiz-adv-x="706" d="M190 -162.5q0 113.5 2.5 305t2.5 291.5v2q0 565 18 912q8 6 154.5 20t220.5 14q20 -35 20 -112q0 -10 -7 -14.5t-34 -8.5q-70 -8 -141 -22q-27 -6 -31 -47q-10 -131 -14 -758q-2 -532 6 -588q6 -39 45 -45q12 -2 31.5 -5t50.5 -6t53 -7q25 -4 23 -33q-2 -68 -21 -103 q-82 0 -171 7.5t-143 15.5t-58 14q-7 54 -7 167.5z"/>
<glyph unicode="\" horiz-adv-x="708" d="M94 1251q-8 27 0 41.5t43 16.5l127 4l363 -1432q10 -41 2 -53t-41 -14l-137 -7z"/>
<glyph unicode="]" horiz-adv-x="706" d="M96 -254q0 16 41 23q76 10 142 22q27 6 30 47q10 131 15 758q2 535 -7 590q-6 37 -45 43q-4 0 -133 18q-27 4 -24 33q2 63 22 102q82 0 170 -7t141.5 -15t59.5 -14q6 -53 6 -167t-2 -305.5t-2 -291.5v-2q0 -549 -18 -912q-8 -6 -155 -20.5t-220 -14.5q-21 35 -21 113z "/>
<glyph unicode="^" horiz-adv-x="1196" d="M154 446l338 746q8 18 17 24.5t36 8.5q96 10 147 8l350 -787q-12 -8 -61 -21t-84 -13q-33 0 -55 47l-246 588l-254 -603q-14 -33 -39 -32q-23 0 -78 12t-71 22z"/>
<glyph unicode="_" horiz-adv-x="1024" d="M0 -154h1024v-102h-1024v102z"/>
<glyph unicode="`" horiz-adv-x="819" d="M166 1307q-18 18 8 43q68 61 152 59q29 -2 82 -110.5t75 -194.5q12 -31 -14 -51q-31 -20 -72 -29q-106 158 -231 283z"/>
<glyph unicode="a" horiz-adv-x="927" d="M53 229q0 59 29 108.5t65.5 79t98 54.5t99.5 35t99 24q18 4 56.5 10.5t50.5 10.5v35q0 68 -44 111.5t-118 43.5q-90 0 -190 -59q-19 -5 -34 -5q-34 0 -53 24q-28 36 -28 92q184 133 371 133q143 0 238 -92.5t95 -253.5q0 -35 -4 -168t-4 -205q0 -23 19.5 -39t54.5 -16 q14 0 35 4v-9q2 -82 -42 -127t-130 -45q-123 0 -166 115q-106 -115 -242 -115q-104 0 -180 71.5t-76 182.5zM291 264q0 -51 34.5 -81.5t86.5 -30.5q70 0 118 53q16 20 17 69v146q-127 -14 -191.5 -56t-64.5 -98v-2z"/>
<glyph unicode="b" horiz-adv-x="1062" d="M121 1352q37 12 110.5 24.5t106.5 12.5q25 0 32 -23t7 -113v-403q141 76 235 76q184 0 289 -121t105 -311q0 -233 -160 -376t-395 -143q-154 0 -271 50q-51 20 -51 61v1044q0 136 -8 222zM377 139q43 -12 96 -12q109 0 192 82t83 248q0 127 -67 205.5t-183 78.5 q-72 0 -121 -28v-574z"/>
<glyph unicode="c" horiz-adv-x="872" d="M61 430q0 219 144.5 357.5t361.5 138.5q96 0 169 -23.5t106 -54.5q0 -47 -25 -88q-23 -39 -69 -39h-5q-84 33 -165 33q-115 0 -189 -77t-74 -212q0 -156 86 -230.5t207 -74.5q125 0 221 39l5 -6q-4 -106 -68 -164q-86 -53 -231 -54q-209 0 -341.5 119t-132.5 336z"/>
<glyph unicode="d" horiz-adv-x="1085" d="M61 422q0 223 147.5 363.5t369.5 140.5q86 0 122 -21v234q0 141 -10 213q31 12 109 24.5t110 12.5q25 0 32 -23t7 -113v-1024q0 -57 19.5 -79.5t64.5 -32.5v-6q-8 -47 -46 -91.5t-79 -44.5q-139 0 -178 111q-59 -47 -133 -79t-131 -32q-180 0 -292 122t-112 325zM322 457 q0 -139 71.5 -217t177.5 -78q72 0 129 37v553q-45 23 -114 22q-104 0 -184 -79.5t-80 -237.5z"/>
<glyph unicode="e" horiz-adv-x="909" d="M59 440q0 197 120 341.5t319 144.5q180 0 270 -105.5t92 -247.5q0 -43 -6 -67q-8 -39 -172 -80q-57 -14 -206 -14q-74 0 -171 4q8 -127 87 -191.5t194 -64.5q129 0 229 47l4 -4q0 -61 -37 -118.5t-69 -72.5q-80 -37 -191 -37q-225 0 -344 120t-119 345zM309 557 q78 -6 150.5 -6t140.5 6q27 0 27 51q0 74 -36 123q-38 51 -114 51h-2q-61 0 -110.5 -58t-55.5 -167z"/>
<glyph unicode="f" horiz-adv-x="581" d="M29 817q12 14 27.5 26.5t24.5 18.5t32.5 19.5t33.5 19.5q0 268 144 406q104 94 254 94h2q94 0 141 -47q3 -11 3 -22q0 -32 -21 -68q-28 -47 -65 -48q-2 0 -3 1q-27 10 -55 10q-146 0 -146 -294v-32q213 0 246 4q-8 -94 -63 -133q-37 -29 -189 -29q0 -94 4 -392t4 -347 q-104 -16 -227 -16q-16 0 -24.5 7t-8.5 28q4 147 4 720q-118 8 -118 74z"/>
<glyph unicode="g" horiz-adv-x="921" d="M29 -168q0 104 188 193q-51 20 -87 66t-38 108q0 16 19 26q100 63 141 107q-182 68 -182 266q0 145 107.5 236.5t271.5 91.5h2q88 0 167 -23q127 -27 154 -26q94 0 158 22q10 -20 10 -51q0 -106 -104 -119q-8 -2 -29 -3t-31 -1q25 -57 25 -117q0 -150 -102.5 -230.5 t-256.5 -80.5q-49 0 -73 8q-33 -33 -33 -49q0 -49 92 -57q39 -2 121 -7.5t123 -9.5q133 -8 196.5 -74.5t63.5 -164.5q0 -174 -147.5 -277.5t-350.5 -103.5q-182 0 -293.5 76.5t-111.5 193.5zM248 -133v-2q0 -66 70.5 -105t175.5 -39q98 0 162.5 37t64.5 103q0 96 -143 114 q-79 13 -155 14q-19 0 -38 -1q-45 0 -72 -17q-65 -36 -65 -104zM303 612q0 -86 40 -135t108 -49q61 0 99 50t38 128t-35 132.5t-111 54.5h-2q-61 0 -99 -52.5t-38 -128.5z"/>
<glyph unicode="h" horiz-adv-x="1083" d="M121 1352q31 12 107.5 24.5t111.5 12.5q23 0 30 -23t7 -113v-448q147 121 285 121q141 0 216.5 -98.5t75.5 -266.5v-272q0 -180 7 -285q-121 -16 -213 -16q-41 0 -41 43v520q0 90 -43 139t-115 49q-86 0 -172 -69v-615q0 -29 -8.5 -40t-38.5 -17q-88 -10 -207 -10 q6 164 6 370v772q0 136 -8 222z"/>
<glyph unicode="i" horiz-adv-x="503" d="M121 889q80 25 219 24q23 0 30 -21.5t7 -107.5v-735q0 -27 -12.5 -38t-47.5 -15q-55 -8 -194 -8q6 252 6 321v350q0 148 -8 230zM121 1217q0 68 44 103.5t91 35.5h2q57 0 91 -38t34 -95q0 -59 -38 -99.5t-95 -40.5q-53 0 -91 34t-38 100z"/>
<glyph unicode="j" horiz-adv-x="503" d="M-88 -332l2 6q88 33 130 77t63.5 149.5t21.5 310.5v453q0 147 -8 225q80 25 219 24q23 0 30 -21.5t7 -107.5v-604q0 -332 -111 -477q-53 -72 -121.5 -106.5t-121.5 -34.5q-41 0 -72 30.5t-39 75.5zM121 1214q0 68 44 104t91 36h2q57 0 91 -39t34 -96q0 -59 -38 -98.5 t-95 -39.5q-53 0 -91 33.5t-38 99.5z"/>
<glyph unicode="k" horiz-adv-x="970" d="M121 1358q76 31 219 31q23 0 30 -23t7 -113v-782q66 72 205 237.5t178 217.5q11 1 23 0q57 0 120 -17q39 -11 39 -33q0 -20 -31 -59q-82 -102 -282 -319q45 -76 164.5 -239t191.5 -241l-2 -6q-61 -29 -182 -28q-51 0 -83 18t-69 70q-215 274 -272 377v-400 q0 -31 -12.5 -40t-51.5 -13q-72 -9 -156 -9q-17 0 -34 1q6 127 6 374v768q0 142 -8 228z"/>
<glyph unicode="l" horiz-adv-x="503" d="M121 1352q29 12 104.5 24.5t112.5 12.5q25 0 32 -23t7 -111v-985q0 -152 8 -270q-70 -16 -227 -16q-29 0 -29 26v1125q0 135 -8 217z"/>
<glyph unicode="m" horiz-adv-x="1654" d="M100 809v14q16 39 62.5 71t89.5 32q41 0 67.5 -23.5t37 -48.5t18.5 -66q162 137 297 138q172 0 248 -150q162 150 313 150q82 0 142.5 -33t91 -87t45 -112.5t14.5 -122.5v-278q0 -184 6 -289q-188 -16 -215 -16q-39 0 -39 39v526q0 88 -40 137t-114 49q-82 0 -168 -77 v-611q0 -29 -8 -39t-39 -14q-72 -10 -207 -10q6 164 7 372v193q0 88 -39 137t-111 49q-90 0 -172 -77v-607q0 -29 -8 -40t-39 -17q-86 -10 -207 -10q6 164 6 372v345q0 81 -39 104z"/>
<glyph unicode="n" horiz-adv-x="1093" d="M100 807v14q16 39 61.5 72t92.5 33q94 0 121 -138q156 137 284 138q305 0 306 -375v-258q0 -197 8 -289q-188 -16 -215 -16q-41 0 -41 39v526q0 88 -42 137t-112 49q-88 0 -176 -75v-613q0 -29 -8 -39t-39 -12q-84 -12 -207 -12q6 164 6 372v336q0 88 -39 111z"/>
<glyph unicode="o" horiz-adv-x="1042" d="M59 442q0 209 134.5 346.5t338.5 137.5h3q213 0 331.5 -132t118.5 -331q0 -217 -130 -352.5t-343 -135.5q-201 0 -327 126t-126 341zM319 469q0 -166 60.5 -254t155.5 -88q92 0 141 84t49 229q0 143 -53.5 238.5t-157.5 95.5h-2q-92 0 -142.5 -85t-50.5 -220z"/>
<glyph unicode="p" horiz-adv-x="1089" d="M100 807v14q20 43 63.5 74t92.5 31q88 0 115 -121q174 121 288 121q162 0 264.5 -120t102.5 -312q0 -229 -144.5 -374t-349.5 -145q-86 0 -145 35v-379q0 -29 -8 -39t-39 -16q-86 -10 -207 -10q6 119 6 334v805q0 88 -39 102zM387 158q53 -23 117 -23q106 0 184 82 t78 242q0 119 -58.5 196.5t-152.5 77.5q-86 0 -168 -57v-518z"/>
<glyph unicode="q" horiz-adv-x="1064" d="M59 422q0 223 151.5 363.5t377.5 140.5q121 0 215 -33l133 6h8q0 -4 -4 -159.5t-4 -327.5v-779q0 -33 -21.5 -45t-97.5 -18q-82 -8 -135 -8q6 139 6 362v115q-123 -63 -194 -64q-195 0 -315 121t-120 326zM319 457q0 -137 75 -218t196 -81q51 0 100 22v576 q-41 18 -106 18q-109 0 -187 -79.5t-78 -237.5z"/>
<glyph unicode="r" horiz-adv-x="733" d="M92 811v8q12 37 60.5 72t89.5 35q125 0 129 -213q90 213 254 213q57 0 96 -35q6 -12 6 -35q0 -9 -1 -19q-3 -38 -17 -67q-6 -33 -32 -62.5t-48 -33.5q-51 20 -99 20q-31 0 -66.5 -26.5t-57.5 -83.5q-18 -49 -19 -101v-428q0 -27 -8 -39t-37 -18q-90 -10 -209 -10 q6 164 6 372v347q0 75 -47 104z"/>
<glyph unicode="s" horiz-adv-x="735" d="M57 106q4 72 54 111q119 -74 229 -74q55 0 86 23.5t31 62.5q0 53 -80 95q-25 14 -78 40.5t-78 41.5q-143 80 -143 233q0 131 97 209t237 78h2q135 0 229 -72q2 -49 -21 -90q-21 -37 -64 -37h-9q-74 33 -141 33q-47 0 -76 -22.5t-29 -59.5q0 -49 76 -92q23 -12 87 -44 t81 -40q143 -80 143 -226q0 -143 -107.5 -222t-258.5 -79q-131 0 -222 58q-45 30 -45 73z"/>
<glyph unicode="t" horiz-adv-x="718" d="M25 797q18 39 99 116.5t130 118.5q63 51 154 62q-12 -92 -13 -193h303q-12 -66 -32.5 -100.5t-36 -41.5t-41.5 -9q-94 -8 -199 -9q-7 -133 -7 -240q0 -123 9 -212q14 -137 135 -137q88 0 144 36l6 -4q6 -27 5 -49q0 -61 -40 -94q-76 -66 -225 -66q-145 0 -211 78t-66 197 v489q-51 0 -82.5 20t-31.5 38z"/>
<glyph unicode="u" horiz-adv-x="1085" d="M121 889q90 25 217 24q25 0 32 -21.5t7 -107.5v-430q0 -188 168 -188q86 0 153 63v590q0 45 8.5 59.5t34.5 20.5q127 14 211 14q0 -4 -3 -133t-3 -235v-314q0 -59 18.5 -81.5t63.5 -30.5v-13q-6 -47 -45 -89t-78 -42q-139 0 -178 131q-57 -53 -156 -102q-72 -29 -131 -29 q-158 0 -234.5 93.5t-76.5 253.5v337q0 148 -8 230z"/>
<glyph unicode="v" horiz-adv-x="921" d="M25 874q35 20 101.5 36t109.5 16h2q37 0 53 -47q135 -395 201 -611q217 627 227 658q84 0 155 -33q20 -8 26 -28q3 -10 3 -20.5t-3 -23.5q-5 -25 -21 -65q-37 -92 -139.5 -341t-149.5 -366q-16 -41 -62 -53q-86 -20 -161 -21q-49 147 -236 635q-71 192 -106 264z"/>
<glyph unicode="w" horiz-adv-x="1388" d="M20 874q37 14 110 33t112 19h2q35 0 47 -49q59 -203 158 -611q37 121 73.5 239t56 178t35.5 122q-2 12 -12 61q27 10 90.5 23.5t91.5 13.5q23 0 32 -14.5t20 -54.5q20 -78 76.5 -277t76.5 -278q109 336 189 647q109 -4 170 -25q21 -9 20 -42q0 -26 -12 -66 q-47 -137 -260 -732q-12 -33 -23.5 -46t-40.5 -21q-74 -18 -168 -19q-29 106 -82 292t-82 290q-23 -72 -80 -244t-83 -254q-16 -55 -58 -65q-92 -18 -162 -19q-10 31 -79.5 253.5t-114.5 359.5q-66 198 -103 286z"/>
<glyph unicode="x" horiz-adv-x="901" d="M20 4v6q53 80 150.5 218.5t153.5 222.5q-18 29 -137 210t-146 218v6q27 12 100.5 26.5t118.5 14.5q29 0 55 -37q14 -23 72.5 -115t91.5 -143l166 252q27 43 55 43q82 0 166 -37v-6q-39 -51 -280 -398q47 -76 164.5 -255t142.5 -216v-6q-86 -20 -223 -20q-43 0 -62 35 q-20 33 -83.5 129t-94.5 145q-25 -41 -84 -132t-92 -145q-23 -33 -57 -32q-111 0 -177 16z"/>
<glyph unicode="y" horiz-adv-x="897" d="M27 870q111 55 209 56q16 0 28 -9.5t17.5 -18.5t15.5 -30q90 -236 199 -573q55 137 111.5 328.5t76.5 302.5q74 -4 141 -23q47 -11 48 -57q0 -14 -5 -31q-98 -391 -256 -721q-96 -203 -200.5 -357.5t-139.5 -154.5q-49 0 -98 24.5t-68 51.5v8q51 55 129 168t132 213 q-25 33 -45 90q-6 18 -50.5 131t-84.5 213.5t-86.5 216t-73.5 172.5z"/>
<glyph unicode="z" horiz-adv-x="817" d="M29 53q352 541 428 686h-287q-72 0 -100.5 15.5t-20.5 48.5q23 86 62 115q31 -16 170 -17h483q-2 -18 -4 -38.5t-2 -23.5t-4 -16.5t-7.5 -20.5t-13.5 -32q-20 -49 -136 -251t-216 -359q59 -8 222 -8t218 8q-23 -109 -69 -140q-47 -29 -267 -28q-322 0 -432 20z"/>
<glyph unicode="{" horiz-adv-x="706" d="M98 608q102 20 138 61.5t36 110.5q0 41 -17 158t-19 178q0 168 114 250q88 66 244 68q14 -33 14 -93q0 -33 -30 -43q-78 -27 -112 -63.5t-34 -110.5q0 -51 21.5 -159.5t21.5 -159.5q0 -174 -164 -234q98 -37 131 -101t33 -157q0 -72 -21.5 -200.5t-21.5 -180.5 q0 -127 150 -155q29 -6 28 -29v-2q0 -74 -24 -108q-354 6 -355 286q0 51 20.5 199.5t20.5 195.5q0 88 -31.5 128t-111.5 49q-14 2 -23.5 37.5t-7.5 74.5z"/>
<glyph unicode="|" horiz-adv-x="626" d="M215 -512v2048h197v-2048h-197z"/>
<glyph unicode="}" horiz-adv-x="706" d="M96 -270q0 33 31 43q78 27 111.5 63.5t33.5 110.5q0 47 -21.5 161.5t-19.5 180.5q0 176 164 237q-164 61 -164 248q0 68 20.5 189.5t20.5 175.5q0 123 -149 155q-27 6 -27 29v2q0 68 23 109q356 -6 356 -287q0 -53 -20.5 -193.5t-20.5 -185.5q0 -80 32 -119t112 -49 q14 -2 23 -37t7 -71q-104 -23 -139 -64t-35 -111q0 -39 17.5 -168t17.5 -194q0 -168 -111 -248q-92 -68 -249 -69q-13 26 -13 92z"/>
<glyph unicode="~" horiz-adv-x="1196" d="M111 334q12 129 44.5 215t81 122t86 47t85.5 11h2q68 0 121 -32.5t126 -106.5q115 -121 168 -121q41 0 64.5 47t32.5 172q4 33 34 33q86 0 131 -45q-10 -391 -266 -391q-51 0 -102 25.5t-83 54t-81 79.5q-102 104 -154 105q-41 0 -70.5 -45t-49.5 -176q-6 -39 -41 -39 q-23 0 -69 15.5t-60 29.5z"/>
<glyph unicode="¡" horiz-adv-x="450" d="M82 -279q0 80 24.5 341.5t36.5 347.5q6 37 47 51q90 23 101 22q12 -104 37.5 -390t27.5 -384q-6 -18 -84.5 -33.5t-136.5 -15.5h-2q-51 0 -51 61zM88 776q0 68 40 109t110 41q55 0 97 -38t42 -105.5t-40 -108.5t-114 -41h-2q-57 0 -95 43t-38 100z"/>
<glyph unicode="¢" d="M131 596q0 111 41 194.5t107.5 131t125 71t117.5 35.5l10 102q4 27 19.5 38.5t64.5 15.5l91 6l-21 -158q129 -12 191 -67q2 -41 -23 -83t-70 -40q-66 33 -137 32q-135 0 -195.5 -76.5t-60.5 -181.5q0 -133 84 -197.5t191 -64.5q117 0 211 41q-2 -123 -74 -166 q-66 -41 -166 -41l-12 -125q-4 -31 -19.5 -45t-54.5 -16l-109 -6l25 203q-39 8 -75 19t-86 42t-86 71t-62.5 109.5t-26.5 155.5z"/>
<glyph unicode="£" d="M61 25v30q162 143 162 484q-94 0 -125 28q10 57 40 84t93 47q20 557 414 557q119 0 195 -63q6 -37 -18.5 -86t-65.5 -45q-45 20 -92 20q-102 0 -137 -90t-42 -293q297 0 340 7q-25 -154 -108 -164q-27 -2 -242 -2q-14 -256 -147 -377q166 -63 356 -64q141 0 231 25l5 -4 q-8 -104 -89 -166q-53 -37 -186 -37q-183 0 -584 109z"/>
<glyph unicode="¤" d="M41 176q78 84 127 152q-100 98 -100 270q0 133 98 256l-20 19q-13 13 -29.5 29t-32.5 34q-43 45 -10 88q33 49 80 61q8 -8 56 -61t77 -80q92 53 196 53h2q135 0 201 -53q80 84 125 143q82 -39 82 -104q0 -29 -109 -143q63 -92 64 -222q0 -63 -24.5 -136.5t-65.5 -114.5 q129 -141 137 -156q-10 -29 -44 -64.5t-52 -35.5q-6 0 -18.5 9t-31 28.5t-33 38t-38.5 46.5l-37 43q-88 -57 -199 -57q-92 0 -149 33q-51 -72 -90 -113q-45 -53 -99 -26q-57 30 -63 63zM252 606q0 -117 58.5 -185.5t148.5 -68.5q94 0 149.5 71t55.5 189q0 117 -55.5 184.5 t-153.5 67.5h-2q-84 0 -142.5 -70.5t-58.5 -187.5z"/>
<glyph unicode="¥" d="M20 1174v8q94 25 236 24q27 0 35 -20q20 -39 209 -408q184 369 217 426q74 10 164 -4q47 -8 30 -33q-31 -49 -140 -230t-155 -257h230q-2 -45 -19.5 -85t-48.5 -40h-194v-137h233q0 -37 -17.5 -81t-41.5 -44h-174v-293q-188 -16 -207 -16q-23 0 -32 8t-9 31v270h-234 q0 31 8.5 75t16.5 50h209v137h-244q0 29 8.5 74t16.5 51h196q-23 37 -146.5 248t-146.5 246z"/>
<glyph unicode="¦" horiz-adv-x="626" d="M215 -358v716h197v-716h-197zM215 666v716h197v-716h-197z"/>
<glyph unicode="§" horiz-adv-x="937" d="M72 727v2q0 225 219 389q100 135 274 135q90 0 154 -45q23 -25 10.5 -62.5t-37.5 -62.5q-68 37 -135 37q-55 0 -89 -23.5t-34 -62.5q0 -51 49 -107.5t160 -154.5q113 -106 164 -192t51 -222q0 -129 -67.5 -243.5t-167.5 -194.5q-92 -131 -279 -131q-86 0 -131 29 q-31 18 -39 60t10 83q68 -31 162 -31q57 0 100 30t43 77q0 12 -4 26.5t-13 32t-18.5 30.5t-26.5 34.5t-27.5 34t-33 36t-32.5 33.5t-34 35t-32 33q-94 102 -145 191t-51 204zM231 799q0 -150 193 -348q113 -113 164 -190t55 -161q59 86 59 181v2q0 96 -45 169.5t-133 161.5 q-10 10 -42.5 42t-46 46.5t-41 45t-42 51t-32 49.5t-26.5 57.5t-13 57.5q-50 -76 -50 -164z"/>
<glyph unicode="¨" horiz-adv-x="819" d="M98 1208.5q0 55.5 33 91t92 35.5h2q45 0 77 -35.5t32 -82.5q0 -59 -33 -93t-88 -34q-45 0 -80 31.5t-35 87zM485 1208.5q0 55.5 33 91t90 35.5h2q47 0 79 -34.5t32 -83.5q0 -59 -33 -93t-88 -34q-45 0 -80 31.5t-35 87z"/>
<glyph unicode="©" horiz-adv-x="1421" d="M74 647.5q0 282.5 183 463.5t458 181h2q272 0 451.5 -185t179.5 -460q0 -283 -182.5 -463t-450.5 -180q-274 0 -457.5 180.5t-183.5 463zM203 647q0 -229 147.5 -387t368.5 -158q217 0 358.5 158t141.5 391q0 227 -139.5 385t-362.5 158h-2q-221 0 -366.5 -157 t-145.5 -390zM391 647q0 152 107.5 245t263.5 93q74 0 131 -19.5t74 -41.5q0 -31 -21 -62q-20 -33 -55 -14q-90 25 -139 24q-86 0 -146.5 -58t-60.5 -158.5t64.5 -163t181.5 -62.5q98 0 163 29l4 -6q0 -70 -45 -107q-57 -35 -161 -35q-172 0 -266.5 91t-94.5 245z"/>
<glyph unicode="ª" horiz-adv-x="712" d="M53 725q0 49 26.5 86t75 59.5t90.5 35t97 22.5q16 4 70 12v18q0 35 -25 56.5t-70 21.5q-57 0 -131 -39q-78 -37 -100 45l-8 33q41 37 121 66.5t157 29.5q111 0 177.5 -55t66.5 -160q0 -20 -3 -105t-3 -128q16 -31 47 -31q10 0 41 6v-43q-4 -39 -41 -65.5t-96 -26.5 q-100 0 -131 72q-76 -72 -174 -72q-84 0 -135.5 43t-51.5 119zM244 752q0 -27 19.5 -44.5t49.5 -17.5q49 0 82 39q14 20 15 43v74q-82 -8 -124 -33t-42 -59v-2z"/>
<glyph unicode="«" horiz-adv-x="1265" d="M94 483q207 174 346 389q27 -4 57.5 -31.5t30.5 -52.5v-2q0 -31 -75.5 -151.5t-116.5 -171.5q172 -254 172 -326q2 -25 -31 -52.5t-59 -33.5q-121 219 -309 381q-15 22 -15 51zM504 483q168 127 368 416q27 -8 59 -36.5t34 -57.5q0 -39 -79 -154.5t-136 -187.5 q45 -55 121.5 -180t76.5 -164v-2q0 -25 -34.5 -53.5t-65.5 -36.5q-119 207 -322 403q-22 22 -22 53z"/>
<glyph unicode="¬" horiz-adv-x="1196" d="M129 600q4 164 66 164h849l23 -25v-536q0 -23 -13.5 -37t-38 -19.5t-44 -6.5t-46.5 -1h-34v461h-762z"/>
<glyph unicode="­" horiz-adv-x="643" d="M68 365q8 70 33.5 122t43.5 56q311 59 424 92l4 -8q-8 -66 -37.5 -125.5t-70.5 -67.5q-70 -29 -201 -55.5t-190 -24.5z"/>
<glyph unicode="®" horiz-adv-x="649" d="M59 1042q0 117 74 193t193 76h2q117 0 191.5 -77t74.5 -192q0 -113 -75 -190.5t-193 -77.5q-121 0 -194 76.5t-73 191.5zM131 1044q0 -92 55.5 -152.5t141.5 -60.5q84 0 139 60.5t55 152.5q0 90 -55 150.5t-143 60.5h-2q-84 0 -137.5 -61.5t-53.5 -149.5zM223 913v258 q41 8 94 9q111 0 111 -78q0 -45 -51 -66q6 -6 35.5 -54t40.5 -60v-7q-33 -4 -50 -4q-23 0 -38 21q-14 20 -39 65q-12 20 -35 17v-72q0 -25 -19 -27q-12 -2 -49 -2zM291 1057q25 0 39 4q27 12 26 35q0 39 -41 39q-18 0 -24 -2v-76z"/>
<glyph unicode="¯" horiz-adv-x="819" d="M166 1140.5q0 30.5 12 77t23 56.5h428q25 0 24 -27q0 -33 -13 -77t-30 -60h-415q-29 0 -29 30.5z"/>
<glyph unicode="°" horiz-adv-x="630" d="M68 979q0 111 69.5 182.5t186.5 71.5h2q109 0 174 -73t65 -173q0 -111 -71.5 -180.5t-190.5 -69.5q-92 0 -163.5 64.5t-71.5 177.5zM209 983q0 -57 31.5 -91t74.5 -34q55 0 82 36t27 91q0 51 -28.5 89t-80.5 38h-2q-47 0 -75.5 -38t-28.5 -91z"/>
<glyph unicode="±" horiz-adv-x="1196" d="M129 643q2 92 16.5 128t51.5 36h313v197q0 84 -6 139l133 10q31 2 40 -13.5t9 -58.5v-274h381q-2 -92 -15.5 -128t-52.5 -36h-313v-330q0 -27 -19.5 -42t-78.5 -17l-78 -4v393h-381zM131 0q2 94 15.5 129t50.5 35h872q-2 -92 -15.5 -128t-52.5 -36h-870z"/>
<glyph unicode="²" horiz-adv-x="649" d="M59 901q8 16 24.5 52t18.5 40q68 53 106 86t84 96.5t46 116.5q0 45 -27.5 71t-74.5 26q-94 0 -160 -56l-6 4q0 61 22 111q84 88 223 88q111 0 171.5 -57.5t60.5 -147.5q0 -31 -6 -58.5t-24.5 -56t-29 -45t-42 -45t-39 -37t-46.5 -38.5l-41 -31q80 -6 273 2 q-6 -37 -27.5 -78t-44.5 -53q-55 -16 -182 -17q-215 0 -272 13z"/>
<glyph unicode="³" horiz-adv-x="649" d="M72 963l6 6q63 -25 135 -25q162 0 162 105q0 86 -127 86q-45 0 -88 -9l-6 11q2 2 15 42t21 52q90 12 127 36.5t37 67.5q0 31 -26.5 50.5t-65.5 19.5q-78 0 -151 -59q-25 31 -25 63q0 27 27 53q27 25 85 49.5t128 24.5q94 0 153.5 -47t59.5 -115q0 -55 -29 -88t-84 -59 q156 -35 156 -168q0 -104 -95.5 -169t-230.5 -65q-82 0 -145 29q-43 43 -39 109z"/>
<glyph unicode="´" horiz-adv-x="819" d="M330 1110q106 295 168 295h2q80 0 143 -59q20 -14 -4 -41q-39 -43 -83 -96.5t-89 -112t-61 -76.5q-31 6 -72 33q-22 14 -4 57z"/>
<glyph unicode="µ" horiz-adv-x="1089" d="M113 -346l20 645v352q0 170 -8 228q111 29 217 28q25 0 32 -22.5t7 -110.5v-426q0 -98 45 -137t106 -39q109 0 164 80v559q0 43 8.5 58.5t34.5 21.5q166 14 211 16q0 -10 -3 -139t-3 -231v-301q0 -57 23.5 -83t74.5 -32v-10q-8 -51 -42.5 -93.5t-86.5 -42.5 q-143 0 -184 129q-61 -63 -111.5 -95t-123.5 -32q-109 0 -152 72l10 -491q-70 -2 -155 4q-61 4 -73.5 20.5t-10.5 71.5z"/>
<glyph unicode="¶" horiz-adv-x="1052" d="M82 670q0 201 124 313.5t322 112.5h209h246l4 -9q-18 -39 -59 -112q-23 -2 -70 -6t-63 -6v-613q0 -238 -30 -353.5t-116 -189.5q-98 -88 -254 -88q-98 0 -167.5 36t-75.5 73q-6 23 12 62.5t31 50.5q104 -72 200 -72q115 0 166 91t51 273v107l-108 -35q-41 -12 -78 -12 q-137 0 -240.5 107.5t-103.5 269.5z"/>
<glyph unicode="·" horiz-adv-x="428" d="M70 481q0 66 40 110t113 44h2q59 0 96 -43t37 -105q0 -70 -39.5 -111.5t-107.5 -41.5q-57 0 -99 37.5t-42 109.5z"/>
<glyph unicode="¸" horiz-adv-x="819" d="M242 -409.5q0 20.5 18 26.5q137 31 137 94q0 35 -42 55.5t-105 14.5v49l135 178h139l-78 -110q61 -18 98.5 -63.5t37.5 -102.5q0 -90 -86 -151.5t-195 -67.5q-25 6 -42 31.5t-17 46z"/>
<glyph unicode="¹" horiz-adv-x="649" d="M111 1327l36 115q240 55 330 94l8 -6q-8 -178 -4 -619q0 -18 -10 -24t-41 -10l-149 -11q0 12 1 98.5t3 211t2 178.5q-35 -10 -172 -31z"/>
<glyph unicode="º" horiz-adv-x="768" d="M51 858q0 145 98.5 229t245.5 84h2q143 0 232.5 -85t89.5 -214q0 -145 -96.5 -227t-245.5 -82q-143 0 -234.5 80t-91.5 215zM262 872q0 -86 37 -134t88 -48q55 0 88 46t33 130q0 74 -29.5 126t-93.5 52h-2q-55 0 -88 -46t-33 -126z"/>
<glyph unicode="»" horiz-adv-x="1261" d="M299 117q0 41 81 159.5t136 184.5q-45 57 -122 182t-77 164v2q0 27 34 55.5t63 34.5q129 -217 327 -403q20 -31 21 -56q-172 -131 -369 -415q-27 6 -59.5 34.5t-34.5 57.5zM729 133v2q0 31 79 156t118 170q-53 74 -113.5 178t-60.5 149q-2 25 29.5 52.5t58.5 31.5 q123 -217 311 -378q16 -25 16 -54q-199 -168 -350 -391q-25 6 -56.5 33.5t-31.5 50.5z"/>
<glyph unicode="¼" horiz-adv-x="1439" d="M92 1028l39 111q246 57 332 94l6 -6q-8 -184 -4 -619q0 -18 -10.5 -24t-40.5 -11l-150 -10q0 12 1 99.5t3 212t2 178.5q-16 -6 -52 -12.5t-74 -12.5t-46 -8zM254 14q223 362 756 1256q16 27 47 8q55 -31 67 -74q-424 -715 -747 -1239q-14 -25 -26.5 -29t-24.5 9 q-52 30 -72 69zM731 227q55 94 149.5 217t153.5 179q18 18 85 38.5t126 28.5l4 -6q-238 -250 -344 -422q102 -6 144 -4l4 125q18 14 76.5 30.5t99.5 16.5h8v-170q31 0 86 6l4 -4q-16 -66 -45 -106q-27 -10 -45 -15v-135q-68 -6 -123 -13t-59 -7l-13 8q6 63 7 143 q-197 0 -273 13q-8 6 -26.5 37.5t-18.5 39.5z"/>
<glyph unicode="½" horiz-adv-x="1439" d="M90 1026l39 113q246 57 332 94l8 -6q-12 -121 -6 -619q0 -18 -10.5 -24t-40.5 -11l-150 -10q0 12 1 99.5t3 212t2 178.5q-47 -14 -172 -33zM238 14q154 250 753 1256q16 27 47 8q55 -29 68 -74q-479 -807 -746 -1239q-23 -41 -53 -20q-51 30 -69 69zM811 16q6 12 21.5 47 t23.5 50q53 41 79 63.5t71 65.5t65.5 86t20.5 84q0 45 -29 70.5t-74 25.5q-88 0 -162 -59l-8 6q-4 59 23 108q86 92 227 92h2q109 0 169 -56t60 -150q0 -35 -12 -70t-23.5 -57.5t-43 -55.5t-45 -44t-54.5 -44t-47 -39q78 -6 271 2q-4 -37 -26 -77.5t-44 -53.5 q-55 -16 -184 -16q-217 0 -275 12z"/>
<glyph unicode="¾" horiz-adv-x="1439" d="M90 659l8 9q70 -27 135 -27q164 0 164 107q0 84 -127 83q-45 0 -88 -8l-8 11q4 8 11.5 28.5t13.5 36.5t12 25q162 23 162 108q0 33 -24.5 53.5t-63.5 20.5q-76 0 -154 -64q-25 31 -25 64q0 29 27 53.5t85 49t128 24.5h2q92 0 150.5 -46t58.5 -116q0 -90 -106 -151 q154 -27 153 -164q0 -102 -97 -168t-233 -66q-86 0 -143 31q-37 34 -41 106zM315 16q295 477 752 1254q16 27 49 8q53 -33 66 -74q-252 -432 -744 -1239q-23 -41 -53 -20q-56 38 -70 71zM766 227q53 96 145.5 218t151.5 178q18 18 91 40.5t122 26.5l2 -6 q-219 -225 -340 -422q100 -6 139 -4l4 127q20 12 79 28.5t100 16.5h6v-170q31 0 86 6l4 -6q-18 -63 -45 -104q-27 -10 -45 -15v-135q-47 -4 -88 -9t-60.5 -7t-30.5 -2l-16 12q6 57 6 137q-188 0 -266 13q-8 6 -26.5 37.5t-18.5 39.5z"/>
<glyph unicode="¿" horiz-adv-x="737" d="M74 -76q0 121 131 262q123 137 123 217q0 45 -21 95q16 25 80 24q57 0 96 -44t39 -126q0 -102 -100 -219q-102 -117 -103 -184q0 -47 31 -71.5t78 -24.5q92 0 180 61h13q29 -20 40 -62t-2 -77q-115 -113 -297 -113h-2q-131 0 -208.5 70.5t-77.5 191.5zM240 778 q0 68 42 109t109 41q53 0 96 -38t43 -106q0 -66 -40.5 -107.5t-114.5 -41.5h-2q-57 0 -95 43t-38 100z"/>
<glyph unicode="À" horiz-adv-x="1300" d="M29 14v9q172 406 503 1198l-16 43q115 25 215 24q31 0 47 -37q55 -133 183.5 -455.5t138.5 -351.5q150 -375 174 -424v-8q-78 -25 -230 -24q-27 0 -41 13t-28 52q-55 158 -113 299h-463q-16 -41 -46.5 -118.5t-52 -133t-34 -84t-57.5 -28.5q-96 -1 -180 26zM367 1571 q16 43 45.5 80t60.5 37h2q29 0 132.5 -71t162.5 -128q33 -29 8 -72q-12 -20 -35 -49q-266 127 -362 162q-24 10 -14 41zM457 522h356q-39 106 -81 215t-64.5 170.5t-32.5 87.5q-6 -16 -71.5 -192.5t-106.5 -280.5z"/>
<glyph unicode="Á" horiz-adv-x="1300" d="M29 14v9q172 406 503 1198l-16 43q115 25 215 24q31 0 47 -37q55 -133 183.5 -455.5t138.5 -351.5q150 -375 174 -424v-8q-78 -25 -230 -24q-27 0 -41 13t-28 52q-55 158 -113 299h-463q-16 -41 -46.5 -118.5t-52 -133t-34 -84t-57.5 -28.5q-96 -1 -180 26zM457 522h356 q-39 106 -81 215t-64.5 170.5t-32.5 87.5q-6 -16 -71.5 -192.5t-106.5 -280.5zM526 1419q-18 39 15 64q74 59 179 119.5t150 60.5q68 -14 97 -129q4 -25 -31 -39q-59 -16 -131 -42t-143.5 -52.5t-98.5 -34.5q-21 24 -37 53z"/>
<glyph unicode="Â" horiz-adv-x="1300" d="M29 14v9q172 406 503 1198l-16 43q115 25 215 24q31 0 47 -37q55 -133 183.5 -455.5t138.5 -351.5q150 -375 174 -424v-8q-78 -25 -230 -24q-27 0 -41 13t-28 52q-55 158 -113 299h-463q-16 -41 -46.5 -118.5t-52 -133t-34 -84t-57.5 -28.5q-96 -1 -180 26zM371 1427 q121 82 225 207q16 18 39 25q35 8 80 8q111 -133 243 -240q-12 -20 -44.5 -43.5t-57.5 -23.5q-29 0 -53 12q-39 27 -139 117q-53 -53 -142 -115q-35 -14 -39 -14h-2q-33 0 -66.5 22t-43.5 45zM457 522h356q-39 106 -81 215t-64.5 170.5t-32.5 87.5q-6 -16 -71.5 -192.5 t-106.5 -280.5z"/>
<glyph unicode="Ã" horiz-adv-x="1300" d="M29 14v9q172 406 503 1198l-16 43q115 25 215 24q31 0 47 -37q55 -133 183.5 -455.5t138.5 -351.5q150 -375 174 -424v-8q-78 -25 -230 -24q-27 0 -41 13t-28 52q-55 158 -113 299h-463q-16 -41 -46.5 -118.5t-52 -133t-34 -84t-57.5 -28.5q-96 -1 -180 26zM393 1393 q23 258 180 258h2q68 0 121 -74q39 -47 54 -47q31 0 51 98q6 23 20 23q51 0 97 -31q-23 -252 -162 -252q-57 0 -129 80q-39 47 -60 47q-33 -2 -55 -98q-4 -23 -16 -23q-54 1 -103 19zM457 522h356q-39 106 -81 215t-64.5 170.5t-32.5 87.5q-6 -16 -71.5 -192.5 t-106.5 -280.5z"/>
<glyph unicode="Ä" horiz-adv-x="1300" d="M29 14v9q172 406 503 1198l-16 43q115 25 215 24q31 0 47 -37q55 -133 183.5 -455.5t138.5 -351.5q150 -375 174 -424v-8q-78 -25 -230 -24q-27 0 -41 13t-28 52q-55 158 -113 299h-463q-16 -41 -46.5 -118.5t-52 -133t-34 -84t-57.5 -28.5q-96 -1 -180 26zM332 1491 q0 55 32.5 90t92.5 35h2q45 0 75.5 -34t30.5 -81q0 -59 -31.5 -93t-87.5 -34q-47 0 -80.5 30t-33.5 87zM457 522h356q-39 106 -81 215t-64.5 170.5t-32.5 87.5q-6 -16 -71.5 -192.5t-106.5 -280.5zM748 1491q0 55 31.5 90t88.5 35h2q47 0 77 -33t30 -82q0 -59 -32 -93 t-87 -34q-43 0 -76.5 31t-33.5 86z"/>
<glyph unicode="Å" horiz-adv-x="1300" d="M29 14v9q172 406 503 1198l-16 43q115 25 215 24q31 0 47 -37q55 -133 183.5 -455.5t138.5 -351.5q150 -375 174 -424v-8q-78 -25 -230 -24q-27 0 -41 13t-28 52q-55 158 -113 299h-463q-16 -41 -46.5 -118.5t-52 -133t-34 -84t-57.5 -28.5q-96 -1 -180 26zM455 1550 q0 86 57 144.5t156 58.5h2q82 0 136 -55.5t54 -136.5q0 -88 -59.5 -145.5t-151.5 -57.5q-80 0 -137 51t-57 141zM457 522h356q-39 106 -81 215t-64.5 170.5t-32.5 87.5q-6 -16 -71.5 -192.5t-106.5 -280.5zM578 1552q0 -43 23.5 -68.5t57.5 -25.5q78 2 78 94q0 98 -82 99h-2 q-35 0 -55 -30t-20 -69z"/>
<glyph unicode="Æ" horiz-adv-x="1622" d="M31 35q31 61 165 325.5t253.5 501t175.5 340.5q12 23 22 60q137 16 217 18h666q-12 -98 -62 -147q-23 -20 -165 -21h-252l28 -459h418q-31 -106 -60.5 -135t-86.5 -29h-258l24 -323q59 -12 215 -12q190 0 266 8l5 -4q-31 -113 -121 -160q-47 -10 -217 -10q-276 0 -371 20 l-31 41l-20 445h-365q-205 -420 -239 -488q-12 -31 -48 -31q-70 0 -157 41zM545 653h291l-25 469q-33 0 -59 -51q-178 -357 -207 -418z"/>
<glyph unicode="Ç" horiz-adv-x="1212" d="M70 627q0 313 207.5 498.5t523.5 185.5q125 0 230.5 -34t142.5 -73q-2 -70 -45.5 -106.5t-94.5 -14.5q-29 16 -103.5 31.5t-137.5 15.5q-195 0 -322 -126.5t-127 -360.5q0 -209 132 -348t366 -139q156 0 303 53l8 -6q-16 -111 -70 -168q-90 -61 -256 -64l-53 -73 q61 -20 98 -64.5t37 -101.5q0 -90 -87 -152.5t-193 -68.5q-25 6 -42.5 33.5t-17.5 45.5q0 20 19 27q137 33 137 92q0 35 -42 55.5t-105 16.5v47l110 147q-297 25 -457.5 198t-160.5 454z"/>
<glyph unicode="È" horiz-adv-x="964" d="M141 1251q102 25 232 29h497q-14 -106 -61 -158q-31 -12 -193 -12h-213v-367h447q-12 -100 -44 -135t-91 -35h-312v-401q66 -14 191 -14q233 0 332 8l4 -4q-25 -117 -109 -164q-47 -10 -278 -10q-266 0 -365 20l-31 39v946q0 172 -6 258zM223 1567q16 43 46 79.5t61 36.5 h2q29 0 132 -70.5t163 -127.5q33 -29 8 -72q-12 -20 -35 -49q-266 127 -362 162q-25 10 -15 41z"/>
<glyph unicode="É" horiz-adv-x="964" d="M141 1251q102 25 232 29h497q-14 -106 -61 -158q-31 -12 -193 -12h-213v-367h447q-12 -100 -44 -135t-91 -35h-312v-401q66 -14 191 -14q233 0 332 8l4 -4q-25 -117 -109 -164q-47 -10 -278 -10q-266 0 -365 20l-31 39v946q0 172 -6 258zM379 1419q-18 39 14 64 q74 59 179.5 119.5t150.5 60.5q68 -14 96 -129q4 -25 -31 -39q-59 -16 -130.5 -42t-143.5 -52.5t-98 -34.5q-21 24 -37 53z"/>
<glyph unicode="Ê" horiz-adv-x="964" d="M141 1251q102 25 232 29h497q-14 -106 -61 -158q-31 -12 -193 -12h-213v-367h447q-12 -100 -44 -135t-91 -35h-312v-401q66 -14 191 -14q233 0 332 8l4 -4q-25 -117 -109 -164q-47 -10 -278 -10q-266 0 -365 20l-31 39v946q0 172 -6 258zM225 1432q121 82 226 206 q16 18 38 25q35 8 80 8q111 -133 244 -239q-12 -20 -45 -44t-57 -24q-29 0 -54 12q-39 27 -139 117q-53 -53 -141 -115q-37 -14 -39 -14h-2q-33 0 -67 22.5t-44 45.5z"/>
<glyph unicode="Ë" horiz-adv-x="964" d="M141 1251q102 25 232 29h497q-14 -106 -61 -158q-31 -12 -193 -12h-213v-367h447q-12 -100 -44 -135t-91 -35h-312v-401q66 -14 191 -14q233 0 332 8l4 -4q-25 -117 -109 -164q-47 -10 -278 -10q-266 0 -365 20l-31 39v946q0 172 -6 258zM188 1499q0 55 33 90t92 35h2 q45 0 76 -34t31 -81q0 -59 -32 -93t-87 -34q-47 0 -81 30t-34 87zM604 1499q0 55 32 90t89 35h2q47 0 77 -32.5t30 -82.5q0 -59 -32 -93t-87 -34q-43 0 -77 31t-34 86z"/>
<glyph unicode="Ì" horiz-adv-x="548" d="M2 1567q16 43 46 79.5t61 36.5h2q29 0 132 -70.5t163 -127.5q33 -29 8 -72q-12 -20 -35 -49q-266 127 -363 162q-24 10 -14 41zM141 1272q98 16 221 16q27 0 34 -20.5t7 -89.5v-922q0 -129 7 -252q-55 -16 -220 -16q-25 0 -34 8t-9 33v983q0 201 -6 260z"/>
<glyph unicode="Í" horiz-adv-x="548" d="M127 1419q-18 39 14 64q74 59 179.5 119.5t150.5 60.5q68 -14 96 -129q4 -25 -30 -39q-59 -16 -131 -42t-144 -52.5t-98 -34.5q-21 24 -37 53zM141 1272q98 16 221 16q27 0 34 -20.5t7 -89.5v-922q0 -129 7 -252q-55 -16 -220 -16q-25 0 -34 8t-9 33v983q0 201 -6 260z "/>
<glyph unicode="Î" horiz-adv-x="548" d="M-16 1423q121 82 225 207q16 18 39 25q35 8 80 8q111 -133 243 -240q-12 -20 -44.5 -43.5t-57.5 -23.5q-29 0 -53 12q-39 27 -140 117q-53 -53 -141 -115q-37 -14 -39 -14h-2q-33 0 -66.5 22t-43.5 45zM141 1272q98 16 221 16q27 0 34 -20.5t7 -89.5v-922q0 -129 7 -252 q-55 -16 -220 -16q-25 0 -34 8t-9 33v983q0 201 -6 260z"/>
<glyph unicode="Ï" horiz-adv-x="548" d="M-47 1495q0 55 32.5 90t92.5 35h2q45 0 75.5 -34t30.5 -81q0 -59 -31.5 -93t-86.5 -34q-47 0 -81 30t-34 87zM141 1272q98 16 221 16q27 0 34 -20.5t7 -89.5v-922q0 -129 7 -252q-55 -16 -220 -16q-25 0 -34 8t-9 33v983q0 201 -6 260zM369 1495q0 55 31.5 90t88.5 35h3 q47 0 76.5 -33t29.5 -82q0 -59 -31.5 -93t-87.5 -34q-43 0 -76.5 31t-33.5 86z"/>
<glyph unicode="Ð" horiz-adv-x="1392" d="M8 586q6 68 24.5 102.5t36 41.5t46.5 7h61v281q0 127 -4 237l221 25q98 12 207 12q178 0 312.5 -42t211 -106.5t124.5 -153.5t63.5 -169t15.5 -168q0 -317 -225 -510q-195 -164 -506 -163q-162 0 -420 43v563h-168zM432 158q76 -18 166 -19q80 0 152.5 23.5t144.5 77 t115 160t43 253.5q0 227 -124 353.5t-347 126.5q-86 0 -150 -13v-383h340q-14 -98 -49 -124.5t-98 -26.5h-193v-428z"/>
<glyph unicode="Ñ" horiz-adv-x="1361" d="M113 1262v10q104 16 252 16q25 0 57 -37q94 -135 381 -577q176 -279 217 -365q-10 131 -10 340v572q0 33 9 44t34 15q84 8 166 8q-6 -133 -7 -377v-903q-16 -8 -84.5 -20.5t-109.5 -12.5q-31 0 -51 29q-117 162 -373 557q-98 156 -252 445q10 -172 10 -418v-537 q0 -31 -9 -41t-36 -14q-68 -12 -164 -8q6 123 7 372v850zM434 1386q23 258 180 259h2q68 0 121 -74q39 -47 54 -47q31 0 51 98q6 23 20 23q51 0 96 -31q-23 -252 -161 -252q-57 0 -129 80q-39 47 -60 47q-33 -2 -55 -98q-4 -23 -16 -23q-54 0 -103 18z"/>
<glyph unicode="Ò" horiz-adv-x="1460" d="M70 629q0 297 179 489.5t486 192.5h2q301 0 477.5 -189.5t176.5 -470.5q0 -291 -175.5 -486.5t-486.5 -195.5q-170 0 -301 58.5t-207 156t-113.5 211t-37.5 234.5zM346 653q0 -246 116 -385t286 -139q174 0 272 133t98 371q0 225 -108.5 371.5t-294.5 146.5h-2 q-160 0 -263.5 -128t-103.5 -370zM475 1589q16 43 46 80t61 37h2q29 0 132 -70.5t163 -128.5q33 -29 8 -71q-12 -20 -35 -50q-266 127 -363 162q-24 10 -14 41z"/>
<glyph unicode="Ó" horiz-adv-x="1460" d="M70 629q0 297 179 489.5t486 192.5h2q301 0 477.5 -189.5t176.5 -470.5q0 -291 -175.5 -486.5t-486.5 -195.5q-170 0 -301 58.5t-207 156t-113.5 211t-37.5 234.5zM346 653q0 -246 116 -385t286 -139q174 0 272 133t98 371q0 225 -108.5 371.5t-294.5 146.5h-2 q-160 0 -263.5 -128t-103.5 -370zM586 1440q-18 39 14 63q74 59 179.5 119.5t150.5 60.5q68 -14 96 -129q4 -25 -31 -38q-59 -16 -130.5 -42t-143.5 -52.5t-98 -35.5q-21 25 -37 54z"/>
<glyph unicode="Ô" horiz-adv-x="1460" d="M70 629q0 297 179 489.5t486 192.5h2q301 0 477.5 -189.5t176.5 -470.5q0 -291 -175.5 -486.5t-486.5 -195.5q-170 0 -301 58.5t-207 156t-113.5 211t-37.5 234.5zM346 653q0 -246 116 -385t286 -139q174 0 272 133t98 371q0 225 -108.5 371.5t-294.5 146.5h-2 q-160 0 -263.5 -128t-103.5 -370zM440 1460q121 82 226 207q16 18 39 25q35 8 79 8q111 -133 244 -240q-12 -20 -45 -43.5t-57 -23.5q-29 0 -54 12q-39 27 -139 117q-53 -53 -141 -115q-35 -14 -39 -14h-2q-33 0 -67 22t-44 45z"/>
<glyph unicode="Õ" horiz-adv-x="1460" d="M70 629q0 297 179 489.5t486 192.5h2q301 0 477.5 -189.5t176.5 -470.5q0 -291 -175.5 -486.5t-486.5 -195.5q-170 0 -301 58.5t-207 156t-113.5 211t-37.5 234.5zM346 653q0 -246 116 -385t286 -139q174 0 272 133t98 371q0 225 -108.5 371.5t-294.5 146.5h-2 q-160 0 -263.5 -128t-103.5 -370zM465 1417q23 258 180 258h2q68 0 121 -73q39 -47 53 -48q31 0 51 99q6 23 21 22q49 0 96 -30q-23 -252 -162 -252q-57 0 -129 80q-39 47 -59 47q-33 -2 -55 -99q-4 -23 -17 -22q-53 0 -102 18z"/>
<glyph unicode="Ö" horiz-adv-x="1460" d="M70 629q0 297 179 489.5t486 192.5h2q301 0 477.5 -189.5t176.5 -470.5q0 -291 -175.5 -486.5t-486.5 -195.5q-170 0 -301 58.5t-207 156t-113.5 211t-37.5 234.5zM346 653q0 -246 116 -385t286 -139q174 0 272 133t98 371q0 225 -108.5 371.5t-294.5 146.5h-2 q-160 0 -263.5 -128t-103.5 -370zM410 1520q0 55 32.5 90t92.5 35h2q45 0 75.5 -34t30.5 -81q0 -59 -31.5 -93t-87.5 -34q-47 0 -80.5 30t-33.5 87zM825 1519.5q0 55.5 32 90.5t89 35h2q47 0 77 -33t30 -82q0 -59 -32 -93t-87 -34q-43 0 -77 30.5t-34 86z"/>
<glyph unicode="×" horiz-adv-x="1196" d="M166 113q-29 47 8 80l299 305l-301 301q-33 29 -4 75q41 63 102 82l326 -331l291 301q35 35 78 12q31 -18 55 -53t27 -54l-328 -333l295 -297q45 -41 16 -86q-37 -53 -108 -82l-328 340l-324 -340q-61 12 -104 80z"/>
<glyph unicode="Ø" horiz-adv-x="1484" d="M70 623q0 305 187 496.5t491 191.5q207 0 358 -94l86 112q20 29 34.5 33t30.5 -10q51 -37 60 -84l-103 -133q203 -180 203 -484q0 -289 -175 -485.5t-501 -196.5q-215 0 -358 92l-117 -153q-35 -45 -67 -2q-45 57 -52 80l125 159q-104 94 -153 223.5t-49 254.5zM328 635 q0 -197 86 -307l571 735q-94 88 -254 88t-281.5 -132t-121.5 -384zM508 221q106 -92 246 -92q182 0 293.5 132t111.5 382q0 195 -84 311z"/>
<glyph unicode="Ù" horiz-adv-x="1359" d="M131 1272q98 16 219 16q27 0 35 -21.5t8 -97.5v-573q0 -135 26.5 -228.5t75 -137.5t95.5 -60t108 -16q70 0 119 17t94 64.5t69 142.5t24 236v615q0 45 45 51q80 8 180 8q-6 -123 -6 -373v-290q0 -166 -35 -288t-87 -191.5t-130 -110.5t-147.5 -53.5t-153.5 -12.5 q-266 0 -399.5 147.5t-133.5 471.5v420q0 201 -6 264zM410 1550q16 43 45.5 80t60.5 37h2q29 0 132.5 -70.5t162.5 -128.5q33 -29 8 -71q-12 -20 -35 -49q-266 127 -362 161q-24 10 -14 41z"/>
<glyph unicode="Ú" horiz-adv-x="1359" d="M131 1272q98 16 219 16q27 0 35 -21.5t8 -97.5v-573q0 -135 26.5 -228.5t75 -137.5t95.5 -60t108 -16q70 0 119 17t94 64.5t69 142.5t24 236v615q0 45 45 51q80 8 180 8q-6 -123 -6 -373v-290q0 -166 -35 -288t-87 -191.5t-130 -110.5t-147.5 -53.5t-153.5 -12.5 q-266 0 -399.5 147.5t-133.5 471.5v420q0 201 -6 264zM520 1411q-18 39 15 64q74 59 179 119.5t150 60.5q68 -14 97 -129q4 -25 -31 -39q-59 -16 -131 -42t-143.5 -52.5t-98.5 -34.5q-21 24 -37 53z"/>
<glyph unicode="Û" horiz-adv-x="1359" d="M131 1272q98 16 219 16q27 0 35 -21.5t8 -97.5v-573q0 -135 26.5 -228.5t75 -137.5t95.5 -60t108 -16q70 0 119 17t94 64.5t69 142.5t24 236v615q0 45 45 51q80 8 180 8q-6 -123 -6 -373v-290q0 -166 -35 -288t-87 -191.5t-130 -110.5t-147.5 -53.5t-153.5 -12.5 q-266 0 -399.5 147.5t-133.5 471.5v420q0 201 -6 264zM389 1442q121 82 225 207q16 18 39 24q35 8 80 8q111 -133 244 -239q-12 -20 -45 -44t-58 -24q-29 0 -53 12q-39 27 -139 117q-53 -53 -141 -114q-37 -14 -39 -15h-2q-33 0 -67 22.5t-44 45.5z"/>
<glyph unicode="Ü" horiz-adv-x="1359" d="M131 1272q98 16 219 16q27 0 35 -21.5t8 -97.5v-573q0 -135 26.5 -228.5t75 -137.5t95.5 -60t108 -16q70 0 119 17t94 64.5t69 142.5t24 236v615q0 45 45 51q80 8 180 8q-6 -123 -6 -373v-290q0 -166 -35 -288t-87 -191.5t-130 -110.5t-147.5 -53.5t-153.5 -12.5 q-266 0 -399.5 147.5t-133.5 471.5v420q0 201 -6 264zM365 1503q0 55 32.5 90t91.5 35h3q45 0 75.5 -33.5t30.5 -81.5q0 -59 -31.5 -93t-87.5 -34q-47 0 -80.5 30t-33.5 87zM780 1503.5q0 55.5 32 90t89 34.5h2q47 0 77 -32.5t30 -82.5q0 -59 -32 -93t-87 -34q-43 0 -77 31 t-34 86.5z"/>
<glyph unicode="Ý" horiz-adv-x="1161" d="M33 1245v6q125 37 223 37q29 0 47.5 -16.5t54.5 -79.5q43 -68 144.5 -241t118.5 -199q61 94 175.5 285.5t147.5 250.5q115 0 172 -20q43 -16 2 -84q-23 -37 -110.5 -170t-173.5 -260t-93 -138q-23 -39 -22 -86v-280q0 -111 6 -246q-76 -16 -225 -16q-23 0 -30 7t-7 30 v483q0 66 -17 94q-151 260 -413 643zM481 1386q-18 39 15 64q74 59 179 119.5t150 60.5q68 -14 97 -129q4 -25 -31 -39q-59 -16 -131 -41.5t-143.5 -52.5t-98.5 -35q-21 24 -37 53z"/>
<glyph unicode="Þ" horiz-adv-x="1034" d="M141 1272q104 16 219 16q27 0 35 -21.5t8 -92.5v-150q10 0 32 3t43.5 4t41.5 1q238 0 352 -114q100 -102 101 -275q0 -111 -42 -193.5t-105.5 -123.5t-121 -59.5t-106.5 -18.5q-57 0 -92 14q-31 14 -49.5 51t-16.5 84q49 -4 56 -4q80 0 146.5 56.5t66.5 177.5 q0 127 -64.5 186t-171.5 57q-41 0 -70 -4v-610q0 -129 7 -252q-78 -16 -224 -16q-23 0 -31 7t-8 30v985q0 203 -6 262z"/>
<glyph unicode="ß" horiz-adv-x="1136" d="M29 791q47 55 118 100q0 119 50.5 232.5t140.5 183.5q117 94 285 94h2q172 0 269 -96.5t97 -249.5q0 -55 -14 -90q-113 -55 -157 -106.5t-44 -113.5q0 -57 62 -102q39 -29 125 -96q119 -86 118 -225q0 -164 -115.5 -255.5t-269.5 -91.5q-115 0 -184 41q-25 66 -2 101 q12 31 51 49q68 -27 133 -27q59 0 103.5 32t44.5 91q0 66 -74 123l-127 94q-102 76 -102 197q0 168 213 295q12 31 12 73q0 90 -43 147.5t-117 57.5q-209 0 -209 -426q0 -578 8 -819q-109 -16 -229 -16q-31 0 -31 26q4 109 4 705q-118 2 -118 72z"/>
<glyph unicode="à" horiz-adv-x="927" d="M53 229q0 59 29 108.5t65.5 79t98 54.5t99.5 35t99 24q18 4 56.5 10.5t50.5 10.5v35q0 68 -44 111.5t-118 43.5q-90 0 -190 -59q-59 -16 -87 19.5t-28 91.5q184 133 371 133q143 0 238 -92.5t95 -253.5q0 -35 -4 -168t-4 -205q0 -23 19.5 -39t54.5 -16q14 0 35 4v-9 q2 -82 -42 -127t-130 -45q-123 0 -166 115q-106 -115 -242 -115q-104 0 -180 71.5t-76 182.5zM213 1307q-18 18 8 43q68 61 152 59q29 -2 82 -110.5t75 -194.5q12 -31 -14 -51q-31 -20 -72 -29q-106 158 -231 283zM291 264q0 -51 34.5 -81.5t86.5 -30.5q70 0 118 53 q16 20 17 69v146q-127 -14 -191.5 -56t-64.5 -98v-2z"/>
<glyph unicode="á" horiz-adv-x="927" d="M53 229q0 59 29 108.5t65.5 79t98 54.5t99.5 35t99 24q18 4 56.5 10.5t50.5 10.5v35q0 68 -44 111.5t-118 43.5q-90 0 -190 -59q-59 -16 -87 19.5t-28 91.5q184 133 371 133q143 0 238 -92.5t95 -253.5q0 -35 -4 -168t-4 -205q0 -23 19.5 -39t54.5 -16q14 0 35 4v-9 q2 -82 -42 -127t-130 -45q-123 0 -166 115q-106 -115 -242 -115q-104 0 -180 71.5t-76 182.5zM291 264q0 -51 34.5 -81.5t86.5 -30.5q70 0 118 53q16 20 17 69v146q-127 -14 -191.5 -56t-64.5 -98v-2zM352 1110q106 295 168 295h2q80 0 144 -59q20 -14 -4 -41 q-39 -43 -83 -96.5t-89.5 -112t-61.5 -76.5q-31 6 -72 33q-22 14 -4 57z"/>
<glyph unicode="â" horiz-adv-x="927" d="M53 229q0 59 29 108.5t65.5 79t98 54.5t99.5 35t99 24q18 4 56.5 10.5t50.5 10.5v35q0 68 -44 111.5t-118 43.5q-90 0 -190 -59q-59 -16 -87 19.5t-28 91.5q184 133 371 133q143 0 238 -92.5t95 -253.5q0 -35 -4 -168t-4 -205q0 -23 19.5 -39t54.5 -16q14 0 35 4v-9 q2 -82 -42 -127t-130 -45q-123 0 -166 115q-106 -115 -242 -115q-104 0 -180 71.5t-76 182.5zM186 1069q147 215 189 291q14 27 41 33q41 8 86 8q94 -154 205 -322q-68 -39 -117 -39q-31 0 -41 21q-10 16 -31.5 47t-40 58.5t-35.5 54.5q-51 -92 -100 -152q-25 -29 -39 -29 h-2q-33 0 -115 29zM291 264q0 -51 34.5 -81.5t86.5 -30.5q70 0 118 53q16 20 17 69v146q-127 -14 -191.5 -56t-64.5 -98v-2z"/>
<glyph unicode="ã" horiz-adv-x="927" d="M53 229q0 59 29 108.5t65.5 79t98 54.5t99.5 35t99 24q18 4 56.5 10.5t50.5 10.5v35q0 68 -44 111.5t-118 43.5q-90 0 -190 -59q-59 -16 -87 19.5t-28 91.5q184 133 371 133q143 0 238 -92.5t95 -253.5q0 -35 -4 -168t-4 -205q0 -23 19.5 -39t54.5 -16q14 0 35 4v-9 q2 -82 -42 -127t-130 -45q-123 0 -166 115q-106 -115 -242 -115q-104 0 -180 71.5t-76 182.5zM186 1102q18 262 183 262h2q68 0 123 -74q37 -45 53 -45q33 0 49 98q8 20 22 21q59 0 99 -29q-23 -258 -166 -258q-57 0 -129 80q-41 47 -60 47q-31 -4 -55 -98q-4 -20 -16 -21 q-62 1 -105 17zM291 264q0 -51 34.5 -81.5t86.5 -30.5q70 0 118 53q16 20 17 69v146q-127 -14 -191.5 -56t-64.5 -98v-2z"/>
<glyph unicode="ä" horiz-adv-x="927" d="M53 229q0 59 29 108.5t65.5 79t98 54.5t99.5 35t99 24q18 4 56.5 10.5t50.5 10.5v35q0 68 -44 111.5t-118 43.5q-90 0 -190 -59q-59 -16 -87 19.5t-28 91.5q184 133 371 133q143 0 238 -92.5t95 -253.5q0 -35 -4 -168t-4 -205q0 -23 19.5 -39t54.5 -16q14 0 35 4v-9 q2 -82 -42 -127t-130 -45q-123 0 -166 115q-106 -115 -242 -115q-104 0 -180 71.5t-76 182.5zM131 1208.5q0 55.5 33 91t92 35.5h2q45 0 77 -35.5t32 -82.5q0 -59 -33 -93t-88 -34q-45 0 -80 31.5t-35 87zM291 264q0 -51 34.5 -81.5t86.5 -30.5q70 0 118 53q16 20 17 69v146 q-127 -14 -191.5 -56t-64.5 -98v-2zM518 1208.5q0 55.5 33 91t90 35.5h2q47 0 79 -34.5t32 -83.5q0 -59 -33 -93t-88 -34q-45 0 -80 31.5t-35 87z"/>
<glyph unicode="å" horiz-adv-x="927" d="M53 229q0 59 29 108.5t65.5 79t98 54.5t99.5 35t99 24q18 4 56.5 10.5t50.5 10.5v35q0 68 -44 111.5t-118 43.5q-90 0 -190 -59q-59 -16 -87 19.5t-28 91.5q184 133 371 133q143 0 238 -92.5t95 -253.5q0 -35 -4 -168t-4 -205q0 -23 19.5 -39t54.5 -16q14 0 35 4v-9 q2 -82 -42 -127t-130 -45q-123 0 -166 115q-106 -115 -242 -115q-104 0 -180 71.5t-76 182.5zM252 1214q0 84 57.5 143.5t151.5 59.5h2q88 0 144.5 -57t56.5 -146q0 -86 -58.5 -143t-148.5 -57q-86 0 -145.5 53t-59.5 147zM291 264q0 -51 34.5 -81.5t86.5 -30.5q70 0 118 53 q16 20 17 69v146q-127 -14 -191.5 -56t-64.5 -98v-2zM377 1219q0 -47 24.5 -74t61.5 -27q37 2 56.5 29t19.5 65q0 98 -82 99h-2q-35 0 -56.5 -28.5t-21.5 -63.5z"/>
<glyph unicode="æ" horiz-adv-x="1382" d="M55 225q0 229 408 312q45 8 96 16v43q0 61 -42 103t-116 42q-86 0 -192 -53q-57 -27 -92 5t-31 102q72 55 171 93t194 38q178 0 251 -129q115 129 289 129q90 0 159 -32t107.5 -85t57 -111.5t18.5 -122.5q0 -41 -8 -69q-16 -45 -166 -78q-86 -23 -381 -16 q8 -121 85 -186.5t202 -65.5q123 0 223 47l4 -6q0 -68 -44 -125.5t-77 -71.5q-63 -29 -176 -29q-258 4 -352 160q-154 -160 -328 -160q-109 0 -184.5 68.5t-75.5 181.5zM293 260q0 -47 33.5 -77.5t85.5 -30.5h2q96 0 174 96q-33 66 -33 172q-131 -12 -196.5 -57.5 t-65.5 -102.5zM782 551q143 -10 295 4q23 2 23 41q0 80 -39 133t-111 53h-2q-68 0 -116 -60t-50 -171z"/>
<glyph unicode="ç" horiz-adv-x="872" d="M61 428q0 211 141.5 354.5t368.5 143.5q109 0 180.5 -29t90.5 -53q0 -72 -43 -109q-31 -29 -70 -12q-68 31 -145 31q-123 0 -196 -78t-73 -211q0 -156 87 -230.5t212 -74.5q121 0 213 37l7 -7q0 -47 -21.5 -94t-54.5 -73q-53 -35 -150 -43l-59 -84q61 -18 98 -63.5 t37 -102.5q0 -90 -86 -151.5t-195 -67.5q-25 6 -42 32.5t-17 44.5q0 23 18 27q137 35 138 94q0 35 -42 55.5t-106 14.5v49l115 152q-184 18 -295 133.5t-111 314.5z"/>
<glyph unicode="è" horiz-adv-x="909" d="M59 440q0 197 120 341.5t319 144.5q180 0 270 -105.5t92 -247.5q0 -43 -6 -67q-8 -39 -172 -80q-86 -20 -377 -10q8 -127 87 -191.5t194 -64.5q129 0 229 47l4 -4q0 -61 -37 -118.5t-69 -72.5q-80 -37 -191 -37q-225 0 -344 120t-119 345zM236 1307q-18 18 8 43 q68 61 151 59q29 -2 82 -110.5t76 -194.5q12 -31 -14 -51q-31 -20 -72 -29q-106 158 -231 283zM309 557q156 -12 291 0q27 0 27 43q2 80 -36 131t-114 51h-2q-61 0 -110.5 -58t-55.5 -167z"/>
<glyph unicode="é" horiz-adv-x="909" d="M59 440q0 197 120 341.5t319 144.5q180 0 270 -105.5t92 -247.5q0 -43 -6 -67q-8 -39 -172 -80q-86 -20 -377 -10q8 -127 87 -191.5t194 -64.5q129 0 229 47l4 -4q0 -61 -37 -118.5t-69 -72.5q-80 -37 -191 -37q-225 0 -344 120t-119 345zM309 557q156 -12 291 0 q27 0 27 43q2 80 -36 131t-114 51h-2q-61 0 -110.5 -58t-55.5 -167zM385 1110q106 295 168 295h2q80 0 143 -59q20 -14 -4 -41q-39 -43 -83 -96.5t-89 -112t-61 -76.5q-31 6 -72 33q-22 14 -4 57z"/>
<glyph unicode="ê" horiz-adv-x="909" d="M59 440q0 197 120 341.5t319 144.5q180 0 270 -105.5t92 -247.5q0 -43 -6 -67q-8 -39 -172 -80q-86 -20 -377 -10q8 -127 87 -191.5t194 -64.5q129 0 229 47l4 -4q0 -61 -37 -118.5t-69 -72.5q-80 -37 -191 -37q-225 0 -344 120t-119 345zM223 1069q147 215 189 291 q14 27 41 33q41 8 86 8q94 -154 204 -322q-68 -39 -116 -39q-31 0 -41 21q-10 16 -32 47t-40 58.5t-35 54.5q-51 -92 -100 -152q-25 -29 -39 -29h-2q-33 0 -115 29zM309 557q156 -12 291 0q27 0 27 43q2 80 -36 131t-114 51h-2q-61 0 -110.5 -58t-55.5 -167z"/>
<glyph unicode="ë" horiz-adv-x="909" d="M59 440q0 197 120 341.5t319 144.5q180 0 270 -105.5t92 -247.5q0 -43 -6 -67q-8 -39 -172 -80q-86 -20 -377 -10q8 -127 87 -191.5t194 -64.5q129 0 229 47l4 -4q0 -61 -37 -118.5t-69 -72.5q-80 -37 -191 -37q-225 0 -344 120t-119 345zM164 1208.5q0 55.5 32.5 91 t92.5 35.5h2q45 0 76.5 -35.5t31.5 -82.5q0 -59 -32.5 -93t-87.5 -34q-45 0 -80 31.5t-35 87zM309 557q156 -12 291 0q27 0 27 43q2 80 -36 131t-114 51h-2q-61 0 -110.5 -58t-55.5 -167zM551 1208.5q0 55.5 32.5 91t90.5 35.5h2q47 0 78.5 -34.5t31.5 -83.5 q0 -59 -32.5 -93t-87.5 -34q-45 0 -80 31.5t-35 87z"/>
<glyph unicode="ì" horiz-adv-x="503" d="M14 1307q-18 18 9 43q68 61 151 59q29 -2 82 -110.5t76 -194.5q12 -31 -15 -51q-31 -20 -71 -29q-107 158 -232 283zM121 889q80 25 219 24q23 0 30 -21.5t7 -107.5v-735q0 -27 -12.5 -38t-47.5 -15q-55 -8 -194 -8q6 252 6 321v350q0 148 -8 230z"/>
<glyph unicode="í" horiz-adv-x="503" d="M121 889q80 25 219 24q23 0 30 -21.5t7 -107.5v-735q0 -27 -12.5 -38t-47.5 -15q-55 -8 -194 -8q6 252 6 321v350q0 148 -8 230zM154 1110q106 295 168 295h2q80 0 143 -59q20 -14 -4 -41q-39 -43 -83 -96.5t-89 -112t-62 -76.5q-31 6 -71 33q-22 14 -4 57z"/>
<glyph unicode="î" horiz-adv-x="503" d="M-8 1069q147 215 188 291q14 27 41 33q41 8 86 8q94 -154 205 -322q-68 -39 -117 -39q-31 0 -41 21q-10 16 -31.5 47t-40 58.5t-34.5 54.5q-51 -92 -101 -152q-25 -29 -38 -29h-3q-32 0 -114 29zM121 889q80 25 219 24q23 0 30 -21.5t7 -107.5v-735q0 -27 -12.5 -38 t-47.5 -15q-55 -8 -194 -8q6 252 6 321v350q0 148 -8 230z"/>
<glyph unicode="ï" horiz-adv-x="503" d="M-51 1208.5q0 55.5 32.5 91t92.5 35.5h2q45 0 76.5 -35.5t31.5 -82.5q0 -59 -32.5 -93t-88.5 -34q-45 0 -79.5 31.5t-34.5 87zM121 889q80 25 219 24q23 0 30 -21.5t7 -107.5v-735q0 -27 -12.5 -38t-47.5 -15q-55 -8 -194 -8q6 252 6 321v350q0 148 -8 230zM336 1208.5 q0 55.5 32.5 91t90.5 35.5h2q47 0 78.5 -34.5t31.5 -83.5q0 -59 -32.5 -93t-87.5 -34q-45 0 -80 31.5t-35 87z"/>
<glyph unicode="ð" horiz-adv-x="1034" d="M61 436q0 213 132.5 350.5t343.5 137.5q66 0 120 -25q-31 98 -131 184l-280 -137q-31 -12 -39 -8t-8 25q0 82 24 106l195 96q-94 70 -236 105l-2 6q14 25 45 59q29 53 80 54q37 0 127 -34t186 -98l226 113q31 14 41 12t10 -24q0 -90 -31 -117l-139 -70 q117 -121 183.5 -291.5t66.5 -351.5q0 -274 -133 -413.5t-336 -139.5q-195 0 -320 118t-125 343zM322 453q0 -158 60 -241t136 -83q205 0 205 387q0 137 -29 199q-55 55 -149 55h-2q-98 0 -159.5 -81.5t-61.5 -235.5z"/>
<glyph unicode="ñ" horiz-adv-x="1093" d="M100 807v14q16 39 61.5 72t92.5 33q94 0 121 -138q156 137 284 138q305 0 306 -375v-258q0 -197 8 -289q-188 -16 -215 -16q-41 0 -41 39v526q0 88 -42 137t-112 49q-88 0 -176 -75v-613q0 -29 -8 -39t-39 -12q-84 -12 -207 -12q6 164 6 372v336q0 88 -39 111zM270 1102 q18 262 183 262h2q68 0 123 -74q37 -45 53 -45q33 0 49 98q8 20 22 21q59 0 99 -29q-23 -258 -166 -258q-57 0 -129 80q-41 47 -60 47q-31 -4 -55 -98q-4 -20 -16 -21q-62 1 -105 17z"/>
<glyph unicode="ò" horiz-adv-x="1042" d="M59 442q0 209 134.5 346.5t338.5 137.5h3q213 0 331.5 -132t118.5 -331q0 -217 -130 -352.5t-343 -135.5q-201 0 -327 126t-126 341zM285 1307q-18 18 8 43q68 61 151 59q29 -2 82.5 -110.5t75.5 -194.5q12 -31 -14 -51q-31 -20 -72 -29q-106 158 -231 283zM319 469 q0 -166 60.5 -254t155.5 -88q92 0 141 84t49 229q0 143 -53.5 238.5t-157.5 95.5h-2q-92 0 -142.5 -85t-50.5 -220z"/>
<glyph unicode="ó" horiz-adv-x="1042" d="M59 442q0 209 134.5 346.5t338.5 137.5h3q213 0 331.5 -132t118.5 -331q0 -217 -130 -352.5t-343 -135.5q-201 0 -327 126t-126 341zM319 469q0 -166 60.5 -254t155.5 -88q92 0 141 84t49 229q0 143 -53.5 238.5t-157.5 95.5h-2q-92 0 -142.5 -85t-50.5 -220zM410 1110 q106 295 168 295h2q80 0 143 -59q20 -14 -4 -41q-39 -43 -83 -96.5t-89 -112t-62 -76.5q-31 6 -71 33q-22 14 -4 57z"/>
<glyph unicode="ô" horiz-adv-x="1042" d="M59 442q0 209 134.5 346.5t338.5 137.5h3q213 0 331.5 -132t118.5 -331q0 -217 -130 -352.5t-343 -135.5q-201 0 -327 126t-126 341zM279 1069q147 215 188 291q14 27 41 33q41 8 86 8q94 -154 205 -322q-68 -39 -117 -39q-31 0 -41 21q-10 16 -31.5 47t-40 58.5 t-34.5 54.5q-51 -92 -101 -152q-25 -29 -39 -29h-2q-32 0 -114 29zM319 469q0 -166 60.5 -254t155.5 -88q92 0 141 84t49 229q0 143 -53.5 238.5t-157.5 95.5h-2q-92 0 -142.5 -85t-50.5 -220z"/>
<glyph unicode="õ" horiz-adv-x="1042" d="M59 442q0 209 134.5 346.5t338.5 137.5h3q213 0 331.5 -132t118.5 -331q0 -217 -130 -352.5t-343 -135.5q-201 0 -327 126t-126 341zM244 1102q18 262 182 262h2q68 0 123 -74q37 -45 53 -45q33 0 49 98q8 20 23 21q59 0 98 -29q-23 -258 -166 -258q-57 0 -129 80 q-41 47 -59 47q-31 -4 -55 -98q-4 -20 -17 -21q-61 1 -104 17zM319 469q0 -166 60.5 -254t155.5 -88q92 0 141 84t49 229q0 143 -53.5 238.5t-157.5 95.5h-2q-92 0 -142.5 -85t-50.5 -220z"/>
<glyph unicode="ö" horiz-adv-x="1042" d="M59 442q0 209 134.5 346.5t338.5 137.5h3q213 0 331.5 -132t118.5 -331q0 -217 -130 -352.5t-343 -135.5q-201 0 -327 126t-126 341zM199 1208.5q0 55.5 32.5 91t92.5 35.5h2q45 0 76.5 -35.5t31.5 -82.5q0 -59 -32.5 -93t-88.5 -34q-45 0 -79.5 31.5t-34.5 87zM319 469 q0 -166 60.5 -254t155.5 -88q92 0 141 84t49 229q0 143 -53.5 238.5t-157.5 95.5h-2q-92 0 -142.5 -85t-50.5 -220zM586 1208.5q0 55.5 32.5 91t90.5 35.5h2q47 0 78.5 -34.5t31.5 -83.5q0 -59 -32.5 -93t-88.5 -34q-45 0 -79.5 31.5t-34.5 87z"/>
<glyph unicode="÷" horiz-adv-x="1196" d="M129 430q2 92 16.5 128t49.5 36h874q-2 -82 -16.5 -123t-51.5 -41h-872zM481 170q0 49 34 83t81 34h2q47 0 80 -34t33 -83t-35 -84t-80 -35q-47 0 -81 34t-34 85zM485 854q0 49 33 84t82 35q51 0 83 -35t32 -84t-33 -83t-84 -34h-2q-47 0 -79 35t-32 82z"/>
<glyph unicode="ø" horiz-adv-x="1058" d="M61 446q0 203 135.5 341.5t338.5 138.5q133 0 225 -49q8 12 15 21t10 14.5t7 8.5l4 4l2 2q1 1 1 2t2 3q20 31 33.5 34t27.5 -18q31 -35 41 -69l-49 -70q143 -117 143 -354q0 -207 -129 -343.5t-331 -136.5q-147 0 -238 50q-49 -66 -57 -78q-27 -37 -52 -6q-37 49 -43 71 q2 2 2.5 3t1.5 2l3 3q2 2 4 5.5t6 8.5t9 12t13.5 18.5t18.5 25.5q-144 123 -144 356zM303 461q0 -104 39 -182l309 448q-57 53 -125 53q-102 0 -162.5 -90t-60.5 -229zM408 180q57 -57 133 -57q100 0 156.5 87t56.5 230q0 109 -37 187z"/>
<glyph unicode="ù" horiz-adv-x="1085" d="M121 889q90 25 217 24q25 0 32 -21.5t7 -107.5v-430q0 -188 168 -188q86 0 153 63v590q0 45 8.5 59.5t34.5 20.5q127 14 211 14q0 -4 -3 -133t-3 -235v-314q0 -59 18.5 -81.5t63.5 -30.5v-13q-6 -47 -45 -89t-78 -42q-139 0 -178 131q-57 -53 -156 -102q-72 -29 -131 -29 q-158 0 -234.5 93.5t-76.5 253.5v337q0 148 -8 230zM289 1307q-18 18 8 43q68 61 152 59q29 -2 82 -110.5t75 -194.5q12 -31 -14 -51q-31 -20 -72 -29q-106 158 -231 283z"/>
<glyph unicode="ú" horiz-adv-x="1085" d="M121 889q90 25 217 24q25 0 32 -21.5t7 -107.5v-430q0 -188 168 -188q86 0 153 63v590q0 45 8.5 59.5t34.5 20.5q127 14 211 14q0 -4 -3 -133t-3 -235v-314q0 -59 18.5 -81.5t63.5 -30.5v-13q-6 -47 -45 -89t-78 -42q-139 0 -178 131q-57 -53 -156 -102q-72 -29 -131 -29 q-158 0 -234.5 93.5t-76.5 253.5v337q0 148 -8 230zM455 1110q106 295 168 295h2q80 0 143 -59q20 -14 -4 -41q-39 -43 -83 -96.5t-89 -112t-62 -76.5q-31 6 -71 33q-22 14 -4 57z"/>
<glyph unicode="û" horiz-adv-x="1085" d="M121 889q90 25 217 24q25 0 32 -21.5t7 -107.5v-430q0 -188 168 -188q86 0 153 63v590q0 45 8.5 59.5t34.5 20.5q127 14 211 14q0 -4 -3 -133t-3 -235v-314q0 -59 18.5 -81.5t63.5 -30.5v-13q-6 -47 -45 -89t-78 -42q-139 0 -178 131q-57 -53 -156 -102q-72 -29 -131 -29 q-158 0 -234.5 93.5t-76.5 253.5v337q0 148 -8 230zM276 1073q147 215 189 291q14 27 41 33q41 8 86 8q94 -154 205 -322q-68 -39 -117 -39q-31 0 -41 21q-10 16 -31.5 47t-40 58.5t-35.5 54.5q-51 -92 -100 -152q-25 -29 -39 -29h-2q-33 0 -115 29z"/>
<glyph unicode="ü" horiz-adv-x="1085" d="M121 889q90 25 217 24q25 0 32 -21.5t7 -107.5v-430q0 -188 168 -188q86 0 153 63v590q0 45 8.5 59.5t34.5 20.5q127 14 211 14q0 -4 -3 -133t-3 -235v-314q0 -59 18.5 -81.5t63.5 -30.5v-13q-6 -47 -45 -89t-78 -42q-139 0 -178 131q-57 -53 -156 -102q-72 -29 -131 -29 q-158 0 -234.5 93.5t-76.5 253.5v337q0 148 -8 230zM221 1208.5q0 55.5 33 91t92 35.5h2q45 0 77 -35.5t32 -82.5q0 -59 -33 -93t-88 -34q-45 0 -80 31.5t-35 87zM608 1208.5q0 55.5 33 91t90 35.5h2q47 0 79 -34.5t32 -83.5q0 -59 -33 -93t-88 -34q-45 0 -80 31.5t-35 87z "/>
<glyph unicode="ý" horiz-adv-x="897" d="M27 870q111 55 209 56q16 0 28 -9.5t17.5 -18.5t15.5 -30q90 -236 199 -573q55 137 111.5 328.5t76.5 302.5q74 -4 141 -23q61 -14 43 -88q-98 -391 -256 -721q-96 -203 -200.5 -357.5t-139.5 -154.5q-49 0 -98 24.5t-68 51.5v8q51 55 129 168t132 213q-25 33 -45 90 q-6 18 -50.5 131t-84.5 213.5t-86.5 216t-73.5 172.5zM383 1110q106 295 168 295h2q80 0 143 -59q20 -14 -4 -41q-39 -43 -83 -96.5t-89 -112t-61 -76.5q-31 6 -72 33q-22 14 -4 57z"/>
<glyph unicode="þ" horiz-adv-x="1075" d="M121 1352q29 12 105.5 24.5t113.5 12.5q23 0 29 -21.5t6 -112.5v-440q150 111 272 111q168 0 269.5 -120t101.5 -312q0 -219 -138.5 -369t-355.5 -150q-74 0 -147 33v-385q0 -27 -8.5 -37t-38.5 -16q-88 -10 -207 -10q6 133 6 342v788v445q0 135 -8 217zM377 162 q57 -27 121 -27q111 0 185.5 90t74.5 246q0 109 -58.5 186.5t-154.5 77.5q-90 0 -168 -61v-512z"/>
<glyph unicode="ÿ" horiz-adv-x="897" d="M27 870q111 55 209 56q16 0 28 -9.5t17.5 -18.5t15.5 -30q90 -236 199 -573q55 137 111.5 328.5t76.5 302.5q74 -4 141 -23q61 -14 43 -88q-98 -391 -256 -721q-96 -203 -200.5 -357.5t-139.5 -154.5q-49 0 -98 24.5t-68 51.5v8q51 55 129 168t132 213q-25 33 -45 90 q-6 18 -50.5 131t-84.5 213.5t-86.5 216t-73.5 172.5zM154 1208.5q0 55.5 32.5 91t92.5 35.5h2q45 0 76.5 -35.5t31.5 -82.5q0 -59 -32.5 -93t-88.5 -34q-45 0 -79.5 31.5t-34.5 87zM541 1208.5q0 55.5 32.5 91t90.5 35.5h2q47 0 78.5 -34.5t31.5 -83.5q0 -59 -32.5 -93 t-88.5 -34q-45 0 -79.5 31.5t-34.5 87z"/>
<glyph unicode="Œ" horiz-adv-x="1978" d="M70 612q0 305 187 502t488 197q289 0 439 -189v131q72 18 219 27h479q-12 -98 -65 -156q-29 -14 -175 -14h-215v-369h433q-23 -113 -53.5 -141.5t-92.5 -28.5h-287v-399q66 -14 193 -14q219 0 317 8l5 -4q-25 -117 -113 -164q-47 -10 -258 -10q-258 0 -357 20l-30 39v121 q-70 -96 -188.5 -147.5t-258 -51.5t-255 39t-190.5 103.5t-126 149.5t-73.5 173t-22.5 178zM342 643q0 -223 110.5 -367.5t311.5 -144.5q186 0 307 130t121 378q0 137 -38 239.5t-101.5 160t-137 84t-155.5 26.5q-182 0 -300 -138.5t-118 -365.5v-2z"/>
<glyph unicode="œ" horiz-adv-x="1564" d="M59 446q0 207 134.5 343.5t338.5 136.5q213 0 322 -156q113 156 307 156q174 0 262 -104.5t93 -246.5q0 -55 -7 -71q-8 -41 -166 -78q-90 -14 -387 -14q6 -119 88 -186.5t205 -67.5q111 0 221 43l5 -4q2 -63 -42 -120t-77 -73q-70 -29 -178 -29q-100 0 -197.5 36 t-151.5 112q-49 -68 -133 -108t-184 -40q-197 0 -325 123t-128 348zM319 471q0 -172 62.5 -258t153.5 -86q96 0 146 88t50 236q0 133 -54 229t-157 96h-2q-94 0 -146.5 -86t-52.5 -219zM961 553q100 -6 299 2q23 2 22 37q2 82 -36 136t-113 54h-3q-66 0 -113.5 -60 t-55.5 -169z"/>
<glyph unicode="Ÿ" horiz-adv-x="1161" d="M33 1245v6q125 37 223 37q29 0 47.5 -16.5t54.5 -79.5q43 -68 144.5 -241t118.5 -199q61 94 175.5 285.5t147.5 250.5q115 0 172 -20q43 -16 2 -84q-23 -37 -110.5 -170t-173.5 -260t-93 -138q-23 -39 -22 -86v-280q0 -111 6 -246q-76 -16 -225 -16q-23 0 -30 7t-7 30 v483q0 66 -17 94q-151 260 -413 643zM279 1487q0 55 32.5 90t91.5 35h3q45 0 75.5 -34t30.5 -81q0 -59 -31.5 -93t-87.5 -34q-47 0 -80.5 30t-33.5 87zM694 1487q0 55 32 90t89 35h2q47 0 77 -33t30 -82q0 -59 -32 -93t-87 -34q-43 0 -77 31t-34 86z"/>
<glyph unicode="ˆ" horiz-adv-x="819" d="M150 1069q147 215 188 291q14 27 41 33q41 8 86 8q94 -154 205 -322q-68 -39 -117 -39q-31 0 -41 21q-10 16 -31.5 47t-40 58.5t-34.5 54.5q-51 -92 -101 -152q-25 -29 -39 -29h-2q-32 0 -114 29z"/>
<glyph unicode="˜" horiz-adv-x="819" d="M145 1102q18 262 183 262h2q68 0 123 -74q37 -45 53 -45q33 0 49 98q8 20 23 21q59 0 98 -29q-23 -258 -166 -258q-57 0 -129 80q-41 47 -59 47q-31 -4 -56 -98q-4 -20 -16 -21q-62 1 -105 17z"/>
<glyph unicode=" " horiz-adv-x="876"/>
<glyph unicode=" " horiz-adv-x="1753"/>
<glyph unicode=" " horiz-adv-x="876"/>
<glyph unicode=" " horiz-adv-x="1753"/>
<glyph unicode=" " horiz-adv-x="583"/>
<glyph unicode=" " horiz-adv-x="438"/>
<glyph unicode=" " horiz-adv-x="290"/>
<glyph unicode=" " horiz-adv-x="290"/>
<glyph unicode=" " horiz-adv-x="219"/>
<glyph unicode=" " horiz-adv-x="350"/>
<glyph unicode=" " horiz-adv-x="96"/>
<glyph unicode="‐" horiz-adv-x="643" d="M68 365q8 70 33.5 122t43.5 56q311 59 424 92l4 -8q-8 -66 -37.5 -125.5t-70.5 -67.5q-70 -29 -201 -55.5t-190 -24.5z"/>
<glyph unicode="‑" horiz-adv-x="643" d="M68 365q8 70 33.5 122t43.5 56q311 59 424 92l4 -8q-8 -66 -37.5 -125.5t-70.5 -67.5q-70 -29 -201 -55.5t-190 -24.5z"/>
<glyph unicode="‒" horiz-adv-x="643" d="M68 365q8 70 33.5 122t43.5 56q311 59 424 92l4 -8q-8 -66 -37.5 -125.5t-70.5 -67.5q-70 -29 -201 -55.5t-190 -24.5z"/>
<glyph unicode="–" horiz-adv-x="1124" d="M96 406l13 83q16 94 55 95h862l-10 -80q-12 -98 -51 -98h-869z"/>
<glyph unicode="—" horiz-adv-x="1902" d="M96 406l10 81q12 96 58 97h1640l-12 -80q-10 -66 -22.5 -82t-36.5 -16h-1637z"/>
<glyph unicode="‘" horiz-adv-x="450" d="M59 1034v2q0 86 47.5 183.5t110.5 146.5q55 45 166 41q-104 -168 -104 -344q0 -49 12 -94q-111 -45 -158 -45q-35 0 -54.5 30.5t-19.5 79.5z"/>
<glyph unicode="’" horiz-adv-x="450" d="M70 913q102 164 102 353q0 49 -10 86q104 45 155 45q35 0 54.5 -31t19.5 -80v-2q0 -86 -47 -183t-111 -147q-50 -45 -163 -41z"/>
<glyph unicode="‚" horiz-adv-x="407" d="M-23 -205q131 174 132 373q0 49 -13 94q113 49 168 49h2q35 0 56.5 -35.5t21.5 -89.5q0 -90 -59.5 -191t-132.5 -159q-60 -45 -175 -41z"/>
<glyph unicode="“" horiz-adv-x="792" d="M59 1034v2q0 86 47.5 183.5t110.5 146.5q55 45 166 41q-104 -168 -104 -352q0 -41 12 -86q-111 -45 -158 -45q-35 0 -54.5 30.5t-19.5 79.5zM399 1038v2q0 84 47.5 180.5t110.5 145.5q55 45 166 41q-102 -164 -102 -348q0 -53 10 -90q-104 -45 -158 -45q-74 -1 -74 114z "/>
<glyph unicode="”" horiz-adv-x="786" d="M70 913q102 164 102 353q0 49 -10 86q104 45 155 45q35 0 54.5 -31t19.5 -80v-2q0 -86 -47 -183t-111 -147q-50 -45 -163 -41zM403 913q106 166 107 353q0 53 -12 86q111 45 159 45q35 0 53.5 -31t18.5 -80v-2q0 -86 -47 -183t-111 -147q-51 -45 -168 -41z"/>
<glyph unicode="„" horiz-adv-x="751" d="M-8 -193q119 180 119 363q0 47 -13 92q121 47 164 47q37 0 57.5 -34.5t20.5 -81.5v-3q0 -88 -55.5 -189t-124.5 -155q-53 -43 -168 -39zM340 -193q119 180 119 363q0 47 -13 92q121 47 166 47q35 0 55.5 -34.5t20.5 -81.5v-3q0 -88 -55 -189t-125 -155q-49 -43 -168 -39z "/>
<glyph unicode="•" horiz-adv-x="716" d="M111 471q0 115 68.5 188.5t187.5 73.5h2q104 0 170.5 -76.5t66.5 -177.5q0 -117 -70.5 -187.5t-185.5 -70.5q-90 0 -164.5 65.5t-74.5 184.5z"/>
<glyph unicode="…" horiz-adv-x="1636" d="M115 125q0 66 41 110t112 44h2q59 0 96 -43t37 -105q0 -70 -39.5 -112t-109.5 -42q-53 0 -96 38t-43 110zM659 125q0 66 41 110t113 44h2q59 0 96 -43t37 -105q0 -70 -40 -112t-109 -42q-53 0 -96.5 38t-43.5 110zM1204 125q0 66 41 110t113 44h2q59 0 96 -43t37 -105 q0 -70 -40 -112t-110 -42q-53 0 -96 38t-43 110z"/>
<glyph unicode=" " horiz-adv-x="350"/>
<glyph unicode="‹" horiz-adv-x="860" d="M94 481q168 129 373 420q27 -6 59.5 -34.5t34.5 -57.5q0 -41 -82 -160t-137 -186q47 -61 124 -186t77 -162v-2q0 -27 -34 -54.5t-63 -35.5q-139 225 -331 405q-21 30 -21 53z"/>
<glyph unicode="›" horiz-adv-x="860" d="M299 117q0 29 49 107.5t94 138t78 100.5q-45 53 -123 179t-78 167v2q0 25 34 53.5t63 34.5q137 -225 332 -403q18 -33 18 -56q-176 -135 -373 -415q-27 6 -59.5 34.5t-34.5 57.5z"/>
<glyph unicode=" " horiz-adv-x="438"/>
<glyph unicode="€" d="M8 426q16 74 40 97.5t67 23.5h24q-4 55 0 108h-90q14 70 34.5 95.5t55.5 25.5h19q47 203 186 330t346 127q160 0 240 -68q14 -47 -6 -82q-12 -41 -60 -51q-68 37 -153 37q-117 0 -197 -78t-108 -215h432q-16 -78 -41 -99.5t-80 -21.5h-330q-4 -53 0 -108h391 q-18 -78 -41.5 -99.5t-81.5 -21.5h-249q66 -287 325 -287q92 0 195 41l8 -2q-10 -98 -51 -151q-61 -51 -215 -52q-215 0 -347.5 115t-168.5 336h-144z"/>
<glyph unicode="™" horiz-adv-x="915" d="M55 1229q6 39 23 55q8 -2 84 -2h229q0 -18 -11 -41.5t-24 -28.5h-86v-190q0 -20 1 -42t1 -24l-86 -4q-14 0 -14 11v249h-104q-15 1 -13 17zM391 956q4 18 14.5 77t21.5 115t19 103l-6 23q25 10 111 10q10 0 29 -41l51 -139q35 94 65 164v8q29 8 105 8q8 0 12 -16l29 -193 q8 -59 22 -119q-82 -8 -88 -8q-12 0 -16 19q-2 18 -10 88l-19 141q-8 -25 -37.5 -111t-42.5 -124q-31 -4 -67 -5q-8 31 -78 222q-6 -33 -31 -217q-4 -12 -12 -13q-21 0 -72 8z"/>
<glyph unicode="" horiz-adv-x="925" d="M0 925h925v-925h-925v925z"/>
<glyph unicode="ﬁ" horiz-adv-x="1089" d="M29 809q39 41 118 92q0 270 187 412q115 88 287 88q137 0 215 -66q16 -37 0 -82q-27 -59 -68 -65q-86 41 -162 41q-98 0 -154.5 -80t-52.5 -248q199 0 328 2q53 0 119.5 8.5t75.5 8.5q25 0 32 -26t7 -112v-733q0 -31 -13.5 -41t-46.5 -14q-74 -6 -194 -6q6 246 6 319v443 q-41 -4 -318 -9q0 -98 4 -395t4 -346q-82 -12 -231 -12q-16 0 -22.5 4t-6.5 20q4 111 4 729q-118 0 -118 68z"/>
<glyph unicode="ﬂ" horiz-adv-x="1089" d="M27 807q33 41 118 94q2 260 166 402q117 98 277 98q94 0 164 -33q104 33 170 33q25 0 32 -20.5t7 -102.5v-1008q0 -174 10 -266q-70 -16 -230 -16q-29 0 -28 26v742q-74 -16 -318 -15q-2 -104 3 -405t5 -332q-94 -16 -231 -16q-16 0 -22.5 6t-6.5 22q2 70 2 723 q-49 0 -83.5 18.5t-34.5 49.5zM397 901h63q56 0 130 -1t123 -1v266q0 37 -11 45q-41 33 -116 33q-92 0 -142.5 -90t-46.5 -252z"/>
<glyph unicode="ﬃ" horiz-adv-x="1685" d="M29 815q41 49 118 86q4 227 172 361q121 98 316 98q150 0 248 -72q125 113 317 113q78 0 148.5 -25.5t85.5 -54.5q4 -43 -32 -90t-73 -31q-63 31 -143 31q-207 0 -207 -330q303 0 346 2q47 0 115.5 9.5t79.5 9.5q25 0 32 -21.5t7 -105.5v-746q0 -29 -12.5 -39t-47.5 -14 q-63 -8 -194 -8q6 246 6 319v441q-39 -4 -334 -5q0 -96 4 -395t4 -348q-82 -12 -231 -12q-16 0 -22.5 4t-6.5 20q8 270 4 731h-334q0 -96 4 -395t4 -348q-82 -12 -231 -12q-16 0 -22.5 4t-6.5 20q4 111 4 731q-118 6 -118 72zM399 901h330q4 166 51 250q-53 49 -159 49 q-115 0 -169.5 -83t-52.5 -216z"/>
<glyph unicode="ﬄ" horiz-adv-x="1687" d="M29 811q45 53 118 86q4 227 170 363q121 100 324 100q147 0 240 -70q119 111 295 111q115 0 188 -39q111 39 156 39q25 0 32 -22.5t7 -110.5v-998q0 -172 10 -270q-53 -12 -230 -12q-29 0 -28 22v750q-68 -16 -334 -17q0 -96 4 -395t4 -348q-82 -12 -231 -12 q-29 0 -29 24q4 123 5 366t-1 365h-334q0 -96 4 -395t4 -348q-78 -12 -229 -12q-18 0 -24.5 4t-6.5 20q4 111 4 727q-118 6 -118 72zM399 901h330q4 154 49 252q-51 51 -157 51q-111 0 -167.5 -83t-54.5 -220zM977 901q2 0 68.5 -1t128.5 -1h133v266q0 31 -11 41 q-47 37 -122 37q-201 0 -197 -342z"/>
</font>
</defs>
</svg>
