<?xml version="1.0" encoding="UTF-8" standalone="no"?>
<!DOCTYPE svg PUBLIC "-//W3C//DTD SVG 1.1//EN" "http://www.w3.org/Graphics/SVG/1.1/DTD/svg11.dtd">
<svg xmlns="http://www.w3.org/2000/svg">
<metadata/>
<defs>
<font id="cronos_prolight" horiz-adv-x="903">
<font-face units-per-em="2048" ascent="1597" descent="-451"/>
<missing-glyph horiz-adv-x="440"/>
<glyph unicode="ﬁ" horiz-adv-x="960" d="M57 831q36 36 103 58q0 306 159 438q99 78 230 78q48 0 93 -15.5t67 -37.5q2 -28 -17 -52q-20 -20 -41 -10q-60 31 -127 31q-53 0 -98.5 -22.5t-83.5 -71t-58.5 -135t-19.5 -203.5q1 0 53 -0.5t101 -1t124 1.5t138 6q27 1 66 7.5t42 6.5q23 0 23 -133v-727 q0 -29 -6 -39.5t-21 -13.5q-38 -7 -63 -7q-10 -1 -21 -1q7 287 7 319v510q-23 -3 -48 -4.5t-66 -2.5t-76.5 -1.5t-112.5 -1.5t-140 -2q-1 -154 -0.5 -289.5t1.5 -306t1 -205.5q-19 -16 -82 -16q-15 0 -20.5 7t-5.5 28q3 98 3.5 209t-0.5 294t-1 279q-103 0 -103 26z"/>
<glyph unicode="ﬂ" horiz-adv-x="960" d="M57 829q39 39 103 60q10 285 147 422q100 94 246 94q86 0 160 -43q64 43 78 43q8 0 11.5 -5.5t6 -26t2.5 -60.5v-1043q0 -93 6 -270q-37 -16 -86 -16q-24 0 -24 26v807q-180 -16 -443 -12q-1 -154 -0.5 -290t1.5 -306t1 -205q-19 -16 -80 -16q-15 0 -20.5 7t-5.5 28v782 q-103 0 -103 24zM264 889q5 0 77.5 -1t141.5 -1.5t138 0.5t86 4v338q0 30 -15 45q-52 55 -162 55q-51 0 -96 -23.5t-83.5 -72.5t-62 -137.5t-24.5 -206.5z"/>
<glyph unicode="ﬃ" horiz-adv-x="1507" d="M57 831q33 33 103 56q8 121 39.5 209.5t99.5 158.5q106 109 264 109q67 0 120.5 -17t76.5 -33t49 -40q52 63 124 97t152 34q57 0 103 -15.5t69 -39.5q2 -26 -15 -48t-40 -10q-64 31 -129 31q-262 0 -262 -436q5 0 53.5 -1t99.5 -1.5t125.5 0.5t137.5 4q21 1 44.5 5.5 t42.5 9.5t21 5q23 0 23 -131v-729q0 -31 -6 -40.5t-21 -12.5q-14 -3 -24 -5t-13 -3t-8.5 -2t-13 -1t-25.5 -1q6 258 6 323v508q-34 -7 -106 -8.5t-336 -1.5q-1 -154 -0.5 -289.5t1.5 -306t1 -205.5q-19 -16 -84 -16q-15 0 -19.5 6.5t-4.5 28.5q2 107 2 782h-443 q-1 -108 -1 -274.5t0.5 -335.5t0.5 -191q-19 -16 -82 -16q-15 0 -20.5 7t-5.5 28q4 145 4 782q-67 0 -85 4t-18 22zM264 887h443q0 79 14.5 171t42.5 138q-62 86 -211 86q-130 0 -209 -104.5t-80 -290.5z"/>
<glyph unicode="ﬄ" horiz-adv-x="1509" d="M57 834q30 34 103 55q8 117 39.5 207t99.5 159q106 109 272 109q151 0 240 -94q105 135 287 135q94 0 170 -39q15 13 37.5 26t33.5 13q8 0 12 -7t6.5 -36.5t2.5 -89.5v-1002q0 -152 8 -270q-53 -16 -88 -16q-25 0 -25 26v809q-179 -16 -444 -12q-1 -154 -0.5 -290 t1.5 -307t1 -206q-16 -16 -82 -16q-15 0 -19.5 6.5t-4.5 28.5v784h-443q-1 -144 1.5 -467.5t2.5 -335.5q-19 -16 -82 -16q-15 0 -20.5 7t-5.5 28q1 96 1 213.5t-0.5 287t-0.5 283.5q-60 -1 -81.5 5t-21.5 22zM264 889h443q-1 76 16 168t41 137q-66 90 -215 90 q-128 0 -206 -106.5t-79 -288.5zM811 889q5 0 77.5 -1t142 -1.5t138.5 0.5t86 4v338q0 33 -10 43q-54 57 -160 57q-268 0 -274 -440z"/>
<glyph horiz-adv-x="2048"/>
<glyph horiz-adv-x="2048"/>
<glyph unicode="" horiz-adv-x="2048"/>
<glyph unicode=" " horiz-adv-x="440"/>
<glyph unicode="	" horiz-adv-x="440"/>
<glyph unicode=" " horiz-adv-x="440"/>
<glyph unicode="!" horiz-adv-x="309" d="M76 59q0 35 23 59.5t63 24.5h2q31 0 51.5 -24.5t20.5 -55.5q0 -37 -23.5 -61.5t-58.5 -24.5q-29 0 -53.5 22.5t-24.5 59.5zM104 1194q4 16 41 32.5t60 16.5h2q24 0 24 -47q0 -38 -30 -743q-2 -42 -23 -56q-30 -20 -49 -20q-15 374 -25 817z"/>
<glyph unicode="&quot;" horiz-adv-x="522" d="M72 1325q55 43 84 43h2q37 0 37 -104q0 -70 -11.5 -167t-25.5 -143q-6 -15 -27.5 -28.5t-44.5 -14.5q14 267 -14 414zM330 1325q55 43 82 43h2q37 0 37 -104q0 -70 -11.5 -167t-25.5 -143q-6 -15 -28 -28.5t-44 -14.5q6 81 3 211t-15 203z"/>
<glyph unicode="#" d="M35 512q9 31 31 53h167l68 307h-164q-17 0 -23 5t-1 14q13 38 26 57h178l58 256q5 7 27 16t42 9t11 -31l-56 -250h205l55 256q0 6 28 15.5t42 9.5q12 0 14.5 -7t-2.5 -24l-53 -250h139q17 0 22.5 -5.5t2.5 -20.5q-11 -33 -31 -50h-151l-64 -307h158q18 0 23.5 -3.5 t3.5 -14.5q-12 -47 -31 -58h-170l-62 -315q-9 -9 -30.5 -18t-40.5 -9q-16 0 -8 33l61 309h-213l-64 -315q-3 -15 -9 -21t-19 -6q-7 0 -26 13t-25 24l63 305l-154 3q-17 0 -24 5.5t-4 14.5zM315 565h211l64 307h-209z"/>
<glyph unicode="$" d="M125 129.5q2 28.5 14 42.5l6 2q61 -42 133 -67t136 -25q113 0 182.5 56t69.5 165q0 75 -56 129.5t-180 128.5q-131 76 -191.5 147.5t-60.5 178.5q0 71 31.5 128t77.5 89.5t89.5 49.5t76.5 20l16 110q6 41 31 49q35 13 65 13l-20 -168q63 -3 124.5 -28t90.5 -52 q-3 -31 -21.5 -46.5t-40.5 -7.5q-110 56 -192 56q-87 0 -155 -52.5t-68 -148.5q0 -26 6 -49t13.5 -40.5t24.5 -37t29 -31.5t38 -30t40 -27t46 -28.5t46 -28.5q8 -5 34.5 -21.5t35.5 -22t32.5 -22t33.5 -25t28.5 -26t27 -30.5t21 -33t17.5 -39t9.5 -43t4.5 -50 q0 -64 -21 -116.5t-53 -86t-74 -57.5t-80.5 -35t-76.5 -14l-16 -149q-5 -32 -35 -41q-34 -9 -64 -6l21 190q-79 5 -141 30t-91 52q-16 19 -14 47.5z"/>
<glyph unicode="%" horiz-adv-x="1345" d="M68 887q0 87 28.5 163.5t91 129.5t148.5 53h2q68 0 119.5 -28.5t80 -78t42.5 -107.5t14 -124q0 -89 -27.5 -164t-89.5 -125.5t-149 -50.5q-111 0 -185.5 86.5t-74.5 245.5zM168 889q0 -66 15 -124t53 -100t92 -42q82 0 124 75t42 205q0 40 -8 81t-25 83.5t-50.5 69 t-78.5 26.5h-2q-80 0 -121 -77.5t-41 -196.5zM248 -14q78 128 368.5 598t421.5 688q9 14 17.5 12.5t23.5 -18.5q15 -15 21 -43q-77 -121 -343.5 -556t-449.5 -724q-11 -18 -20 -19t-17 10q-22 16 -22 52zM754 301q0 94 30 172.5t94.5 129t151.5 50.5h2q55 0 98.5 -21t71 -55 t45.5 -80t25.5 -93t7.5 -97q0 -87 -29 -161.5t-90 -122.5t-143 -48q-50 0 -94.5 17t-84 53t-62.5 102t-23 154zM854 303q0 -65 15 -120.5t53.5 -96.5t95.5 -41q79 0 120.5 71t41.5 199q0 44 -6.5 85.5t-22.5 85.5t-49.5 71t-81.5 27h-2q-53 0 -91.5 -43t-55.5 -105t-17 -133 z"/>
<glyph unicode="&amp;" horiz-adv-x="1294" d="M88 307q0 38 9.5 74t21.5 63t38 59t42.5 49.5t52.5 47t50.5 40t53.5 38.5q-145 135 -145 289q0 132 83.5 211t205.5 79q69 0 126 -25t95.5 -84.5t38.5 -146.5q0 -27 -5 -51.5t-17 -48t-22 -41.5t-31.5 -39t-33 -33.5t-39 -32.5t-38 -27.5t-40.5 -27.5l-36 -24 q59 -58 336 -320q18 32 55 97t57 99.5t47 81t47.5 78.5t36.5 54q31 41 47.5 56.5t28.5 15.5q15 0 33.5 -14.5t32.5 -35.5v-10q-112 -103 -322 -473q171 -161 303 -293v-10q-55 -35 -90 -35q-20 0 -68 45l-69 69t-137 132q-171 -238 -396 -238q-157 0 -254.5 89t-97.5 243z M199 315q0 -111 76.5 -180t179.5 -69h2q38 0 71.5 7t75.5 26.5t86.5 62t87.5 106.5q-90 84 -224 215.5t-146 143.5q-107 -77 -158 -151t-51 -161zM313 973q0 -55 33.5 -121t104.5 -127q105 72 155.5 136.5t50.5 142.5q0 81 -49 128.5t-119 47.5q-82 0 -129 -57t-47 -148v-2z "/>
<glyph unicode="'" horiz-adv-x="266" d="M72 1325q55 43 84 43h2q37 0 37 -104q0 -69 -12.5 -166t-26.5 -144q-6 -15 -28.5 -28.5t-45.5 -14.5q14 273 -10 414z"/>
<glyph unicode="(" horiz-adv-x="632" d="M119 504v2q0 305 102 537.5t275 390.5q16 -3 32 -23.5t13 -40.5q-322 -333 -322 -846q0 -547 322 -848q-8 -19 -25 -35.5t-33 -17.5q-164 117 -264 355t-100 526z"/>
<glyph unicode=")" horiz-adv-x="632" d="M100 -313q166 171 244 378.5t78 466.5q0 282 -80.5 490t-241.5 358q28 50 60 54q65 -48 126.5 -127.5t115.5 -189t87 -256.5t33 -306v-2q0 -585 -377 -930q-20 6 -34 24.5t-11 39.5z"/>
<glyph unicode="*" horiz-adv-x="677" d="M78 954q-12 28 14 43l199 76l-176 105q-33 20 -15 45q7 11 41 45l187 -154l10 246q28 5 53 0q39 -3 33 -37l-39 -205l195 117q24 -15 32 -43q11 -34 -30 -51l-174 -74l186 -109q35 -22 14 -51q-14 -26 -43 -45l-194 160l-13 -244q-18 -3 -63 6q-26 6 -16 62l34 184 l-207 -131q-25 18 -28 55z"/>
<glyph unicode="+" horiz-adv-x="1148" d="M125 469q2 33 17 57.5t46 24.5h340v225q0 108 -6 164l49 8q29 6 40.5 -7.5t11.5 -61.5v-328h401q-5 -82 -66 -82h-335v-385q0 -23 -13.5 -36t-44.5 -21l-37 -4v446h-403z"/>
<glyph unicode="," horiz-adv-x="292" d="M-27 -211q52 69 85.5 153t33.5 156q0 30 -8 76q56 39 84 39h2q45 0 45 -104q0 -79 -55.5 -173.5t-110.5 -132.5q-21 -17 -76 -14z"/>
<glyph unicode="-" horiz-adv-x="589" d="M66 397q13 41 31 70.5t34 30.5q257 29 387 61l4 -4q-11 -47 -37.5 -75t-83.5 -42q-51 -14 -160.5 -30t-170.5 -17z"/>
<glyph unicode="." horiz-adv-x="292" d="M61 63q0 36 25.5 62.5t65.5 26.5h2q32 0 53.5 -26t21.5 -58q0 -40 -24 -65.5t-62 -25.5q-31 0 -56.5 23t-25.5 63z"/>
<glyph unicode="/" horiz-adv-x="671" d="M82 -195l418 1446q9 32 21.5 45t49.5 13l37 2l-411 -1432q-11 -43 -22.5 -58.5t-27.5 -15.5h-65z"/>
<glyph unicode="0" d="M66 608q0 81 10 160.5t37.5 166t69.5 150.5t113 106t161 42h2q379 0 379 -633q0 -319 -101 -472t-282 -153q-61 0 -114 17.5t-104.5 62.5t-88.5 114.5t-59.5 182t-22.5 256.5zM182 606q0 -118 16 -213.5t42.5 -157.5t63 -103.5t75.5 -59t82 -17.5q41 0 74 11t69.5 46.5 t60.5 95.5t40 166t16 249q0 41 -2 80t-8.5 94.5t-17.5 102t-31 95t-47 82t-68.5 55t-91.5 21.5h-2q-37 0 -72 -13t-72 -50.5t-64.5 -96.5t-45 -158.5t-17.5 -228.5z"/>
<glyph unicode="1" d="M158 981l41 84q292 114 405 168l17 -14q0 -65 2 -574t2 -596q0 -28 -9 -38t-32 -15q-40 -8 -74 -8q0 32 0.5 191t1 412.5t0.5 514.5q-141 -62 -350 -129z"/>
<glyph unicode="2" d="M78 23l37 67q296 307 410 480t114 304q0 136 -64 200.5t-165 64.5q-138 0 -260 -117q-34 -31 -56 -6q-12 16 -12 45q61 80 155.5 126t186.5 46q160 0 247 -97t87 -257q0 -141 -117 -310q-102 -151 -412 -479q332 -16 598 0q-3 -17 -23.5 -41t-39.5 -33q-39 -24 -215 -24 q-371 0 -467 20z"/>
<glyph unicode="3" d="M96 66l4 4q42 -18 110.5 -34t127.5 -16q99 0 170 26.5t108 72.5t53.5 98.5t16.5 114.5q0 121 -85 186.5t-241 65.5q-25 0 -116 -11l-2 5q6 20 20 41.5t25 29.5q146 25 236.5 98.5t90.5 198.5q0 83 -56 139t-155 56q-57 0 -117 -24t-98 -60q-38 -30 -53 -13q-15 15 -12 50 q38 53 127 96t170 43q69 0 124.5 -19t89.5 -47.5t57.5 -65.5t32.5 -70t9 -64q0 -208 -229 -310q305 -64 305 -319q0 -184 -130.5 -291.5t-338.5 -107.5q-66 0 -127.5 16t-83.5 31q-33 46 -33 80z"/>
<glyph unicode="4" d="M47 426q95 160 288.5 427t266.5 337q35 33 82 58.5t86 29.5l4 -8q-167 -184 -330 -404t-276 -409q217 -24 432 -21l6 398q53 18 92 22l13 -4v-416q80 0 141 10l2 -6q-18 -57 -78 -80q-7 -2 -32 -5t-33 -5v-301q0 -26 -8 -37t-27 -16q-36 -8 -82 -8q-1 32 1.5 150.5 t2.5 213.5q-151 0 -300.5 8.5t-211.5 20.5q-28 16 -39 45z"/>
<glyph unicode="5" d="M113 688q12 85 52.5 283.5t59.5 249.5q389 9 496 22l4 -8q-10 -36 -31 -59t-84.5 -30t-318.5 -18q-14 -44 -43.5 -187.5t-32.5 -184.5q140 -23 238 -45q352 -88 352 -357q0 -184 -135.5 -299.5t-337.5 -115.5q-70 0 -115.5 11.5t-62.5 24.5q-29 23 -33 76l4 4 q87 -35 203 -35q71 0 133 18.5t113.5 55t81 99.5t28.5 145q0 117 -66.5 179.5t-203.5 100.5q-140 37 -295 56z"/>
<glyph unicode="6" d="M55 473q0 136 49.5 271.5t143.5 246.5q54 64 118 116.5t119.5 83.5t109 52t89 29t57.5 8q62 0 80 -41v-6q-287 -63 -450 -240q-197 -214 -197 -530q0 -201 83.5 -304.5t211.5 -103.5q49 0 93 16.5t82.5 51.5t61.5 97.5t23 146.5q0 76 -21 131t-57 84.5t-76 43t-86 13.5 q-113 0 -235 -92q-5 17 4.5 47.5t28.5 46.5q113 92 248 92q70 0 126.5 -24t90.5 -61t56.5 -84.5t31 -91t8.5 -85.5q0 -75 -24 -146.5t-70.5 -131.5t-124.5 -97t-176 -37q-58 0 -111.5 14t-107 49.5t-92.5 90t-63 143t-24 201.5z"/>
<glyph unicode="7" d="M72 1139q0 15 23 44.5t44 41.5q28 -17 168 -17h516l8 -8q-18 -121 -92.5 -315.5t-161.5 -371.5t-167 -317.5t-113 -175.5q-36 -38 -80 -47q-31 -8 -55 -8l-4 10q142 171 325.5 543.5t237.5 597.5h-518q-131 0 -131 23z"/>
<glyph unicode="8" d="M72 266q0 58 18 105.5t57.5 89.5t82.5 74t114 75q-123 64 -172 138t-49 170q0 130 96 222.5t244 92.5h2q134 0 222.5 -75.5t88.5 -207.5q0 -45 -13 -86t-31 -70t-52.5 -62.5t-61.5 -54.5t-73 -54l1 -1h1l1 -1h1l1 -1h1l1 -1h1l1 -1l2 -1q133 -69 180 -108q92 -86 95 -210 q0 -131 -107.5 -227.5t-283.5 -96.5q-85 0 -152 20.5t-106.5 51t-65 71.5t-35 77t-9.5 71zM184 285q0 -74 40.5 -128.5t100.5 -79t128 -24.5h2q112 0 188 60.5t76 175.5q0 83 -62.5 138.5t-236.5 141.5q-116 -66 -176 -132.5t-60 -151.5zM227 932q0 -90 57 -150t187 -123 q201 130 201 281q0 98 -61 156.5t-165 58.5h-2q-86 0 -151.5 -58t-65.5 -165z"/>
<glyph unicode="9" d="M63 838q0 71 25.5 140.5t72 126.5t121 92.5t164.5 35.5q84 0 151 -30t110 -79t71.5 -116t40.5 -137t12 -146q0 -349 -229 -578q-56 -56 -123 -100t-123.5 -65.5t-96 -32t-58.5 -10.5q-32 0 -45 8q-24 16 -35 41l2 6q92 15 212.5 72t199.5 145q176 199 176 516 q0 188 -73.5 307t-203.5 119q-116 0 -184 -87t-68 -212q0 -140 69 -209.5t183 -69.5q75 0 170 46q5 -47 -22 -74q-21 -22 -74 -41t-111 -19q-82 0 -147.5 29.5t-105 79.5t-60.5 112t-21 130z"/>
<glyph unicode=":" horiz-adv-x="292" d="M61 760q0 39 22.5 64.5t61.5 25.5h2q35 0 55.5 -24.5t20.5 -61.5t-22.5 -62.5t-57.5 -25.5q-31 0 -56.5 23t-25.5 61zM66 61q0 40 26 65.5t62 25.5h2q30 0 53.5 -25t23.5 -61q0 -39 -24 -64t-62 -25q-31 0 -56 22t-25 62z"/>
<glyph unicode=";" horiz-adv-x="292" d="M-27 -211q48 66 83.5 152t35.5 157q0 30 -8 76q56 39 84 39h2q45 0 45 -104q0 -79 -55.5 -175t-110.5 -133q-24 -15 -76 -12zM61 760q0 39 23.5 64.5t65.5 25.5h2q34 0 53.5 -25t19.5 -61q0 -37 -23.5 -62.5t-58.5 -25.5q-30 0 -56 22.5t-26 61.5z"/>
<glyph unicode="&lt;" horiz-adv-x="1148" d="M203 463q0 25 22 47l649 424q17 12 28 9.5t22 -19.5q17 -33 20 -52l-616 -393v-6l614 -387q0 -33 -18 -57q-21 -31 -52 -9l-643 412q-26 19 -26 31z"/>
<glyph unicode="=" horiz-adv-x="1148" d="M123 268q4 82 65 82h836q-2 -45 -15.5 -63.5t-50.5 -18.5h-835zM123 662q3 81 65 81h836q-2 -46 -15.5 -63.5t-50.5 -17.5h-835z"/>
<glyph unicode="&gt;" horiz-adv-x="1148" d="M205 86l614 395v6l-614 385q0 30 20 60t51 8l642 -412q26 -16 26 -28q0 -34 -22 -51l-648 -424q-17 -12 -28 -10t-23 20q-8 16 -18 51z"/>
<glyph unicode="?" horiz-adv-x="606" d="M84 1139q104 104 238 104h2q105 0 173 -69t68 -175q0 -51 -22 -105.5t-46 -89.5t-69 -93q-52 -67 -76 -126.5t-24 -97.5q0 -57 20 -96q-19 -22 -53 -22q-6 0 -16 6t-22 18.5t-20 37.5t-8 56q0 58 24 117t77 135q2 3 20.5 28t24.5 34t22 33.5t22.5 39.5t16 37t13.5 41.5 t4 38.5q0 69 -39 112.5t-111 43.5q-99 0 -180 -70h-6q-36 13 -33 62zM231 59q0 35 24 59.5t64 24.5h3q30 0 50.5 -24.5t20.5 -55.5q0 -37 -23.5 -61.5t-58.5 -24.5q-29 0 -54.5 22.5t-25.5 59.5z"/>
<glyph unicode="@" horiz-adv-x="1449" d="M82 541q0 217 92 388.5t258.5 268t378.5 96.5q248 0 402.5 -150t154.5 -390q0 -209 -107 -346.5t-266 -137.5q-170 0 -133 248q-70 -125 -155.5 -186.5t-169.5 -61.5q-57 0 -94 56.5t-37 148.5q0 97 30.5 188.5t85.5 163t138 115t180 43.5q72 0 200 -35 q-6 -24 -26.5 -105.5t-38.5 -157t-25 -118.5q-21 -121 -2.5 -172t78.5 -51q34 0 67 12.5t67 43.5t60 77t42 119.5t16 165.5q0 136 -66 241.5t-173 159.5t-234 54q-190 0 -333 -86.5t-217.5 -238.5t-74.5 -347q0 -234 138.5 -383.5t379.5 -149.5q93 0 187 31.5t168 87.5l6 -2 q4 -9 5 -22.5t-5.5 -31t-22.5 -28.5q-150 -119 -389 -119q-114 0 -215.5 41t-179.5 116.5t-124 193t-46 260.5zM502 494q0 -66 20.5 -102t52.5 -36h3q72 0 158 91t138 235q30 85 60 215q-11 7 -47 11.5t-58 4.5q-65 0 -120 -24.5t-92.5 -65.5t-64 -95.5t-38.5 -113.5 t-12 -120z"/>
<glyph unicode="A" horiz-adv-x="1261" d="M33 10l2 13q84 167 285 603.5t260 571.5l-31 70q41 18 72 18q34 0 47 -31q333 -763 383 -872q33 -69 71 -154t61 -134.5t38 -76.5v-10q-56 -20 -88 -20q-17 0 -29 12t-27 45q-57 124 -178 397h-559q-140 -315 -201 -434q-10 -20 -35 -20q-40 0 -71 22zM377 528h487 q-195 464 -239 562q-42 -93 -248 -562z"/>
<glyph unicode="B" horiz-adv-x="974" d="M154 1268q106 22 274 22q98 0 172 -25t113 -59.5t62.5 -81t29.5 -79.5t6 -64q0 -89 -46.5 -164.5t-123.5 -120.5q125 -36 192.5 -122t67.5 -197q0 -128 -65.5 -219.5t-171 -134.5t-238.5 -43q-135 0 -266 34v977q0 168 -6 277zM272 78q55 -19 156 -19q152 0 250 78 t98 230q0 135 -96.5 202.5t-271.5 67.5q-95 0 -136 -10v-549zM272 705q74 12 180 12q44 0 93 -2q54 16 99.5 87t45.5 163q0 106 -71 174.5t-230 68.5q-63 0 -117 -8v-495z"/>
<glyph unicode="C" horiz-adv-x="1185" d="M84 633q0 199 91.5 354.5t249.5 239.5t355 84q129 0 231 -34t132 -69q-4 -34 -25.5 -50.5t-38.5 -12.5q-137 74 -309 74q-90 0 -172.5 -23.5t-153.5 -71.5t-123 -115.5t-82 -162t-30 -205.5q0 -263 155 -422.5t437 -159.5q83 0 173 22t142 48l4 -6q-2 -23 -17.5 -50 t-37.5 -40q-34 -24 -118.5 -44t-182.5 -20q-166 0 -296 48.5t-213.5 136.5t-127 209.5t-43.5 269.5z"/>
<glyph unicode="D" horiz-adv-x="1306" d="M156 1260q16 8 129.5 19t191.5 11q136 0 248.5 -22.5t190 -59t136.5 -89t93 -107.5t55.5 -120t29 -119.5t7.5 -113.5q0 -162 -55.5 -291.5t-154.5 -213.5t-233.5 -129t-293.5 -45q-168 0 -340 47v987q0 180 -4 246zM272 84q80 -25 238 -25q126 0 231.5 33.5t190 102 t132.5 185t48 271.5q0 122 -37 221t-113 175t-201.5 117.5t-291.5 41.5q-117 0 -197 -14v-1108z"/>
<glyph unicode="E" horiz-adv-x="878" d="M156 1249q56 23 92 29h540q0 -15 -10 -37.5t-26 -34.5q-27 -14 -136 -14h-344v-492h504q-11 -57 -36.5 -71.5t-82.5 -14.5h-385v-522q50 -18 299 -18q203 0 279 10l4 -4q-25 -73 -82 -84q-50 -8 -219 -8q-284 0 -367 22l-26 35v946q0 188 -4 258z"/>
<glyph unicode="F" horiz-adv-x="862" d="M154 1251q76 23 104 27h557q-7 -41 -29 -66q-20 -20 -129 -20h-385v-535h514q1 -50 -28 -68t-82 -18h-404q0 -294 7 -567q-43 -16 -89 -16q-30 0 -30 30v1012q0 178 -6 221z"/>
<glyph unicode="G" horiz-adv-x="1331" d="M84 631q0 201 95.5 357.5t257 239.5t358.5 83q88 0 165.5 -14t125.5 -35.5t75 -37.5t39 -28q2 -28 -19 -49.5t-46 -11.5q-145 86 -355 86q-250 0 -410.5 -160.5t-160.5 -417.5q0 -127 35 -229t93.5 -168.5t138 -110.5t165 -63t178.5 -19q70 0 151.5 15t119.5 38v199 q0 231 -9 279q16 9 48.5 19.5t50.5 10.5q22 0 22 -55v-475q-81 -52 -125 -66q-46 -17 -129 -33t-151 -16q-116 0 -219 22.5t-194.5 73t-157.5 126t-104 188t-38 252.5z"/>
<glyph unicode="H" horiz-adv-x="1314" d="M154 -12q6 123 6 374v648q0 202 -6 260q53 16 88 16q18 0 24 -17.5t6 -84.5v-479h772v524q0 27 7 36.5t28 12.5q33 8 84 8q-6 -117 -6 -368v-662q0 -129 6 -252q-62 -16 -98 -16q-21 0 -21 28v609q-72 -7 -339 -7h-433v-573q0 -27 -7.5 -35.5t-33.5 -13.5q-36 -6 -77 -8z "/>
<glyph unicode="I" horiz-adv-x="430" d="M154 1270q53 16 94 16q17 0 20.5 -16.5t3.5 -85.5v-930q0 -106 7 -250q-46 -16 -95 -16q-13 0 -18.5 7.5t-5.5 29.5v987q0 202 -6 258z"/>
<glyph unicode="J" horiz-adv-x="430" d="M-61 -213l2 6q46 15 76 32.5t59.5 52.5t46.5 87t27 135t10 197v715q0 202 -6 258q53 16 96 16q15 0 18.5 -15.5t3.5 -84.5v-875q0 -219 -32.5 -334.5t-116.5 -183.5q-33 -27 -69.5 -43t-57.5 -16q-18 0 -34.5 16.5t-22.5 36.5z"/>
<glyph unicode="K" horiz-adv-x="1132" d="M154 1270q77 16 96 16q17 0 19.5 -13t2.5 -79v-551q107 98 378 357t315 300q17 0 59 -10q17 -4 21.5 -11.5t-3.5 -21t-30 -34.5q-93 -85 -327.5 -305.5t-281.5 -264.5q138 -144 355 -346t344 -297v-4q-37 -22 -98 -22q-42 0 -91 41q-95 84 -338.5 315t-302.5 293v-377 q0 -108 7 -252q-50 -16 -91 -16q-17 0 -22.5 5.5t-5.5 24.5v992q0 202 -6 260z"/>
<glyph unicode="L" horiz-adv-x="854" d="M154 1270q77 16 96 16q8 0 12 -5.5t7 -29t3 -69.5v-1090q50 -18 260 -18q220 0 299 10l3 -4q-3 -30 -23 -53.5t-53 -30.5q-50 -8 -219 -8q-252 0 -353 22l-26 35v965q0 202 -6 260z"/>
<glyph unicode="M" horiz-adv-x="1718" d="M82 6q20 90 111 526.5t143 677.5l-19 58q61 18 99 18q9 -22 23 -57t43 -106t55 -136l311 -786q233 557 434 1024l-6 43q32 18 78 18q20 0 28 -47l146 -768q61 -320 98 -465q-49 -18 -86 -18q-16 0 -23 7.5t-12 27.5q-23 103 -69 360l-123 709q-365 -885 -426 -1037 q-15 -37 -35 -45q-20 -10 -51 -10q-33 101 -99 277t-173.5 456t-135.5 354q-34 -195 -117.5 -609.5t-91.5 -459.5q-6 -18 -12.5 -24t-19.5 -6q-39 0 -70 18z"/>
<glyph unicode="N" horiz-adv-x="1351" d="M117 1262v8q43 16 88 16q23 0 45 -35q32 -34 113.5 -140.5t214.5 -281.5t239 -309q216 -272 279 -377q-11 275 -11 508v568q0 33 8.5 44.5t28.5 14.5q15 2 25.5 4t12.5 2.5t5.5 1t6.5 0.5h14q-6 -132 -6 -377v-909q-8 -8 -29.5 -17.5t-34.5 -9.5q-2 0 -8 2t-8 2 q-35 46 -178 234.5t-254.5 334t-198.5 255.5q-159 210 -205 278q10 -349 10 -495v-521q0 -39 -8 -50.5t-30 -16.5q-36 -8 -60 -8q6 123 6 372v818z"/>
<glyph unicode="O" horiz-adv-x="1458" d="M84 621q0 196 77 352t224.5 247t341.5 91h2q186 0 334 -87t229.5 -237.5t81.5 -335.5q0 -105 -24.5 -203t-76 -185.5t-126 -152.5t-181 -103t-233.5 -38q-115 0 -213 29.5t-167 81t-122 116.5t-84.5 139t-47 145.5t-15.5 140.5zM209 633q0 -110 30.5 -205t82.5 -163.5 t120 -118t144.5 -73.5t154.5 -24q109 0 200 37t160.5 109t108.5 188t39 264q0 253 -150.5 418.5t-379.5 165.5h-2q-227 0 -367.5 -162t-140.5 -436z"/>
<glyph unicode="P" horiz-adv-x="960" d="M152 1270q153 20 270 20q102 0 185 -22.5t146 -68t97.5 -120t34.5 -172.5q0 -93 -34.5 -169t-91.5 -123t-125.5 -72t-139.5 -25q-82 0 -117 27q-11 8 -20.5 29.5t-6.5 39.5q52 -18 131 -18q34 0 69 7.5t74 29t68 54t48.5 87t19.5 123.5q0 309 -350 309q-78 0 -138 -8 v-944q0 -106 7 -250q-43 -16 -91 -16q-28 0 -28 37v968q0 183 -8 277z"/>
<glyph unicode="Q" horiz-adv-x="1458" d="M84 618q0 198 77.5 354.5t226 247.5t343.5 91h2q143 0 264 -52.5t203 -142t128 -210t46 -255.5q0 -158 -48.5 -289t-154.5 -230t-260 -144q66 -31 170 -101q249 -159 394 -182v-8q-32 -49 -109 -49q-21 0 -42 3t-45.5 11.5t-43.5 15.5t-49 23t-48 26t-54.5 33t-54.5 34.5 t-62 40.5t-64 42q-117 75 -237 88q-268 36 -425 215.5t-157 437.5zM209 633q0 -111 31.5 -207.5t84 -164t121.5 -116.5t144.5 -72.5t152.5 -23.5q111 0 202 36t159.5 108t106.5 187.5t38 266.5q0 254 -149 419t-383 165h-2q-226 0 -366 -162t-140 -436z"/>
<glyph unicode="R" horiz-adv-x="1040" d="M154 -12q6 123 6 372v684q0 150 -4 220q132 26 266 26q418 0 418 -356q0 -61 -19.5 -115t-48.5 -90.5t-67.5 -67t-69.5 -47t-62 -28.5q88 -58 211 -254q76 -121 144.5 -210t101.5 -114l-2 -10q-22 -14 -78 -14q-68 0 -143 116q-153 235 -174 265q-35 51 -53.5 76 t-45 52.5t-51 38t-58 18t-79.5 7.5h-74v-514q0 -26 -6.5 -36t-23.5 -13q-53 -6 -88 -6zM272 635q41 -2 85 -2q29 0 61 1q78 2 100 9q89 29 145 100.5t56 184.5q0 78 -26 135t-70.5 87t-94 44t-106.5 14q-104 0 -150 -10v-563z"/>
<glyph unicode="S" horiz-adv-x="843" d="M80 90q4 36 16 66q55 -45 135 -71t150 -26q127 0 202.5 64.5t75.5 171.5q0 57 -16.5 101t-58 83t-87 69t-128.5 75q-71 40 -121.5 80.5t-78 75t-43.5 74t-20 69.5t-4 69q0 38 10 78t37 84.5t67.5 78.5t109 56.5t153.5 22.5h2q62 0 132 -22t104 -56q2 -21 -12 -43t-33 -23 q-103 56 -207 56q-35 0 -68.5 -7t-66.5 -24t-58 -42t-40 -64t-15 -87q0 -101 56 -161.5t196 -137.5q181 -101 244 -181t63 -206q0 -155 -113.5 -249.5t-287.5 -94.5q-88 0 -162 24.5t-109 53.5q-24 21 -24 43z"/>
<glyph unicode="T" horiz-adv-x="1067" d="M43 1225q18 32 49 63q25 -10 311 -10h654q3 -13 -13.5 -44t-31.5 -40h-416v-940q0 -127 6 -250q-56 -16 -96 -16q-23 0 -23 37v1169h-411q-33 0 -33 17q0 6 4 14z"/>
<glyph unicode="U" horiz-adv-x="1337" d="M147 1270q53 16 89 16q21 0 25.5 -15.5t4.5 -88.5v-588q0 -134 27 -234.5t67 -157t97.5 -90.5t107.5 -44.5t107 -10.5q47 0 85 4.5t82 19.5t77 39.5t65.5 68t53.5 102t33.5 144.5t12.5 192v602q0 25 9 35t26 14q19 2 29.5 4t12.5 2.5t8 1t20 0.5q-6 -117 -6 -368v-287 q0 -125 -18.5 -226t-48.5 -169t-74.5 -118t-88.5 -78t-100 -44.5t-100 -21.5t-95 -5q-61 0 -113 8t-104 28t-93.5 52t-78 81.5t-60.5 114t-38 152.5t-14 195v410q0 192 -7 260z"/>
<glyph unicode="V" horiz-adv-x="1189" d="M57 1247q7 11 36 25t52 14q19 0 33 -28t68 -166q217 -563 372 -953q38 97 203.5 511.5t247.5 635.5q45 -10 55 -14q20 -10 25 -24q2 -5 2 -11q0 -14 -8 -37q-88 -225 -471 -1153q-15 -35 -35 -51q-34 -21 -66 -21q-40 102 -120.5 308t-131.5 335t-124.5 306.5 t-137.5 322.5z"/>
<glyph unicode="W" horiz-adv-x="1812" d="M59 1253q61 33 93 33q15 0 26 -23t39 -110q27 -89 143.5 -450.5t171.5 -552.5q179 604 334 1073q-8 46 -8 47q28 16 70 16h2q10 0 16.5 -7t14.5 -26q155 -486 331 -1099q60 175 161.5 464.5t155 444.5t74.5 223q37 0 74 -16q8 -4 8 -20q0 -19 -12 -54 q-69 -196 -403 -1118q-21 -58 -43 -80q-7 -7 -28.5 -15t-33.5 -8q-43 151 -336 1119q-45 -152 -168 -542.5t-147 -475.5q-20 -66 -47 -82q-34 -19 -58 -19q-255 812 -430 1278z"/>
<glyph unicode="X" horiz-adv-x="1130" d="M29 4v6q52 70 219.5 291t261.5 346q-57 86 -146 209t-182.5 250t-113.5 154v2q60 24 98 24q10 0 22.5 -15t42.5 -59q58 -82 162 -225t182 -252q226 297 373 502q34 49 58 49q34 0 69 -22v-4q-29 -41 -185.5 -246.5t-260.5 -347.5q371 -523 477 -656v-6q-56 -18 -92 -18 q-32 0 -62 39q-28 39 -151.5 215t-239.5 338q-84 -117 -239 -327.5t-175 -238.5q-14 -24 -45 -24q-33 0 -73 16z"/>
<glyph unicode="Y" horiz-adv-x="1114" d="M39 1257v7q49 22 94 22q14 0 31 -19t51 -67q86 -127 356 -508q57 76 225 311t197 283q22 0 62 -14q17 -6 17 -21q0 -18 -23 -49t-210 -285t-206 -278q-21 -26 -21 -78v-311q0 -123 6 -246q-29 -16 -94 -16q-14 0 -19 7t-5 30v522q0 63 -15 84q-75 113 -223.5 322 t-222.5 304z"/>
<glyph unicode="Z" horiz-adv-x="1130" d="M68 47q208 259 457 606.5t366 540.5h-658q-56 0 -83.5 4.5t-32 9.5t-4.5 15q0 14 18.5 35t34.5 32q41 -12 149 -12h719q-12 -58 -53 -125q-102 -162 -316.5 -469t-437.5 -602q177 -6 473 -8q59 0 110 -1q205 0 284 5l2 -4q-23 -36 -40.5 -51t-39.5 -23q-27 -12 -281 -12 q-592 0 -635 16q-30 27 -32 43z"/>
<glyph unicode="[" horiz-adv-x="622" d="M182.5 -163q-0.5 114 1.5 305t2 292v2q0 153 7.5 474t13.5 438q12 7 130.5 20.5t170.5 13.5q22 -31 22 -57q0 -7 -32 -10q-21 -3 -59 -8.5t-66 -9t-43 -5.5q-19 -5 -27.5 -16t-11.5 -35q-2 -17 -5.5 -107.5t-7 -285t-4.5 -428.5q-4 -529 5 -651q3 -23 14 -33t33 -15 q63 -10 163 -20q11 -1 17 -6t4 -10q-4 -28 -21 -52q-82 0 -153 7t-106.5 15t-41.5 15q-5 53 -5.5 167z"/>
<glyph unicode="\" horiz-adv-x="589" d="M66 1253q-5 22 10 36.5t63 17.5l11 4l362 -1432q10 -41 1.5 -55.5t-40.5 -16.5l-43 -2z"/>
<glyph unicode="]" horiz-adv-x="622" d="M92 -307q0 7 33 10q43 5 105 14t63 9q19 5 27.5 15t11.5 36q13 95 16 819q4 542 -4 651q-3 24 -13.5 34t-33.5 13q-83 14 -160 21q-12 1 -19 6.5t-5 11.5q4 26 20 49q121 0 203 -11.5t98 -24.5q5 -53 5.5 -167t-1.5 -305t-2 -292v-2q0 -574 -20 -912q-9 -7 -129 -21 t-172 -14q-23 33 -23 60z"/>
<glyph unicode="^" horiz-adv-x="1148" d="M162 477l350 717q6 18 14 24.5t29 10.5q41 5 63 4l369 -756q-11 -9 -39 -21t-41 -12q-18 0 -37 45l-301 635l-299 -649q-12 -19 -19.5 -25t-17.5 -6q-12 0 -35 10t-36 23z"/>
<glyph unicode="_" horiz-adv-x="1024" d="M0 -154h1024v-102h-1024v102z"/>
<glyph unicode="`" horiz-adv-x="819" d="M221 1313q-21 17 6 41q39 39 66 39h2q17 -1 79 -106t93 -177q11 -32 -4 -47q-31 -27 -35 -29q-113 172 -207 279z"/>
<glyph unicode="a" horiz-adv-x="833" d="M66 186q0 61 31 112t74 82t101 56.5t98 37t79 20.5q5 1 7 1.5t5.5 1t5.5 1.5q76 16 100 20l2 84q0 89 -48 153t-144 64q-111 0 -225 -92q-22 -12 -40 1.5t-24 45.5q43 50 128.5 94.5t176.5 44.5q281 0 281 -338q0 -29 -2 -128t-2 -167v-27q0 -56 2 -120q3 -78 65 -78 q22 0 43 8l2 -4q1 -6 1 -11q1 -34 -23 -52q-26 -21 -70 -21q-61 -1 -93 43q-30 41 -30 94v7q-50 -61 -123.5 -102.5t-156.5 -41.5q-102 0 -161.5 64.5t-59.5 146.5zM180 203q0 -59 43 -96t105 -37q78 0 137.5 41.5t89.5 93.5q12 21 12 65v172q-44 -9 -72 -15t-73 -18 t-74.5 -23.5t-64 -30.5t-55 -39.5t-34.5 -49t-14 -61.5v-2z"/>
<glyph unicode="b" horiz-adv-x="1007" d="M143 1372q78 21 93 21q9 0 13 -7.5t6.5 -36t2.5 -89.5l-2 -453q175 106 309 106q35 0 72.5 -8.5t81 -27t81.5 -52t69.5 -79t50 -114t18.5 -151.5q0 -155 -73 -271.5t-194 -175.5t-270 -59q-69 0 -135.5 16.5t-91.5 33.5q-13 10 -17.5 21.5t-4.5 39.5v1053q0 141 -9 233z M256 82q60 -25 158 -25q177 0 292 110.5t115 299.5q0 168 -87.5 258t-229.5 90q-51 0 -123.5 -23t-124.5 -57v-653z"/>
<glyph unicode="c" horiz-adv-x="843" d="M74 438q0 206 137.5 340.5t341.5 134.5q91 0 161 -25t85 -48q0 -30 -17.5 -51t-40.5 -15q-94 49 -206 49q-153 0 -249 -108.5t-96 -270.5q0 -90 25.5 -159t64 -109t90 -65.5t97 -34t92.5 -8.5q50 0 112.5 12t104.5 31l4 -5q-7 -63 -41 -81q-32 -20 -89.5 -35t-119.5 -15 q-56 0 -108.5 8t-118.5 37.5t-114 77t-81.5 135.5t-33.5 205z"/>
<glyph unicode="d" horiz-adv-x="1030" d="M74 422q0 212 143 351.5t361 139.5q36 0 70.5 -5t51.5 -9.5t40.5 -12.5t25.5 -9v309q0 63 -6 186q69 21 86 21q9 0 13.5 -7t7.5 -36.5t3 -89.5v-1070q0 -79 20 -108t73 -35v-6q-6 -26 -26 -46t-42 -20q-54 0 -84 35.5t-35 89.5q-65 -55 -153.5 -90t-159.5 -35 q-74 0 -142.5 27.5t-124 80.5t-89 140.5t-33.5 198.5zM190 428q0 -158 91 -256t231 -98q67 0 136.5 26t117.5 68v623q-64 40 -201 40q-55 0 -107.5 -14.5t-101.5 -46.5t-85.5 -78t-58.5 -114.5t-22 -149.5z"/>
<glyph unicode="e" horiz-adv-x="858" d="M72 424q0 136 47 245.5t142 176.5t222 67q62 0 114 -18.5t88.5 -49.5t62 -72.5t38.5 -87.5t15 -95q0 -44 -4 -62q-5 -26 -65.5 -43.5t-115.5 -19.5q-89 -6 -211 -6q-100 0 -223 4v-12q0 -171 86 -274q89 -107 250 -107q62 0 130 17t100 36l4 -2q-3 -64 -50 -94 q-32 -20 -89.5 -36t-120.5 -16q-202 0 -311 120.5t-109 328.5zM193 545q71 -1 151 -1h74h60q54 0 102.5 0.5t52.5 0.5q55 3 55 43v10q0 102 -58 170q-60 70 -169 70h-2q-97 0 -172.5 -79t-93.5 -214z"/>
<glyph unicode="f" horiz-adv-x="503" d="M57 834q25 32 103 55q0 312 145 440q88 76 197 76h2q37 0 72.5 -13.5t44.5 -29.5q2 -23 -16.5 -43t-41.5 -12q-40 14 -80 14q-43 0 -80 -20t-70 -66t-51 -135q-18 -83 -18 -198v-13q6 0 55 -0.5t93 -0.5q10 -1 21 -1q34 0 69 1q46 2 63 5q-5 -33 -45 -64q-11 -8 -29 -13 t-60.5 -7t-67.5 -2h-99v-97q0 -139 2 -370q2 -324 2 -336q-19 -16 -84 -16q-14 0 -19 7t-5 28q3 96 3 213.5t-1.5 287t-1.5 283.5q-60 0 -81.5 6.5t-21.5 20.5z"/>
<glyph unicode="g" horiz-adv-x="892" d="M49 -182q0 60 58.5 124t146.5 113q-61 23 -92.5 63.5t-34.5 82.5q0 13 14 20q63 43 111 94q-79 41 -117.5 112.5t-38.5 156.5q0 139 93 234t233 95h2q75 0 143 -18q111 -29 166 -29q73 0 127 15q4 -16 4 -23q0 -69 -106 -76q-16 -2 -72 -2q49 -85 49 -178 q0 -104 -46 -179t-116 -109.5t-153 -34.5h-20h-17t-12 0.5t-12 1t-10.5 2t-13.5 3.5t-16 5q-27 -23 -51 -48.5t-24 -31.5q0 -67 141 -72q39 -2 95 -4t96 -4t71 -6q104 -13 158.5 -74t54.5 -153q0 -100 -62.5 -181t-163 -124.5t-216.5 -43.5q-179 0 -274 80t-95 189z M158 -166v-2q0 -90 89.5 -142t201.5 -52q141 0 227 66t86 167q0 138 -160 158q-83 9 -161 9q-21 0 -42 -1q-60 0 -94 -19q-60 -31 -103.5 -81t-43.5 -103zM205 586q0 -101 59.5 -167.5t153.5 -66.5q105 0 157 71.5t52 172.5q0 104 -52.5 174t-154.5 70h-2q-89 0 -151 -67 t-62 -187z"/>
<glyph unicode="h" horiz-adv-x="1026" d="M143 1372l36 10t24 7t14 3t16 1t12.5 -7t7.5 -37t3 -89v-500q165 153 322 153q75 0 130.5 -25t86.5 -62.5t49.5 -92t24 -103t5.5 -106.5v-284q0 -202 5 -236q-49 -16 -95 -16q-16 0 -16 26q0 6 0.5 94.5t1 207t0.5 196.5q0 307 -229 307q-91 0 -168.5 -47.5t-116.5 -97.5 v-635q0 -25 -7.5 -34.5t-25.5 -12.5q-27 -4 -78 -4q7 72 7 383v768q0 141 -9 233z"/>
<glyph unicode="i" horiz-adv-x="405" d="M133 1245q0 33 21.5 53.5t48.5 20.5h2q29 0 47 -21t18 -51q0 -28 -18.5 -50.5t-48.5 -22.5q-35 0 -52.5 20.5t-17.5 50.5zM143 883q40 18 90 18q8 0 12.5 -6.5t7.5 -35t3 -83.5v-727q0 -26 -6.5 -37t-20.5 -14q-33 -7 -84 -10q7 287 7 319v344q0 131 -9 232z"/>
<glyph unicode="j" horiz-adv-x="405" d="M-37 -412l2 9q95 50 141 163.5t46 341.5v549q0 131 -9 232q40 18 90 18q8 0 12.5 -6.5t7.5 -35t3 -83.5v-667q0 -261 -66 -394q-36 -71 -89 -118.5t-78 -47.5q-36 0 -60 39zM133 1239q0 35 21.5 56.5t48.5 21.5h2q28 0 46.5 -22t18.5 -52t-18 -53t-49 -23q-32 0 -51 21.5 t-19 50.5z"/>
<glyph unicode="k" horiz-adv-x="886" d="M143 1366q16 10 47 18.5t43 8.5q8 0 12.5 -7t7.5 -37t3 -89v-785q128 106 475 438q41 0 72 -10q10 -4 13.5 -7.5t-0.5 -12.5t-16.5 -22.5t-39.5 -39.5q-36 -35 -98.5 -91t-147.5 -132.5t-131 -118.5q83 -97 252 -264.5t233 -208.5l-2 -6q-28 -16 -80 -16q-46 0 -96 43 q-62 52 -215.5 207t-218.5 229v-414q0 -30 -8.5 -41t-30.5 -14q-41 -6 -72 -6q7 143 7 372v779q0 126 -9 227z"/>
<glyph unicode="l" horiz-adv-x="405" d="M143 1372q56 21 93 21q8 0 11.5 -7.5t6 -36.5t2.5 -89v-990q0 -101 6 -266q-50 -16 -84 -16q-26 0 -26 26v1125q0 141 -9 233z"/>
<glyph unicode="m" horiz-adv-x="1583" d="M127 868v4q10 10 37.5 24.5t38.5 14.5q50 0 55 -166q160 168 315 168q184 0 250 -170q159 170 326 170q143 0 214 -94t71 -268v-324q0 -157 8 -223q-78 -16 -96 -16q-17 0 -17 26v518q0 285 -215 285q-45 0 -86 -13t-76 -38t-56.5 -44.5t-49.5 -49.5l2 -625q0 -32 -6 -41 t-29 -14q-35 -4 -76 -4q6 62 6 383v164q0 282 -208 282q-77 0 -149 -47.5t-124 -110.5v-626q0 -23 -9 -31t-26 -10q-27 -4 -75 -4q6 62 6 383v354q0 122 -31 143z"/>
<glyph unicode="n" horiz-adv-x="1024" d="M127 866v6q10 10 36.5 24.5t37.5 14.5q32 0 44.5 -53.5t12.5 -112.5q64 72 150 120t172 48q292 0 292 -368v-316q0 -151 9 -225q-82 -16 -95 -16q-20 0 -20 22l2 527q1 143 -56.5 212.5t-164.5 69.5q-88 0 -164.5 -51t-120.5 -115v-610q0 -31 -8 -40t-31 -11 q-13 -2 -38.5 -2.5t-32.5 -1.5q6 62 6 383v354q0 113 -31 141z"/>
<glyph unicode="o" horiz-adv-x="1013" d="M72 434q0 131 54.5 240t156.5 174t233 65h2q203 0 313.5 -128.5t110.5 -333.5q0 -131 -51.5 -238.5t-151.5 -172.5t-231 -65q-96 0 -172.5 29t-124.5 75.5t-80.5 108t-45.5 122.5t-13 124zM188 453q0 -189 95 -294.5t237 -105.5q39 0 78 10.5t80.5 38.5t73.5 70.5 t52.5 112.5t20.5 159q0 77 -19.5 146t-57.5 125t-101 88.5t-143 32.5h-2q-57 0 -111.5 -23.5t-100.5 -68.5t-74 -120.5t-28 -170.5z"/>
<glyph unicode="p" horiz-adv-x="1030" d="M127 868v6q49 37 78 37q12 0 24 -15t20.5 -50t8.5 -84q181 151 340 151q62 0 122 -23t115 -71t89 -136t34 -204q0 -217 -137 -360.5t-338 -143.5q-59 0 -120.5 19t-100.5 47v-428q0 -22 -6 -30t-29 -17q-54 -4 -75 -4q6 59 6 383v796q0 96 -31 127zM262 123 q97 -64 223 -64q41 0 84 10t93.5 38.5t89 72.5t64.5 119.5t26 171.5q0 156 -81.5 249t-203.5 93q-84 0 -169 -45t-126 -90v-555z"/>
<glyph unicode="q" horiz-adv-x="1011" d="M72 420q0 218 144.5 355.5t361.5 137.5q114 0 221 -39l57 11h10q0 -4 -4 -159.5t-4 -326.5v-798q0 -25 -6.5 -36t-22.5 -14q-38 -6 -81 -6q6 105 6 365v164q-58 -42 -136.5 -70.5t-140.5 -28.5q-80 0 -152.5 29t-129 83.5t-90 140.5t-33.5 192zM188 438q0 -160 90.5 -262 t249.5 -102q51 0 117.5 19.5t108.5 47.5v658q-72 35 -199 35q-64 0 -127 -24.5t-117.5 -71t-88.5 -125t-34 -175.5z"/>
<glyph unicode="r" horiz-adv-x="612" d="M111 858v6q11 13 36 31t37 18q29 0 49.5 -51.5t20.5 -146.5q49 95 114.5 146.5t127.5 51.5q30 0 55 -10t35 -22q1 -9 1 -17q0 -15 -5 -24q-4 -15 -17.5 -27t-27.5 -14q-28 14 -66 14q-45 0 -95.5 -43.5t-86.5 -124.5q-27 -66 -27 -121v-485q0 -42 -29 -45q-47 -6 -81 -6 q6 41 6 383v336q0 63 -9.5 98t-37.5 53z"/>
<glyph unicode="s" horiz-adv-x="663" d="M72 100q12 31 34 29q93 -68 209 -68q92 0 141.5 43.5t49.5 112.5q0 93 -119 152q-31 17 -82 40.5t-72 34.5q-145 79 -145 220q0 109 84.5 179t200.5 70h2q57 0 112 -18.5t80 -50.5q2 -17 -12.5 -38t-34.5 -22q-75 45 -158 45q-72 0 -120.5 -40.5t-48.5 -106.5 q0 -93 98 -145q28 -15 93 -47.5t105 -55.5q123 -74 123 -192q0 -54 -18 -99.5t-48 -76t-70 -51.5t-82.5 -30.5t-86.5 -9.5q-82 0 -143 22.5t-90 55.5q-8 13 -8 26q0 10 6 21z"/>
<glyph unicode="t" horiz-adv-x="663" d="M92 836q4 13 30.5 41t59.5 60t39 38q23 25 62 41q-1 -27 -2 -54.5t-1.5 -43t-0.5 -29.5h344q-7 -32 -24.5 -50t-32.5 -22.5t-36 -5.5q-60 -4 -251 -4q-9 -212 -9 -365q0 -124 6 -209q7 -95 51 -130t109 -35q98 0 162 49l4 -4q4 -13 4 -26q0 -37 -35 -64q-28 -20 -75 -34 t-88 -14q-116 0 -175 69t-59 196v565q-82 0 -82 31z"/>
<glyph unicode="u" horiz-adv-x="1017" d="M143 883q40 18 90 18q7 0 11 -6.5t7 -35t3 -83.5q2 -135 2 -407q0 -77 14.5 -133t36 -86.5t54.5 -48.5t61 -22.5t65 -4.5q84 0 158 46t105 97v612q0 31 5 43t19 17q50 12 86 12q0 -6 -3 -133t-3 -231v-344q0 -83 18 -111.5t66 -34.5v-8q-2 -17 -22.5 -40.5t-45.5 -23.5 q-48 0 -79.5 43t-32.5 115q-69 -83 -183 -131q-65 -27 -133 -27q-143 0 -216.5 87.5t-73.5 242.5v346q0 131 -9 232z"/>
<glyph unicode="v" horiz-adv-x="856" d="M37 872q17 13 44.5 27t41.5 14h2q19 0 35 -39q28 -67 122.5 -315.5t155.5 -419.5q19 48 84.5 213t126.5 320.5t92 240.5q34 0 68 -22q14 -4 14 -21q-1 -3 -1 -6q-2 -22 -29 -84q-25 -61 -67 -165t-95.5 -234t-128.5 -311q-11 -26 -16.5 -37t-13.5 -22t-17 -15 q-28 -16 -62 -21l-219 572q-92 237 -137 325z"/>
<glyph unicode="w" horiz-adv-x="1343" d="M45 870q17 17 44.5 30t41.5 13h2q20 0 29 -28q128 -363 250 -740q177 496 237 672q-8 28 -14 43q39 29 72 29q13 0 23 -20.5t26 -75.5q21 -68 209 -637q161 461 270 757q31 0 68 -26q9 -9 9 -26v-11q-4 -25 -26 -84q-37 -98 -120.5 -320t-147.5 -389q-11 -29 -21.5 -43.5 t-27.5 -21.5q-29 -13 -47 -17q-35 115 -67 216.5t-50.5 158t-56 168.5t-58.5 176q-28 -85 -120.5 -345t-110.5 -306q-16 -39 -37 -47q-42 -19 -55 -21q-15 38 -82 238.5t-109 316.5q-99 270 -131 340z"/>
<glyph unicode="x" horiz-adv-x="849" d="M18 2v4q73 90 340 451q-65 96 -167.5 235.5t-141.5 186.5v4q60 30 94 30q18 0 66 -69q16 -23 57.5 -82.5t82 -116t75.5 -102.5q87 115 240 327q30 43 49 43q26 0 82 -16v-4q-88 -113 -320 -422q119 -171 348 -465v-4q-40 -14 -98 -14q-26 0 -43 22q-204 284 -270 377 q-25 -35 -108.5 -147.5t-166.5 -229.5q-12 -22 -39 -22q-36 0 -80 14z"/>
<glyph unicode="y" horiz-adv-x="831" d="M45 874q16 13 43 26t41 13q22 0 31 -20q27 -62 140 -369.5t138 -369.5q65 134 151 374.5t122 384.5q9 1 18 1q37 0 55 -15q13 -11 13 -31q0 -14 -6 -32q-1 -4 -14.5 -45.5t-17.5 -53t-18 -54t-20.5 -62t-21.5 -61.5t-25 -69t-25.5 -68.5t-28.5 -75t-29.5 -73t-33.5 -77.5 q-64 -146 -151.5 -302.5t-152.5 -250t-81 -93.5q-20 0 -44 8.5t-36 20.5v4q171 222 289 459q-13 15 -45 94q-190 520 -291 737z"/>
<glyph unicode="z" horiz-adv-x="751" d="M39 41q77 99 255 358.5t263 407.5h-373q-123 0 -123 24q0 15 18 37.5t32 34.5q19 -9 52.5 -11.5t133.5 -2.5h387q-6 -61 -33 -113q-45 -85 -458 -692q111 -8 260 -8h61q188 2 227 10q-7 -43 -41 -70q-22 -14 -80.5 -18t-181.5 -4q-307 0 -375 16z"/>
<glyph unicode="{" horiz-adv-x="622" d="M100 582q113 19 153 67.5t40 126.5q0 59 -18.5 191t-18.5 174q0 158 111 235q34 24 78 40t71 18q12 -12 12 -45q0 -13 -24 -25q-84 -33 -118 -87t-34 -142q0 -45 18.5 -162t18.5 -182q0 -91 -31 -143.5t-92 -82.5q35 -15 59 -36.5t36.5 -42t19 -53t7.5 -55.5t1 -65 q0 -79 -21.5 -206.5t-21.5 -180.5q0 -83 35 -137t121 -82q28 -7 28 -22v-2q0 -9 -5.5 -24.5t-10.5 -20.5q-114 3 -189 76.5t-75 209.5q0 61 21.5 205t21.5 209q0 95 -36.5 139.5t-131.5 48.5q-12 2 -20.5 20t-4.5 36z"/>
<glyph unicode="|" horiz-adv-x="532" d="M215 -512v2048h102v-2048h-102z"/>
<glyph unicode="}" horiz-adv-x="622" d="M92 -315q0 10 23 20q85 34 119 89.5t34 144.5q0 44 -18.5 171t-18.5 193q0 99 33 154.5t90 87.5q-76 35 -99.5 94t-23.5 156q0 56 21.5 176t21.5 184q0 82 -33.5 131.5t-119.5 77.5q-29 8 -29 22v3q0 9 6 24.5t11 20.5q114 -3 188 -77t74 -210q0 -65 -21.5 -199 t-21.5 -176q0 -95 36.5 -139.5t131.5 -50.5q12 -2 19.5 -18.5t4.5 -35.5q-60 -10 -99.5 -28t-59 -45t-26.5 -55t-7 -66q0 -55 18.5 -201.5t18.5 -202.5q0 -156 -111 -233q-35 -26 -78 -41.5t-70 -17.5q-14 14 -14 47z"/>
<glyph unicode="~" horiz-adv-x="1148" d="M123 375q7 90 29 157.5t48.5 102.5t61 56t59 26.5t50.5 5.5h2q66 0 115.5 -29.5t107.5 -89.5q6 -6 27.5 -29.5t29.5 -31t26.5 -26t30 -25.5t28.5 -17.5t32.5 -14t32.5 -3.5q64 0 96 48.5t45 178.5q5 31 23 31q13 0 30.5 -8.5t26.5 -20.5q-10 -321 -223 -321 q-65 0 -123.5 40t-138.5 125q-99 105 -168 105q-62 0 -99.5 -54.5t-54.5 -170.5q-5 -41 -49 -41h-20.5t-8 0.5t-7 2.5t-9.5 3z"/>
<glyph unicode="¡" horiz-adv-x="309" d="M76 827q0 37 23.5 61.5t58.5 24.5q32 0 55 -24.5t23 -59.5q0 -34 -22.5 -57.5t-63.5 -23.5h-3q-30 0 -50.5 24.5t-20.5 54.5zM82 -307q0 46 15.5 386.5t15.5 358.5q0 38 20 54q37 22 51 22q15 -374 25 -817q-4 -16 -39 -32.5t-59 -16.5h-2q-27 0 -27 45z"/>
<glyph unicode="¢" d="M125 612q0 86 26 157t63 114t88 76t91 47.5t82 23.5l10 100q3 24 20 35.5t58 14.5h21l-17 -146q134 -9 189 -67q0 -27 -18.5 -43t-39.5 -11q-73 39 -159 39q-81 0 -143 -34t-94 -86t-47 -102t-15 -95q0 -86 26 -151t69.5 -102t94.5 -55t107 -18q106 0 200 39 q-15 -75 -55 -96q-64 -31 -174 -31l-16 -129q-3 -26 -12 -37t-29 -12l-62 -6l25 194q-32 7 -63.5 19.5t-74.5 42t-74.5 68.5t-54 105t-22.5 146z"/>
<glyph unicode="£" d="M57 25v18q63 63 102 163.5t51 190.5t11 185q-96 0 -110 24q38 38 114 56q6 221 50 353.5t120.5 187t196.5 54.5q54 0 99.5 -19t70.5 -42q2 -24 -14.5 -41.5t-38.5 -11.5q-73 33 -134 33q-50 0 -88.5 -17.5t-64.5 -52.5t-43.5 -78.5t-27.5 -105t-14 -121t-5 -137.5 q17 0 67.5 -0.5t96.5 -0.5h96t85.5 1.5t47.5 3.5q-17 -75 -84 -82q-18 -4 -313 -4q-1 -176 -37 -294t-113 -206q59 -29 187 -52.5t210 -23.5q177 0 261 35l6 -6q-18 -56 -49 -80q-59 -39 -215 -39q-244 0 -521 109z"/>
<glyph unicode="¤" d="M57 207q61 70 107 137q-98 95 -98 256q0 131 96 242q-9 11 -32 38t-40 48q-20 34 -10 57q27 63 49 41q86 -99 107 -121q90 62 210 62h3q124 0 204 -66q58 63 113 131q39 -53 39 -69q0 -9 -4.5 -19.5t-16 -26t-19 -25t-27 -31.5t-25.5 -30q67 -88 67 -210 q0 -71 -23.5 -139.5t-64.5 -110.5q19 -21 44.5 -49t38.5 -42t25 -29.5t17 -25.5q-6 -25 -23.5 -45t-31.5 -20q-8 0 -35 27.5t-111 121.5q-81 -61 -206 -61q-87 0 -170 41q-24 -33 -78 -99q-32 -45 -60 -34q-33 12 -45 51zM170 610q0 -126 66 -204t192 -78q116 0 182 80.5 t66 205.5q0 120 -69 196.5t-185 76.5h-2q-117 0 -183.5 -82.5t-66.5 -194.5z"/>
<glyph unicode="¥" d="M31 1194v8q60 17 92 17q20 0 33 -21q14 -23 60 -101.5t117.5 -200.5t115.5 -196q277 451 321 517q29 0 66 -11q24 -8 10 -30q-22 -33 -75 -114.5t-130.5 -201t-130.5 -201.5h276q-2 -25 -23.5 -49t-43.5 -24h-230v-178h269q0 -30 -19 -52t-51 -22h-199v-334 q-35 -12 -71 -12q-11 0 -17 1.5t-11 9.5t-5 24v311h-285q0 17 7.5 42.5t13.5 31.5h264v178h-293q0 15 8.5 41t16.5 32h250q-68 114 -184 299t-152 236z"/>
<glyph unicode="¦" horiz-adv-x="532" d="M215 -358v716h102v-716h-102zM215 666v716h102v-716h-102z"/>
<glyph unicode="§" horiz-adv-x="872" d="M78 793v2q0 115 52.5 212t145.5 169q100 135 254 135q33 0 74 -11t62 -32q11 -20 4.5 -36.5t-21.5 -29.5q-53 33 -129 33q-174 0 -174 -160q0 -29 14 -62.5t42.5 -71.5t49.5 -62.5t59.5 -65.5t47.5 -51q106 -118 137 -162q97 -134 95 -285q-2 -219 -187 -411 q-33 -74 -106.5 -112t-159.5 -38q-44 0 -85.5 11t-55.5 26q-11 6 -22.5 31.5t-6.5 50.5q25 -15 79 -28t97 -13q91 0 139.5 43.5t48.5 118.5q0 28 -12.5 62t-29.5 63t-46.5 66.5t-50 60.5t-53.5 59.5t-45 50.5q-69 80 -109.5 136t-74 138t-33.5 163zM168 825 q-2 -71 30 -147.5t71 -129t98 -118.5q4 -4 38 -41t41 -45t36.5 -41.5t38 -46.5t30.5 -43t30 -49t19.5 -45.5t16 -50.5t4.5 -48q84 124 84 254v2q0 106 -52 197.5t-145 192.5q-12 14 -55 61t-60.5 67.5t-50 64t-46 73.5t-25 71t-9.5 80q-91 -102 -94 -258z"/>
<glyph unicode="¨" horiz-adv-x="819" d="M178 1171q0 35 21 58.5t57 23.5h2q29 0 49.5 -22t20.5 -53q0 -39 -21.5 -60.5t-54.5 -21.5q-32 0 -53 19t-21 56zM492 1171q0 36 20.5 59t56.5 23h2q30 0 50 -22.5t20 -52.5q0 -39 -21.5 -60.5t-56.5 -21.5q-29 0 -50 19t-21 56z"/>
<glyph unicode="©" horiz-adv-x="1368" d="M78 647q0 142 47.5 263t129 204t194 129.5t239.5 46.5h2q178 0 316 -87t211 -233t73 -323q0 -142 -47 -263t-128 -204t-191.5 -129.5t-235.5 -46.5q-127 0 -239.5 46.5t-194 129.5t-129 204t-47.5 263zM170 647q0 -155 64 -285t184.5 -209t273.5 -79q150 0 266.5 77.5 t178 207.5t61.5 290q0 113 -34.5 215.5t-97.5 182.5t-160.5 127t-215.5 47h-2q-152 0 -271 -77.5t-183 -208t-64 -288.5zM389 643q0 149 98 245.5t258 96.5q59 0 117 -18.5t76 -36.5q0 -24 -14 -43q-15 -15 -39 -4q-77 32 -152 32q-41 0 -83 -15t-80.5 -45t-62.5 -82.5 t-24 -119.5q0 -125 72 -195.5t203 -70.5q79 0 164 33l4 -4q-5 -36 -37 -68q-77 -37 -164 -37q-147 0 -241.5 91.5t-94.5 240.5z"/>
<glyph unicode="ª" horiz-adv-x="600" d="M61 707q0 31 12.5 58t29 45.5t46 35.5t48 25.5t52.5 18.5t42 12t33 7q59 13 71 15v34q0 138 -119 138q-71 0 -153 -70q-10 -9 -21.5 -5t-17.5 21l-10 21q20 35 87 71.5t136 36.5q192 0 192 -206q0 -33 -1 -140.5t-1 -126.5q0 -32 12 -47.5t31 -15.5q21 0 45 6l-2 -27 q-13 -44 -69 -47q-39 0 -66.5 20t-36.5 54q-68 -76 -174 -78q-76 -1 -121 41t-45 103zM162 721q0 -37 28 -60.5t68 -23.5q42 0 79.5 23.5t49.5 58.5q8 28 8 51v90q-233 -34 -233 -137v-2z"/>
<glyph unicode="«" horiz-adv-x="1085" d="M102 473q160 166 283 373q13 -8 25 -30.5t12 -43.5v-2q0 -21 -42 -85.5t-97 -140t-64 -89.5q2 -4 59.5 -88t95.5 -149.5t38 -90.5q0 -26 -12 -45.5t-29 -22.5q-155 249 -258 365q-11 26 -11 49zM438 473q6 7 35 42.5t39 48.5t37.5 47t41.5 52t38 50t40 55.5t35 52.5 t35 56q35 -45 35 -86q0 -18 -31 -69.5t-66 -100.5t-75.5 -103.5t-46.5 -62.5q43 -56 127 -186.5t84 -159.5v-3q0 -50 -45 -73q-121 221 -266 389q-17 24 -17 51z"/>
<glyph unicode="¬" horiz-adv-x="1148" d="M123 649q2 46 16 64t49 18h822l14 -16v-482q0 -17 -6.5 -29t-15 -17.5t-23.5 -8.5t-24 -3.5t-25 -0.5v475h-807z"/>
<glyph unicode="­" horiz-adv-x="589" d="M66 397q13 41 31 70.5t34 30.5q257 29 387 61l4 -4q-11 -47 -37.5 -75t-83.5 -42q-51 -14 -160.5 -30t-170.5 -17z"/>
<glyph unicode="®" horiz-adv-x="641" d="M61 1049q0 112 69.5 187t186.5 75h2q115 0 188 -74t73 -188q0 -110 -72 -184t-191 -74q-117 0 -186.5 73.5t-69.5 184.5zM121 1051q0 -94 55 -153.5t143 -59.5q87 0 143 60t56 153q0 91 -56 150t-147 59h-2q-83 0 -137.5 -59.5t-54.5 -149.5zM223 915v265q80 8 86 8 q115 0 115 -82q0 -23 -16.5 -41.5t-40.5 -26.5q48 -85 79 -114v-6q-20 -5 -36 -5q-21 0 -35 19q-26 35 -45 69q-6 13 -17.5 17.5t-36.5 3.5v-80q0 -22 -14 -24q-21 0 -39 -3zM276 1057q40 0 56 4q35 8 35 45q0 20 -15 31.5t-41 11.5q-29 0 -35 -2v-90z"/>
<glyph unicode="¯" horiz-adv-x="819" d="M205 1139q0 18 10.5 40.5t17.5 28.5h361q22 0 22 -14q0 -11 -12 -38.5t-22 -39.5h-353q-24 0 -24 23z"/>
<glyph unicode="°" horiz-adv-x="559" d="M68 1012q0 91 59.5 156t148.5 65h3q95 0 154 -61t59 -158q0 -98 -61 -156.5t-163 -58.5q-76 0 -138 56.5t-62 156.5zM164 1016q0 -66 34.5 -104t84.5 -38q59 0 86.5 37.5t27.5 96.5q0 60 -30.5 103.5t-87.5 43.5h-3q-51 0 -81.5 -39.5t-30.5 -99.5z"/>
<glyph unicode="±" horiz-adv-x="1148" d="M123 618q2 33 17.5 57.5t47.5 24.5h338v234q0 78 -6 131l55 10q29 6 37.5 -10t8.5 -57v-308h403q-5 -82 -66 -82h-337v-356q0 -49 -58 -57l-37 -4v417h-403zM125 0q2 33 17 57.5t46 24.5h838q-5 -82 -65 -82h-836z"/>
<glyph unicode="²" horiz-adv-x="569" d="M43 895q27 49 29 53q48 41 66.5 57t58.5 53t57.5 56.5t45 51.5t39 54.5t21 50.5t9.5 54q0 61 -35 94t-92 33q-44 0 -95.5 -21t-87.5 -57l-4 2q0 19 17 76q80 84 194 84q94 0 152.5 -55.5t58.5 -151.5q0 -30 -10 -61t-32.5 -63t-42 -56.5t-55.5 -57.5l-54 -49.5 t-57.5 -48.5t-47.5 -39q186 -7 348 9q0 -15 -13.5 -37t-39.5 -39q-54 -13 -168 -13q-181 0 -258 13z"/>
<glyph unicode="³" horiz-adv-x="569" d="M61 909l2 4q54 -20 132 -20q96 0 149 41t53 104q0 66 -41.5 95.5t-109.5 29.5q-47 0 -88 -10l-6 8q21 41 30 53q39 7 66.5 15.5t55 24t42 40t14.5 58.5q0 49 -33 76.5t-81 27.5q-34 0 -76.5 -20t-67.5 -45q-22 15 -22 36q0 20 16 33q29 27 75 49.5t97 22.5 q80 0 132.5 -42.5t52.5 -119.5q0 -54 -26.5 -88.5t-76.5 -64.5q72 -18 109 -58t37 -112q0 -101 -87.5 -162.5t-201.5 -61.5q-96 0 -125 33q-6 6 -13.5 23t-7.5 30z"/>
<glyph unicode="´" horiz-adv-x="819" d="M354 1063q-9 12 11 53q33 72 90 172.5t71 100.5h2q16 0 41 -12.5t37 -26.5q16 -14 -6 -39q-94 -108 -207 -283q-16 8 -39 35z"/>
<glyph unicode="µ" horiz-adv-x="1015" d="M139 -348l17 647v352q0 126 -9 236q49 18 91 18q8 0 11.5 -7t6 -35.5t2.5 -86.5q2 -135 2 -444q0 -262 217 -262q87 0 163 48.5t105 106.5v604q0 35 5.5 47t19.5 17q50 12 86 12q0 -9 -3 -136.5t-3 -231.5v-344q0 -78 28 -109.5t76 -36.5v-6q-2 -21 -23.5 -43.5 t-47.5 -22.5q-48 0 -87 42.5t-42 109.5q-137 -150 -303 -150q-74 2 -128 24.5t-90 86.5l15 -532h-23q-61 7 -74.5 24t-11.5 72z"/>
<glyph unicode="¶" horiz-adv-x="983" d="M100 811q0 186 120 298t304 112h199h184l2 -9q-23 -42 -57 -65q-17 -4 -123 -10v-643q0 -254 -26 -370.5t-93 -184.5q-98 -95 -241 -95q-90 0 -156 37.5t-66 69.5q0 23 27 59q87 -84 205 -84q143 0 197.5 109.5t54.5 361.5v90l-129 -38q-37 -11 -70 -11 q-141 0 -236.5 107.5t-95.5 265.5z"/>
<glyph unicode="·" horiz-adv-x="292" d="M63 485q0 40 23.5 67.5t63.5 27.5h2q35 0 57 -26t22 -60q0 -42 -23 -68.5t-61 -26.5q-33 0 -58.5 22.5t-25.5 63.5z"/>
<glyph unicode="¸" horiz-adv-x="821" d="M293 -395q0 11 18 16q86 24 121 56t35 61q0 42 -50 62t-116 20v6l123 182h92l-80 -119q63 -15 95 -52.5t32 -88.5q0 -50 -38.5 -92t-89.5 -65t-105 -33q-14 3 -25.5 18.5t-11.5 28.5z"/>
<glyph unicode="¹" horiz-adv-x="569" d="M121 1389l24 53q106 26 234 94l14 -6q0 -12 -2 -131.5t-3.5 -263.5t-0.5 -230q0 -18 -10 -25.5t-35 -9.5l-51 -4q6 43 6 551q-26 -9 -86.5 -21t-85.5 -14z"/>
<glyph unicode="º" horiz-adv-x="700" d="M51 858q0 136 85.5 224.5t213.5 88.5h2q138 0 217.5 -82t79.5 -217t-82.5 -222t-214.5 -87q-80 0 -141 28.5t-94.5 74t-49.5 94.5t-16 98zM156 868q0 -116 60 -173.5t138 -57.5q79 0 135 60t56 180q0 97 -52.5 159t-146.5 62h-2q-78 0 -133 -63.5t-55 -166.5z"/>
<glyph unicode="»" horiz-adv-x="1085" d="M311 121q0 14 19 49t50 79.5t58.5 83t57.5 77.5t34 45q-43 56 -127 186.5t-84 159.5v2q0 23 13 44t33 30q129 -232 266 -388q16 -26 16 -51q-2 -2 -31 -37.5t-35 -43t-32.5 -41t-36.5 -46.5t-33.5 -43t-36.5 -49t-31.5 -45.5t-33.5 -50t-29 -47.5q-37 42 -37 86zM664 137 v2q0 22 41 86.5t98 142t63 87.5q-2 3 -59.5 87.5t-95 149.5t-37.5 90q0 27 11.5 46t29.5 22q148 -241 258 -363q10 -27 10 -49q-158 -168 -283 -372q-13 8 -24.5 30t-11.5 41z"/>
<glyph unicode="¼" horiz-adv-x="1300" d="M102 1090l27 49q113 28 238 94l10 -6q0 -11 -1.5 -131.5t-2.5 -264t0 -229.5q0 -18 -10 -25.5t-35 -9.5l-52 -4q5 36 5 551q-30 -9 -87.5 -20.5t-84.5 -12.5zM203 -14q434 693 778 1274q18 30 43 2q18 -25 23 -45q-259 -435 -777 -1274q-10 -17 -18.5 -19t-18.5 8 q-27 23 -30 54zM670 225q51 85 157 217.5t162 188.5q13 13 58 33t75 26l4 -8q-204 -201 -362 -442q52 -8 240 -11l4 168q10 7 36.5 18.5t40.5 14.5h9v-199q39 0 96 11l2 -6q-9 -34 -41 -62q-9 -4 -20.5 -6l-23 -4t-13.5 -2v-156q-65 -17 -88 -20l-9 6q7 79 7 168 q-233 0 -302 14q-9 9 -20.5 26.5t-11.5 24.5z"/>
<glyph unicode="½" horiz-adv-x="1300" d="M90 1083l27 56q111 27 237 94l11 -6q0 -11 -1.5 -131t-3 -264t-0.5 -230q0 -18 -10 -25.5t-35 -9.5l-51 -4q4 29 4 551q-31 -10 -90 -22t-86 -13zM162 -14q528 849 780 1274q18 30 41 2q20 -23 25 -45q-204 -341 -779 -1272q-10 -18 -18 -20t-18 9q-27 20 -31 52zM735 14 q21 32 31 54q52 44 78 67t68 61.5t63.5 65t45.5 59.5t34 63.5t10 59.5q0 62 -34.5 94.5t-92.5 32.5q-42 0 -94.5 -25.5t-87.5 -60.5l-6 4q-8 58 16 82q33 35 85 59.5t110 24.5h2q94 0 151 -54.5t57 -149.5q0 -31 -9.5 -63t-31.5 -64t-41 -56.5t-54 -57t-53.5 -49t-56.5 -48 t-48 -39.5q205 -8 344 6q0 -16 -13 -38t-37 -34q-47 -14 -170 -14q-191 0 -262 12z"/>
<glyph unicode="¾" horiz-adv-x="1300" d="M96 608l2 4q63 -20 133 -20q96 0 148.5 41.5t52.5 105.5q0 65 -43 94t-110 29q-50 0 -91 -10l-4 6q12 28 33 55q37 7 63 15t52.5 23.5t40.5 40.5t14 59q0 49 -30 75.5t-78 26.5q-33 0 -73.5 -19.5t-66.5 -43.5q-22 15 -22 36q0 15 20 35q26 26 70.5 47t95.5 21h2 q78 0 128 -42t50 -118q0 -86 -98 -154q72 -18 109.5 -57t37.5 -110q0 -104 -86 -166t-200 -62q-94 0 -127 33q-20 24 -23 55zM250 -14q520 836 776 1274q18 30 43 2q18 -25 23 -45q-236 -401 -775 -1272q-12 -18 -19.5 -20t-16.5 9q-12 9 -21.5 24.5t-9.5 27.5zM686 225 q54 88 160 221.5t160 184.5q13 13 58.5 33t74.5 26l6 -8q-207 -204 -363 -442q53 -8 238 -11l4 168q11 8 38 20t40 15h8v-201q39 0 96 11l4 -6q-22 -43 -43 -62q-9 -4 -20.5 -6l-23 -4t-13.5 -2v-156q-65 -17 -88 -20l-8 6q6 53 6 168q-233 0 -299 14q-10 10 -22.5 27 t-12.5 24z"/>
<glyph unicode="¿" horiz-adv-x="610" d="M74 -109q0 74 35 140t102 149q52 67 76 126t24 97q0 58 -20 97q19 22 53 22q9 0 23.5 -10t28.5 -39t14 -70q0 -59 -24.5 -117t-78.5 -134q-2 -3 -20.5 -28t-24.5 -34t-22 -33.5t-22.5 -39.5t-16 -37t-13.5 -41.5t-4 -38.5q0 -69 39.5 -112.5t112.5 -43.5q50 0 98.5 20 t81.5 48h6q34 -12 31 -62q-110 -102 -238 -102h-2q-110 0 -174.5 70t-64.5 173zM246 827q0 37 23.5 61.5t60.5 24.5q28 0 53 -22.5t25 -59.5q0 -36 -25 -59.5t-64 -23.5h-2q-31 0 -51 24.5t-20 54.5z"/>
<glyph unicode="À" horiz-adv-x="1261" d="M33 10l2 13q84 167 285 603.5t260 571.5l-31 70q41 18 72 18q34 0 47 -31q333 -763 383 -872q33 -69 71 -154t61 -134.5t38 -76.5v-10q-56 -20 -88 -20q-17 0 -29 12t-27 45q-57 124 -178 397h-559q-140 -315 -201 -434q-10 -20 -35 -20q-40 0 -71 22zM369 1542 q9 23 35 45.5t45 22.5h2q27 0 122.5 -56.5t149.5 -103.5q25 -16 6 -35q-5 -8 -10.5 -14t-12 -11.5t-8.5 -7.5q-174 97 -321 142q-18 5 -8 18zM377 528h487q-195 464 -239 562q-42 -93 -248 -562z"/>
<glyph unicode="Á" horiz-adv-x="1261" d="M33 10l2 13q84 167 285 603.5t260 571.5l-31 70q41 18 72 18q34 0 47 -31q333 -763 383 -872q33 -69 71 -154t61 -134.5t38 -76.5v-10q-56 -20 -88 -20q-17 0 -29 12t-27 45q-57 124 -178 397h-559q-140 -315 -201 -434q-10 -20 -35 -20q-40 0 -71 22zM377 528h487 q-195 464 -239 562q-42 -93 -248 -562zM530 1395q-10 24 17 41q64 41 172.5 96.5t136.5 58.5q17 -6 39 -31t27 -42q12 -31 -25 -37q-89 -25 -342 -119q-16 10 -25 33z"/>
<glyph unicode="Â" horiz-adv-x="1261" d="M33 10l2 13q84 167 285 603.5t260 571.5l-31 70q41 18 72 18q34 0 47 -31q333 -763 383 -872q33 -69 71 -154t61 -134.5t38 -76.5v-10q-56 -20 -88 -20q-17 0 -29 12t-27 45q-57 124 -178 397h-559q-140 -315 -201 -434q-10 -20 -35 -20q-40 0 -71 22zM377 528h487 q-195 464 -239 562q-42 -93 -248 -562zM399 1391q109 89 195 196q12 12 27 21q16 6 30 6q107 -119 230 -213q-7 -16 -26.5 -27.5t-33.5 -11.5q-26 0 -41 12q-35 24 -143 129q-59 -66 -133 -127q-24 -14 -41 -14h-2q-25 0 -62 29z"/>
<glyph unicode="Ã" horiz-adv-x="1261" d="M33 10l2 13q84 167 285 603.5t260 571.5l-31 70q41 18 72 18q34 0 47 -31q333 -763 383 -872q33 -69 71 -154t61 -134.5t38 -76.5v-10q-56 -20 -88 -20q-17 0 -29 12t-27 45q-57 124 -178 397h-559q-140 -315 -201 -434q-10 -20 -35 -20q-40 0 -71 22zM377 528h487 q-195 464 -239 562q-42 -93 -248 -562zM397 1401q5 32 14 61t25.5 61t44 51t62.5 19h2q58 0 114 -71q45 -56 62 -56q33 0 51 105q3 12 8 17t15 5q17 0 55 -30q-24 -189 -135 -189q-21 0 -42.5 13.5t-33 26.5t-39.5 46q-17 20 -23.5 26.5t-16.5 12.5t-21 6q-35 0 -62 -100 q-4 -23 -18 -23q-10 0 -20.5 3t-25 9t-16.5 7z"/>
<glyph unicode="Ä" horiz-adv-x="1261" d="M33 10l2 13q84 167 285 603.5t260 571.5l-31 70q41 18 72 18q34 0 47 -31q333 -763 383 -872q33 -69 71 -154t61 -134.5t38 -76.5v-10q-56 -20 -88 -20q-17 0 -29 12t-27 45q-57 124 -178 397h-559q-140 -315 -201 -434q-10 -20 -35 -20q-40 0 -71 22zM375 1440 q0 35 21.5 58.5t56.5 23.5h2q30 0 50.5 -22.5t20.5 -55.5q0 -39 -21 -60.5t-54 -21.5q-32 0 -54 19.5t-22 58.5zM377 528h487q-195 464 -239 562q-42 -93 -248 -562zM739 1440q0 35 21.5 58.5t58.5 23.5h2q31 0 51.5 -23t20.5 -55q0 -39 -22 -60.5t-58 -21.5q-30 0 -52 20 t-22 58z"/>
<glyph unicode="Å" horiz-adv-x="1261" d="M33 10l2 13q84 167 285 603.5t260 571.5l-31 70q41 18 72 18q34 0 47 -31q333 -763 383 -872q33 -69 71 -154t61 -134.5t38 -76.5v-10q-56 -20 -88 -20q-17 0 -29 12t-27 45q-57 124 -178 397h-559q-140 -315 -201 -434q-10 -20 -35 -20q-40 0 -71 22zM377 528h487 q-195 464 -239 562q-42 -93 -248 -562zM473 1518q0 70 44.5 117.5t117.5 47.5h2q66 0 112 -46t46 -113q0 -73 -45.5 -117.5t-120.5 -44.5q-65 0 -110.5 43.5t-45.5 112.5zM555 1522q0 -39 22.5 -64.5t57.5 -25.5q39 0 59.5 26t20.5 62q0 42 -21.5 68t-62.5 26h-2 q-34 0 -54 -28t-20 -64z"/>
<glyph unicode="Æ" horiz-adv-x="1599" d="M18 16q64 107 332 584t336 592q20 32 33 65q70 17 100 21h672q0 -29 -25 -61q-16 -23 -71 -23h-467l26 -576h514q-5 -39 -23 -61t-56 -22h-433l25 -447q81 -16 295 -16q223 0 299 10l2 -4q-11 -68 -78 -82q-50 -8 -225 -8q-273 0 -375 20l-33 41l-16 490h-430 q-261 -478 -295 -531q-21 -33 -35 -33q-30 0 -70 31zM463 618h381l-23 574q-41 0 -65 -45q-81 -139 -185.5 -331t-107.5 -198z"/>
<glyph unicode="Ç" horiz-adv-x="1185" d="M84 635q0 199 92.5 354t251 238.5t354.5 83.5q135 0 233.5 -35.5t129.5 -73.5q-6 -36 -31 -51t-59 2q-114 66 -287 66q-112 0 -212.5 -39t-178 -110.5t-123 -182.5t-45.5 -246q0 -124 37 -229t108 -184t183.5 -124t255.5 -45q87 0 183 23.5t140 48.5l4 -4 q-4 -23 -20 -52.5t-37 -41.5q-34 -23 -105.5 -42t-164.5 -20l-56 -80q63 -17 95 -54.5t32 -88.5q0 -73 -73 -123.5t-160 -64.5q-14 3 -25.5 20.5t-11.5 30.5q0 9 18 16q81 25 118.5 55.5t37.5 55.5q0 42 -49.5 62t-116.5 22v4l98 147q-297 22 -456.5 195t-159.5 467z"/>
<glyph unicode="È" horiz-adv-x="878" d="M156 1249q56 23 92 29h540q0 -15 -10 -37.5t-26 -34.5q-27 -14 -136 -14h-344v-492h504q-11 -57 -36.5 -71.5t-82.5 -14.5h-385v-522q50 -18 299 -18q203 0 279 10l4 -4q-25 -73 -82 -84q-50 -8 -219 -8q-284 0 -367 22l-26 35v946q0 188 -4 258zM219 1522q9 23 34.5 45 t45.5 22h2q27 0 123 -56.5t149 -102.5q25 -17 7 -35q-5 -8 -10.5 -14t-12 -11.5t-8.5 -7.5q-169 94 -322 141q-18 5 -8 19z"/>
<glyph unicode="É" horiz-adv-x="878" d="M156 1249q56 23 92 29h540q0 -15 -10 -37.5t-26 -34.5q-27 -14 -136 -14h-344v-492h504q-11 -57 -36.5 -71.5t-82.5 -14.5h-385v-522q50 -18 299 -18q203 0 279 10l4 -4q-25 -73 -82 -84q-50 -8 -219 -8q-284 0 -367 22l-26 35v946q0 188 -4 258zM365 1395q-11 25 16 41 q64 41 172.5 96.5t136.5 58.5q17 -6 39 -31t27 -42q12 -31 -25 -37q-89 -25 -342 -119q-15 9 -24 33z"/>
<glyph unicode="Ê" horiz-adv-x="878" d="M156 1249q56 23 92 29h540q0 -15 -10 -37.5t-26 -34.5q-27 -14 -136 -14h-344v-492h504q-11 -57 -36.5 -71.5t-82.5 -14.5h-385v-522q50 -18 299 -18q203 0 279 10l4 -4q-25 -73 -82 -84q-50 -8 -219 -8q-284 0 -367 22l-26 35v946q0 188 -4 258zM248 1407 q103 85 194 197q10 10 27 20q16 6 31 6q109 -122 229 -213q-7 -16 -26 -27.5t-33 -11.5q-25 0 -41 13q-38 27 -144 129q-59 -66 -133 -127q-26 -15 -41 -15h-2q-24 0 -61 29z"/>
<glyph unicode="Ë" horiz-adv-x="878" d="M156 1249q56 23 92 29h540q0 -15 -10 -37.5t-26 -34.5q-27 -14 -136 -14h-344v-492h504q-11 -57 -36.5 -71.5t-82.5 -14.5h-385v-522q50 -18 299 -18q203 0 279 10l4 -4q-25 -73 -82 -84q-50 -8 -219 -8q-284 0 -367 22l-26 35v946q0 188 -4 258zM215 1460 q0 35 21.5 58.5t56.5 23.5h2q31 0 51.5 -23t20.5 -55q0 -39 -21.5 -60.5t-54.5 -21.5q-32 0 -54 19.5t-22 58.5zM580 1460q0 35 21 58.5t58 23.5h3q30 0 50.5 -22.5t20.5 -55.5q0 -39 -22 -60.5t-58 -21.5q-29 0 -51 20t-22 58z"/>
<glyph unicode="Ì" horiz-adv-x="430" d="M-27 1522q9 23 34.5 45t45.5 22h2q27 0 123.5 -56.5t149.5 -102.5q25 -16 6 -35q-5 -8 -10.5 -14t-12 -11.5t-8.5 -7.5q-170 94 -321 141q-19 5 -9 19zM154 1270q53 16 94 16q17 0 20.5 -16.5t3.5 -85.5v-930q0 -106 7 -250q-46 -16 -95 -16q-13 0 -18.5 7.5t-5.5 29.5 v987q0 202 -6 258z"/>
<glyph unicode="Í" horiz-adv-x="430" d="M88 1395q-11 25 16 41q64 40 173 96t137 59q17 -6 38.5 -30.5t26.5 -42.5q12 -31 -24 -37q-89 -25 -342 -119q-16 10 -25 33zM154 1270q53 16 94 16q17 0 20.5 -16.5t3.5 -85.5v-930q0 -106 7 -250q-46 -16 -95 -16q-13 0 -18.5 7.5t-5.5 29.5v987q0 202 -6 258z"/>
<glyph unicode="Î" horiz-adv-x="430" d="M-23 1391q109 89 195 196q12 12 27 21q16 6 30 6q107 -119 230 -213q-7 -16 -26.5 -27.5t-33.5 -11.5q-26 0 -41 12q-35 24 -143 129q-59 -66 -133 -127q-24 -14 -41 -14h-2q-25 0 -62 29zM154 1270q53 16 94 16q17 0 20.5 -16.5t3.5 -85.5v-930q0 -106 7 -250 q-46 -16 -95 -16q-13 0 -18.5 7.5t-5.5 29.5v987q0 202 -6 258z"/>
<glyph unicode="Ï" horiz-adv-x="430" d="M-41 1440q0 35 21.5 58.5t56.5 23.5h2q31 0 51.5 -23t20.5 -55q0 -39 -21.5 -60.5t-54.5 -21.5q-32 0 -54 19.5t-22 58.5zM154 1270q53 16 94 16q17 0 20.5 -16.5t3.5 -85.5v-930q0 -106 7 -250q-46 -16 -95 -16q-13 0 -18.5 7.5t-5.5 29.5v987q0 202 -6 258zM324 1440 q0 35 21 58.5t58 23.5h3q30 0 50.5 -22.5t20.5 -55.5q0 -39 -22 -60.5t-58 -21.5q-29 0 -51 20t-22 58z"/>
<glyph unicode="Ð" horiz-adv-x="1329" d="M-8 616q10 84 92 84h96v312q0 180 -4 252l94 14q136 16 236 16q136 0 248 -22.5t189 -59t135.5 -89t92 -107t54.5 -119.5t28 -119.5t7 -113.5q0 -157 -50.5 -286t-175.5 -237q-60 -50 -133 -84.5t-143.5 -49.5t-124.5 -21t-105 -6q-111 0 -180 10.5t-168 38.5v587h-188z M293 90q100 -33 244 -33q97 0 184 21t163.5 67.5t131.5 115t87 168t32 220.5q0 123 -36 223t-110.5 177.5t-199 120t-291.5 42.5q-101 0 -205 -16v-496h397q-13 -52 -42 -68t-89 -16h-266v-526z"/>
<glyph unicode="Ñ" horiz-adv-x="1351" d="M117 1262v8q43 16 88 16q23 0 45 -35q32 -34 113.5 -140.5t214.5 -281.5t239 -309q216 -272 279 -377q-11 275 -11 508v568q0 33 8.5 44.5t28.5 14.5q15 2 25.5 4t12.5 2.5t5.5 1t6.5 0.5h14q-6 -132 -6 -377v-909q-8 -8 -29.5 -17.5t-34.5 -9.5q-2 0 -8 2t-8 2 q-35 46 -178 234.5t-254.5 334t-198.5 255.5q-159 210 -205 278q10 -349 10 -495v-521q0 -39 -8 -50.5t-30 -16.5q-36 -8 -60 -8q6 123 6 372v818zM455 1362q32 192 145 192h2q59 0 115 -71q45 -56 61 -56q33 0 51 105q5 22 23 22t55 -30q-24 -189 -135 -189 q-21 0 -42.5 13.5t-33 26.5t-39.5 46q-17 20 -23.5 26.5t-16.5 12.5t-21 6q-34 0 -61 -100q-4 -23 -19 -23q-10 0 -20.5 3t-24.5 9t-16 7z"/>
<glyph unicode="Ò" horiz-adv-x="1458" d="M84 621q0 196 77 352t224.5 247t341.5 91h2q186 0 334 -87t229.5 -237.5t81.5 -335.5q0 -105 -24.5 -203t-76 -185.5t-126 -152.5t-181 -103t-233.5 -38q-115 0 -213 29.5t-167 81t-122 116.5t-84.5 139t-47 145.5t-15.5 140.5zM209 633q0 -110 30.5 -205t82.5 -163.5 t120 -118t144.5 -73.5t154.5 -24q109 0 200 37t160.5 109t108.5 188t39 264q0 253 -150.5 418.5t-379.5 165.5h-2q-227 0 -367.5 -162t-140.5 -436zM512 1548q9 23 35 45.5t45 22.5h2q27 0 122.5 -56.5t149.5 -103.5q25 -16 6 -35q-5 -8 -10.5 -14t-11.5 -11t-8 -7 q-169 94 -322 141q-18 5 -8 18z"/>
<glyph unicode="Ó" horiz-adv-x="1458" d="M84 621q0 196 77 352t224.5 247t341.5 91h2q186 0 334 -87t229.5 -237.5t81.5 -335.5q0 -105 -24.5 -203t-76 -185.5t-126 -152.5t-181 -103t-233.5 -38q-115 0 -213 29.5t-167 81t-122 116.5t-84.5 139t-47 145.5t-15.5 140.5zM209 633q0 -110 30.5 -205t82.5 -163.5 t120 -118t144.5 -73.5t154.5 -24q109 0 200 37t160.5 109t108.5 188t39 264q0 253 -150.5 418.5t-379.5 165.5h-2q-227 0 -367.5 -162t-140.5 -436zM596 1413q-11 25 16 41q64 41 173 97t137 59q17 -6 38.5 -31t26.5 -43q12 -31 -24 -37q-89 -25 -342 -119q-16 10 -25 33z "/>
<glyph unicode="Ô" horiz-adv-x="1458" d="M84 621q0 196 77 352t224.5 247t341.5 91h2q186 0 334 -87t229.5 -237.5t81.5 -335.5q0 -105 -24.5 -203t-76 -185.5t-126 -152.5t-181 -103t-233.5 -38q-115 0 -213 29.5t-167 81t-122 116.5t-84.5 139t-47 145.5t-15.5 140.5zM209 633q0 -110 30.5 -205t82.5 -163.5 t120 -118t144.5 -73.5t154.5 -24q109 0 200 37t160.5 109t108.5 188t39 264q0 253 -150.5 418.5t-379.5 165.5h-2q-227 0 -367.5 -162t-140.5 -436zM492 1427q103 85 194 197q12 12 27 21q16 6 30 6q107 -119 230 -213q-7 -16 -26.5 -27.5t-33.5 -11.5q-26 0 -41 12 q-35 24 -143 129q-59 -66 -133 -127q-25 -14 -41 -14h-2q-25 0 -61 28z"/>
<glyph unicode="Õ" horiz-adv-x="1458" d="M84 621q0 196 77 352t224.5 247t341.5 91h2q186 0 334 -87t229.5 -237.5t81.5 -335.5q0 -105 -24.5 -203t-76 -185.5t-126 -152.5t-181 -103t-233.5 -38q-115 0 -213 29.5t-167 81t-122 116.5t-84.5 139t-47 145.5t-15.5 140.5zM209 633q0 -110 30.5 -205t82.5 -163.5 t120 -118t144.5 -73.5t154.5 -24q109 0 200 37t160.5 109t108.5 188t39 264q0 253 -150.5 418.5t-379.5 165.5h-2q-227 0 -367.5 -162t-140.5 -436zM487 1427q5 33 14 61.5t25.5 61t44 51.5t62.5 19h2q59 0 115 -72q44 -55 61 -55q33 0 51 104q6 23 23 23q16 0 55 -31 q-24 -188 -135 -188q-21 0 -42.5 13.5t-33 26.5t-39.5 46q-17 20 -23.5 26.5t-16.5 12.5t-21 6q-35 0 -62 -100q-4 -23 -18 -23t-62 18z"/>
<glyph unicode="Ö" horiz-adv-x="1458" d="M84 621q0 196 77 352t224.5 247t341.5 91h2q186 0 334 -87t229.5 -237.5t81.5 -335.5q0 -105 -24.5 -203t-76 -185.5t-126 -152.5t-181 -103t-233.5 -38q-115 0 -213 29.5t-167 81t-122 116.5t-84.5 139t-47 145.5t-15.5 140.5zM209 633q0 -110 30.5 -205t82.5 -163.5 t120 -118t144.5 -73.5t154.5 -24q109 0 200 37t160.5 109t108.5 188t39 264q0 253 -150.5 418.5t-379.5 165.5h-2q-227 0 -367.5 -162t-140.5 -436zM473 1481q0 35 21.5 58.5t56.5 23.5h2q31 0 51.5 -23t20.5 -55q0 -39 -21.5 -60.5t-54.5 -21.5q-32 0 -54 19.5t-22 58.5z M838 1481q0 35 21.5 58.5t58.5 23.5h2q30 0 50.5 -22.5t20.5 -55.5q0 -39 -22 -60.5t-58 -21.5q-29 0 -51 20t-22 58z"/>
<glyph unicode="×" horiz-adv-x="1148" d="M168 891q12 27 39 41l358 -373l330 344q29 33 59 15q12 -8 23 -22t12 -15l-364 -381l333 -353q13 -10 14 -25.5t-9 -27.5q-26 -26 -45 -33l-359 381l-352 -381q-17 10 -35 45q-11 28 10 56l322 338l-334 346q-14 14 -2 45z"/>
<glyph unicode="Ø" horiz-adv-x="1458" d="M82 618q0 195 78 351.5t226.5 249t342.5 92.5q207 0 365 -107l100 131q17 21 27 24.5t22 -7.5q27 -24 27 -56l-111 -143q105 -92 160 -225.5t55 -276.5q0 -104 -23.5 -201t-74 -185t-124.5 -153.5t-182.5 -104t-238.5 -38.5q-233 0 -391 125l-121 -162q-20 -26 -39 -4 q-31 36 -37 52l133 172q-99 94 -146.5 221t-47.5 245zM207 631q0 -237 135 -395l692 892q-133 103 -313 103q-225 0 -369.5 -166t-144.5 -434zM403 174q68 -61 154.5 -93t175.5 -32q111 0 203 36.5t163 108.5t110.5 189t39.5 270q0 266 -149 418z"/>
<glyph unicode="Ù" horiz-adv-x="1337" d="M147 1270q53 16 89 16q21 0 25.5 -15.5t4.5 -88.5v-588q0 -134 27 -234.5t67 -157t97.5 -90.5t107.5 -44.5t107 -10.5q47 0 85 4.5t82 19.5t77 39.5t65.5 68t53.5 102t33.5 144.5t12.5 192v602q0 25 9 35t26 14q19 2 29.5 4t12.5 2.5t8 1t20 0.5q-6 -117 -6 -368v-287 q0 -125 -18.5 -226t-48.5 -169t-74.5 -118t-88.5 -78t-100 -44.5t-100 -21.5t-95 -5q-61 0 -113 8t-104 28t-93.5 52t-78 81.5t-60.5 114t-38 152.5t-14 195v410q0 192 -7 260zM438 1505q9 23 35 45.5t45 22.5h2q27 0 123.5 -56.5t149.5 -103.5q25 -16 6 -35q-5 -8 -11 -14 t-12 -11t-8 -7q-169 94 -322 141q-18 5 -8 18z"/>
<glyph unicode="Ú" horiz-adv-x="1337" d="M147 1270q53 16 89 16q21 0 25.5 -15.5t4.5 -88.5v-588q0 -134 27 -234.5t67 -157t97.5 -90.5t107.5 -44.5t107 -10.5q47 0 85 4.5t82 19.5t77 39.5t65.5 68t53.5 102t33.5 144.5t12.5 192v602q0 25 9 35t26 14q19 2 29.5 4t12.5 2.5t8 1t20 0.5q-6 -117 -6 -368v-287 q0 -125 -18.5 -226t-48.5 -169t-74.5 -118t-88.5 -78t-100 -44.5t-100 -21.5t-95 -5q-61 0 -113 8t-104 28t-93.5 52t-78 81.5t-60.5 114t-38 152.5t-14 195v410q0 192 -7 260zM522 1395q-10 24 17 41q64 41 172.5 96.5t136.5 58.5q17 -6 38.5 -30.5t26.5 -42.5 q12 -31 -24 -37q-89 -25 -342 -119q-16 10 -25 33z"/>
<glyph unicode="Û" horiz-adv-x="1337" d="M147 1270q53 16 89 16q21 0 25.5 -15.5t4.5 -88.5v-588q0 -134 27 -234.5t67 -157t97.5 -90.5t107.5 -44.5t107 -10.5q47 0 85 4.5t82 19.5t77 39.5t65.5 68t53.5 102t33.5 144.5t12.5 192v602q0 25 9 35t26 14q19 2 29.5 4t12.5 2.5t8 1t20 0.5q-6 -117 -6 -368v-287 q0 -125 -18.5 -226t-48.5 -169t-74.5 -118t-88.5 -78t-100 -44.5t-100 -21.5t-95 -5q-61 0 -113 8t-104 28t-93.5 52t-78 81.5t-60.5 114t-38 152.5t-14 195v410q0 192 -7 260zM434 1391q109 89 195 196q13 13 26 21q16 6 31 6q109 -122 229 -213q-7 -16 -26 -27.5 t-33 -11.5q-26 0 -41 12q-35 24 -143 129q-59 -66 -133 -127q-25 -14 -41 -14h-2q-25 0 -62 29z"/>
<glyph unicode="Ü" horiz-adv-x="1337" d="M147 1270q53 16 89 16q21 0 25.5 -15.5t4.5 -88.5v-588q0 -134 27 -234.5t67 -157t97.5 -90.5t107.5 -44.5t107 -10.5q47 0 85 4.5t82 19.5t77 39.5t65.5 68t53.5 102t33.5 144.5t12.5 192v602q0 25 9 35t26 14q19 2 29.5 4t12.5 2.5t8 1t20 0.5q-6 -117 -6 -368v-287 q0 -125 -18.5 -226t-48.5 -169t-74.5 -118t-88.5 -78t-100 -44.5t-100 -21.5t-95 -5q-61 0 -113 8t-104 28t-93.5 52t-78 81.5t-60.5 114t-38 152.5t-14 195v410q0 192 -7 260zM414 1440q0 35 21.5 58.5t56.5 23.5h2q30 0 50.5 -22.5t20.5 -55.5q0 -39 -21.5 -60.5 t-54.5 -21.5q-32 0 -53.5 19.5t-21.5 58.5zM778 1440q0 35 21.5 58.5t58.5 23.5h2q31 0 51.5 -23t20.5 -55q0 -39 -22 -60.5t-58 -21.5q-30 0 -52 20t-22 58z"/>
<glyph unicode="Ý" horiz-adv-x="1114" d="M39 1257v7q49 22 94 22q14 0 31 -19t51 -67q86 -127 356 -508q57 76 225 311t197 283q22 0 62 -14q37 -13 -6 -70q-23 -31 -210 -285t-206 -278q-21 -26 -21 -78v-311q0 -123 6 -246q-29 -16 -94 -16q-14 0 -19 7t-5 30v522q0 63 -15 84q-75 113 -223.5 322t-222.5 304z M461 1368q-11 25 16 41q65 41 173 97t136 59q17 -6 39 -31t27 -43q12 -31 -25 -37q-89 -25 -342 -119q-15 9 -24 33z"/>
<glyph unicode="Þ" horiz-adv-x="911" d="M154 1270q77 16 92 16q16 0 21 -21t5 -91v-154q62 12 142 12q214 0 325 -108q103 -106 103 -277q0 -86 -26.5 -156.5t-67.5 -114.5t-94 -74t-102.5 -42t-96.5 -12q-59 0 -76 14q-28 21 -37 62q66 -5 68 -5q30 -1 62.5 4t78.5 24.5t81 52t60 96t25 147.5q0 150 -85 230.5 t-233 78.5q-98 0 -127 -12v-684q0 -108 7 -252q-10 -6 -38 -11t-46 -5q-19 0 -27 7.5t-8 29.5v985q0 202 -6 260z"/>
<glyph unicode="ß" horiz-adv-x="995" d="M57 838q41 23 103 43q3 109 33.5 217t89.5 176q61 70 128.5 100.5t157.5 30.5h2q132 0 209.5 -83t77.5 -218q0 -60 -10 -90q-113 -54 -182.5 -126.5t-69.5 -150.5q0 -69 76 -131q53 -43 137 -102q119 -86 119 -215q0 -137 -102.5 -224.5t-260.5 -87.5q-54 0 -109.5 15 t-88.5 41q0 31 16 53q20 23 47 8q83 -31 145 -31q111 0 177.5 56.5t66.5 144.5q0 55 -17.5 89.5t-72.5 78.5q-17 13 -111 80q-126 92 -126 215q0 79 65 161t191 152q8 24 8 50q0 114 -55.5 176.5t-151.5 62.5q-133 0 -208.5 -121t-76.5 -372q-2 -300 4 -832q-26 -16 -82 -16 q-15 0 -21.5 5.5t-6.5 20.5q3 100 3.5 211t-0.5 289.5t-1 269.5q-103 2 -103 54z"/>
<glyph unicode="à" horiz-adv-x="833" d="M66 186q0 61 31 112t74 82t101 56.5t98 37t79 20.5q5 1 7 1.5t5.5 1t5.5 1.5q76 16 100 20l2 84q0 89 -48 153t-144 64q-111 0 -225 -92q-22 -12 -40 1.5t-24 45.5q43 50 128.5 94.5t176.5 44.5q281 0 281 -338q0 -29 -1.5 -128t-2 -166.5t1.5 -147.5q3 -78 65 -78 q22 0 43 8l2 -4q4 -42 -22.5 -63t-69.5 -21q-61 0 -93 43.5t-30 100.5q-50 -61 -123.5 -102.5t-156.5 -41.5q-102 0 -161.5 64.5t-59.5 146.5zM180 203q0 -59 43 -96t105 -37q78 0 137.5 41.5t89.5 93.5q12 21 12 65v172q-44 -9 -72 -15t-73 -18t-74.5 -23.5t-64 -30.5 t-55 -39.5t-34.5 -49t-14 -61.5v-2zM186 1313q-20 17 7 41q39 39 65 39h2q17 -1 79 -106t93 -177q11 -32 -4 -47q-31 -27 -35 -29q-113 172 -207 279z"/>
<glyph unicode="á" horiz-adv-x="833" d="M66 186q0 61 31 112t74 82t101 56.5t98 37t79 20.5q5 1 7 1.5t5.5 1t5.5 1.5q76 16 100 20l2 84q0 89 -48 153t-144 64q-111 0 -225 -92q-22 -12 -40 1.5t-24 45.5q43 50 128.5 94.5t176.5 44.5q281 0 281 -338q0 -29 -1.5 -128t-2 -166.5t1.5 -147.5q3 -78 65 -78 q22 0 43 8l2 -4q4 -42 -22.5 -63t-69.5 -21q-61 0 -93 43.5t-30 100.5q-50 -61 -123.5 -102.5t-156.5 -41.5q-102 0 -161.5 64.5t-59.5 146.5zM180 203q0 -59 43 -96t105 -37q78 0 137.5 41.5t89.5 93.5q12 21 12 65v172q-44 -9 -72 -15t-73 -18t-74.5 -23.5t-64 -30.5 t-55 -39.5t-34.5 -49t-14 -61.5v-2zM319 1063q-9 12 11 53q32 71 90 172t72 101h2q16 0 40.5 -12t36.5 -27q16 -14 -6 -39q-94 -108 -207 -283q-16 8 -39 35z"/>
<glyph unicode="â" horiz-adv-x="833" d="M66 186q0 61 31 112t74 82t101 56.5t98 37t79 20.5q5 1 7 1.5t5.5 1t5.5 1.5q76 16 100 20l2 84q0 89 -48 153t-144 64q-111 0 -225 -92q-22 -12 -40 1.5t-24 45.5q43 50 128.5 94.5t176.5 44.5q281 0 281 -338q0 -29 -1.5 -128t-2 -166.5t1.5 -147.5q3 -78 65 -78 q22 0 43 8l2 -4q4 -42 -22.5 -63t-69.5 -21q-61 0 -93 43.5t-30 100.5q-50 -61 -123.5 -102.5t-156.5 -41.5q-102 0 -161.5 64.5t-59.5 146.5zM180 203q0 -59 43 -96t105 -37q78 0 137.5 41.5t89.5 93.5q12 21 12 65v172q-44 -9 -72 -15t-73 -18t-74.5 -23.5t-64 -30.5 t-55 -39.5t-34.5 -49t-14 -61.5v-2zM186 1059q26 52 78 143t76 139q9 19 15.5 25.5t19.5 9.5q28 8 47 8q47 -96 170 -321q-28 -33 -66 -33q-13 0 -26 21q-11 25 -26.5 55t-39.5 74.5t-43 81.5q-10 -18 -52 -95t-71 -131q-12 -6 -18 -6h-2q-17 0 -37.5 9.5t-24.5 19.5z"/>
<glyph unicode="ã" horiz-adv-x="833" d="M66 186q0 61 31 112t74 82t101 56.5t98 37t79 20.5q5 1 7 1.5t5.5 1t5.5 1.5q76 16 100 20l2 84q0 89 -48 153t-144 64q-111 0 -225 -92q-22 -12 -40 1.5t-24 45.5q43 50 128.5 94.5t176.5 44.5q281 0 281 -338q0 -29 -1.5 -128t-2 -166.5t1.5 -147.5q3 -78 65 -78 q22 0 43 8l2 -4q4 -42 -22.5 -63t-69.5 -21q-61 0 -93 43.5t-30 100.5q-50 -61 -123.5 -102.5t-156.5 -41.5q-102 0 -161.5 64.5t-59.5 146.5zM162 1098q5 34 14.5 63.5t26 61t44.5 50.5t64 19h2q61 0 115 -69q45 -56 61 -56q38 0 56 105q3 13 7.5 17.5t14.5 4.5 q17 0 54 -30q-11 -90 -45.5 -141.5t-92.5 -51.5q-22 0 -43.5 13.5t-32.5 25.5t-38 45q-39 45 -62 45q-37 0 -65 -98q-3 -23 -17 -23q-11 0 -22 3t-25 9t-16 7zM180 203q0 -59 43 -96t105 -37q78 0 137.5 41.5t89.5 93.5q12 21 12 65v172q-44 -9 -72 -15t-73 -18t-74.5 -23.5 t-64 -30.5t-55 -39.5t-34.5 -49t-14 -61.5v-2z"/>
<glyph unicode="ä" horiz-adv-x="833" d="M66 186q0 61 31 112t74 82t101 56.5t98 37t79 20.5q5 1 7 1.5t5.5 1t5.5 1.5q76 16 100 20l2 84q0 89 -48 153t-144 64q-111 0 -225 -92q-22 -12 -40 1.5t-24 45.5q43 50 128.5 94.5t176.5 44.5q281 0 281 -338q0 -29 -1.5 -128t-2 -166.5t1.5 -147.5q3 -78 65 -78 q22 0 43 8l2 -4q4 -42 -22.5 -63t-69.5 -21q-61 0 -93 43.5t-30 100.5q-50 -61 -123.5 -102.5t-156.5 -41.5q-102 0 -161.5 64.5t-59.5 146.5zM162 1171q0 35 21 58.5t57 23.5h2q29 0 49 -22t20 -53q0 -39 -21 -60.5t-54 -21.5q-32 0 -53 19t-21 56zM180 203q0 -59 43 -96 t105 -37q78 0 137.5 41.5t89.5 93.5q12 21 12 65v172q-44 -9 -72 -15t-73 -18t-74.5 -23.5t-64 -30.5t-55 -39.5t-34.5 -49t-14 -61.5v-2zM475 1171q0 36 21 59t57 23h2q30 0 50 -22.5t20 -52.5q0 -39 -21.5 -60.5t-56.5 -21.5q-29 0 -50.5 19t-21.5 56z"/>
<glyph unicode="å" horiz-adv-x="833" d="M66 186q0 61 31 112t74 82t101 56.5t98 37t79 20.5q5 1 7 1.5t5.5 1t5.5 1.5q76 16 100 20l2 84q0 89 -48 153t-144 64q-111 0 -225 -92q-22 -12 -40 1.5t-24 45.5q43 50 128.5 94.5t176.5 44.5q281 0 281 -338q0 -29 -1.5 -128t-2 -166.5t1.5 -147.5q3 -78 65 -78 q22 0 43 8l2 -4q4 -42 -22.5 -63t-69.5 -21q-61 0 -93 43.5t-30 100.5q-50 -61 -123.5 -102.5t-156.5 -41.5q-102 0 -161.5 64.5t-59.5 146.5zM180 203q0 -59 43 -96t105 -37q78 0 137.5 41.5t89.5 93.5q12 21 12 65v172q-44 -9 -72 -15t-73 -18t-74.5 -23.5t-64 -30.5 t-55 -39.5t-34.5 -49t-14 -61.5v-2zM225 1180q0 74 46.5 123t121.5 49h2q70 0 117 -47.5t47 -118.5q0 -78 -47 -124t-125 -46q-67 0 -114.5 45.5t-47.5 118.5zM311 1186q0 -39 23.5 -67.5t58.5 -28.5q39 0 59.5 27.5t20.5 64.5q0 41 -20.5 69.5t-63.5 28.5h-2 q-34 0 -55 -29.5t-21 -64.5z"/>
<glyph unicode="æ" horiz-adv-x="1351" d="M63 188q0 46 18.5 86t47 69t70 55t80.5 42.5t86.5 31.5t80 23t68.5 16q3 1 5 1t4.5 1t4.5 1q22 4 39 10v56q0 104 -51 171.5t-154 67.5q-111 0 -202 -82q-30 -23 -46.5 -14.5t-29.5 45.5q35 52 124 98.5t183 46.5q103 0 173 -60t85 -140q50 89 137 144.5t193 55.5 q77 0 138 -27.5t98.5 -74t58 -103t22.5 -118.5q0 -46 -4 -62q-4 -24 -68.5 -46.5t-111.5 -24.5q-143 -10 -440 0q-5 -172 89.5 -279.5t258.5 -107.5q60 0 124 16.5t99 36.5l4 -6q-3 -33 -22.5 -60.5t-44.5 -40.5q-29 -15 -84 -28t-113 -13q-111 0 -206.5 49.5t-139.5 131.5 q-52 -66 -149 -123.5t-199 -57.5q-108 0 -167 63.5t-59 149.5zM180 201q0 -53 39.5 -91t102.5 -38h2q158 0 282 147q-16 37 -28.5 100t-12.5 125q-5 -1 -14 -3q-53 -11 -82.5 -18.5t-81 -22.5t-81.5 -31.5t-62.5 -40.5t-48 -56t-15.5 -71zM678 537q357 -7 448 0q56 3 56 51 q3 109 -57 179.5t-169 70.5h-2q-105 0 -180.5 -87.5t-95.5 -213.5z"/>
<glyph unicode="ç" horiz-adv-x="843" d="M74 440q0 141 68 251t175 166t232 56q95 0 166 -25.5t84 -49.5q0 -29 -21 -50q-23 -23 -45 -10q-86 45 -196 45q-154 0 -250.5 -106t-96.5 -268q0 -91 25.5 -161t63.5 -110t90.5 -65.5t98.5 -34t95 -8.5q114 0 211 43l4 -7q-7 -62 -47 -86q-22 -14 -72.5 -27t-83.5 -13 l-59 -89q63 -17 95 -54.5t32 -88.5q0 -73 -73 -123.5t-160 -64.5q-14 3 -25.5 20.5t-11.5 30.5q0 9 18 16q81 25 118.5 55.5t37.5 55.5q0 42 -49.5 62t-116.5 22v4l104 151q-411 42 -411 463z"/>
<glyph unicode="è" horiz-adv-x="858" d="M72 424q0 136 47 245.5t142 176.5t222 67q62 0 114 -18.5t88.5 -49.5t62 -72.5t38.5 -87.5t15 -95q0 -44 -4 -62q-5 -26 -65.5 -43.5t-115.5 -19.5q-162 -11 -434 -2q-3 -179 86 -286t250 -107q62 0 130 17t100 36l4 -2q-3 -64 -50 -94q-32 -20 -89.5 -36t-120.5 -16 q-202 0 -311 120.5t-109 328.5zM193 545q70 -1 150.5 -1.5t135 0t102.5 1t52 0.5q55 3 55 43q3 109 -57.5 179.5t-169.5 70.5h-2q-97 0 -172.5 -79t-93.5 -214zM266 1313q-21 17 6 41q39 39 66 39h2q17 -1 79 -106t93 -177q11 -32 -4 -47q-31 -27 -35 -29q-113 172 -207 279 z"/>
<glyph unicode="é" horiz-adv-x="858" d="M72 424q0 136 47 245.5t142 176.5t222 67q62 0 114 -18.5t88.5 -49.5t62 -72.5t38.5 -87.5t15 -95q0 -44 -4 -62q-5 -26 -65.5 -43.5t-115.5 -19.5q-162 -11 -434 -2q-3 -179 86 -286t250 -107q62 0 130 17t100 36l4 -2q-3 -64 -50 -94q-32 -20 -89.5 -36t-120.5 -16 q-202 0 -311 120.5t-109 328.5zM193 545q70 -1 150.5 -1.5t135 0t102.5 1t52 0.5q55 3 55 43q3 109 -57.5 179.5t-169.5 70.5h-2q-97 0 -172.5 -79t-93.5 -214zM375 1063q-10 13 10 53q32 71 90 172t72 101h2q16 0 41 -12.5t37 -26.5q16 -14 -6 -39q-94 -108 -207 -283 q-16 8 -39 35z"/>
<glyph unicode="ê" horiz-adv-x="858" d="M72 424q0 136 47 245.5t142 176.5t222 67q62 0 114 -18.5t88.5 -49.5t62 -72.5t38.5 -87.5t15 -95q0 -44 -4 -62q-5 -26 -65.5 -43.5t-115.5 -19.5q-162 -11 -434 -2q-3 -179 86 -286t250 -107q62 0 130 17t100 36l4 -2q-3 -64 -50 -94q-32 -20 -89.5 -36t-120.5 -16 q-202 0 -311 120.5t-109 328.5zM193 545q70 -1 150.5 -1.5t135 0t102.5 1t52 0.5q55 3 55 43q3 109 -57.5 179.5t-169.5 70.5h-2q-97 0 -172.5 -79t-93.5 -214zM256 1059q26 52 78 143t76 139q9 20 15 26t19 9q28 8 48 8q47 -96 170 -321q-28 -33 -66 -33q-14 0 -27 21 q-11 25 -26 55t-39.5 75.5t-42.5 80.5q-10 -18 -52 -95t-71 -131q-12 -6 -19 -6h-2q-17 0 -37 9.5t-24 19.5z"/>
<glyph unicode="ë" horiz-adv-x="858" d="M72 424q0 136 47 245.5t142 176.5t222 67q62 0 114 -18.5t88.5 -49.5t62 -72.5t38.5 -87.5t15 -95q0 -44 -4 -62q-5 -26 -65.5 -43.5t-115.5 -19.5q-162 -11 -434 -2q-3 -179 86 -286t250 -107q62 0 130 17t100 36l4 -2q-3 -64 -50 -94q-32 -20 -89.5 -36t-120.5 -16 q-202 0 -311 120.5t-109 328.5zM193 545q70 -1 150.5 -1.5t135 0t102.5 1t52 0.5q55 3 55 43q3 109 -57.5 179.5t-169.5 70.5h-2q-97 0 -172.5 -79t-93.5 -214zM229 1171q0 35 21 58.5t57 23.5h2q29 0 49.5 -22t20.5 -53q0 -39 -21.5 -60.5t-54.5 -21.5q-32 0 -53 19t-21 56 zM543 1171q0 36 21 59t57 23h2q30 0 49.5 -22.5t19.5 -52.5q0 -39 -21.5 -60.5t-56.5 -21.5q-29 0 -50 19t-21 56z"/>
<glyph unicode="ì" horiz-adv-x="405" d="M8 1313q-21 17 6 41q39 39 66 39h2q17 -1 79 -106t93 -177q11 -32 -4 -47q-31 -27 -35 -29q-113 172 -207 279zM143 883q40 18 90 18q8 0 12.5 -6.5t7.5 -35t3 -83.5v-727q0 -26 -6.5 -37t-20.5 -14q-33 -7 -84 -10q7 287 7 319v344q0 131 -9 232z"/>
<glyph unicode="í" horiz-adv-x="405" d="M129 1063q-10 13 10 53q32 71 90 172t72 101h2q16 0 41 -12.5t37 -26.5q16 -14 -6 -39q-94 -108 -207 -283q-16 8 -39 35zM143 883q40 18 90 18q8 0 12.5 -6.5t7.5 -35t3 -83.5v-727q0 -26 -6.5 -37t-20.5 -14q-33 -7 -84 -10q7 287 7 319v344q0 131 -9 232z"/>
<glyph unicode="î" horiz-adv-x="405" d="M0 1059q26 52 78 143t76 139q9 20 15 26t19 9q28 8 48 8q47 -96 170 -321q-27 -33 -66 -33q-14 0 -27 21q-11 25 -26 55t-39.5 75.5t-42.5 80.5q-10 -18 -52 -95t-71 -131q-12 -6 -19 -6h-2q-17 0 -37 9.5t-24 19.5zM143 883q40 18 90 18q8 0 12.5 -6.5t7.5 -35t3 -83.5 v-727q0 -26 -6.5 -37t-20.5 -14q-33 -7 -84 -10q7 287 7 319v344q0 131 -9 232z"/>
<glyph unicode="ï" horiz-adv-x="405" d="M-20 1171q0 35 20.5 58.5t56.5 23.5h2q29 0 49.5 -22t20.5 -53q0 -39 -21.5 -60.5t-54.5 -21.5q-32 0 -52.5 18.5t-20.5 56.5zM143 883q40 18 90 18q8 0 12.5 -6.5t7.5 -35t3 -83.5v-727q0 -26 -6.5 -37t-20.5 -14q-33 -7 -84 -10q7 287 7 319v344q0 131 -9 232z M293 1171q0 36 21 59t57 23h2q30 0 49.5 -22.5t19.5 -52.5q0 -39 -21 -60.5t-56 -21.5q-29 0 -50.5 19t-21.5 56z"/>
<glyph unicode="ð" horiz-adv-x="1005" d="M74 426q0 212 133 349.5t344 137.5q130 0 227 -67q-66 184 -160 278l-286 -141q-29 -15 -29 16q0 41 27 72l225 107q-74 57 -174 98t-197 51l-2 4q11 18 19 29q18 33 53 33q79 0 200.5 -53t192.5 -117l232 120q24 12 24 -12q0 -35 -7 -52t-30 -28l-155 -82 q109 -113 168 -282.5t59 -366.5q0 -253 -121.5 -399t-314.5 -146q-105 0 -188 36t-134.5 99t-78.5 143.5t-27 172.5zM190 434q0 -102 30.5 -179.5t79 -119.5t101 -62t105.5 -20q142 0 229.5 116.5t87.5 352.5q0 124 -26 217q-41 44 -113 70.5t-141 26.5h-2 q-153 0 -252 -108.5t-99 -293.5z"/>
<glyph unicode="ñ" horiz-adv-x="1024" d="M127 866v6q10 10 36.5 24.5t37.5 14.5q32 0 44.5 -53.5t12.5 -112.5q64 72 150 120t172 48q292 0 292 -368v-316q0 -151 9 -225q-82 -16 -95 -16q-20 0 -20 22l2 527q1 143 -56.5 212.5t-164.5 69.5q-88 0 -164.5 -51t-120.5 -115v-610q0 -31 -8 -40t-31 -11 q-13 -2 -38.5 -2.5t-32.5 -1.5q6 62 6 383v354q0 113 -31 141zM270 1098q5 33 14.5 63t26.5 61.5t45 50.5t64 19h2q61 0 115 -69q45 -56 61 -56q37 0 55 105q5 22 23 22q16 0 53 -30q-11 -90 -45 -141.5t-92 -51.5q-22 0 -43.5 13.5t-33.5 26t-38 44.5q-22 26 -34.5 35.5 t-26.5 9.5q-38 0 -66 -98q-3 -23 -16 -23q-11 0 -22 3t-26 9.5t-16 6.5z"/>
<glyph unicode="ò" horiz-adv-x="1013" d="M72 434q0 131 54.5 240t156.5 174t233 65h2q203 0 313.5 -128.5t110.5 -333.5q0 -131 -51.5 -238.5t-151.5 -172.5t-231 -65q-96 0 -172.5 29t-124.5 75.5t-80.5 108t-45.5 122.5t-13 124zM188 453q0 -189 95 -294.5t237 -105.5q39 0 78 10.5t80.5 38.5t73.5 70.5 t52.5 112.5t20.5 159q0 77 -19.5 146t-57.5 125t-101 88.5t-143 32.5h-2q-57 0 -111.5 -23.5t-100.5 -68.5t-74 -120.5t-28 -170.5zM319 1313q-20 17 7 41q39 39 65 39h2q17 -1 79 -106t93 -177q11 -32 -4 -47q-31 -27 -35 -29q-113 172 -207 279z"/>
<glyph unicode="ó" horiz-adv-x="1013" d="M72 434q0 131 54.5 240t156.5 174t233 65h2q203 0 313.5 -128.5t110.5 -333.5q0 -131 -51.5 -238.5t-151.5 -172.5t-231 -65q-96 0 -172.5 29t-124.5 75.5t-80.5 108t-45.5 122.5t-13 124zM188 453q0 -189 95 -294.5t237 -105.5q39 0 78 10.5t80.5 38.5t73.5 70.5 t52.5 112.5t20.5 159q0 77 -19.5 146t-57.5 125t-101 88.5t-143 32.5h-2q-57 0 -111.5 -23.5t-100.5 -68.5t-74 -120.5t-28 -170.5zM420 1063q-10 13 10 53q32 71 90 172t72 101h2q16 0 41 -12.5t37 -26.5q16 -14 -6 -39q-94 -108 -207 -283q-16 8 -39 35z"/>
<glyph unicode="ô" horiz-adv-x="1013" d="M72 434q0 131 54.5 240t156.5 174t233 65h2q203 0 313.5 -128.5t110.5 -333.5q0 -131 -51.5 -238.5t-151.5 -172.5t-231 -65q-96 0 -172.5 29t-124.5 75.5t-80.5 108t-45.5 122.5t-13 124zM188 453q0 -189 95 -294.5t237 -105.5q39 0 78 10.5t80.5 38.5t73.5 70.5 t52.5 112.5t20.5 159q0 77 -19.5 146t-57.5 125t-101 88.5t-143 32.5h-2q-57 0 -111.5 -23.5t-100.5 -68.5t-74 -120.5t-28 -170.5zM322 1059q26 51 77.5 142t75.5 140q9 19 15.5 25.5t19.5 9.5q28 8 47 8q47 -96 170 -321q-27 -33 -65 -33q-14 0 -27 21q-11 25 -26.5 55 t-39.5 74.5t-43 81.5q-10 -18 -52 -95t-71 -131q-12 -6 -18 -6h-2q-17 0 -37 9.5t-24 19.5z"/>
<glyph unicode="õ" horiz-adv-x="1013" d="M72 434q0 131 54.5 240t156.5 174t233 65h2q203 0 313.5 -128.5t110.5 -333.5q0 -131 -51.5 -238.5t-151.5 -172.5t-231 -65q-96 0 -172.5 29t-124.5 75.5t-80.5 108t-45.5 122.5t-13 124zM188 453q0 -189 95 -294.5t237 -105.5q39 0 78 10.5t80.5 38.5t73.5 70.5 t52.5 112.5t20.5 159q0 77 -19.5 146t-57.5 125t-101 88.5t-143 32.5h-2q-57 0 -111.5 -23.5t-100.5 -68.5t-74 -120.5t-28 -170.5zM264 1098q5 33 14.5 63t26.5 61.5t45 50.5t64 19h2q60 0 114 -69q45 -56 62 -56q37 0 55 105q5 22 23 22q15 0 53 -30q-11 -90 -45 -141.5 t-92 -51.5q-22 0 -43.5 13.5t-33.5 26t-38 44.5q-22 26 -34.5 35.5t-26.5 9.5q-38 0 -66 -98q-3 -23 -16 -23q-11 0 -22 3t-26 9.5t-16 6.5z"/>
<glyph unicode="ö" horiz-adv-x="1013" d="M72 434q0 131 54.5 240t156.5 174t233 65h2q203 0 313.5 -128.5t110.5 -333.5q0 -131 -51.5 -238.5t-151.5 -172.5t-231 -65q-96 0 -172.5 29t-124.5 75.5t-80.5 108t-45.5 122.5t-13 124zM188 453q0 -189 95 -294.5t237 -105.5q39 0 78 10.5t80.5 38.5t73.5 70.5 t52.5 112.5t20.5 159q0 77 -19.5 146t-57.5 125t-101 88.5t-143 32.5h-2q-57 0 -111.5 -23.5t-100.5 -68.5t-74 -120.5t-28 -170.5zM264 1171q0 35 21 58.5t57 23.5h2q29 0 49.5 -22t20.5 -53q0 -39 -21.5 -60.5t-54.5 -21.5q-32 0 -53 19t-21 56zM578 1171q0 36 20.5 59 t56.5 23h2q30 0 50 -22.5t20 -52.5q0 -39 -21.5 -60.5t-56.5 -21.5q-29 0 -50 19t-21 56z"/>
<glyph unicode="÷" horiz-adv-x="1148" d="M123 459q2 32 16 57t39 25h848q-1 -43 -17 -62.5t-48 -19.5h-838zM498 209q0 31 21.5 53.5t51.5 22.5h2q29 0 50.5 -23t21.5 -53q0 -31 -22.5 -54.5t-51.5 -23.5q-30 0 -51.5 23.5t-21.5 54.5zM498 793q0 30 22.5 52.5t50.5 22.5q33 0 55.5 -22t22.5 -53q0 -34 -23 -56 t-57 -22h-2q-25 0 -47 24t-22 54z"/>
<glyph unicode="ø" horiz-adv-x="1044" d="M72 438q0 130 57 238.5t161.5 172.5t235.5 64q74 0 128.5 -14.5t113.5 -50.5q20 29 49 65q16 20 26.5 22.5t16.5 -7.5q21 -26 27 -54l-58 -73q142 -133 142 -355q0 -129 -54.5 -236t-156 -171t-230.5 -64q-159 0 -256 66q-20 -28 -57 -74q-23 -35 -45 -10q-2 3 -9 12.5 t-12 17.5t-8 15q50 63 68 88q-69 67 -104 161t-35 187zM184 444q0 -166 88 -272l439 602q-81 64 -195 64q-61 0 -118 -24t-106 -70.5t-78.5 -124t-29.5 -175.5zM330 119q79 -70 202 -70q41 0 83 11.5t86.5 40.5t78.5 72.5t56 114t22 158.5q0 184 -88 275z"/>
<glyph unicode="ù" horiz-adv-x="1017" d="M143 883q40 18 90 18q7 0 11 -6.5t7 -35t3 -83.5q2 -135 2 -407q0 -77 14.5 -133t36 -86.5t54.5 -48.5t61 -22.5t65 -4.5q84 0 158 46t105 97v612q0 31 5 43t19 17q50 12 86 12q0 -6 -3 -133t-3 -231v-344q0 -83 18 -111.5t66 -34.5v-8q-2 -17 -22.5 -40.5t-45.5 -23.5 q-48 0 -79.5 43t-32.5 115q-69 -83 -183 -131q-65 -27 -133 -27q-143 0 -216.5 87.5t-73.5 242.5v346q0 131 -9 232zM311 1313q-21 17 6 41q39 39 66 39h2q17 -1 79 -106t93 -177q11 -32 -4 -47q-31 -27 -35 -29q-113 172 -207 279z"/>
<glyph unicode="ú" horiz-adv-x="1017" d="M143 883q40 18 90 18q7 0 11 -6.5t7 -35t3 -83.5q2 -135 2 -407q0 -77 14.5 -133t36 -86.5t54.5 -48.5t61 -22.5t65 -4.5q84 0 158 46t105 97v612q0 31 5 43t19 17q50 12 86 12q0 -6 -3 -133t-3 -231v-344q0 -83 18 -111.5t66 -34.5v-8q-2 -17 -22.5 -40.5t-45.5 -23.5 q-48 0 -79.5 43t-32.5 115q-69 -83 -183 -131q-65 -27 -133 -27q-143 0 -216.5 87.5t-73.5 242.5v346q0 131 -9 232zM426 1063q-10 13 10 53q32 71 90 172t72 101h2q16 0 41 -12.5t37 -26.5q16 -14 -6 -39q-94 -108 -207 -283q-16 8 -39 35z"/>
<glyph unicode="û" horiz-adv-x="1017" d="M143 883q40 18 90 18q7 0 11 -6.5t7 -35t3 -83.5q2 -135 2 -407q0 -77 14.5 -133t36 -86.5t54.5 -48.5t61 -22.5t65 -4.5q84 0 158 46t105 97v612q0 31 5 43t19 17q50 12 86 12q0 -6 -3 -133t-3 -231v-344q0 -83 18 -111.5t66 -34.5v-8q-2 -17 -22.5 -40.5t-45.5 -23.5 q-48 0 -79.5 43t-32.5 115q-69 -83 -183 -131q-65 -27 -133 -27q-143 0 -216.5 87.5t-73.5 242.5v346q0 131 -9 232zM301 1059q26 52 78 143t76 139q9 20 15 26t19 9q28 8 48 8q47 -96 170 -321q-27 -33 -66 -33q-14 0 -27 21q-11 25 -26 55t-39.5 75.5t-42.5 80.5 q-10 -18 -52 -95t-71 -131q-12 -6 -18 -6h-3q-17 0 -37 9.5t-24 19.5z"/>
<glyph unicode="ü" horiz-adv-x="1017" d="M143 883q40 18 90 18q7 0 11 -6.5t7 -35t3 -83.5q2 -135 2 -407q0 -77 14.5 -133t36 -86.5t54.5 -48.5t61 -22.5t65 -4.5q84 0 158 46t105 97v612q0 31 5 43t19 17q50 12 86 12q0 -6 -3 -133t-3 -231v-344q0 -83 18 -111.5t66 -34.5v-8q-2 -17 -22.5 -40.5t-45.5 -23.5 q-48 0 -79.5 43t-32.5 115q-69 -83 -183 -131q-65 -27 -133 -27q-143 0 -216.5 87.5t-73.5 242.5v346q0 131 -9 232zM264 1171q0 35 21 58.5t57 23.5h2q29 0 49.5 -22t20.5 -53q0 -39 -21.5 -60.5t-54.5 -21.5q-32 0 -53 19t-21 56zM578 1171q0 36 20.5 59t56.5 23h2 q30 0 50 -22.5t20 -52.5q0 -39 -21.5 -60.5t-56.5 -21.5q-29 0 -50 19t-21 56z"/>
<glyph unicode="ý" horiz-adv-x="831" d="M45 874q16 13 43 26t41 13q22 0 31 -20q27 -62 140 -369.5t138 -369.5q65 134 151 374.5t122 384.5q51 4 73 -14q21 -18 7 -63q-1 -4 -14.5 -45.5t-17.5 -53t-18 -54t-20.5 -62t-21.5 -61.5t-25 -69t-25.5 -68.5t-28.5 -75t-29.5 -73t-33.5 -77.5q-64 -146 -151.5 -302.5 t-152.5 -250t-81 -93.5q-20 0 -44 8.5t-36 20.5v4q171 222 289 459q-13 15 -45 94q-190 520 -291 737zM360 1063q-9 12 11 53q33 72 90 172.5t71 100.5h3q16 0 40.5 -12t36.5 -27q16 -14 -6 -39q-94 -108 -207 -283q-16 8 -39 35z"/>
<glyph unicode="þ" horiz-adv-x="1030" d="M147 1372q56 21 93 21q7 0 11 -7t7.5 -37.5t3.5 -88.5v-488q176 141 326 141q55 0 106 -14t99.5 -47.5t84 -83t57 -126t21.5 -171.5q0 -135 -60.5 -248t-171.5 -180.5t-249 -67.5q-61 0 -119.5 19.5t-95.5 44.5v-426q0 -22 -6.5 -29.5t-28.5 -15.5q-41 -6 -75 -6 q6 59 6 381v798v398q0 141 -9 233zM260 123q100 -64 217 -64q37 0 75.5 7t93 33.5t95 69.5t70 125t29.5 191q0 45 -10.5 90t-34 87.5t-56 75.5t-80.5 53t-104 20q-90 0 -169 -41t-126 -86v-561z"/>
<glyph unicode="ÿ" horiz-adv-x="831" d="M45 874q16 13 43 26t41 13q22 0 31 -20q27 -62 140 -369.5t138 -369.5q65 134 151 374.5t122 384.5q51 4 73 -14q21 -18 7 -63q-1 -4 -14.5 -45.5t-17.5 -53t-18 -54t-20.5 -62t-21.5 -61.5t-25 -69t-25.5 -68.5t-28.5 -75t-29.5 -73t-33.5 -77.5q-64 -146 -151.5 -302.5 t-152.5 -250t-81 -93.5q-20 0 -44 8.5t-36 20.5v4q171 222 289 459q-13 15 -45 94q-190 520 -291 737zM205 1171q0 35 21 58.5t57 23.5h2q29 0 49 -22t20 -53q0 -39 -21 -60.5t-54 -21.5q-32 0 -53 19t-21 56zM518 1171q0 36 21 59t57 23h2q30 0 50 -22.5t20 -52.5 q0 -39 -21.5 -60.5t-56.5 -21.5q-29 0 -50.5 19t-21.5 56z"/>
<glyph unicode="Œ" horiz-adv-x="1900" d="M84 618q0 139 46.5 265.5t128 221t202 150.5t260.5 56q161 0 287 -64t192 -186v192q39 15 88 25h531q-15 -46 -37 -66q-13 -12 -40.5 -15t-99.5 -3h-331v-494h485q-11 -56 -34 -70t-87 -14h-364v-526q50 -18 262 -18q218 0 297 10l2 -4q-15 -69 -80 -82q-50 -8 -219 -8 q-256 0 -346 22l-27 33v199q-76 -134 -207 -203.5t-291 -69.5q-131 0 -238 40t-176.5 104.5t-116.5 150.5t-67 174.5t-20 179.5zM205 627q0 -120 32 -223.5t93 -183.5t158.5 -125.5t220.5 -45.5q80 0 149.5 18t134.5 61t111.5 109t74 169.5t27.5 234.5q0 105 -16.5 191 t-44 146.5t-67 106t-82 73t-93.5 44.5t-96.5 23t-95.5 6q-93 0 -182 -39t-162 -112t-117.5 -190.5t-44.5 -260.5v-2z"/>
<glyph unicode="œ" horiz-adv-x="1607" d="M72 436q0 130 52.5 238t153.5 173.5t232 65.5q135 0 224.5 -59.5t146.5 -187.5q44 113 136.5 180t217.5 67q76 0 137.5 -27.5t99.5 -73.5t59 -103t23 -119q0 -44 -4 -62q-4 -23 -66.5 -42t-111.5 -21q-216 -7 -438 0q-5 -180 85 -287.5t253 -107.5q64 0 128.5 17.5 t102.5 35.5l4 -4q-5 -31 -24.5 -61.5t-44.5 -43.5q-27 -13 -82.5 -26t-108.5 -13q-132 0 -231.5 63t-141.5 181q-108 -244 -370 -244q-95 0 -171 28.5t-124 75t-79.5 108t-44.5 123.5t-13 126zM188 440q0 -183 93.5 -286t228.5 -103q41 0 80 9.5t83 36.5t76.5 69.5t54 116.5 t21.5 170q0 178 -87 281.5t-234 103.5h-2q-138 0 -226 -106.5t-88 -291.5zM942 545q70 -1 152 -1.5t137.5 0t104.5 1t53 0.5q55 3 55 43q3 108 -60.5 180t-171.5 72h-2q-102 0 -173.5 -84t-94.5 -211z"/>
<glyph unicode="Ÿ" horiz-adv-x="1114" d="M39 1257v7q49 22 94 22q14 0 31 -19t51 -67q86 -127 356 -508q57 76 225 311t197 283q22 0 62 -14q37 -13 -6 -70q-23 -31 -210 -285t-206 -278q-21 -26 -21 -78v-311q0 -123 6 -246q-29 -16 -94 -16q-14 0 -19 7t-5 30v522q0 63 -15 84q-75 113 -223.5 322t-222.5 304z M307 1440q0 35 21.5 58.5t56.5 23.5h2q31 0 51.5 -23t20.5 -55q0 -39 -21.5 -60.5t-54.5 -21.5q-32 0 -54 19.5t-22 58.5zM672 1440q0 35 21.5 58.5t58.5 23.5h2q30 0 50.5 -22.5t20.5 -55.5q0 -39 -22 -60.5t-58 -21.5q-29 0 -51 20t-22 58z"/>
<glyph unicode="ˆ" horiz-adv-x="819" d="M207 1059q26 51 77.5 142t75.5 140q9 19 15.5 25.5t19.5 9.5q28 8 47 8q47 -96 170 -321q-28 -33 -65 -33q-14 0 -27 21q-11 25 -26 55t-39.5 75.5t-42.5 80.5q-10 -18 -52 -95t-71 -131q-12 -6 -19 -6h-2q-17 0 -37 9.5t-24 19.5z"/>
<glyph unicode="˜" horiz-adv-x="819" d="M180 1098q5 33 14.5 63t26.5 61.5t45 50.5t64 19h2q60 0 114 -69q45 -56 62 -56q37 0 55 105q5 22 23 22q16 0 53 -30q-11 -90 -45 -141.5t-92 -51.5q-22 0 -43.5 13.5t-33.5 26t-38 44.5q-22 26 -34.5 35.5t-26.5 9.5q-38 0 -66 -98q-3 -23 -16 -23q-11 0 -22 3t-26 9.5 t-16 6.5z"/>
<glyph unicode=" " horiz-adv-x="841"/>
<glyph unicode=" " horiz-adv-x="1683"/>
<glyph unicode=" " horiz-adv-x="841"/>
<glyph unicode=" " horiz-adv-x="1683"/>
<glyph unicode=" " horiz-adv-x="561"/>
<glyph unicode=" " horiz-adv-x="420"/>
<glyph unicode=" " horiz-adv-x="280"/>
<glyph unicode=" " horiz-adv-x="280"/>
<glyph unicode=" " horiz-adv-x="210"/>
<glyph unicode=" " horiz-adv-x="336"/>
<glyph unicode=" " horiz-adv-x="93"/>
<glyph unicode="‐" horiz-adv-x="589" d="M66 397q13 41 31 70.5t34 30.5q257 29 387 61l4 -4q-11 -47 -37.5 -75t-83.5 -42q-51 -14 -160.5 -30t-170.5 -17z"/>
<glyph unicode="‑" horiz-adv-x="589" d="M66 397q13 41 31 70.5t34 30.5q257 29 387 61l4 -4q-11 -47 -37.5 -75t-83.5 -42q-51 -14 -160.5 -30t-170.5 -17z"/>
<glyph unicode="‒" horiz-adv-x="589" d="M66 397q13 41 31 70.5t34 30.5q257 29 387 61l4 -4q-11 -47 -37.5 -75t-83.5 -42q-51 -14 -160.5 -30t-170.5 -17z"/>
<glyph unicode="–" horiz-adv-x="1116" d="M98 451l4 28q6 33 23 49.5t39 16.5h856l-6 -33q-12 -61 -47 -61h-869z"/>
<glyph unicode="—" horiz-adv-x="1896" d="M98 451l4 28q6 33 23 49.5t39 16.5h1636l-10 -56q-7 -38 -43 -38h-1649z"/>
<glyph unicode="‘" horiz-adv-x="329" d="M72 1034v2q0 76 35.5 169.5t70.5 135.5q11 12 20.5 19.5t29 13t46.5 4.5q-84 -178 -84 -319q0 -51 5 -74q-12 -16 -34.5 -28.5t-39.5 -12.5q-29 0 -39 24t-10 66z"/>
<glyph unicode="’" horiz-adv-x="329" d="M59 934q84 178 84 319q0 47 -4 74q11 15 34.5 28t41.5 13q47 0 47 -92v-2q0 -73 -37 -167.5t-71 -135.5q-15 -20 -36 -29t-59 -8z"/>
<glyph unicode="‚" horiz-adv-x="311" d="M14 -227q44 67 74.5 154t30.5 159q0 50 -10 88q14 14 36.5 27.5t38.5 13.5h2q20 0 33 -19.5t17 -42t4 -44.5q0 -83 -50 -184t-100 -138q-20 -17 -76 -14z"/>
<glyph unicode="“" horiz-adv-x="602" d="M72 1034v2q0 76 35.5 169.5t70.5 135.5q11 12 20.5 19.5t29 13t46.5 4.5q-84 -178 -84 -319q0 -51 5 -74q-12 -16 -34.5 -28.5t-39.5 -12.5q-29 0 -39 24t-10 66zM344 1034v2q0 75 36 169t71 136q11 12 20.5 19.5t29 13t46.5 4.5q-84 -178 -84 -319q0 -47 4 -74 q-13 -16 -35.5 -28.5t-40.5 -12.5q-28 0 -37.5 24t-9.5 66z"/>
<glyph unicode="”" horiz-adv-x="602" d="M59 934q84 178 84 319q0 47 -4 74q11 15 34.5 28t41.5 13q47 0 47 -92v-2q0 -73 -37 -167.5t-71 -135.5q-27 -39 -95 -37zM332 934q84 178 84 319q0 2 1 19.5t0 30t-5 24.5q11 15 34 28t41 13q48 0 48 -92v-2q0 -73 -36.5 -167.5t-70.5 -135.5q-31 -39 -96 -37z"/>
<glyph unicode="„" horiz-adv-x="567" d="M14 -227q44 67 74.5 154t30.5 159q0 50 -10 88q14 14 36.5 27.5t38.5 13.5q22 0 35.5 -20.5t17 -42t3.5 -43.5v-3q0 -82 -50 -182t-100 -137q-20 -17 -76 -14zM268 -227q45 66 76 153.5t31 159.5q0 50 -10 88q51 41 77 41q28 0 41 -36t13 -70v-3q0 -82 -50 -182 t-100 -137q-20 -17 -78 -14z"/>
<glyph unicode="•" horiz-adv-x="567" d="M104 487q0 75 49.5 131t131.5 56h2q78 0 127 -53.5t49 -133.5q0 -87 -50 -138.5t-134 -51.5q-70 0 -122.5 54.5t-52.5 135.5z"/>
<glyph unicode="…" horiz-adv-x="1599" d="M160 63q0 37 25.5 63t66.5 26h2q31 0 52.5 -26t21.5 -58q0 -39 -24 -65t-62 -26q-31 0 -56.5 23t-25.5 63zM692 63q0 37 25.5 63t66.5 26h2q31 0 52.5 -26t21.5 -58q0 -39 -24 -65t-62 -26q-31 0 -56.5 23t-25.5 63zM1225 63q0 37 25.5 63t66.5 26h2q31 0 52.5 -26 t21.5 -58q0 -39 -24 -65t-62 -26q-31 0 -56.5 23t-25.5 63z"/>
<glyph unicode=" " horiz-adv-x="336"/>
<glyph unicode="‹" horiz-adv-x="778" d="M102 473q222 241 332 404q35 -45 35 -86q0 -23 -54.5 -95t-121 -150.5t-74.5 -90.5q242 -301 242 -344v-2q0 -23 -12.5 -44t-32.5 -30q-171 244 -297 387q-17 27 -17 51z"/>
<glyph unicode="›" horiz-adv-x="778" d="M309 121q0 23 55 95t121 149.5t74 89.5q-2 3 -36.5 46.5t-64 82.5t-64.5 87t-56 82.5t-21 47.5v2q0 23 12.5 44t32.5 30q174 -248 297 -388q17 -27 17 -51q-30 -37 -97.5 -115.5t-127 -151t-105.5 -136.5q-37 42 -37 86z"/>
<glyph unicode=" " horiz-adv-x="420"/>
<glyph unicode="€" d="M20 463q12 54 27 68t57 14h46q0 82 2 119h-95q12 54 26.5 67.5t57.5 13.5h21q17 94 55.5 179t96.5 155.5t142 112t181 41.5q79 0 134 -20t83 -48q3 -6 1.5 -17.5t-5.5 -17.5q-3 -13 -19 -21t-24 -3q-72 45 -164 45q-138 0 -241 -101.5t-132 -304.5h482q-1 -29 -7 -46 t-20 -24.5t-25.5 -9t-35.5 -1.5h-402q-3 -60 0 -119h434q-10 -54 -26.5 -68t-65.5 -14h-336q23 -194 116 -300t245 -106q52 0 114 17.5t99 40.5l4 -6q0 -50 -37 -82q-23 -22 -78.5 -37t-124.5 -15q-200 0 -313 126.5t-137 361.5h-136z"/>
<glyph unicode="™" horiz-adv-x="890" d="M55 1251q11 23 25 33q8 -2 88 -2h219q0 -28 -33 -47h-108v-227q0 -22 1 -45t1 -25l-43 -6q-17 0 -17 12v291h-120q-16 0 -13 16zM383 938q2 9 25.5 128.5t37.5 182.5l-6 23q24 12 52 12q2 0 3 -0.5t2.5 -3t3 -5.5t4 -9t5 -13t7.5 -18t11 -23l84 -176q20 47 121 232v6 q23 10 45 10q5 0 8 -18l31 -203q5 -33 13.5 -74.5t9.5 -50.5q-20 -10 -54 -10q-14 0 -14 14q-2 16 -6 49t-6 49l-19 152q-40 -78 -123 -250q-23 -4 -32 -4q-24 60 -107 244q-15 -109 -41 -240q-1 -9 -3.5 -11.5t-8.5 -2.5q-23 0 -43 10z"/>
<glyph unicode="◼" horiz-adv-x="911" d="M0 0v911h911v-911h-911z"/>
</font>
</defs>
</svg>
