<?xml version="1.0" encoding="UTF-8" standalone="no"?>
<!DOCTYPE svg PUBLIC "-//W3C//DTD SVG 1.1//EN" "http://www.w3.org/Graphics/SVG/1.1/DTD/svg11.dtd">
<svg xmlns="http://www.w3.org/2000/svg">
<metadata>
This is a custom SVG webfont generated by Font Squirrel.
Copyright   : Copyright c 20042006 by FOUNTAINPeter Bruhn Sweden All rights reserved Designed by Randy Jones
Designer    : Randy Jones
Foundry URL : httpwwwfountaintypecom
</metadata>
<defs>
<font id="EasonProRegular" horiz-adv-x="1064">
<font-face units-per-em="2048" ascent="1536" descent="-512"/>
<missing-glyph horiz-adv-x="456"/>
<glyph unicode=" " horiz-adv-x="456"/>
<glyph unicode="	" horiz-adv-x="456"/>
<glyph unicode=" " horiz-adv-x="456"/>
<glyph unicode="!" horiz-adv-x="546" d="M147 70q0 59 35 99t115 40q102 0 102 -113q0 -57 -34.5 -98t-106.5 -41q-111 0 -111 113zM172 1298q41 25 98 25l97 -25l-58 -950q-8 -12 -39 -12q-14 0 -23 3t-14 5l-2 4z"/>
<glyph unicode="&quot;" horiz-adv-x="649" d="M51 969v487q43 25 101 25l98 -25l-121 -487q-8 -12 -39 -13q-14 0 -23.5 3.5t-13.5 7.5zM399 969v487q43 25 101 25l98 -25l-121 -487q-8 -12 -39 -13q-14 0 -23 3.5t-14 7.5z"/>
<glyph unicode="#" d="M8 354q0 27 21 58h215q18 129 67 374h-209q-23 23 -22 56q0 35 20 59h232l63 367q27 16 62 16q33 0 61 -20q-55 -319 -63 -363h260l63 367q23 16 59.5 16t61.5 -20q-57 -319 -63 -363h204q18 -18 19 -55q0 -41 -19 -60h-225l-67 -374h192q18 -37 18 -56q0 -23 -18 -59 h-209l-65 -356q-27 -20 -60 -21q-25 0 -63 23q57 311 63 354h-260l-61 -356q-27 -20 -62 -21q-39 0 -61 23q53 311 61 354h-194q-21 26 -21 57zM369 412h260l65 374h-260z"/>
<glyph unicode="$" d="M121 147l10 107q12 12 37 12t35 -10q2 -88 83 -145.5t206 -59.5v484q-72 25 -106 37t-93.5 41.5t-87 59t-51 79t-23.5 110.5q0 131 98.5 220t262.5 108v139q18 10 43 10l38 -10v-133h2q80 0 142.5 -12.5t85.5 -24.5l22 -12q20 -18 21 -92l-12 -103q-8 -8 -35 -8 q-25 0 -35 8q-4 152 -191 164v-428q74 -29 109 -42t96.5 -47t90 -66.5t53 -86t24.5 -118.5q0 -135 -102.5 -229.5t-270.5 -116.5v-158q-10 -12 -36 -12l-45 12v151h-19q-74 0 -158 10.5t-131 22.5l-47 10q-16 53 -16 129zM301 924q0 -74 49 -120t142 -85v397 q-90 -10 -140.5 -61t-50.5 -131zM573 57q90 16 143.5 70.5t53.5 134.5q0 92 -51 147.5t-146 96.5v-449z"/>
<glyph unicode="%" horiz-adv-x="1472" d="M96 961q0 139 89 229t216 90q125 0 209 -86t84 -219q0 -139 -85 -228.5t-220 -89.5q-125 0 -209 83.5t-84 220.5zM176 -37l1004 1348q16 0 34.5 -12.5t28.5 -24.5l10 -14l-1005 -1354q-23 0 -41.5 14t-24.5 29zM242 1001q0 -109 44 -191.5t126 -82.5q74 0 106.5 58.5 t32.5 144.5q0 106 -43 193t-127 87q-63 0 -101 -53.5t-38 -155.5zM778 293q0 139 89 229t216 90q125 0 209 -86t84 -219q0 -139 -85 -228t-220 -89q-125 0 -209 83t-84 220zM924 334q0 -109 44 -192t126 -83q74 0 106.5 58.5t32.5 144.5q0 106 -43 193.5t-127 87.5 q-63 0 -101 -53.5t-38 -155.5z"/>
<glyph unicode="&amp;" horiz-adv-x="1400" d="M53 367q0 254 291 421q-92 147 -92 242q0 111 108.5 210t198.5 99q131 0 193.5 -62.5t62.5 -154.5q0 -100 -81 -186t-152 -86q-25 6 -25 51q45 16 76 64.5t31 111.5q0 68 -35 107t-101 39q-63 0 -105 -30t-42 -85q0 -113 174 -330t389 -418q16 66 17 132q0 170 -91 333 l33 56h320q25 -39 0 -74l-181 -14q23 -98 23 -215q0 -156 -55 -279q57 -51 118.5 -101.5t94.5 -74.5l32 -25l93 78q16 0 29.5 -11t13.5 -32q-20 -43 -96 -103.5t-99 -60.5q-80 0 -283 181q-178 -184 -450 -185q-172 0 -291 120t-119 282zM217 430q0 -141 87 -231t220 -90 q211 0 316 108q-307 291 -463 514q-160 -104 -160 -301z"/>
<glyph unicode="'" horiz-adv-x="301" d="M51 969v487q43 25 101 25l98 -25l-121 -487q-8 -12 -39 -13q-14 0 -23.5 3.5t-13.5 7.5z"/>
<glyph unicode="(" horiz-adv-x="589" d="M102 578q0 481 316 927l96 -24q-236 -432 -235 -903q0 -223 50 -410.5t191 -495.5l-96 -22q-164 258 -243 477.5t-79 450.5z"/>
<glyph unicode=")" horiz-adv-x="589" d="M70 -328q141 307 191 494.5t50 411.5q0 471 -235 903l96 24q315 -446 315 -927q0 -231 -78.5 -450.5t-242.5 -477.5z"/>
<glyph unicode="*" horiz-adv-x="741" d="M104 1311q0 25 9 49q14 37 37 59l141 -69l78 -54l-27 93l-23 155q25 14 68 15q16 0 32.5 -3.5t24.5 -7.5l9 -4l-23 -155l-29 -95l82 56l138 67q25 -20 38 -57q6 -25 7 -45l-2 -25l-156 -30h-96l77 -54l109 -114q-12 -27 -45 -52q-33 -23 -64 -26l-73 139l-29 88l-35 -88 l-69 -139q-33 4 -66 26q-14 10 -25.5 23.5t-15.5 21.5l-2 7l109 114l75 58h-96l-156 26q-2 9 -2 21z"/>
<glyph unicode="+" d="M137 350v90h350v351h91v-351h350v-90h-350v-350h-91v350h-350z"/>
<glyph unicode="," horiz-adv-x="460" d="M102 -279q119 145 119 216q0 43 -39 63l-2 2q-53 33 -53 86q0 45 36 81t99 36q117 0 117 -113q0 -221 -219 -418q-23 0 -40.5 14.5t-17.5 32.5z"/>
<glyph unicode="-" horiz-adv-x="718" d="M94 471q0 35 12.5 58.5t24.5 27.5l10 6h492q0 -37 -11.5 -59.5t-23.5 -28.5l-10 -4h-494z"/>
<glyph unicode="." horiz-adv-x="518" d="M143 68q0 137 148 137q104 0 104 -113q0 -57 -34.5 -97t-106.5 -40q-111 0 -111 113z"/>
<glyph unicode="/" horiz-adv-x="788" d="M-4 -119l696 1495h133l-696 -1495h-133z"/>
<glyph unicode="0" horiz-adv-x="1114" d="M59 501.5q0 229.5 141.5 379t356.5 149.5t356.5 -149.5t141.5 -379t-141.5 -379t-356.5 -149.5t-356.5 149.5t-141.5 379zM252 473q14 -195 110.5 -312.5t231.5 -105.5q133 12 209 145.5t59 329.5q-14 195 -110.5 313t-231.5 105q-133 -12 -208.5 -145t-59.5 -330z"/>
<glyph unicode="1" horiz-adv-x="698" d="M107.5 34q-1.5 34 17.5 34q102 0 125.5 24.5t23.5 114.5v495q0 111 11 158l-140 -49q-18 4 -25 25.5t5 40.5l321 145l23 -27q-23 -86 -23 -268v-651h146q12 -14 9 -39t-15 -37h-461q-16 0 -17.5 34z"/>
<glyph unicode="2" horiz-adv-x="1007" d="M78 41l309 305q127 127 184.5 209t57.5 174q0 82 -53.5 137.5t-137.5 55.5q-176 0 -282 -215q-23 -8 -42.5 1t-23.5 29q18 98 133 193.5t254 95.5q152 0 247 -77t95 -222q0 -70 -72.5 -164t-148.5 -163.5t-248 -213.5q-35 -31 -53 -45l49 4h371q68 0 103.5 24t62.5 87 q6 8 18 7t24.5 -11t10.5 -19q-55 -158 -86 -233h-621q-102 0 -133 -10z"/>
<glyph unicode="3" horiz-adv-x="843" d="M12 -348q0 31 21 41q227 0 366.5 118.5t139.5 288.5q0 268 -263 269h-124q-12 12 -13 34q0 27 13 37q160 68 219 145t59 175q0 72 -41 117t-110 45q-121 0 -179 -109q-2 -6 -12 -6q-14 0 -33.5 14.5t-19.5 24.5v2q31 88 111.5 135t166.5 47q133 0 219 -69.5t86 -196.5 q0 -57 -26.5 -105.5t-55 -72t-78.5 -56t-65 -45.5q139 -10 232.5 -101t93.5 -232q0 -219 -197.5 -380t-488.5 -161q-21 14 -21 41z"/>
<glyph unicode="4" horiz-adv-x="1036" d="M68 166l639 860l41 8q20 0 34 -8v-784h203q8 -8 12 -21.5t4 -23.5v-11q0 -41 -16 -49h-203v-475q-27 -16 -86 -16q-57 0 -84 16v475h-520zM227 242h385v528z"/>
<glyph unicode="5" horiz-adv-x="917" d="M125 -326q0 33 18 41q209 14 336 126t127 294q0 174 -123 245t-340 71v528h441q74 0 97.5 12.5t47.5 63.5q4 6 14 6q14 0 33 -11.5t19 -21.5v-2q-18 -78 -99 -199h-440v-256q106 0 196.5 -19.5t170 -63.5t126 -124.5t46.5 -191.5q0 -213 -187.5 -369.5t-464.5 -173.5 q-8 4 -12 15.5t-4 19.5z"/>
<glyph unicode="6" horiz-adv-x="1067" d="M113 442q0 201 92 389.5t277.5 327.5t426.5 174q27 -43 -2 -78q-158 -33 -278.5 -115.5t-191 -192t-106.5 -227.5t-36 -239q0 -178 74.5 -300t191.5 -122t180.5 89.5t63.5 234.5q0 178 -106.5 248.5t-272.5 -27.5q-20 39 0 76q98 72 201.5 80t179.5 -37t125 -130t49 -190 q0 -176 -124 -302t-296 -126q-215 0 -331.5 132t-116.5 335z"/>
<glyph unicode="7" horiz-adv-x="1007" d="M82 737v2q6 14 40 115.5t48 138.5h618q104 0 136 11l18 -48l-328 -696q-20 -45 -51 -115.5t-83 -228.5t-52 -244q-23 -8 -55 -8q-68 0 -119 41q16 59 534 1120q-12 -4 -36 -4h-441q-35 0 -60.5 -5t-43 -21.5t-24.5 -22.5t-20 -32.5t-16 -28.5q-4 -6 -14 -6 q-14 0 -32.5 11t-18.5 21z"/>
<glyph unicode="8" horiz-adv-x="987" d="M92 319q0 215 281 371q-238 129 -238 318q0 150 109.5 237.5t275.5 87.5q152 0 248 -79.5t96 -213.5q0 -180 -246 -305q129 -74 203 -167t74 -234q0 -164 -114.5 -262.5t-295.5 -98.5q-172 0 -282.5 92t-110.5 254zM242 330q0 -123 70.5 -204t185.5 -81q113 0 177 66.5 t64 183.5q0 215 -299 356q-198 -106 -198 -321zM287 1048.5q0 -92.5 71.5 -157t192.5 -121.5q174 104 174 266q0 94 -61.5 160t-157.5 66q-104 0 -161.5 -60.5t-57.5 -153z"/>
<glyph unicode="9" horiz-adv-x="1114" d="M113 598q0 176 123.5 302t295.5 126q215 0 332 -132t117 -335q0 -201 -92 -389t-277.5 -327.5t-427.5 -174.5q-27 43 2 78q158 33 279 116t191.5 192.5t106.5 227t36 238.5q0 178 -75 300t-191.5 122t-180 -89t-63.5 -235q0 -178 106.5 -248.5t272.5 27.5q20 -39 0 -75 q-98 -72 -202 -80.5t-179.5 37t-124.5 130.5t-49 189z"/>
<glyph unicode=":" horiz-adv-x="675" d="M170 68q0 137 147 137q104 0 105 -113q0 -57 -35 -97t-106 -40q-111 0 -111 113zM170 758q0 141 147 141q104 0 105 -111q0 -59 -35 -100t-106 -41q-111 0 -111 111z"/>
<glyph unicode=";" horiz-adv-x="700" d="M170 -279q119 145 119 216q0 43 -39 63l-2 2q-53 33 -53 86q0 45 35.5 81t99.5 36q117 0 116 -113q0 -221 -219 -418q-23 0 -40 14.5t-17 32.5zM193 758q0 141 145 141q104 0 104 -111q0 -59 -34.5 -100t-106.5 -41q-108 0 -108 111z"/>
<glyph unicode="&lt;" d="M137 350v90l791 363v-121l-662 -287l662 -286v-121z"/>
<glyph unicode="=" d="M137 188v107h791v-107h-791zM137 496v106h791v-106h-791z"/>
<glyph unicode="&gt;" d="M137 -12v121l662 286l-662 287v121l791 -363v-90z"/>
<glyph unicode="?" horiz-adv-x="782" d="M147 68q0 59 34 98t112 39q106 0 106 -113q0 -57 -34.5 -97t-106.5 -40q-111 0 -111 113zM147 635l43 45h183q123 0 166 104t-31 211q-84 121 -272 144q-14 39 -4 105.5t40 90.5q207 -47 306 -256q86 -180 45 -354q-39 -158 -166 -186q-23 -4 -47 -4h-146v-181 q-16 -16 -38.5 -16t-39.5 16z"/>
<glyph unicode="@" horiz-adv-x="1923" d="M131 383q0 190 76 365.5t205 306.5t313 208.5t391 77.5q299 0 487.5 -178t188.5 -450.5t-199.5 -479t-462.5 -206.5q-25 0 -24 77q0 51 12 140q4 35 12 86q-178 -303 -393 -303q-80 0 -126 56t-46 171q0 145 55.5 279.5t139.5 224.5t181 144t185 54q104 0 146 -75l71 100 l62 -18q-51 -176 -64 -271q-61 -465 -61 -532q0 -20 6 -37q154 29 273.5 201t119.5 364q0 262 -162.5 413.5t-453.5 151.5q-199 0 -354.5 -80.5t-244.5 -212t-134 -280t-45 -299.5q0 -299 183 -496.5t482 -197.5q162 0 310.5 50t218.5 99l67 49q25 -20 25 -57 q-8 -10 -26.5 -26.5t-83 -57.5t-138.5 -72.5t-194.5 -57.5t-251.5 -26q-324 0 -535 210t-211 585zM750 324q0 -168 90 -168q80 0 161.5 81.5t143.5 194.5l33 252q0 63 -32 118.5t-102 55.5q-92 0 -161.5 -86t-101 -204.5t-31.5 -243.5z"/>
<glyph unicode="A" horiz-adv-x="1413" d="M53 0q-11 18 -11 34t11 29q68 8 95.5 31t50.5 80l450 1147q12 10 36 10t36 -10l485 -1147q25 -57 51.5 -76.5t104.5 -34.5q16 -15 16 -32q0 -15 -12 -31h-451q-16 16 -15 32q0 15 13 31l131 17q-16 20 -43 84l-135 323q-12 -8 -39 -8h-335q-55 0 -80 -6 q-129 -367 -144 -393l144 -17q12 -8 12 -30.5t-10 -32.5h-361zM440 553h361l37 6l-211 514z"/>
<glyph unicode="B" horiz-adv-x="1257" d="M96 33.5q0 23.5 15 34.5l143 10v1151l-131 12q-14 10 -14 33.5t14 34.5h237q31 0 136.5 6t154.5 6q424 0 424 -303q0 -90 -64.5 -163t-174.5 -120q45 -14 74.5 -24.5t81.5 -40t85 -64.5t58.5 -95t25.5 -134q0 -188 -127 -287.5t-346 -99.5q-106 0 -221 5t-205 5h-151 q-15 10 -15 33.5zM442 78q119 -18 238 -19q139 0 217 81t78 208q0 139 -84 233.5t-264 94.5q-70 0 -127 -6q-17 20 -17.5 42t17.5 46q68 -6 137 -6q109 0 184.5 61t75.5 178q0 125 -71.5 194.5t-204.5 69.5q-84 0 -179 -14v-1163z"/>
<glyph unicode="C" horiz-adv-x="1456" d="M104 610q0 305 221.5 513t505.5 208q186 0 373 -82l27 56q12 4 23 4q22 0 38 -17q-45 -170 -55 -356q-14 -14 -34.5 -14t-35.5 14v147q-102 174 -352 174q-188 0 -336.5 -171t-148.5 -457q0 -162 56 -290t187.5 -211t319.5 -83q115 0 203 63.5t112 153.5l19 72 q18 10 32 10q24 0 37 -29q-20 -131 -82 -299q-74 -45 -397 -45q-307 0 -510 174t-203 465z"/>
<glyph unicode="D" horiz-adv-x="1490" d="M98 32.5q0 24.5 15 35.5l141 10v1151l-129 12q-14 10 -14 33.5t14 34.5h221q100 0 203.5 4t132.5 4q297 0 497.5 -172t200.5 -467q0 -303 -190.5 -498.5t-484.5 -195.5q-98 0 -184.5 8t-160.5 8h-247q-15 8 -15 32.5zM442 82q115 -27 258 -27q203 0 336 155t133 435 q0 256 -135 427t-372 171q-145 0 -220 -16v-1145z"/>
<glyph unicode="E" horiz-adv-x="1236" d="M96 32.5q0 24.5 15 35.5l141 10v1151l-129 12q-14 10 -14 33.5t14 34.5h909l-10 -277q-13 -15 -28.5 -15t-32.5 15l-11 127q-98 82 -276 82q-121 0 -234 -10v-494q96 -8 248 -8q141 0 176 51l23 82q15 13 31 14l30 -14l-12 -368q-10 -10 -29.5 -10.5t-29.5 10.5l-13 104 q-31 55 -186 55q-131 0 -238 -12v-561q125 -14 281 -14q213 0 285 120l43 123q14 16 35.5 15.5t31.5 -23.5l-51 -309q-156 8 -389 8h-565q-15 8 -15 32.5z"/>
<glyph unicode="F" horiz-adv-x="1150" d="M88 30.5q0 22.5 14 32.5q82 6 112 26t30 73v1067l-129 12q-14 10 -14.5 33.5t14.5 34.5h909l-10 -277q-13 -15 -28.5 -15t-33.5 15l-10 127q-98 82 -276 82q-121 0 -234 -10v-524q96 -8 248 -9q168 0 203 52l22 81q15 13 31 14l31 -14l-13 -368q-8 -10 -28.5 -10 t-30.5 10l-12 104q-31 55 -213 56q-131 0 -238 -13v-530l238 -14q14 -10 14 -33t-14 -33h-568q-14 8 -14 30.5z"/>
<glyph unicode="G" horiz-adv-x="1503" d="M106 635q0 303 201 499.5t512 196.5q205 0 342 -80l15 62q14 12 34.5 9t30.5 -17q-1 -24 -1 -50q0 -131 26 -329q-12 -14 -35 -13.5t-39 13.5l-27 118q-102 213 -362 213q-209 0 -341 -153.5t-132 -433.5q0 -262 142 -443.5t409 -181.5q70 0 141.5 15.5t95.5 35.5v463 l-194 19q-14 8 -14.5 34.5t14.5 34.5h440q14 -10 14 -34.5t-14 -34.5q-39 -10 -52.5 -23.5t-13.5 -46.5v-455q-53 -33 -189 -58q-126 -24 -236 -24h-17q-334 0 -542 181.5t-208 482.5z"/>
<glyph unicode="H" horiz-adv-x="1677" d="M100 66q86 4 120 20t34 55v1088l-141 12q-14 12 -14.5 34.5t14.5 33.5h467q14 -10 14 -33t-14 -35q-84 -4 -111 -19.5t-27 -56.5v-463q16 12 52 13h702q31 0 39 6v508l-137 12q-14 12 -14.5 34.5t14.5 33.5h461q14 -10 14 -33t-14 -35q-82 -4 -109 -19.5t-27 -56.5v-1089 l148 -8q14 -10 14 -34t-14 -34h-473q-14 10 -13.5 31.5t13.5 34.5q82 4 109.5 19t27.5 56v496q-10 -6 -37 -6h-711q-33 0 -45 -4v-549l138 -10q14 -10 14 -34t-14 -34h-480q-13 10 -13 29q0 24 13 37z"/>
<glyph unicode="I" horiz-adv-x="747" d="M125 1275.5q0 22.5 14 33.5h469q14 -10 14.5 -33t-14.5 -35q-98 -4 -119.5 -15.5t-21.5 -60.5v-1087l141 -10q14 -10 14.5 -34t-14.5 -34h-469q-14 10 -13 31.5t13 34.5q82 4 111 19t29 56v1088l-140 12q-14 12 -14 34.5z"/>
<glyph unicode="J" horiz-adv-x="811" d="M-119 -385q6 49 37 100.5t74 73.5q61 -98 186 -98q190 0 191 354v1174l-205 22q-12 12 -12 33.5t12 34.5h551q10 0 14 -18q2 -9 2 -17.5t-2 -18.5q-4 -18 -14 -18q-113 -2 -135.5 -20.5t-22.5 -102.5v-1024q0 -102 -41 -194.5t-100.5 -152.5t-126 -106.5t-118.5 -67 t-79 -20.5q-66 0 -128.5 18.5t-82.5 47.5z"/>
<glyph unicode="K" horiz-adv-x="1474" d="M109 1275.5q0 22.5 14 33.5h469q14 -10 14 -33t-14 -35q-98 -4 -119.5 -15.5t-21.5 -60.5v-473h108l19 17l507 518l-153 16q-11 17 -12 32q0 18 16 34h428q16 -10 12 -32t-18 -32q-74 -8 -113 -32.5t-172 -143.5l-387 -377q143 -176 326.5 -361.5t279.5 -240.5 q51 -29 160 -35q3 -12 3 -21q0 -27 -23 -42q-94 -8 -196 -11q-23 -1 -43 -1q-65 0 -85 8q-270 211 -549 577q-12 14 -29 39h-79v-526l141 -10q14 -10 14 -34t-14 -34h-469q-14 10 -13 31.5t13 34.5q82 4 110.5 19t28.5 56v1088l-139 12q-14 12 -14 34.5z"/>
<glyph unicode="L" horiz-adv-x="1150" d="M106 32.5q0 24.5 15 35.5l141 10v1151l-137 12q-14 12 -14 34.5t14 33.5h508q14 -10 14 -33t-14 -35q-125 -6 -153.5 -19.5t-28.5 -72.5v-1069q125 -14 260 -14q213 0 284 120l43 123q14 16 36 15.5t32 -23.5l-51 -309q-156 8 -389 8h-545q-15 8 -15 32.5z"/>
<glyph unicode="M" horiz-adv-x="1853" d="M102 1275.5q0 22.5 15 33.5h338l487 -1051l453 1051h336q12 -10 12 -33t-12 -35l-125 -10v-1147l133 -16q12 -12 12 -35t-12 -33h-451q-12 10 -12 32.5t12 35.5q80 4 104.5 19t24.5 56v953l-495 -1110q-8 -10 -29 -10.5t-31 10.5q-424 889 -518 1101v-1007l170 -12 q12 -12 13 -35t-13 -33h-397q-14 10 -13.5 32.5t13.5 35.5q84 4 106.5 33.5t22.5 134.5v929q0 41 -24.5 56.5t-104.5 19.5q-15 12 -15 34.5z"/>
<glyph unicode="N" horiz-adv-x="1574" d="M66 1275.5q0 22.5 14 33.5h317l848 -1030v952l-160 10q-12 12 -12 34.5t12 33.5h412q12 -10 12 -33t-12 -35q-100 0 -127 -15.5t-27 -66.5v-1179q-14 -14 -45 -17h-9q-24 0 -40 8l-889 1082v-973l205 -12q12 -12 12.5 -35t-12.5 -33h-479q-12 10 -12 32.5t12 35.5 q94 6 135 38.5t41 131.5v917q-55 57 -89 70.5t-93 15.5q-14 12 -14 34.5z"/>
<glyph unicode="O" horiz-adv-x="1611" d="M113 635q0 299 206.5 497.5t503.5 198.5q283 0 479.5 -187.5t196.5 -479.5q0 -301 -197.5 -497t-504.5 -196q-291 0 -487.5 183.5t-196.5 480.5zM334 733q0 -172 51 -323.5t170 -258t285 -106.5q115 0 202.5 46t137 122t74 163t24.5 181q0 121 -26.5 238.5t-81 224 t-155 172t-233.5 65.5q-190 0 -319 -138t-129 -386z"/>
<glyph unicode="P" horiz-adv-x="1138" d="M98 30.5q0 22.5 15 32.5q88 10 114.5 32t26.5 81v1055l-129 10q-14 10 -14 33.5t14 34.5h170q90 0 180 6t127 6q221 0 342 -103.5t121 -279.5q0 -137 -84 -235.5t-210 -135.5q-76 -22 -153 -22q-52 0 -104 10q-11 16 -11 35.5t11 42.5q55 -15 104 -15q94 0 161 56 q101 84 102 248q0 147 -77 240t-212 93q-76 0 -150 -16v-1159l185 -14q14 -8 14 -33t-14 -33h-514q-15 8 -15 30.5z"/>
<glyph unicode="Q" horiz-adv-x="1611" d="M113 639q0 299 206.5 497.5t501.5 198.5q283 0 480.5 -187t197.5 -480q0 -256 -145.5 -438.5t-382.5 -235.5q37 -66 68.5 -113t91 -107.5t125 -96t166.5 -57.5q73 -16 156 -15q31 0 64 2q15 -12 15 -31q0 -12 -6 -27q-109 -20 -213 -20q-90 0 -172 17.5t-140.5 40 t-117 65.5t-90 69.5t-72.5 77.5t-51.5 66.5t-36.5 56.5q-25 37 -47 58q-260 29 -429 208t-169 451zM334 737q0 -172 51 -323.5t169 -258t284 -106.5q115 0 202.5 45t138 122t75 164t24.5 181t-15.5 188.5t-52 188.5t-92 165t-142.5 115t-194 44q-193 0 -320.5 -138.5 t-127.5 -386.5z"/>
<glyph unicode="R" horiz-adv-x="1394" d="M98 30.5q0 20.5 15 30.5q92 8 116.5 26.5t24.5 92.5v1051l-131 10q-12 10 -12 33.5t12 34.5h162q98 0 206.5 6t143.5 6q201 0 321.5 -100.5t120.5 -255.5q0 -100 -66.5 -189.5t-185.5 -140.5q233 -408 387 -526q63 -49 160 -50q9 -14 9 -27q0 -20 -15 -30 q-29 -10 -134 -16q-45 -3 -78 -3q-43 0 -62 5q-143 29 -430 600q-53 -8 -113 -8q-51 0 -107 6v-451q0 -37 -10 -57l168 -10q14 -10 14 -34t-14 -34h-487q-15 10 -15 30.5zM442 668q69 -14 129 -14q112 0 193 47q125 73 125 260q0 129 -76 211.5t-211 82.5q-80 0 -160 -14 v-573z"/>
<glyph unicode="S" horiz-adv-x="1056" d="M129 160q0 78 6 119q12 12 31.5 12t32.5 -10q2 -100 92 -169t217 -69q119 0 194.5 68.5t75.5 175.5q0 92 -47 158.5t-118.5 100.5t-154.5 72.5t-155 73.5t-119 103.5t-47 162.5q0 164 123 268.5t322 104.5q182 0 254 -57q4 -10 8 -36t4 -46l2 -21q0 -80 -6 -114 q-10 -10 -30.5 -10t-31.5 10q-2 82 -60 139t-183 57q-104 0 -168 -64.5t-64 -162.5q0 -76 48 -131t120 -86t157 -71t156.5 -80t119.5 -117.5t48 -182.5q0 -170 -135 -281.5t-342 -111.5q-166 0 -336 51q-14 60 -14 144z"/>
<glyph unicode="T" horiz-adv-x="1345" d="M72 1049l37 307q11 10 26 10q4 0 8 -1q20 -3 33 -19l6 -41l496 -9q408 0 512 9l16 51q14 10 35 7t33 -17l-35 -308q-15 -9 -29 -9q-21 0 -41 20l7 112q-12 20 -63.5 34.5t-96.5 18.5l-43 5h-207v-1135l170 -16q12 -12 13 -35t-13 -33h-530q-12 10 -12.5 32.5t12.5 35.5 q111 4 141.5 22.5t30.5 83.5v1045h-193q-172 -10 -215 -58l-31 -123q-12 -10 -25 -10q-19 1 -42 21z"/>
<glyph unicode="U" horiz-adv-x="1495" d="M68 1275.5q0 22.5 14 33.5h508q12 -10 12 -33t-12 -35q-106 -4 -133 -23.5t-27 -82.5v-674q0 -178 100.5 -280.5t268.5 -102.5q182 0 280.5 118.5t98.5 311.5v715l-158 18q-14 12 -14 34.5t14 33.5h383q12 -10 12 -33t-12 -35q-78 -2 -101.5 -19.5t-23.5 -76.5v-643 q0 -252 -147.5 -391.5t-368.5 -139.5q-227 0 -373.5 111t-146.5 317v824l-160 18q-14 12 -14 34.5z"/>
<glyph unicode="V" horiz-adv-x="1454" d="M90 1243q-14 17 -14 33q0 17 16 33h492q8 -12 7 -27q0 -17 -9 -39l-189 -16q14 -14 43 -84l385 -893l353 977l-177 16q-12 10 -12 32.5t10 33.5h377q13 -16 13 -33q0 -16 -11 -33q-53 -4 -78.5 -26.5t-48.5 -83.5l-438 -1147q-8 -10 -37 -11q-31 0 -41 11l-502 1147 q-25 57 -51.5 79.5t-87.5 30.5z"/>
<glyph unicode="W" horiz-adv-x="2179" d="M106 1243q-13 16 -12 32q0 17 15 34h428q8 -12 7 -27q0 -17 -9 -39l-142 -16q12 -12 43 -84l383 -893l246 692l-82 191q-25 55 -50.5 77.5t-70.5 32.5q-14 17 -14 33q0 17 16 33h492q10 -18 10 -34q0 -17 -12 -32l-195 -18q20 -41 391 -975q117 317 342 971l-168 22 q-12 8 -12 32.5t10 33.5h367q13 -16 13 -33q0 -16 -11 -33q-78 -16 -115 -110l-440 -1147q-10 -10 -35.5 -10.5t-36.5 10.5l-344 825l-315 -825q-10 -10 -36 -10.5t-38 10.5l-502 1147q-25 53 -51.5 76.5t-71.5 33.5z"/>
<glyph unicode="X" horiz-adv-x="1511" d="M92 33.5q0 21.5 12 34.5q129 12 215 127l345 446l-349 496q-39 57 -72.5 79.5t-92.5 26.5q-12 12 -12.5 32.5t12.5 33.5h505q12 -12 12.5 -32t-12.5 -32l-170 -22l322 -459l340 459l-178 22q-10 8 -10.5 30.5t10.5 33.5h399q10 -10 10 -31t-10 -33q-57 -6 -96 -34.5 t-90 -96.5l-324 -424l328 -467q47 -68 95 -101.5t138 -53.5q12 -12 12.5 -34t-12.5 -34h-534q-10 10 -10.5 33.5t10.5 34.5l168 20l-334 475l-350 -475l168 -20q12 -12 12 -34t-12 -34h-433q-12 12 -12 33.5z"/>
<glyph unicode="Y" horiz-adv-x="1423" d="M113 1309h516q12 -12 10 -32t-14 -32l-170 -14l342 -567l305 565l-172 16q-12 10 -11 30.5t13 33.5h395q11 -11 11 -29v-3q-1 -19 -13 -32q-61 -4 -95 -23.5t-71 -78.5l-328 -559v-496l175 -20q12 -12 13 -35t-13 -33h-533q-14 10 -13 32.5t13 35.5q109 4 139.5 22.5 t30.5 83.5v397l-346 559q-39 61 -76 83t-112 32q-11 11 -11 27q0 22 15 37z"/>
<glyph unicode="Z" horiz-adv-x="1339" d="M111 47l819 1172h-455q-160 0 -235 -45l-41 -125q-35 -12 -58 12l39 307q17 12 31 12q16 0 29 -14l2 -51q90 -6 514 -6h411l25 -47l-821 -1174h534q178 0 234 47l37 144q13 4 25 4q22 0 40 -15l-43 -327q-11 -7 -27 -8h-5q-19 1 -31 12l-5 47q-158 8 -532 8h-463z"/>
<glyph unicode="[" horiz-adv-x="569" d="M84 -283v1721h432q8 0 8 -33q0 -31 -8 -31h-248v-1593h248q8 0 8 -33q0 -31 -8 -31h-432z"/>
<glyph unicode="\" horiz-adv-x="788" d="M-23 1376h134l696 -1495h-133z"/>
<glyph unicode="]" horiz-adv-x="569" d="M45 -250q0 31 8 31h248v1593h-248q-8 0 -8 33q0 31 8 31h432v-1721h-432q-8 0 -8 33z"/>
<glyph unicode="^" horiz-adv-x="655" d="M82 973l248 327l256 -325q-20 -49 -72 -49l-188 217l-181 -215q-45 0 -63 45z"/>
<glyph unicode="_" horiz-adv-x="1024" d="M0 -154h1024v-102h-1024v102z"/>
<glyph unicode="`" horiz-adv-x="462" d="M45 1270q0 33 29.5 64.5t68.5 31.5l256 -285q0 -25 -14 -41t-37 -16z"/>
<glyph unicode="a" horiz-adv-x="978" d="M88 174q0 125 117 203t413 96v172q0 86 -34.5 131t-132.5 45q-88 0 -134 -20q-22 -45 -22 -87q0 -16 4 -32q-27 -16 -78 -31.5t-84 -15.5q-16 11 -16 29q0 21 22 53q63 88 180 141t228 53q240 0 240 -249v-586h143q12 -12 12 -29q0 -14 -8 -31l-244 -34l-39 24l-20 86 q-176 -117 -313 -117q-111 0 -172.5 59.5t-61.5 139.5zM272 207q0 -55 33 -92t98 -37q90 0 215 80v243q-346 -14 -346 -194z"/>
<glyph unicode="b" horiz-adv-x="1087" d="M-20 1434l331 98l25 -27q-35 -113 -35 -284v-430h2q152 119 318 118q156 0 261 -105.5t105 -316.5q0 -244 -149.5 -380t-356.5 -136q-139 0 -258 64l-47 -88h-61q8 82 12 164t4 122v41v928q0 104 31 164h-172q-15 17 -15 40q1 14 5 28zM301 170q96 -113 244 -113 q115 0 195.5 101.5t80.5 267.5t-78.5 260t-207.5 94q-125 0 -234 -84v-526z"/>
<glyph unicode="c" horiz-adv-x="897" d="M88 391q0 217 150.5 367.5t347.5 150.5q82 0 156.5 -34.5t86.5 -69.5q2 -7 3 -15q0 -24 -25 -52q-33 -36 -76 -54q-127 115 -248 127q-111 -20 -171 -111.5t-60 -230.5q0 -172 92 -276.5t231 -104.5q104 0 222 70q12 0 24.5 -15.5t9.5 -33.5q-152 -135 -342 -136 q-168 0 -284.5 108.5t-116.5 309.5z"/>
<glyph unicode="d" horiz-adv-x="1161" d="M100 393q0 244 148.5 380t355.5 136q92 0 182 -30v290q0 137 31 197h-170q-16 16 -15 38q0 13 5 30l332 98l24 -27q-35 -113 -35 -284v-1145h152q12 -12 12 -29q0 -14 -8 -31l-295 -34l-26 30v107h-9q-59 -61 -148 -104.5t-169 -43.5q-156 0 -261.5 105.5t-105.5 316.5z M266 455q0 -166 79 -260.5t208 -94.5q119 0 233 105v506q-96 113 -243 112q-115 0 -196 -101t-81 -267z"/>
<glyph unicode="e" horiz-adv-x="995" d="M88 408q0 231 144.5 366t334.5 135q156 0 247 -122q61 -82 61 -196q0 -57 -15 -122h-608q-1 -16 -1 -30q0 -164 83 -254q90 -97 229 -97q129 0 266 88q39 -6 35 -49q-164 -154 -383 -154q-168 0 -280.5 110t-112.5 325zM254 528l434 25q4 27 5 52q0 68 -33 128 q-44 82 -144 82q-106 0 -177 -75t-85 -212z"/>
<glyph unicode="f" horiz-adv-x="696" d="M68 59q76 0 112.5 26t36.5 97v602h-121q-10 10 -10 24.5t10 22.5q84 18 121 52v129q0 213 148.5 359.5t312.5 146.5q59 0 116.5 -24t63.5 -58v-5q0 -24 -40 -65q-44 -45 -83 -59q-80 78 -166 108q-100 -31 -139 -116t-39 -242v-199h256q16 -8 16.5 -32.5t-16.5 -41.5 h-256v-714h223q12 -14 10.5 -37t-16.5 -33h-547q-15 7 -14 28q0 31 21 31z"/>
<glyph unicode="g" horiz-adv-x="974" d="M37 -262q0 45 30.5 83t64.5 56.5t91.5 43t75.5 34.5l-2 12q-166 31 -166 129q0 45 38 93.5t95 80.5q-197 92 -196 297q0 150 111.5 247t275.5 97q125 0 217 -59l246 41q16 -20 16 -53t-16 -54h-193q88 -84 88 -229q0 -129 -96 -226.5t-283 -97.5q-61 0 -123 13 q-61 -37 -61 -86q0 -66 104 -74l269 -25q182 -16 255.5 -81.5t73.5 -174.5q0 -141 -150.5 -226t-348.5 -85q-195 0 -305.5 63.5t-110.5 180.5zM201 -219q0 -92 107.5 -145.5t250.5 -53.5q131 0 204 46t73 128q0 141 -218 162l-165 16q-15 2 -31 2q-72 0 -139 -40 q-82 -49 -82 -115zM236 608q0 -119 55 -212t158 -93q98 0 148 68.5t50 158.5q0 117 -51 212.5t-160 95.5q-86 0 -143 -60.5t-57 -169.5z"/>
<glyph unicode="h" horiz-adv-x="1155" d="M45 1434l332 98l24 -27q-33 -106 -32 -284v-338q0 -68 -9 -131h11q184 158 352 157q115 0 184.5 -80.5t69.5 -230.5v-448q0 -47 -19 -80h142q11 -16 10 -31q0 -20 -18 -39h-404q-16 4 -16 31.5t16 27.5q117 12 117 123v381q0 100 -51.5 154.5t-135.5 54.5 q-123 0 -247 -106v-596h123q12 -14 10 -37t-17 -33h-405q-16 0 -17.5 29.5t17.5 29.5q63 8 90 38t27 96v1009q0 104 30 164h-174q-16 13 -15 37q0 14 5 31z"/>
<glyph unicode="i" horiz-adv-x="600" d="M53 29.5q0 29.5 17 29.5q152 18 151 123v385q0 137 31 197l-176 20q-14 8 -15.5 33t9.5 33l319 49l25 -27q-20 -111 -21 -284v-518h146q10 -11 9 -28q0 -26 -16 -42h-462q-17 0 -17 29.5zM190 1202q0 117 123 117q88 0 88 -94q0 -49 -29.5 -83t-90.5 -34q-91 0 -91 94z "/>
<glyph unicode="j" horiz-adv-x="526" d="M-184 -442q0 92 71 143q121 -80 228 -80q72 59 71 240v739q0 104 31 164l-184 20q-14 8 -15.5 33t9.5 33l325 49l25 -27q-20 -111 -21 -284v-537q0 -264 -118.5 -414.5t-276.5 -150.5q-82 0 -113.5 17.5t-31.5 54.5zM164 1202q0 117 123 117q86 0 86 -94q0 -49 -29 -83 t-90 -34q-90 0 -90 94z"/>
<glyph unicode="k" horiz-adv-x="1093" d="M46 1396q-1 7 -1 13q0 13 4 25l332 98l25 -27q-35 -113 -35 -284v-734h75q123 104 306 279l-140 55q-8 12 -6 31.5t12 30.5h377q16 -2 16.5 -30t-18.5 -30q-61 -10 -106 -34.5t-109 -81.5l-203 -185l338 -346q100 -104 160 -117q15 -2 15 -24q0 -12 -6 -22 q-7 -13 -15 -13h-373q-10 10 -10 31.5t12 29.5l109 5l-316 325q-2 2 -13 12.5t-19 14.5h-86v-348h100q12 -14 9 -36t-15 -34h-383q-16 0 -16 29.5t16 29.5q66 8 91.5 34t25.5 89v987q0 137 30 197h-170q-10 8 -13 30z"/>
<glyph unicode="l" horiz-adv-x="575" d="M57 1434l332 98l25 -27q-33 -106 -33 -284v-1078q0 -57 -27 -73h160q9 -14 9 -31q0 -25 -15 -39h-408q-16 0 -16 29.5t16 29.5q109 12 109 127v983q0 137 31 197h-172q-16 14 -16 37q0 14 5 31z"/>
<glyph unicode="m" horiz-adv-x="1687" d="M57 29.5q0 27.5 17 29.5q68 10 97.5 36t29.5 87v385q0 137 30 197l-157 18q-16 14 -17 36q0 13 6 30l275 51l24 -27v-120h11q164 156 323 155q162 0 219 -159h11q170 162 329 161q111 0 179.5 -82t68.5 -229v-448q0 -47 -22 -80h155q11 -16 11 -31q0 -20 -19 -39h-403 q-16 4 -16.5 31.5t16.5 27.5q106 10 106 123v381q0 100 -47 154.5t-123 54.5q-115 0 -223 -108v-514q0 -55 -10 -80h110q11 -16 11 -31q0 -20 -19 -39h-371q-16 4 -16 31.5t16 27.5q106 10 107 123v381q0 100 -48 154.5t-124 54.5q-115 0 -221 -106v-596h110 q12 -14 10.5 -37t-16.5 -33h-403q-17 2 -17 29.5z"/>
<glyph unicode="n" horiz-adv-x="1157" d="M59 29.5q0 27.5 17 29.5q68 10 97.5 36t29.5 87v385q0 137 30 197l-157 18q-16 14 -17 36q0 13 7 30l274 51l25 -27v-120h10q184 158 352 157q115 0 184.5 -80.5t69.5 -230.5v-448q0 -47 -18 -80h141q11 -16 10 -31q0 -20 -18 -39h-404q-16 4 -16 31.5t16 27.5 q117 12 117 123v381q0 100 -51 154.5t-135 54.5q-123 0 -248 -106v-596h145q12 -14 10 -37t-16 -33h-438q-17 2 -17 29.5z"/>
<glyph unicode="o" horiz-adv-x="1107" d="M80 430q0 195 145.5 338t339.5 143q193 0 328 -124.5t135 -335.5q0 -197 -139 -338.5t-342 -141.5q-197 0 -332 122t-135 337zM264 492q0 -176 86 -304.5t230 -128.5q117 0 189.5 89.5t72.5 240.5q0 174 -89 304t-233 130q-113 0 -184.5 -90.5t-71.5 -240.5z"/>
<glyph unicode="p" horiz-adv-x="1140" d="M39 -483.5q0 28.5 16 28.5q68 10 98.5 36t30.5 87v897q0 137 31 197l-164 20q-15 16 -15 35q0 14 9 31l281 51l22 -27v-110h8q162 147 317.5 147t261 -105.5t105.5 -316.5q0 -244 -148.5 -380t-352.5 -136q-96 0 -185 31v-371q0 -45 -22 -75h227q11 -16 11 -31 q0 -20 -19 -39h-496q-16 2 -16 30.5zM354 170q96 -113 244 -113q115 0 195.5 101.5t80.5 267.5t-78.5 260t-207.5 94q-117 0 -234 -104v-506z"/>
<glyph unicode="q" horiz-adv-x="1138" d="M100 393q0 244 148.5 380t355.5 136q129 0 256 -61l55 90h60q-8 -82 -12.5 -164t-4.5 -123v-41v-909q0 -115 -22 -145h192q11 -16 11 -31q0 -20 -19 -39h-463q-16 0 -16 29.5t16 29.5q68 10 98.5 49t30.5 144v381h-2q-59 -61 -148 -104.5t-169 -43.5q-156 0 -261.5 105.5 t-105.5 316.5zM266 455q0 -166 79 -260.5t208 -94.5q119 0 233 105v506q-96 113 -243 112q-115 0 -196 -101t-81 -267z"/>
<glyph unicode="r" horiz-adv-x="782" d="M59 29.5q0 27.5 17 29.5q68 10 97.5 36t29.5 87v385q0 137 30 197l-163 18q-10 18 -11 37q0 14 7 29l266 51l22 -27v-178h6q72 90 153 150.5t136 60.5q39 0 86 -19.5t47 -47.5q0 -27 -34.5 -74t-61.5 -70q-61 51 -137 66q-92 -47 -174 -139v-551h221q12 -14 10 -37 t-16 -33h-514q-17 2 -17 29.5z"/>
<glyph unicode="s" horiz-adv-x="817" d="M89 117q1 72 11 104q4 10 24.5 10t29.5 -12q0 -82 60 -131t161 -49q84 0 135 47t51 121q0 37 -15.5 64.5t-48 48t-59 33t-73.5 30.5q-63 25 -95 40t-78.5 46t-67 75t-20.5 101q0 115 100.5 189.5t252.5 74.5q90 0 182 -24q7 -38 7 -86.5t-7 -108.5q0 -12 -23.5 -11 t-27.5 11q0 70 -46 109t-124 39q-74 0 -123 -41t-49 -103q0 -33 15 -59.5t48 -48t59.5 -32.5t73.5 -30q68 -25 100.5 -40t82 -46.5t71 -77t21.5 -106.5q0 -123 -102.5 -202t-258.5 -79q-111 0 -256 33q-11 36 -11 100v11z"/>
<glyph unicode="t" horiz-adv-x="688" d="M38 827q0 26 13 35q96 0 159.5 76t86.5 186q8 16 36.5 16.5t33.5 -16.5v-262h282q12 -16 12.5 -42.5t-12.5 -45.5h-282v-520q0 -186 125 -186q74 0 133 51l22 -13q14 -12 17 -24q-90 -111 -234 -111q-129 0 -181 66.5t-52 218.5v518l-142 12q-17 9 -17 41z"/>
<glyph unicode="u" horiz-adv-x="1146" d="M34 817q0 18 9 33l287 49l22 -27q-20 -111 -20 -284v-277q0 -205 184 -205q121 0 248 109v379q0 102 33 164l-172 24q-14 14 -15 33q0 16 11 35l313 49l24 -27q-23 -121 -22 -284v-512h151q12 -12 13 -29q0 -14 -8 -31l-291 -34l-27 30v117h-10q-184 -158 -350 -158 q-254 0 -254 314v309q0 106 30 164l-143 24q-13 12 -13 35z"/>
<glyph unicode="v" horiz-adv-x="931" d="M2 845q0 11 4 21q6 14 14 17h400q10 -14 10 -28q0 -17 -14 -34l-129 -6l198 -477q29 -66 56 -162h4q16 66 49 162l162 477l-107 6q-10 12 -9 30.5t9 31.5h283q13 -6 13 -29v-3q-1 -26 -15 -26q-39 -2 -62.5 -29.5t-52.5 -95.5l-283 -723q-17 -10 -34 -10l-35 10l-313 703 q-35 82 -65 111.5t-71 31.5q-12 0 -12 22z"/>
<glyph unicode="w" horiz-adv-x="1413" d="M23 883h362q8 -10 6 -31t-10 -31l-113 -6l199 -539q18 -59 22 -92h5q16 57 30 92l148 381l-31 80q-16 43 -36.5 64.5t-65.5 21.5q-10 0 -12.5 13.5t4 29t16.5 17.5h383q10 -11 10 -25q0 -16 -12 -37l-133 -6l196 -539q20 -61 25 -92h4q16 61 29 92l172 539l-121 6 q-8 14 -9 28q0 17 13 34h291q9 -6 9 -28v-4q-1 -26 -11 -28q-37 -2 -61.5 -29.5t-49.5 -93.5l-276 -723l-31 -6q-23 0 -39 6l-225 578l-232 -578l-30 -6q-20 0 -39 6l-256 646q-41 100 -70 148t-66 52q-13 2 -12 22q0 31 17 38z"/>
<glyph unicode="x" horiz-adv-x="974" d="M3 14q-1 6 -1 13q0 8 2 16q4 14 12 16q115 27 211 164l164 201q-55 74 -184 276q-39 61 -72 88t-80 35q-16 4 -11 32t17 28h367q10 -15 10 -30q0 -16 -12 -32l-96 -6l182 -276l213 276l-111 6q-8 12 -6 31.5t10 30.5h300q10 0 13 -14.5t-1 -29t-15 -16.5 q-61 -8 -101 -34.5t-81 -88.5l-180 -225q66 -82 201 -293q66 -104 172 -123q15 -2 15 -21q0 -38 -19 -38h-398q-10 13 -10 28.5t10 32.5h105l-201 304l-205 -304h94q8 -10 6.5 -31.5t-10.5 -29.5h-299q-8 0 -11 14z"/>
<glyph unicode="y" horiz-adv-x="950" d="M-18 846q0 12 6 23q6 13 16 14h424q10 -10 9 -29.5t-13 -32.5l-141 -14l209 -563q18 -51 30 -105h4l242 668l-115 14q-10 10 -10 29.5t8 32.5h289q16 0 18 -26q0 -3 1 -6q0 -20 -13 -24q-43 -8 -63.5 -32.5t-48.5 -94.5l-271 -643q-166 -397 -188 -606q-45 -11 -82 -10 q-62 0 -98 31q29 78 117.5 232.5t129.5 252.5q-223 551 -270 666q-78 199 -178 204q-12 1 -12 19z"/>
<glyph unicode="z" horiz-adv-x="931" d="M74 43l542 776q-31 -12 -284 -26q-125 0 -182 -131q-18 -4 -35 5t-19 21l70 197l510 -6q100 0 123 10l30 -60l-538 -770q35 12 78 17.5t233 13.5q76 4 125 35t80 104q16 8 34.5 0t20.5 -24l-67 -209l-568 8q-104 0 -135 -10z"/>
<glyph unicode="{" horiz-adv-x="569" d="M66 551q86 27 116.5 78t30.5 153v361q0 86 25.5 145.5t73.5 87t100.5 38.5t124.5 11v-45q-86 -23 -121 -82t-35 -168v-319q0 -109 -48 -170t-159 -88v-4q111 -27 159 -88.5t48 -169.5v-320q0 -109 35 -168t121 -82v-45q-72 0 -124.5 11.5t-100.5 39t-73.5 87t-25.5 145.5 v360q0 102 -30.5 153.5t-116.5 78.5z"/>
<glyph unicode="|" horiz-adv-x="454" d="M184 -98v1505q23 10 52 10l45 -10v-1505q-12 -12 -43 -13q-14 0 -27.5 3.5t-20.5 5.5z"/>
<glyph unicode="}" horiz-adv-x="569" d="M33 -279q86 23 120.5 82.5t34.5 167.5v320q0 109 48.5 170t158.5 88v4q-111 27 -159 88t-48 170v319q0 109 -34.5 168.5t-120.5 81.5v45q72 0 124 -11t100 -38.5t73.5 -87t25.5 -145.5v-361q0 -102 31 -153t117 -78q-86 -27 -117 -78t-31 -154v-360q0 -86 -25.5 -145.5 t-73.5 -87t-100.5 -39t-123.5 -11.5v45z"/>
<glyph unicode="~" horiz-adv-x="761" d="M47 1094q2 18 9 43.5t45 68.5t96 43q68 0 198.5 -36.5t194.5 -36.5l57 79q16 0 27.5 -7t13.5 -15l4 -8q-2 -6 -6 -17.5t-18.5 -41t-30.5 -51t-43 -40t-57 -18.5q-86 0 -211 34.5t-193 34.5l-43 -59z"/>
<glyph unicode="¡" horiz-adv-x="485" d="M70 737q0 57 34.5 98.5t106.5 41.5q111 0 111 -113q0 -59 -35 -99t-115 -40q-102 -1 -102 112zM102 -465l58 950q8 12 39 13q14 0 23 -3t11 -8l5 -2l59 -950q-41 -25 -98 -24z"/>
<glyph unicode="¢" d="M117 432q0 209 157.5 383t358.5 195l35 166q-4 10 47 0q31 -6 30 -15l-30 -151q82 -8 151.5 -44t79.5 -69q12 -35 -24.5 -76t-83.5 -59q-74 66 -152 106l-156 -776q55 -16 117 -16q121 0 264 82q12 0 25.5 -17.5t11.5 -38.5q-150 -131 -370 -131q-23 0 -72 4l-31 -155 q2 -18 -61 2q-20 8 -19 12l31 158q-137 39 -223 150.5t-86 289.5zM287 508q0 -276 168 -383l157 776l-49 10q-121 -33 -198.5 -148.5t-77.5 -254.5z"/>
<glyph unicode="£" d="M47 51l197 144v288h-168q-10 14 -10 35l10 33h168v201q0 86 40 161.5t98 126t123.5 88t117 54t77.5 16.5q72 0 123 -13.5t68 -25.5l16 -14q0 -29 -41 -87.5t-69 -58.5q-57 80 -181 80q-182 0 -182 -291v-237h268q10 -10 11 -33l-11 -35h-268v-121q0 -129 -102 -200 q74 -4 290 -27.5t277 -23.5l62 84q39 0 57 -33q-2 -8 -6 -21.5t-19.5 -47.5t-33 -60.5t-46 -48t-59.5 -21.5q-94 0 -352 38t-330 38l-80 -45q-45 0 -45 57z"/>
<glyph unicode="¤" horiz-adv-x="1073" d="M156 616q0 127 75 232l-75 76l75 77l76 -75q102 76 232 75q135 0 233 -79l78 77l72 -73l-76 -76q78 -104 78 -234q0 -131 -78 -231l76 -76l-76 -76l-76 76q-100 -76 -231 -76q-129 0 -232 76l-76 -76l-71 72l73 76q-77 100 -77 235zM242 616q0 -125 86 -211t211 -86 q127 0 213 86.5t86 211t-87 211.5t-212 87t-211 -86t-86 -213z"/>
<glyph unicode="¥" d="M-9 1128.5q1 18.5 11 30.5h442q10 -10 11.5 -31.5t-11.5 -31.5l-125 -17l299 -467l242 469l-123 15q-12 10 -12 31.5t12 31.5h326q12 -10 12 -31.5t-12 -31.5q-51 -2 -79 -22.5t-60 -67.5l-273 -455h287q10 -10 10 -33l-10 -35h-291v-114h291q10 -10 10 -31l-10 -37h-291 v-223l148 -19q14 -10 14 -30.5t-14 -28.5h-471q-12 8 -12.5 28.5t12.5 30.5q92 4 114.5 22.5t22.5 80.5v139h-283q-12 12 -12 35q0 8 3 16t7 13l2 4h283v114h-283q-12 14 -12 35l12 33h271l-279 444q-59 92 -168 101q-12 14 -11 32.5z"/>
<glyph unicode="¦" horiz-adv-x="454" d="M172 0v518h111v-518h-111zM172 866v518h111v-518h-111z"/>
<glyph unicode="§" d="M198.5 622.5q-22.5 92.5 7.5 206t120 234.5v4q0 82 38.5 149.5t94 104.5t106.5 56.5t86 19.5q127 0 211 -64q-2 -45 -32.5 -96t-65.5 -66q-29 55 -76 86t-90 31q-82 0 -126 -49t-44 -106q0 -51 41 -115t100.5 -126.5t125 -135t114.5 -156.5t71.5 -175t-7 -205 t-119.5 -234v-4q0 -82 -39 -150t-94.5 -104.5t-106.5 -56t-86 -19.5q-127 0 -211 63q2 45 33 96.5t65 65.5q29 -55 76 -86t90 -31q82 0 126 49.5t44 106.5q0 51 -41 114.5t-100 126t-125 135.5t-115 155.5t-71.5 175zM306.5 760q15.5 -92 81 -189.5t135 -168t137 -165 t85.5 -180.5q43 137 28 229.5t-80.5 190.5t-135.5 168t-137.5 165t-85.5 181q-43 -139 -27.5 -231z"/>
<glyph unicode="¨" horiz-adv-x="774" d="M131 1104q0 104 109 104q76 0 75 -82q0 -104 -104 -104q-80 0 -80 82zM459 1104q0 104 108 104q76 0 76 -82q0 -45 -25.5 -74.5t-78.5 -29.5q-80 0 -80 82z"/>
<glyph unicode="©" horiz-adv-x="1638" d="M170 649.5q0 274.5 189.5 470t460 195.5t460.5 -195.5t190 -470t-190 -470t-460.5 -195.5t-460 195.5t-189.5 470zM268 649.5q0 -241.5 161 -412.5t390.5 -171t391 171t161.5 412.5t-161.5 412.5t-391 171t-390.5 -171t-161 -412.5zM420 647q0 174 106.5 282.5 t284.5 108.5q131 0 246 -49l22 37q10 6 19 6q23 0 28 -14l-39 -238q-8 -8 -24 -8t-25 8l-6 101q-23 39 -85 69.5t-148 30.5q-111 0 -177.5 -79t-66.5 -230q0 -145 78 -239.5t233 -94.5q6 0 16.5 1t39 6t52 14.5t48.5 30t35 46.5l20 60q8 8 25 8q29 0 28 -19 q-8 -45 -16 -79.5t-14 -53t-12.5 -29t-10.5 -12.5l-2 -4q-47 -29 -258 -28q-178 0 -287.5 100t-109.5 268z"/>
<glyph unicode="ª" horiz-adv-x="657" d="M92 657q0 170 303 187v106q0 111 -80 111q-53 0 -67 -14q-16 -39 -10 -74q-57 -29 -119 -29q-20 14 4 51q41 57 112.5 90t141.5 33q145 0 145 -157v-361h70q6 -6 6 -21.5t-4 -25.5l-143 -21l-29 15l-12 57q-109 -76 -191 -76q-61 0 -94 40t-33 89zM223 680q0 -78 66 -78 q43 0 106 49v142q-172 -11 -172 -113z"/>
<glyph unicode="«" horiz-adv-x="884" d="M47 553q0 29 328 264q45 -6 45 -76l-219 -172l219 -200q0 -25 -17.5 -54.5t-40.5 -31.5q-315 239 -315 270zM397 553q0 29 328 264q45 -6 45 -76l-219 -172l219 -200q0 -25 -17.5 -54.5t-39.5 -31.5q-316 239 -316 270z"/>
<glyph unicode="¬" d="M137 510v106h791v-434h-105v328h-686z"/>
<glyph unicode="­" horiz-adv-x="718" d="M94 471q0 35 12.5 58.5t24.5 27.5l10 6h492q0 -37 -11.5 -59.5t-23.5 -28.5l-10 -4h-494z"/>
<glyph unicode="®" horiz-adv-x="829" d="M139 1143q0 119 82 201.5t199 82.5q115 0 196.5 -82.5t81.5 -201.5t-81.5 -204t-196.5 -85q-117 0 -199 85t-82 204zM205 1143q0 -96 61.5 -162t153.5 -66q100 0 164 80q-51 -4 -64 -2q-43 10 -100 129q-10 -2 -25 -2v-92q0 -8 -2 -10q6 0 17.5 -1t15.5 -1q4 -2 2 -9.5 t-6 -9.5h-115q-4 2 -4 8.5t4 8.5q14 2 17.5 5t3.5 17v230h-23q-10 10 0 20h43q12 0 28.5 1t20.5 1h27q49 0 78.5 -22.5t29.5 -57.5q0 -45 -57 -73q53 -84 84 -111q12 -10 39 -10q37 59 37 129q0 94 -62.5 159.5t-152.5 65.5q-92 0 -153.5 -65.5t-61.5 -159.5zM395 1143 q31 -4 50.5 13.5t19.5 51.5q0 25 -13.5 43.5t-35.5 18.5q-18 0 -21 -2v-125z"/>
<glyph unicode="¯" horiz-adv-x="681" d="M51 1065q0 35 11.5 58.5t23.5 27.5l12 6h578q0 -37 -11.5 -60.5t-21.5 -27.5l-12 -4h-580z"/>
<glyph unicode="°" horiz-adv-x="819" d="M115 1022q0 123 86 208t208.5 85t209 -85t86.5 -208t-86.5 -208t-209 -85t-208.5 85t-86 208zM193 1022q0 -92 63 -157.5t153.5 -65.5t154 65.5t63.5 157.5t-63.5 157.5t-154 65.5t-153.5 -65.5t-63 -157.5z"/>
<glyph unicode="±" d="M137 0v106h791v-106h-791zM137 418v106h344v267h103v-267h344v-106h-344v-250h-103v250h-344z"/>
<glyph unicode="²" horiz-adv-x="565" d="M31 829l170 207q51 63 73.5 95t43 79t20.5 93q0 55 -27.5 83.5t-72.5 28.5q-98 0 -144 -123q-41 -12 -55 17q18 72 78.5 132t152.5 60t154.5 -46t62.5 -134q0 -39 -15 -76t-50 -80t-65.5 -73.5t-88 -86t-90.5 -87.5l4 -7l27 2h199q66 0 102 78q8 4 25.5 0t21.5 -12 l-70 -172h-372q-51 0 -72 -6q-10 20 -12 28z"/>
<glyph unicode="³" horiz-adv-x="565" d="M55 817q0 16 8 29q23 -4 74 -4q104 0 164.5 48t60.5 124q0 59 -38.5 91t-104.5 32q-27 0 -88 -11q-6 8 -6 26.5t6 27.5q115 35 158 73.5t43 89.5q0 43 -26.5 69t-67.5 26q-37 0 -77 -21.5t-61 -54.5q-10 0 -22 8t-17 19q25 51 86.5 83.5t128.5 32.5q76 0 134.5 -43 t58.5 -108q0 -113 -125 -162q72 -12 118 -55t46 -113q0 -109 -108.5 -175.5t-260.5 -66.5q-31 0 -76 4q-8 17 -8 31z"/>
<glyph unicode="´" horiz-adv-x="395" d="M25 1079l256 285q39 0 68.5 -32t29.5 -64l-303 -246q-23 0 -37 16t-14 41z"/>
<glyph unicode="µ" d="M160 360v514q39 23 86 23q20 0 41.5 -6t31.5 -10l13 -7v-432q0 -190 37 -271t163 -81q100 0 155.5 65.5t78.5 151.5v567q39 23 86 23q20 0 41.5 -6t32.5 -10l10 -7v-716q0 -57 14 -90l133 12q8 -4 13.5 -14.5t5.5 -18.5v-8q0 -12 -6 -33l-265 -35q-12 0 -23 30t-18.5 82 t-7.5 114h-24q-92 -225 -318 -226q-74 0 -133 45t-74 113h-20q35 -340 141 -471q-35 -47 -121 -47q-37 0 -53 18q0 -8 -5 125t-10 314t-5 292z"/>
<glyph unicode="¶" horiz-adv-x="1228" d="M121 1118q0 186 131 296t340 110h500q8 -8 7 -27.5t-7 -28.5q-104 0 -132 -26.5t-28 -116.5v-1491l168 -20q10 -10 10 -33t-10 -31h-287v1712h-125v-1712h-287q-12 6 -11 29.5t11 34.5q111 10 139.5 31.5t28.5 111.5v725q-223 0 -335.5 117.5t-112.5 318.5z"/>
<glyph unicode="·" horiz-adv-x="618" d="M186 604q0 137 148 137q104 0 104 -112q0 -57 -34.5 -97t-106.5 -40q-111 -1 -111 112z"/>
<glyph unicode="¸" horiz-adv-x="350" d="M25 -395q147 78 147 141q0 53 -117 66l-10 34l78 154h31l-2 -90q168 -23 167 -113q0 -55 -68.5 -120.5t-195.5 -122.5q-12 0 -21 16.5t-9 34.5z"/>
<glyph unicode="¹" horiz-adv-x="565" d="M104 830.5q0 23.5 11 23.5q135 0 135 78v373q0 61 8 88q-80 -18 -106 -27q-10 4 -14.5 20.5t1.5 26.5l242 94l14 -20q-16 -76 -16 -148v-481h131q6 -8 4 -26.5t-8 -24.5h-391q-11 0 -11 23.5z"/>
<glyph unicode="º" horiz-adv-x="722" d="M68 819q0 131 87 216t214 85q121 0 203.5 -82t82.5 -207q0 -131 -83 -215t-216 -84q-123 0 -205.5 79t-82.5 208zM209 858q0 -106 45 -188t123 -82q72 0 104.5 59.5t32.5 140.5q0 104 -42 189.5t-126 85.5q-59 0 -98 -53.5t-39 -151.5z"/>
<glyph unicode="»" horiz-adv-x="884" d="M115 356l219 172l-219 201q0 25 17.5 54.5t39.5 31.5q315 -240 315 -270q0 -29 -327 -264q-45 5 -45 75zM465 356l219 172l-219 201q0 25 17.5 54.5t39.5 31.5q315 -240 316 -270q0 -29 -328 -264q-45 5 -45 75z"/>
<glyph unicode="¼" horiz-adv-x="1327" d="M104 605.5q0 23.5 11 23.5q135 0 135 78v372q0 61 8 88q-80 -18 -106 -26q-10 4 -14.5 20.5t1.5 26.5l242 94l14 -20q-16 -76 -16 -148v-481h131q6 -8 4 -26.5t-8 -24.5h-391q-11 0 -11 23.5zM221 -16l420 591l506 740h117l-557 -783l-369 -548h-117zM768 188l373 502 q12 4 30.5 4t30.5 -4v-463h76q8 -10 9 -35.5t-7 -37.5h-78v-170q-23 -8 -67 -9q-41 0 -62 9v170h-291zM864 227h209v281z"/>
<glyph unicode="½" horiz-adv-x="1466" d="M104 605.5q0 23.5 11 23.5q135 0 135 78v372q0 61 8 88q-80 -18 -106 -26q-10 4 -14.5 20.5t1.5 26.5l242 94l14 -20q-16 -76 -16 -148v-481h131q6 -8 4 -26.5t-8 -24.5h-391q-11 0 -11 23.5zM221 -16l420 591l506 740h117l-557 -783l-369 -548h-117zM932 23l170 206 q51 63 73.5 95t43 79.5t20.5 92.5q0 55 -27.5 83.5t-72.5 28.5q-98 0 -144 -123q-41 -12 -55 17q18 72 78.5 132t153 60t155 -46t62.5 -134q0 -39 -15.5 -76t-50.5 -80t-65.5 -73.5t-88 -86t-90.5 -87.5l4 -7l27 2h199q66 0 102 78q8 4 25.5 0t21.5 -12l-69 -172h-373 q-51 0 -72 -6q-10 21 -12 29z"/>
<glyph unicode="¾" horiz-adv-x="1290" d="M55 592q0 16 8 29q23 -4 74 -5q104 0 164.5 48.5t60.5 123.5q0 59 -38.5 91t-104.5 32q-27 0 -88 -10q-6 8 -6 26.5t6 26.5q115 35 158 74t43 90q0 43 -26.5 68.5t-67.5 25.5q-37 0 -77 -21.5t-61 -53.5q-10 0 -22 8t-17 18q25 51 86.5 84t128.5 33q76 0 134.5 -43 t58.5 -109q0 -113 -125 -161q72 -12 118 -55.5t46 -112.5q0 -109 -108.5 -175.5t-260.5 -66.5q-31 0 -76 4q-8 17 -8 31zM199 -16l419 591l506 740h117l-557 -783l-369 -548h-116zM721 188l373 502q12 4 30.5 4t30.5 -4v-463h76q8 -10 9 -35.5t-7 -37.5h-78v-170 q-23 -8 -68 -9q-41 0 -61 9v170h-291zM817 227h209v281z"/>
<glyph unicode="¿" horiz-adv-x="681" d="M70 104q39 158 166 187q23 4 47 4h145v180q16 16 38.5 16.5t39.5 -16.5l39 -280l-43 -45h-183q-123 0 -165 -105q-43 -104 30 -211q84 -121 273 -143q14 -39 4 -105.5t-41 -91.5q-207 47 -305 256q-86 180 -45 354zM293 737q0 57 34.5 97t106.5 40q111 0 111 -112 q0 -59 -34 -98t-112 -39q-106 -1 -106 112z"/>
<glyph unicode="À" horiz-adv-x="1413" d="M53 0q-23 37 0 63q68 8 95.5 31t50.5 80l450 1147q12 10 36 10t36 -10l485 -1147q25 -57 51.5 -76.5t104.5 -34.5q31 -29 4 -63h-451q-31 31 -2 63l131 17q-16 20 -43 84l-135 323q-12 -8 -39 -8h-335q-55 0 -80 -6q-129 -367 -144 -393l144 -17q12 -8 12 -30.5 t-10 -32.5h-361zM418 1657q0 33 29.5 64.5t68.5 31.5l256 -285q0 -25 -14.5 -41t-36.5 -16zM440 553h361l37 6l-211 514z"/>
<glyph unicode="Á" horiz-adv-x="1413" d="M53 0q-23 37 0 63q68 8 95.5 31t50.5 80l450 1147q12 10 36 10t36 -10l485 -1147q25 -57 51.5 -76.5t104.5 -34.5q31 -29 4 -63h-451q-31 31 -2 63l131 17q-16 20 -43 84l-135 323q-12 -8 -39 -8h-335q-55 0 -80 -6q-129 -367 -144 -393l144 -17q12 -8 12 -30.5 t-10 -32.5h-361zM440 553h361l37 6l-211 514zM559 1473l256 284q39 0 68.5 -31.5t29.5 -64.5l-303 -246q-23 0 -37 16.5t-14 41.5z"/>
<glyph unicode="Â" horiz-adv-x="1413" d="M53 0q-23 37 0 63q68 8 95.5 31t50.5 80l450 1147q12 10 36 10t36 -10l485 -1147q25 -57 51.5 -76.5t104.5 -34.5q31 -29 4 -63h-451q-31 31 -2 63l131 17q-16 20 -43 84l-135 323q-12 -8 -39 -8h-335q-55 0 -80 -6q-129 -367 -144 -393l144 -17q12 -8 12 -30.5 t-10 -32.5h-361zM420 1464l213 215h102l209 -217q-10 -45 -61 -45l-205 160l-201 -160q-47 0 -57 47zM440 553h361l37 6l-211 514z"/>
<glyph unicode="Ã" horiz-adv-x="1413" d="M53 0q-23 37 0 63q68 8 95.5 31t50.5 80l450 1147q12 10 36 10t36 -10l485 -1147q25 -57 51.5 -76.5t104.5 -34.5q31 -29 4 -63h-451q-31 31 -2 63l131 17q-16 20 -43 84l-135 323q-12 -8 -39 -8h-335q-55 0 -80 -6q-129 -367 -144 -393l144 -17q12 -8 12 -30.5 t-10 -32.5h-361zM371 1481q2 18 9 43.5t45 68.5t95 43q68 0 199 -36.5t194 -36.5l58 79q16 0 27.5 -8t13.5 -16l4 -6q-2 -6 -6 -17.5t-18.5 -41t-31 -51t-43 -40t-57.5 -18.5q-86 0 -211 34.5t-192 34.5l-43 -59zM440 553h361l37 6l-211 514z"/>
<glyph unicode="Ä" horiz-adv-x="1413" d="M53 0q-23 37 0 63q68 8 95.5 31t50.5 80l450 1147q12 10 36 10t36 -10l485 -1147q25 -57 51.5 -76.5t104.5 -34.5q31 -29 4 -63h-451q-31 31 -2 63l131 17q-16 20 -43 84l-135 323q-12 -8 -39 -8h-335q-55 0 -80 -6q-129 -367 -144 -393l144 -17q12 -8 12 -30.5 t-10 -32.5h-361zM430 1491q0 104 109 104q76 0 75 -82q0 -104 -104 -104q-80 0 -80 82zM440 553h361l37 6l-211 514zM758 1491q0 104 108 104q76 0 76 -82q0 -45 -25.5 -74.5t-78.5 -29.5q-80 0 -80 82z"/>
<glyph unicode="Å" horiz-adv-x="1413" d="M53 0q-23 37 0 63q68 8 95.5 31t50.5 80l450 1147q12 10 36 10t36 -10l485 -1147q25 -57 51.5 -76.5t104.5 -34.5q31 -29 4 -63h-451q-31 31 -2 63l131 17q-16 20 -43 84l-135 323q-12 -8 -39 -8h-335q-55 0 -80 -6q-129 -367 -144 -393l144 -17q12 -8 12 -30.5 t-10 -32.5h-361zM440 553h361l37 6l-211 514zM500 1546q0 76 55 126t133 50q74 0 127 -48t53 -122q0 -78 -53 -128t-135 -50q-76 0 -128 49t-52 123zM584 1548q0 -109 98 -108q102 0 102 112q0 47 -25.5 77t-72.5 30q-45 0 -73.5 -31t-28.5 -80z"/>
<glyph unicode="Æ" horiz-adv-x="1748" d="M-84 0q-14 37 12 63q68 8 101.5 31t68.5 80l637 1059l-129 8q-14 10 -14 33.5t14 34.5h1002l-11 -277q-27 -31 -61 0l-10 127q-98 82 -277 82q-121 0 -233 -10v-549q39 -2 248 -2q141 0 176 51l22 82q31 27 62 0l-13 -369q-8 -10 -28.5 -10t-30.5 10l-12 105 q-31 55 -187 55q-143 0 -237 -6v-518q125 -14 280 -14q213 0 285 120l43 123q14 16 35.5 15.5t32.5 -23.5l-52 -309q-156 8 -389 8h-557q-14 8 -14 32.5t14 35.5l142 10v518l-29 -2h-281q-47 0 -71 -4l-289 -510l139 -17q10 -10 6 -31.5t-16 -31.5h-379zM498 668h297l41 6 v555h-21z"/>
<glyph unicode="Ç" horiz-adv-x="1456" d="M104 610q0 305 221.5 513t505.5 208q186 0 373 -82l27 56q37 12 61 -13q-45 -170 -55 -356q-14 -14 -34.5 -14t-35.5 14v147q-102 174 -352 174q-188 0 -336.5 -171t-148.5 -457q0 -162 56 -290t187.5 -211t319.5 -83q115 0 203 63.5t112 153.5l19 72q49 27 69 -19 q-20 -131 -82 -299q-74 -45 -397 -45q-10 0 -28.5 1t-26.5 1v-63q168 -23 168 -113q0 -55 -68.5 -120.5t-195.5 -122.5q-12 0 -21.5 16t-9.5 35q147 78 147 141q0 53 -116 66l-11 34l66 131q-272 27 -444.5 197t-172.5 436z"/>
<glyph unicode="È" horiz-adv-x="1236" d="M96 32.5q0 24.5 15 35.5l141 10v1151l-129 12q-14 10 -14 33.5t14 34.5h909l-10 -277q-27 -31 -61 0l-11 127q-98 82 -276 82q-121 0 -234 -10v-494q96 -8 248 -8q141 0 176 51l23 82q31 27 61 0l-12 -368q-10 -10 -29.5 -10.5t-29.5 10.5l-13 104q-31 55 -186 55 q-131 0 -238 -12v-561q125 -14 281 -14q213 0 285 120l43 123q14 16 35.5 15.5t31.5 -23.5l-51 -309q-156 8 -389 8h-565q-15 8 -15 32.5zM379 1657q0 33 29.5 64.5t68.5 31.5l256 -285q0 -25 -14 -41t-37 -16z"/>
<glyph unicode="É" horiz-adv-x="1236" d="M96 32.5q0 24.5 15 35.5l141 10v1151l-129 12q-14 10 -14 33.5t14 34.5h909l-10 -277q-27 -31 -61 0l-11 127q-98 82 -276 82q-121 0 -234 -10v-494q96 -8 248 -8q141 0 176 51l23 82q31 27 61 0l-12 -368q-10 -10 -29.5 -10.5t-29.5 10.5l-13 104q-31 55 -186 55 q-131 0 -238 -12v-561q125 -14 281 -14q213 0 285 120l43 123q14 16 35.5 15.5t31.5 -23.5l-51 -309q-156 8 -389 8h-565q-15 8 -15 32.5zM543 1473l256 284q39 0 68.5 -31.5t29.5 -64.5l-303 -246q-23 0 -37 16.5t-14 41.5z"/>
<glyph unicode="Ê" horiz-adv-x="1236" d="M96 32.5q0 24.5 15 35.5l141 10v1151l-129 12q-14 10 -14 33.5t14 34.5h909l-10 -277q-27 -31 -61 0l-11 127q-98 82 -276 82q-121 0 -234 -10v-494q96 -8 248 -8q141 0 176 51l23 82q31 27 61 0l-12 -368q-10 -10 -29.5 -10.5t-29.5 10.5l-13 104q-31 55 -186 55 q-131 0 -238 -12v-561q125 -14 281 -14q213 0 285 120l43 123q14 16 35.5 15.5t31.5 -23.5l-51 -309q-156 8 -389 8h-565q-15 8 -15 32.5zM307 1464l213 215h103l208 -217q-10 -45 -61 -45l-205 160l-200 -160q-48 0 -58 47z"/>
<glyph unicode="Ë" horiz-adv-x="1236" d="M96 32.5q0 24.5 15 35.5l141 10v1151l-129 12q-14 10 -14 33.5t14 34.5h909l-10 -277q-27 -31 -61 0l-11 127q-98 82 -276 82q-121 0 -234 -10v-494q96 -8 248 -8q141 0 176 51l23 82q31 27 61 0l-12 -368q-10 -10 -29.5 -10.5t-29.5 10.5l-13 104q-31 55 -186 55 q-131 0 -238 -12v-561q125 -14 281 -14q213 0 285 120l43 123q14 16 35.5 15.5t31.5 -23.5l-51 -309q-156 8 -389 8h-565q-15 8 -15 32.5zM393 1532q0 104 109 104q76 0 76 -82q0 -104 -105 -104q-80 0 -80 82zM721 1532q0 104 108 104q76 0 76 -82q0 -45 -25.5 -74.5 t-78.5 -29.5q-80 0 -80 82z"/>
<glyph unicode="Ì" horiz-adv-x="747" d="M74 1657q0 33 29.5 64.5t68.5 31.5l256 -285q0 -25 -14.5 -41t-36.5 -16zM125 1275.5q0 22.5 14 33.5h469q14 -10 14.5 -33t-14.5 -35q-98 -4 -119.5 -15.5t-21.5 -60.5v-1087l141 -10q14 -10 14.5 -34t-14.5 -34h-469q-14 10 -13 31.5t13 34.5q82 4 111 19t29 56v1088 l-140 12q-14 12 -14 34.5z"/>
<glyph unicode="Í" horiz-adv-x="747" d="M125 1275.5q0 22.5 14 33.5h469q14 -10 14.5 -33t-14.5 -35q-98 -4 -119.5 -15.5t-21.5 -60.5v-1087l141 -10q14 -10 14.5 -34t-14.5 -34h-469q-14 10 -13 31.5t13 34.5q82 4 111 19t29 56v1088l-140 12q-14 12 -14 34.5zM287 1473l256 284q39 0 68.5 -31.5t29.5 -64.5 l-303 -246q-23 0 -37 16.5t-14 41.5z"/>
<glyph unicode="Î" horiz-adv-x="747" d="M111 1464l213 215h102l209 -217q-10 -45 -62 -45l-204 160l-201 -160q-47 0 -57 47zM125 1275.5q0 22.5 14 33.5h469q14 -10 14.5 -33t-14.5 -35q-98 -4 -119.5 -15.5t-21.5 -60.5v-1087l141 -10q14 -10 14.5 -34t-14.5 -34h-469q-14 10 -13 31.5t13 34.5q82 4 111 19 t29 56v1088l-140 12q-14 12 -14 34.5z"/>
<glyph unicode="Ï" horiz-adv-x="747" d="M117 1491q0 104 108 104q76 0 76 -82q0 -104 -104 -104q-80 0 -80 82zM125 1275.5q0 22.5 14 33.5h469q14 -10 14.5 -33t-14.5 -35q-98 -4 -119.5 -15.5t-21.5 -60.5v-1087l141 -10q14 -10 14.5 -34t-14.5 -34h-469q-14 10 -13 31.5t13 34.5q82 4 111 19t29 56v1088 l-140 12q-14 12 -14 34.5zM444 1491q0 104 109 104q76 0 76 -82q0 -45 -25.5 -74.5t-79.5 -29.5q-80 0 -80 82z"/>
<glyph unicode="Ð" horiz-adv-x="1406" d="M31 629q0 33 10 53t20 25l11 4h141v518l-129 12q-14 10 -14 33.5t14 34.5h229q100 0 199.5 4t128.5 4q295 0 494.5 -172t199.5 -467q0 -305 -188.5 -499.5t-482.5 -194.5q-98 0 -180.5 8t-155.5 8h-256q-14 8 -14.5 32.5t14.5 35.5l141 10v551h-182zM401 82 q115 -27 258 -27q203 0 336 155t133 435q0 256 -135 427t-372 171q-145 0 -220 -16v-516h342q0 -31 -9 -51.5t-19 -24.5l-10 -6h-304v-547z"/>
<glyph unicode="Ñ" horiz-adv-x="1574" d="M66 1275.5q0 22.5 14 33.5h317l848 -1030v952l-160 10q-12 12 -12 34.5t12 33.5h412q12 -10 12 -33t-12 -35q-100 0 -127 -15.5t-27 -66.5v-1179q-14 -14 -44.5 -16.5t-49.5 7.5l-889 1082v-973l205 -12q12 -12 12.5 -35t-12.5 -33h-479q-12 10 -12 32.5t12 35.5 q94 6 135 38.5t41 131.5v917q-55 57 -89 70.5t-93 15.5q-14 12 -14 34.5zM485 1481q2 18 9.5 43.5t45.5 68.5t95 43q68 0 199 -36.5t194 -36.5l57 79q16 0 27.5 -8t13.5 -16l4 -6q-2 -6 -6 -17.5t-18 -41t-30.5 -51t-43 -40t-57.5 -18.5q-86 0 -211 34.5t-193 34.5l-43 -59z "/>
<glyph unicode="Ò" horiz-adv-x="1611" d="M113 635q0 299 206.5 497.5t503.5 198.5q283 0 479.5 -187.5t196.5 -479.5q0 -301 -197.5 -497t-504.5 -196q-291 0 -487.5 183.5t-196.5 480.5zM334 733q0 -172 51 -323.5t170 -258t285 -106.5q115 0 202.5 46t137 122t74 163t24.5 181q0 121 -26.5 238.5t-81 224 t-155 172t-233.5 65.5q-190 0 -319 -138t-129 -386zM606 1657q0 33 30 64.5t69 31.5l256 -285q0 -25 -14.5 -41t-37.5 -16z"/>
<glyph unicode="Ó" horiz-adv-x="1611" d="M113 635q0 299 206.5 497.5t503.5 198.5q283 0 479.5 -187.5t196.5 -479.5q0 -301 -197.5 -497t-504.5 -196q-291 0 -487.5 183.5t-196.5 480.5zM334 733q0 -172 51 -323.5t170 -258t285 -106.5q115 0 202.5 46t137 122t74 163t24.5 181q0 121 -26.5 238.5t-81 224 t-155 172t-233.5 65.5q-190 0 -319 -138t-129 -386zM629 1473l256 284q39 0 68.5 -31.5t29.5 -64.5l-303 -246q-23 0 -37 16.5t-14 41.5z"/>
<glyph unicode="Ô" horiz-adv-x="1611" d="M113 635q0 299 206.5 497.5t503.5 198.5q283 0 479.5 -187.5t196.5 -479.5q0 -301 -197.5 -497t-504.5 -196q-291 0 -487.5 183.5t-196.5 480.5zM334 733q0 -172 51 -323.5t170 -258t285 -106.5q115 0 202.5 46t137 122t74 163t24.5 181q0 121 -26.5 238.5t-81 224 t-155 172t-233.5 65.5q-190 0 -319 -138t-129 -386zM543 1464l213 215h102l209 -217q-10 -45 -61 -45l-205 160l-201 -160q-47 0 -57 47z"/>
<glyph unicode="Õ" horiz-adv-x="1611" d="M113 635q0 299 206.5 497.5t503.5 198.5q283 0 479.5 -187.5t196.5 -479.5q0 -301 -197.5 -497t-504.5 -196q-291 0 -487.5 183.5t-196.5 480.5zM334 733q0 -172 51 -323.5t170 -258t285 -106.5q115 0 202.5 46t137 122t74 163t24.5 181q0 121 -26.5 238.5t-81 224 t-155 172t-233.5 65.5q-190 0 -319 -138t-129 -386zM483 1481q2 18 9.5 43.5t45 68.5t95.5 43q68 0 199 -36.5t194 -36.5l57 79q16 0 27.5 -8t15.5 -16l2 -6q-2 -6 -6 -17.5t-18 -41t-30.5 -51t-43 -40t-57.5 -18.5q-86 0 -211 34.5t-193 34.5l-43 -59z"/>
<glyph unicode="Ö" horiz-adv-x="1611" d="M113 635q0 299 206.5 497.5t503.5 198.5q283 0 479.5 -187.5t196.5 -479.5q0 -301 -197.5 -497t-504.5 -196q-291 0 -487.5 183.5t-196.5 480.5zM334 733q0 -172 51 -323.5t170 -258t285 -106.5q115 0 202.5 46t137 122t74 163t24.5 181q0 121 -26.5 238.5t-81 224 t-155 172t-233.5 65.5q-190 0 -319 -138t-129 -386zM549 1491q0 104 108 104q76 0 76 -82q0 -104 -104 -104q-80 0 -80 82zM877 1491q0 104 108 104q76 0 76 -82q0 -45 -25.5 -74.5t-79.5 -29.5q-79 0 -79 82z"/>
<glyph unicode="×" d="M131 72l332 323l-332 324l76 78l325 -336l326 336l76 -78l-332 -322l332 -325l-76 -78l-326 334l-325 -334z"/>
<glyph unicode="Ø" horiz-adv-x="1599" d="M113 635q0 303 204.5 500.5t503.5 197.5q195 0 355 -96l120 166q16 0 35 -13.5t29 -25.5l12 -12l-125 -164q240 -195 240 -524q0 -303 -193.5 -499t-500.5 -196q-205 0 -377 103l-119 -166q-23 0 -41 14t-25 29l-6 14l119 158q-231 190 -231 514zM330 733 q0 -283 125 -463l635 850q-129 133 -312 133q-193 0 -320.5 -136t-127.5 -384zM512 195q135 -145 324 -146q223 0 330.5 150.5t107.5 357.5q0 301 -127 490z"/>
<glyph unicode="Ù" horiz-adv-x="1495" d="M68 1275.5q0 22.5 14 33.5h508q12 -10 12 -33t-12 -35q-106 -4 -133 -23.5t-27 -82.5v-674q0 -178 100.5 -280.5t268.5 -102.5q182 0 280.5 118.5t98.5 311.5v715l-158 18q-14 12 -14 34.5t14 33.5h383q12 -10 12 -33t-12 -35q-78 -2 -101.5 -19.5t-23.5 -76.5v-643 q0 -252 -147.5 -391.5t-368.5 -139.5q-227 0 -373.5 111t-146.5 317v824l-160 18q-14 12 -14 34.5zM508 1657q0 33 29.5 64.5t68.5 31.5l256 -285q0 -25 -14 -41t-37 -16z"/>
<glyph unicode="Ú" horiz-adv-x="1495" d="M68 1275.5q0 22.5 14 33.5h508q12 -10 12 -33t-12 -35q-106 -4 -133 -23.5t-27 -82.5v-674q0 -178 100.5 -280.5t268.5 -102.5q182 0 280.5 118.5t98.5 311.5v715l-158 18q-14 12 -14 34.5t14 33.5h383q12 -10 12 -33t-12 -35q-78 -2 -101.5 -19.5t-23.5 -76.5v-643 q0 -252 -147.5 -391.5t-368.5 -139.5q-227 0 -373.5 111t-146.5 317v824l-160 18q-14 12 -14 34.5zM754 1473l256 284q39 0 68.5 -31.5t29.5 -64.5l-303 -246q-23 0 -37 16.5t-14 41.5z"/>
<glyph unicode="Û" horiz-adv-x="1495" d="M68 1275.5q0 22.5 14 33.5h508q12 -10 12 -33t-12 -35q-106 -4 -133 -23.5t-27 -82.5v-674q0 -178 100.5 -280.5t268.5 -102.5q182 0 280.5 118.5t98.5 311.5v715l-158 18q-14 12 -14 34.5t14 33.5h383q12 -10 12 -33t-12 -35q-78 -2 -101.5 -19.5t-23.5 -76.5v-643 q0 -252 -147.5 -391.5t-368.5 -139.5q-227 0 -373.5 111t-146.5 317v824l-160 18q-14 12 -14 34.5zM547 1464l213 215h102l209 -217q-10 -45 -61 -45l-205 160l-201 -160q-47 0 -57 47z"/>
<glyph unicode="Ü" horiz-adv-x="1495" d="M68 1275.5q0 22.5 14 33.5h508q12 -10 12 -33t-12 -35q-106 -4 -133 -23.5t-27 -82.5v-674q0 -178 100.5 -280.5t268.5 -102.5q182 0 280.5 118.5t98.5 311.5v715l-158 18q-14 12 -14 34.5t14 33.5h383q12 -10 12 -33t-12 -35q-78 -2 -101.5 -19.5t-23.5 -76.5v-643 q0 -252 -147.5 -391.5t-368.5 -139.5q-227 0 -373.5 111t-146.5 317v824l-160 18q-14 12 -14 34.5zM512 1491q0 104 109 104q76 0 75 -82q0 -104 -104 -104q-80 0 -80 82zM840 1491q0 104 108 104q76 0 76 -82q0 -45 -25.5 -74.5t-78.5 -29.5q-80 0 -80 82z"/>
<glyph unicode="Ý" horiz-adv-x="1423" d="M98 1276.5q2 19.5 15 32.5h516q12 -12 10 -32t-14 -32l-170 -14l342 -567l305 565l-172 16q-12 10 -11 30.5t13 33.5h395q12 -12 11 -32t-13 -32q-61 -4 -95 -23.5t-71 -78.5l-328 -559v-496l175 -20q12 -12 13 -35t-13 -33h-533q-14 10 -13 32.5t13 35.5 q109 4 139.5 22.5t30.5 83.5v397l-346 559q-39 61 -76 83t-112 32q-13 12 -11 31.5zM721 1473l256 284q39 0 68.5 -31.5t29.5 -64.5l-303 -246q-23 0 -37 16.5t-14 41.5z"/>
<glyph unicode="Þ" horiz-adv-x="1040" d="M53 1275.5q0 22.5 15 33.5h469q14 -10 14 -33t-14 -35q-98 -4 -120 -15.5t-22 -60.5v-172q123 8 160 8q223 0 347 -92t124 -245q0 -180 -178 -282.5t-381 -64.5q-23 33 0 78q162 -43 264.5 32t102.5 218q0 127 -77 209t-212 82q-76 0 -150 -16v-842l166 -10 q14 -10 14 -34t-14 -34h-493q-14 10 -13.5 31.5t13.5 34.5q82 4 110.5 19t28.5 56v1088l-139 12q-15 12 -15 34.5z"/>
<glyph unicode="ß" horiz-adv-x="1179" d="M54 29.5q-1 29.5 18 29.5q78 0 112.5 26t34.5 97v615h-119q-10 10 -10 30.5t10 28.5q86 14 119 51v90q0 100 37 188.5t90 144.5t114.5 96t109.5 57.5t77 17.5q162 0 236.5 -74.5t74.5 -203.5q0 -63 -34.5 -127t-77.5 -107t-78 -95t-35 -97q0 -43 57.5 -107.5t125 -124 t125 -144.5t57.5 -165q0 -125 -92.5 -206t-227.5 -81q-113 0 -219 49q8 104 88 146q51 -125 164 -125q61 0 95 45t34 115q0 72 -55.5 147.5t-121 129.5t-120.5 124t-55 129q0 45 33.5 97.5t73.5 93.5t74 105.5t34 129.5q0 92 -55.5 171t-153.5 79q-92 0 -147.5 -88 t-55.5 -262v-985h86q29 -33 2 -70h-407q-17 0 -18 29.5z"/>
<glyph unicode="à" horiz-adv-x="978" d="M88 174q0 125 117 203t413 96v172q0 86 -34.5 131t-132.5 45q-88 0 -134 -20q-31 -63 -18 -119q-27 -16 -78 -31.5t-84 -15.5q-35 25 6 82q63 88 180 141t228 53q240 0 240 -249v-586h143q23 -23 4 -60l-244 -34l-39 24l-20 86q-176 -117 -313 -117q-111 0 -172.5 59.5 t-61.5 139.5zM250 1270q0 33 29.5 64.5t68.5 31.5l256 -285q0 -25 -14.5 -41t-36.5 -16zM272 207q0 -55 33 -92t98 -37q90 0 215 80v243q-346 -14 -346 -194z"/>
<glyph unicode="á" horiz-adv-x="978" d="M88 174q0 125 117 203t413 96v172q0 86 -34.5 131t-132.5 45q-88 0 -134 -20q-31 -63 -18 -119q-27 -16 -78 -31.5t-84 -15.5q-35 25 6 82q63 88 180 141t228 53q240 0 240 -249v-586h143q23 -23 4 -60l-244 -34l-39 24l-20 86q-176 -117 -313 -117q-111 0 -172.5 59.5 t-61.5 139.5zM272 207q0 -55 33 -92t98 -37q90 0 215 80v243q-346 -14 -346 -194zM373 1079l256 285q39 0 68.5 -32t29.5 -64l-303 -246q-23 0 -37 16t-14 41z"/>
<glyph unicode="â" horiz-adv-x="978" d="M88 174q0 125 117 203t413 96v172q0 86 -34.5 131t-132.5 45q-88 0 -134 -20q-31 -63 -18 -119q-27 -16 -78 -31.5t-84 -15.5q-35 25 6 82q63 88 180 141t228 53q240 0 240 -249v-586h143q23 -23 4 -60l-244 -34l-39 24l-20 86q-176 -117 -313 -117q-111 0 -172.5 59.5 t-61.5 139.5zM240 1038l213 215h102l209 -217q-10 -45 -62 -45l-204 160l-201 -160q-47 0 -57 47zM272 207q0 -55 33 -92t98 -37q90 0 215 80v243q-346 -14 -346 -194z"/>
<glyph unicode="ã" horiz-adv-x="978" d="M88 174q0 125 117 203t413 96v172q0 86 -34.5 131t-132.5 45q-88 0 -134 -20q-31 -63 -18 -119q-27 -16 -78 -31.5t-84 -15.5q-35 25 6 82q63 88 180 141t228 53q240 0 240 -249v-586h143q23 -23 4 -60l-244 -34l-39 24l-20 86q-176 -117 -313 -117q-111 0 -172.5 59.5 t-61.5 139.5zM166 1094q2 18 9 43.5t45 68.5t95 43q68 0 199 -36.5t195 -36.5l57 79q16 0 27.5 -7t13.5 -15l4 -8q-2 -6 -6 -17.5t-18.5 -41t-31 -51t-43 -40t-57.5 -18.5q-86 0 -211 34.5t-192 34.5l-43 -59zM272 207q0 -55 33 -92t98 -37q90 0 215 80v243 q-346 -14 -346 -194z"/>
<glyph unicode="ä" horiz-adv-x="978" d="M88 174q0 125 117 203t413 96v172q0 86 -34.5 131t-132.5 45q-88 0 -134 -20q-31 -63 -18 -119q-27 -16 -78 -31.5t-84 -15.5q-35 25 6 82q63 88 180 141t228 53q240 0 240 -249v-586h143q23 -23 4 -60l-244 -34l-39 24l-20 86q-176 -117 -313 -117q-111 0 -172.5 59.5 t-61.5 139.5zM254 1104q0 104 108 104q76 0 76 -82q0 -104 -104 -104q-80 0 -80 82zM272 207q0 -55 33 -92t98 -37q90 0 215 80v243q-346 -14 -346 -194zM582 1104q0 104 108 104q76 0 76 -82q0 -45 -25.5 -74.5t-78.5 -29.5q-80 0 -80 82z"/>
<glyph unicode="å" horiz-adv-x="978" d="M88 174q0 125 117 203t413 96v172q0 86 -34.5 131t-132.5 45q-88 0 -134 -20q-31 -63 -18 -119q-27 -16 -78 -31.5t-84 -15.5q-35 25 6 82q63 88 180 141t228 53q240 0 240 -249v-586h143q23 -23 4 -60l-244 -34l-39 24l-20 86q-176 -117 -313 -117q-111 0 -172.5 59.5 t-61.5 139.5zM272 207q0 -55 33 -92t98 -37q90 0 215 80v243q-346 -14 -346 -194zM324 1159q0 76 55 126t133 50q74 0 127 -48t53 -122q0 -78 -53 -128t-135 -50q-76 0 -128 49t-52 123zM408 1161q0 -109 98 -108q102 0 102 112q0 47 -25.5 77t-72.5 30q-45 0 -73.5 -32 t-28.5 -79z"/>
<glyph unicode="æ" horiz-adv-x="1505" d="M78 186q0 133 116.5 214t413.5 102v143q0 86 -34.5 131t-133.5 45q-88 0 -133 -20q-31 -63 -18 -119q-27 -16 -78 -31.5t-84 -15.5q-35 25 6 82q63 88 180 141t228 53q154 0 202 -137q139 135 334 135q156 0 247 -121.5t46 -318.5h-608q-8 -186 82 -283.5t229 -97.5 q129 0 266 88q39 -6 35 -49q-164 -154 -383 -154q-205 0 -319 156q-184 -154 -361 -154q-111 0 -172 63.5t-61 147.5zM262 219q0 -59 33 -100t98 -41q90 0 215 86v266q-346 -16 -346 -211zM764 528l434 25q16 98 -28 180t-144 82q-106 0 -177 -75t-85 -212z"/>
<glyph unicode="ç" horiz-adv-x="897" d="M88 391q0 217 150.5 367.5t347.5 150.5q82 0 156.5 -34.5t86.5 -69.5q10 -31 -22.5 -67t-75.5 -54q-127 115 -248 127q-111 -20 -171 -111.5t-60 -230.5q0 -172 92 -276.5t231 -104.5q104 0 222 70q12 0 24.5 -15.5t9.5 -33.5q-143 -129 -329 -136v-59q168 -23 168 -113 q0 -55 -69 -120.5t-195 -122.5q-12 0 -21.5 16t-9.5 35q147 78 147 141q0 53 -116 66l-11 34l62 125q-158 10 -263.5 118t-105.5 298z"/>
<glyph unicode="è" horiz-adv-x="995" d="M88 408q0 231 144.5 366t334.5 135q156 0 247 -121.5t46 -318.5h-608q-8 -186 82 -283.5t229 -97.5q129 0 266 88q39 -6 35 -49q-164 -154 -383 -154q-168 0 -280.5 110t-112.5 325zM254 528l434 25q16 98 -28 180t-144 82q-106 0 -177 -75t-85 -212zM281 1270 q0 33 29.5 64.5t68.5 31.5l256 -285q0 -25 -14.5 -41t-36.5 -16z"/>
<glyph unicode="é" horiz-adv-x="995" d="M88 408q0 231 144.5 366t334.5 135q156 0 247 -121.5t46 -318.5h-608q-8 -186 82 -283.5t229 -97.5q129 0 266 88q39 -6 35 -49q-164 -154 -383 -154q-168 0 -280.5 110t-112.5 325zM254 528l434 25q16 98 -28 180t-144 82q-106 0 -177 -75t-85 -212zM401 1079l256 285 q39 0 69 -32t30 -64l-303 -246q-23 0 -37.5 16t-14.5 41z"/>
<glyph unicode="ê" horiz-adv-x="995" d="M88 408q0 231 144.5 366t334.5 135q156 0 247 -121.5t46 -318.5h-608q-8 -186 82 -283.5t229 -97.5q129 0 266 88q39 -6 35 -49q-164 -154 -383 -154q-168 0 -280.5 110t-112.5 325zM254 528l434 25q16 98 -28 180t-144 82q-106 0 -177 -75t-85 -212zM266 1038l213 215 h103l209 -217q-10 -45 -62 -45l-205 160l-200 -160q-48 0 -58 47z"/>
<glyph unicode="ë" horiz-adv-x="995" d="M88 408q0 231 144.5 366t334.5 135q156 0 247 -121.5t46 -318.5h-608q-8 -186 82 -283.5t229 -97.5q129 0 266 88q39 -6 35 -49q-164 -154 -383 -154q-168 0 -280.5 110t-112.5 325zM254 528l434 25q16 98 -28 180t-144 82q-106 0 -177 -75t-85 -212zM283 1104 q0 104 108 104q76 0 76 -82q0 -104 -105 -104q-79 0 -79 82zM610 1104q0 104 109 104q76 0 76 -82q0 -45 -26 -74.5t-79 -29.5q-80 0 -80 82z"/>
<glyph unicode="ì" horiz-adv-x="620" d="M51 1270q0 33 30 64.5t69 31.5l256 -285q0 -25 -14.5 -41t-37.5 -16zM55 29.5q0 29.5 17 29.5q152 18 151 123v385q0 137 31 197l-176 20q-14 8 -15.5 33t9.5 33l319 49l25 -27q-20 -111 -21 -284v-518h146q12 -14 9 -36t-15 -34h-463q-17 0 -17 29.5z"/>
<glyph unicode="í" horiz-adv-x="620" d="M55 29.5q0 29.5 17 29.5q152 18 151 123v385q0 137 31 197l-176 20q-14 8 -15.5 33t9.5 33l319 49l25 -27q-20 -111 -21 -284v-518h146q12 -14 9 -36t-15 -34h-463q-17 0 -17 29.5zM166 1079l256 285q39 0 68.5 -32t29.5 -64l-303 -246q-23 0 -37 16t-14 41z"/>
<glyph unicode="î" horiz-adv-x="620" d="M37 1038l213 215h102l209 -217q-10 -45 -61 -45l-205 160l-201 -160q-47 0 -57 47zM55 29.5q0 29.5 17 29.5q152 18 151 123v385q0 137 31 197l-176 20q-14 8 -15.5 33t9.5 33l319 49l25 -27q-20 -111 -21 -284v-518h146q12 -14 9 -36t-15 -34h-463q-17 0 -17 29.5z"/>
<glyph unicode="ï" horiz-adv-x="620" d="M51 1104q0 104 109 104q76 0 76 -82q0 -104 -105 -104q-80 0 -80 82zM55 29.5q0 29.5 17 29.5q152 18 151 123v385q0 137 31 197l-176 20q-14 8 -15.5 33t9.5 33l319 49l25 -27q-20 -111 -21 -284v-518h146q12 -14 9 -36t-15 -34h-463q-17 0 -17 29.5zM379 1104 q0 104 108 104q76 0 76 -82q0 -45 -25.5 -74.5t-78.5 -29.5q-80 0 -80 82z"/>
<glyph unicode="ð" horiz-adv-x="1083" d="M78 430q0 205 132 343t306 138q57 0 120.5 -24.5t100.5 -67.5q-53 213 -241 361l-236 -166q-20 18 -26.5 44.5t-2.5 43.5l5 18l167 121q-127 72 -270 92q-4 6 -7 16.5t-3 18.5v6q0 29 8 41q199 -25 363 -110l260 186q29 -20 36 -47t1 -43l-9 -19l-194 -137 q180 -131 278.5 -329.5t104.5 -413.5q0 -248 -120 -389.5t-327 -141.5q-190 0 -318 127t-128 332zM262 496q0 -174 81 -311.5t216 -137.5q121 0 181.5 98.5t60.5 233.5q0 168 -77 311.5t-216 143.5q-104 0 -175 -88t-71 -250z"/>
<glyph unicode="ñ" horiz-adv-x="1157" d="M59 29.5q0 27.5 17 29.5q68 10 97.5 36t29.5 87v385q0 137 30 197l-157 18q-27 23 -10 66l274 51l25 -27v-120h10q184 158 352 157q115 0 184.5 -80.5t69.5 -230.5v-448q0 -47 -18 -80h141q25 -37 -8 -70h-404q-16 4 -16 31.5t16 27.5q117 12 117 123v381 q0 100 -51 154.5t-135 54.5q-123 0 -248 -106v-596h145q12 -14 10 -37t-16 -33h-438q-17 2 -17 29.5zM281 1094q2 18 9 43.5t45 68.5t95 43q68 0 199 -36.5t194 -36.5l58 79q16 0 27.5 -7t13.5 -15l4 -8q-2 -6 -6.5 -17.5t-18.5 -41t-30.5 -51t-43 -40t-57.5 -18.5 q-86 0 -211 34.5t-192 34.5l-43 -59z"/>
<glyph unicode="ò" horiz-adv-x="1107" d="M80 430q0 195 145.5 338t339.5 143q193 0 328 -124.5t135 -335.5q0 -197 -139 -338.5t-342 -141.5q-197 0 -332 122t-135 337zM264 492q0 -176 86 -304.5t230 -128.5q117 0 189.5 89.5t72.5 240.5q0 174 -89 304t-233 130q-113 0 -184.5 -90.5t-71.5 -240.5zM326 1270 q0 33 29.5 64.5t68.5 31.5l256 -285q0 -25 -14.5 -41t-36.5 -16z"/>
<glyph unicode="ó" horiz-adv-x="1107" d="M80 430q0 195 145.5 338t339.5 143q193 0 328 -124.5t135 -335.5q0 -197 -139 -338.5t-342 -141.5q-197 0 -332 122t-135 337zM264 492q0 -176 86 -304.5t230 -128.5q117 0 189.5 89.5t72.5 240.5q0 174 -89 304t-233 130q-113 0 -184.5 -90.5t-71.5 -240.5zM438 1079 l256 285q39 0 69 -32t30 -64l-304 -246q-23 0 -37 16t-14 41z"/>
<glyph unicode="ô" horiz-adv-x="1107" d="M80 430q0 195 145.5 338t339.5 143q193 0 328 -124.5t135 -335.5q0 -197 -139 -338.5t-342 -141.5q-197 0 -332 122t-135 337zM264 492q0 -176 86 -304.5t230 -128.5q117 0 189.5 89.5t72.5 240.5q0 174 -89 304t-233 130q-113 0 -184.5 -90.5t-71.5 -240.5zM311 1038 l213 215h103l209 -217q-10 -45 -62 -45l-205 160l-200 -160q-48 0 -58 47z"/>
<glyph unicode="õ" horiz-adv-x="1107" d="M80 430q0 195 145.5 338t339.5 143q193 0 328 -124.5t135 -335.5q0 -197 -139 -338.5t-342 -141.5q-197 0 -332 122t-135 337zM231 1094q2 18 9.5 43.5t45.5 68.5t95 43q68 0 199 -36.5t194 -36.5l57 79q16 0 27.5 -7t13.5 -15l5 -8q-2 -6 -6.5 -17.5t-18.5 -41 t-30.5 -51t-43 -40t-57.5 -18.5q-86 0 -211 34.5t-193 34.5l-43 -59zM264 492q0 -176 86 -304.5t230 -128.5q117 0 189.5 89.5t72.5 240.5q0 174 -89 304t-233 130q-113 0 -184.5 -90.5t-71.5 -240.5z"/>
<glyph unicode="ö" horiz-adv-x="1107" d="M80 430q0 195 145.5 338t339.5 143q193 0 328 -124.5t135 -335.5q0 -197 -139 -338.5t-342 -141.5q-197 0 -332 122t-135 337zM264 492q0 -176 86 -304.5t230 -128.5q117 0 189.5 89.5t72.5 240.5q0 174 -89 304t-233 130q-113 0 -184.5 -90.5t-71.5 -240.5zM324 1104 q0 104 108 104q76 0 76 -82q0 -104 -105 -104q-79 0 -79 82zM651 1104q0 104 109 104q76 0 76 -82q0 -45 -26 -74.5t-79 -29.5q-80 0 -80 82z"/>
<glyph unicode="÷" d="M137 350v90h791v-90h-791zM438 72q0 39 28 66.5t66.5 27.5t66.5 -27.5t28 -66.5t-28 -67t-66.5 -28t-66.5 28t-28 67zM438 719q0 39 28 66.5t66.5 27.5t66.5 -27.5t28 -66.5t-28 -66.5t-66.5 -27.5t-66.5 27.5t-28 66.5z"/>
<glyph unicode="ø" horiz-adv-x="1067" d="M80 430q0 209 134 345t331 136q139 0 252 -77l71 94q35 -12 54 -37l-74 -100q139 -135 139 -340q0 -209 -129 -344.5t-332 -135.5q-135 0 -239 64l-58 -76q-41 2 -55 37l59 78q-153 131 -153 356zM262 495.5q0 -163.5 68 -290.5l383 514q-84 123 -203 123 q-104 0 -176 -91.5t-72 -255zM367 145q80 -106 194 -106q121 0 182.5 102.5t61.5 237.5q0 150 -57 276z"/>
<glyph unicode="ù" horiz-adv-x="1146" d="M34 813.5q-1 20.5 9 36.5l287 49l22 -27q-20 -111 -20 -284v-277q0 -205 184 -205q121 0 248 109v379q0 102 33 164l-172 24q-27 27 -4 68l313 49l24 -27q-23 -121 -22 -284v-512h151q23 -23 5 -60l-291 -34l-27 30v117h-10q-184 -158 -350 -158q-254 0 -254 314v309 q0 106 30 164l-143 24q-12 11 -13 31.5zM293 1270q0 33 29.5 64.5t68.5 31.5l256 -285q0 -25 -14.5 -41t-36.5 -16z"/>
<glyph unicode="ú" horiz-adv-x="1146" d="M34 813.5q-1 20.5 9 36.5l287 49l22 -27q-20 -111 -20 -284v-277q0 -205 184 -205q121 0 248 109v379q0 102 33 164l-172 24q-27 27 -4 68l313 49l24 -27q-23 -121 -22 -284v-512h151q23 -23 5 -60l-291 -34l-27 30v117h-10q-184 -158 -350 -158q-254 0 -254 314v309 q0 106 30 164l-143 24q-12 11 -13 31.5zM408 1079l256 285q39 0 68.5 -32t29.5 -64l-303 -246q-23 0 -37 16t-14 41z"/>
<glyph unicode="û" horiz-adv-x="1146" d="M34 813.5q-1 20.5 9 36.5l287 49l22 -27q-20 -111 -20 -284v-277q0 -205 184 -205q121 0 248 109v379q0 102 33 164l-172 24q-27 27 -4 68l313 49l24 -27q-23 -121 -22 -284v-512h151q23 -23 5 -60l-291 -34l-27 30v117h-10q-184 -158 -350 -158q-254 0 -254 314v309 q0 106 30 164l-143 24q-12 11 -13 31.5zM281 1038l213 215h102l209 -217q-10 -45 -62 -45l-204 160l-201 -160q-47 0 -57 47z"/>
<glyph unicode="ü" horiz-adv-x="1146" d="M34 813.5q-1 20.5 9 36.5l287 49l22 -27q-20 -111 -20 -284v-277q0 -205 184 -205q121 0 248 109v379q0 102 33 164l-172 24q-27 27 -4 68l313 49l24 -27q-23 -121 -22 -284v-512h151q23 -23 5 -60l-291 -34l-27 30v117h-10q-184 -158 -350 -158q-254 0 -254 314v309 q0 106 30 164l-143 24q-12 11 -13 31.5zM291 1104q0 104 108 104q76 0 76 -82q0 -104 -104 -104q-80 0 -80 82zM618 1104q0 104 109 104q76 0 76 -82q0 -45 -25.5 -74.5t-79.5 -29.5q-80 0 -80 82z"/>
<glyph unicode="ý" horiz-adv-x="950" d="M-17 841.5q-1 14.5 5 28t16 13.5h424q10 -10 9 -29.5t-13 -32.5l-141 -14l209 -563q18 -51 30 -105h4l242 668l-115 14q-10 10 -10 29.5t8 32.5h289q16 0 18.5 -26t-12.5 -30q-43 -8 -63.5 -32.5t-48.5 -94.5l-271 -643q-166 -397 -188 -606q-123 -29 -180 21 q29 78 117.5 232.5t129.5 252.5q-223 551 -270 666q-78 199 -178 204q-10 0 -11 14.5zM467 1079l256 285q39 0 68.5 -32t29.5 -64l-303 -246q-23 0 -37 16t-14 41z"/>
<glyph unicode="þ" horiz-adv-x="1114" d="M43 1434l328 98l24 -27q-31 -104 -30 -284v-316q0 -82 -15 -190h15q94 195 325 194q137 0 242.5 -106.5t105.5 -315.5q0 -139 -47 -244.5t-122.5 -161.5t-153.5 -83t-154 -27q-106 0 -196 43v-383q0 -45 -23 -75h227q25 -37 -8 -70h-495q-10 0 -14.5 14.5t-0.5 29.5 t15 15q68 10 98.5 36t30.5 87v1534q0 104 30 164h-172q-24 23 -10 68zM365 236q25 -80 95 -133.5t140 -53.5q41 0 83 16.5t88 55.5t74.5 117.5t28.5 187.5q0 166 -74.5 259t-201.5 93q-174 0 -233 -209v-333z"/>
<glyph unicode="ÿ" horiz-adv-x="950" d="M-17 841.5q-1 14.5 5 28t16 13.5h424q10 -10 9 -29.5t-13 -32.5l-141 -14l209 -563q18 -51 30 -105h4l242 668l-115 14q-10 10 -10 29.5t8 32.5h289q16 0 18.5 -26t-12.5 -30q-43 -8 -63.5 -32.5t-48.5 -94.5l-271 -643q-166 -397 -188 -606q-123 -29 -180 21 q29 78 117.5 232.5t129.5 252.5q-223 551 -270 666q-78 199 -178 204q-10 0 -11 14.5zM281 1104q0 104 108 104q76 0 76 -82q0 -104 -105 -104q-79 0 -79 82zM608 1104q0 104 109 104q76 0 76 -82q0 -45 -26 -74.5t-79 -29.5q-80 0 -80 82z"/>
<glyph unicode="Œ" horiz-adv-x="2072" d="M80 635q0 301 203.5 498.5t498.5 197.5q209 0 375 -108v86h772l-10 -277q-27 -31 -61 0l-11 127q-98 82 -276 82q-121 0 -234 -10v-494q96 -8 248 -8q141 0 176 51l23 82q31 27 61 0l-12 -368q-10 -10 -29.5 -10.5t-29.5 10.5l-13 104q-31 55 -186 55q-131 0 -238 -12 v-561q125 -14 281 -14q213 0 285 120l43 123q14 16 35.5 15.5t31.5 -23.5l-51 -309q-156 8 -389 8h-416v84q-170 -113 -401 -113q-291 0 -483.5 183.5t-192.5 480.5zM293 733q0 -172 51 -323.5t170 -258t285 -106.5q109 0 208 57.5t150 145.5v747q-41 121 -154.5 191.5 t-261.5 70.5q-190 0 -319 -138t-129 -386z"/>
<glyph unicode="œ" horiz-adv-x="1683" d="M80 430q0 195 136 338t321 143q106 0 201.5 -49t154.5 -139q70 90 171 138t210 48q156 0 247 -121.5t46 -318.5h-609q-8 -186 82 -283.5t230 -97.5q129 0 266 88q39 -6 35 -49q-164 -154 -383 -154q-221 0 -328 166q-137 -168 -342 -168q-184 0 -311 122t-127 337z M266 434q14 -168 96 -275.5t211 -99.5q109 6 175.5 110.5t50.5 276.5q-14 166 -101.5 275.5t-208.5 101.5q-106 -6 -172.5 -112.5t-50.5 -276.5zM961 528l434 25q16 98 -28 180t-144 82q-106 0 -177 -75t-85 -212z"/>
<glyph unicode="Ÿ" horiz-adv-x="1423" d="M98 1276.5q2 19.5 15 32.5h516q12 -12 10 -32t-14 -32l-170 -14l342 -567l305 565l-172 16q-12 10 -11 30.5t13 33.5h395q12 -12 11 -32t-13 -32q-61 -4 -95 -23.5t-71 -78.5l-328 -559v-496l175 -20q12 -12 13 -35t-13 -33h-533q-14 10 -13 32.5t13 35.5 q109 4 139.5 22.5t30.5 83.5v397l-346 559q-39 61 -76 83t-112 32q-13 12 -11 31.5zM537 1491q0 104 108 104q76 0 76 -82q0 -104 -105 -104q-79 0 -79 82zM864 1491q0 104 109 104q76 0 76 -82q0 -45 -26 -74.5t-79 -29.5q-80 0 -80 82z"/>
<glyph unicode="ˆ" horiz-adv-x="591" d="M37 1038l213 215h102l209 -217q-10 -45 -61 -45l-205 160l-201 -160q-47 0 -57 47z"/>
<glyph unicode="˜" horiz-adv-x="753" d="M53 1094q2 18 9.5 43.5t45 68.5t95.5 43q68 0 198.5 -36.5t194.5 -36.5l57 79q16 0 27.5 -7t15.5 -15l2 -8q-2 -6 -6 -17.5t-18.5 -41t-30.5 -51t-43 -40t-57 -18.5q-86 0 -211 34.5t-193 34.5l-43 -59z"/>
<glyph unicode=" " horiz-adv-x="878"/>
<glyph unicode=" " horiz-adv-x="1757"/>
<glyph unicode=" " horiz-adv-x="878"/>
<glyph unicode=" " horiz-adv-x="1757"/>
<glyph unicode=" " horiz-adv-x="585"/>
<glyph unicode=" " horiz-adv-x="438"/>
<glyph unicode=" " horiz-adv-x="292"/>
<glyph unicode=" " horiz-adv-x="292"/>
<glyph unicode=" " horiz-adv-x="219"/>
<glyph unicode=" " horiz-adv-x="350"/>
<glyph unicode=" " horiz-adv-x="96"/>
<glyph unicode="‐" horiz-adv-x="718" d="M94 471q0 35 12.5 58.5t24.5 27.5l10 6h492q0 -37 -11.5 -59.5t-23.5 -28.5l-10 -4h-494z"/>
<glyph unicode="‑" horiz-adv-x="718" d="M94 471q0 35 12.5 58.5t24.5 27.5l10 6h492q0 -37 -11.5 -59.5t-23.5 -28.5l-10 -4h-494z"/>
<glyph unicode="‒" horiz-adv-x="718" d="M94 471q0 35 12.5 58.5t24.5 27.5l10 6h492q0 -37 -11.5 -59.5t-23.5 -28.5l-10 -4h-494z"/>
<glyph unicode="–" horiz-adv-x="1177" d="M143 526q0 102 47 123h859q0 -49 -11.5 -79.5t-21.5 -37.5l-12 -6h-861z"/>
<glyph unicode="—" horiz-adv-x="1710" d="M143 526q0 102 47 123h1373q0 -49 -11.5 -79.5t-23.5 -37.5l-10 -6h-1375z"/>
<glyph unicode="‘" horiz-adv-x="378" d="M51 1061q0 221 219 418q23 0 40.5 -14.5t17.5 -32.5q-119 -145 -119 -215q0 -43 39 -64l2 -2q53 -33 53 -86q0 -45 -36 -81t-99 -36q-117 0 -117 113z"/>
<glyph unicode="’" horiz-adv-x="378" d="M51 997q119 145 119 215q0 43 -39 64l-2 2q-53 33 -53 86q0 45 35.5 81t99.5 36q117 0 117 -113q0 -221 -219 -418q-23 0 -40.5 14.5t-17.5 32.5z"/>
<glyph unicode="‚" horiz-adv-x="460" d="M102 -279q119 145 119 216q0 43 -39 63l-2 2q-53 33 -53 86q0 45 36 81t99 36q117 0 117 -113q0 -221 -219 -418q-23 0 -40.5 14.5t-17.5 32.5z"/>
<glyph unicode="“" horiz-adv-x="739" d="M51 1061q0 221 219 418q23 0 40.5 -14.5t17.5 -32.5q-119 -145 -119 -215q0 -43 39 -64l2 -2q53 -33 53 -86q0 -45 -36 -81t-99 -36q-117 0 -117 113zM412 1061q0 221 219 418q23 0 40 -14.5t17 -32.5q-119 -145 -119 -215q0 -43 39 -64l2 -2q53 -33 54 -86 q0 -45 -36 -81t-100 -36q-116 0 -116 113z"/>
<glyph unicode="”" horiz-adv-x="739" d="M51 997q119 145 119 215q0 43 -39 64l-2 2q-53 33 -53 86q0 45 35.5 81t99.5 36q117 0 117 -113q0 -221 -219 -418q-23 0 -40.5 14.5t-17.5 32.5zM412 997q119 145 118 215q0 43 -38 64l-3 2q-53 33 -53 86q0 45 36 81t99 36q117 0 117 -113q0 -221 -219 -418 q-23 0 -40 14.5t-17 32.5z"/>
<glyph unicode="„" horiz-adv-x="755" d="M102 -279q119 145 119 216q0 43 -39 63l-2 2q-53 33 -53 86q0 45 36 81t99 36q117 0 117 -113q0 -221 -219 -418q-23 0 -40.5 14.5t-17.5 32.5zM463 -279q119 145 119 216q0 43 -39 63l-2 2q-53 33 -54 86q0 45 36 81t100 36q117 0 116 -113q0 -221 -219 -418 q-23 0 -40 14.5t-17 32.5z"/>
<glyph unicode="•" horiz-adv-x="618" d="M131 618q0 12 4 22.5t8 14.5l2 7l93 26l26 105q20 12 49 12l45 -12l25 -105l94 -26q10 -12 10 -39q0 -16 -2 -28.5t-6 -16.5l-2 -7l-94 -24l-25 -119q-14 -14 -43 -14q-14 0 -26.5 4t-18.5 8l-6 2l-26 119l-93 24q-14 16 -14 47z"/>
<glyph unicode="…" horiz-adv-x="2048" d="M211 68q0 137 147 137q104 0 105 -113q0 -57 -35 -97t-106 -40q-111 0 -111 113zM897 68q0 137 147 137q104 0 105 -113q0 -57 -35 -97t-106 -40q-111 0 -111 113zM1583 68q0 137 148 137q104 0 104 -113q0 -57 -35 -97t-106 -40q-111 0 -111 113z"/>
<glyph unicode=" " horiz-adv-x="350"/>
<glyph unicode="‹" horiz-adv-x="536" d="M78 553q0 29 328 264q45 -6 45 -76l-220 -172l220 -200q0 -25 -17.5 -54.5t-40.5 -31.5q-315 239 -315 270z"/>
<glyph unicode="›" horiz-adv-x="536" d="M94 360l219 172l-219 201q0 25 17.5 54.5t40.5 31.5q315 -240 315 -270q0 -29 -328 -264q-45 5 -45 75z"/>
<glyph unicode=" " horiz-adv-x="438"/>
<glyph unicode="€" d="M29 483l10 33h133q-6 68 2 123h-76q-12 14 -12 33q0 10 3 19t5 14l4 4h88q39 213 191.5 349t347.5 136q53 0 96 -9t59.5 -17.5t55.5 -28.5l14 26q12 10 31.5 6t28.5 -20l-29 -258q-23 -29 -47 0l-6 68q-6 51 -59.5 108t-149.5 57q-123 0 -217 -111.5t-117 -305.5h545 q8 -10 8 -35l-8 -35h-549q-6 -63 2 -123h498q10 -10 10 -33l-10 -34h-492q25 -180 107 -291t233 -111q45 0 87 11.5t67.5 27.5t46 33.5t28.5 27.5l9 13l26 86q29 23 41 -17q-16 -178 -53 -204q-59 -45 -322 -45q-193 0 -322.5 125.5t-158.5 343.5h-139q-10 11 -10 34z"/>
<glyph unicode="™" horiz-adv-x="1802" d="M41 1116l25 213q6 6 20 6q20 0 31 -12l4 -31l299 -4q276 0 309 4l12 37q18 6 21 6q20 0 31 -12l-25 -213q-6 -6 -18 -6q-20 0 -33 12l4 80q-8 14 -43 21.5t-66 7.5l-30 2h-101v-609l111 -14q10 -6 10 -26q0 -18 -10 -25h-352q-8 6 -9 25q0 20 9 26q74 2 92 14.5t18 59.5 v549h-90q-119 0 -149 -31l-19 -86q-6 -6 -16 -6q-19 0 -35 12zM838 578q0 20 10 26q57 2 71.5 22.5t14.5 94.5v477q0 29 -15.5 39t-70.5 14q-10 10 -10 26.5t10 27.5h248l264 -572q86 190 244 572h229q10 -10 10 -26.5t-10 -27.5l-86 -10v-625l86 -12q10 -6 10 -26 q0 -18 -10 -25h-305q-8 6 -8 25q0 20 8 26q55 2 71.5 13.5t16.5 37.5v500l-277 -612q-12 -8 -18 -8q-8 0 -16 8l-301 628v-559l114 -8q8 -6 8 -26q0 -18 -8 -25h-270q-10 7 -10 25z"/>
<glyph unicode="" horiz-adv-x="885" d="M0 885h885v-885h-885v885z"/>
<glyph unicode="ﬁ" horiz-adv-x="1196" d="M57 33.5q2 25.5 21 25.5q76 0 112.5 26t36.5 97v602h-121q-10 10 -10 24.5t10 22.5q84 18 121 52v129q0 156 85 275.5t197 175t220 55.5q90 0 155.5 -43t65.5 -97q0 -113 -123 -112q-39 47 -101 90t-126 59q-98 -35 -148.5 -116.5t-50.5 -241.5v-199h213q229 0 371 41 l25 -27q-20 -111 -21 -284v-518h146q12 -14 9 -36t-16 -34h-421q-10 0 -14.5 14.5t-0.5 29.5t15 15q63 8 86.5 35t23.5 88v389q0 137 31 197q-106 16 -236 16h-211v-714h142q12 -14 10 -37t-16 -33h-465q-17 8 -15 33.5z"/>
<glyph unicode="ﬂ" horiz-adv-x="1214" d="M57 33.5q2 25.5 21 25.5q76 0 112.5 26t36.5 97v602h-121q-10 10 -10 24.5t10 22.5q84 18 121 52v129q0 213 148.5 359.5t312.5 146.5q90 0 150 -43l192 57l25 -27q-35 -113 -35 -284v-1078q0 -57 -27 -73h160q10 -16 8 -37t-14 -33h-408q-16 0 -16 29.5t16 29.5 q106 12 109 127v1129q-133 76 -268 100q-100 -31 -139.5 -116t-39.5 -242v-199h215q14 -8 14.5 -32.5t-14.5 -41.5h-215v-714h183q12 -14 10 -37t-16 -33h-506q-17 8 -15 33.5z"/>
<glyph unicode="ﬃ" horiz-adv-x="1763" d="M47 33.5q2 25.5 21 25.5q76 0 112.5 26t36.5 97v602h-121q-10 10 -10 24.5t10 22.5q84 18 121 52v94q0 211 137.5 358.5t282.5 147.5q55 0 100 -22.5t51 -57.5q4 -27 -27.5 -72t-66.5 -59q-90 80 -166 108q-74 -31 -105.5 -116.5t-31.5 -241.5v-164h414v154 q0 156 85 275.5t196.5 175t220.5 55.5q90 0 155.5 -43t65.5 -97q0 -113 -123 -112q-39 47 -101.5 90t-125.5 59q-98 -35 -148.5 -116.5t-50.5 -241.5v-199h203q229 0 370 41l25 -27q-20 -111 -21 -284v-518h146q12 -14 9 -36t-15 -34h-422q-10 0 -14.5 14.5t0 29.5t14.5 15 q63 8 86.5 35t23.5 88v389q0 137 31 197q-106 16 -235 16h-201v-714h141q12 -14 10 -37t-16 -33h-424q-16 8 -14 33.5t20 25.5q59 0 84 26t25 97v602h-414v-714h162q12 -14 10 -37t-16 -33h-486q-16 8 -14 33.5z"/>
<glyph unicode="ﬄ" horiz-adv-x="1792" d="M47 33.5q2 25.5 21 25.5q76 0 112.5 26t36.5 97v602h-121q-10 10 -10 24.5t10 22.5q84 18 121 52v94q0 211 137.5 358.5t282.5 147.5q55 0 100 -22.5t51 -57.5q4 -27 -27.5 -72t-66.5 -59q-90 80 -166 108q-74 -31 -105.5 -116.5t-31.5 -241.5v-164h414v154 q0 213 148.5 359.5t312.5 146.5q90 0 149 -43l193 57l24 -27q-35 -113 -35 -284v-1078q0 -57 -26 -73h160q10 -16 8 -37t-15 -33h-407q-16 0 -16.5 29.5t16.5 29.5q106 12 108 127v1129q-133 76 -268 100q-100 -31 -139 -116t-39 -242v-199h215q14 -8 14 -32.5t-14 -41.5 h-215v-714h182q12 -14 10 -37t-16 -33h-465q-16 8 -14 33.5t20 25.5q59 0 84 26t25 97v602h-414v-714h162q12 -14 10 -37t-16 -33h-486q-16 8 -14 33.5z"/>
<glyph horiz-adv-x="456"/>
</font>
</defs>
</svg>
